<?xml version="1.0" encoding="utf-8"?>
<!-- Generator: Adobe Illustrator 22.1.0, SVG Export Plug-In . SVG Version: 6.00 Build 0)  -->
<svg version="1.1" id="Layer_1" xmlns="http://www.w3.org/2000/svg" xmlns:xlink="http://www.w3.org/1999/xlink" x="0px" y="0px"
	 viewBox="0 0 48 48" style="enable-background:new 0 0 48 48;" xml:space="preserve">
<style type="text/css">
	.st0{fill:#33404A;}
	.st1{fill:#82888a;}
	.st2{fill:#bfc3c4;}
	.st3{fill:#FFFFFF;}
</style>
<g id="XMLID_2070_">
	<path id="XMLID_2086_" class="st0" d="M24,3.2L0,44.8h48L24,3.2z M24,8.3l19.6,33.9H4.4L24,8.3z"/>
	<polygon id="XMLID_2082_" class="st1" points="43.6,42.2 4.4,42.2 24,8.3 	"/>
	<polygon id="XMLID_2080_" class="st2" points="24,42.2 24,8.3 4.4,42.2 	"/>
	<g id="XMLID_2072_">
		<path id="XMLID_2076_" class="st3" d="M21.9,38c-0.5-0.5-0.8-1.1-0.8-1.9c0-0.8,0.3-1.4,0.8-1.9s1.3-0.7,2.1-0.7
			c0.9,0,1.6,0.2,2.1,0.7s0.8,1.1,0.8,1.9c0,0.7-0.3,1.3-0.8,1.8c-0.5,0.5-1.2,0.7-2.1,0.7C23.1,38.7,22.4,38.5,21.9,38z M26.7,19.5
			l-0.6,12.2h-4.3l-0.6-12.2H26.7z"/>
	</g>
</g>
</svg>
