<svg xmlns="http://www.w3.org/2000/svg" viewBox="0 0 22.019 22.019">
  <g transform="translate(22.019 22.019) rotate(180)">
    <path d="M11.009,0A11.009,11.009,0,1,0,22.019,11.009,11.022,11.022,0,0,0,11.009,0Zm0,20.017a9.008,9.008,0,1,1,9.008-9.008A9.018,9.018,0,0,1,11.009,20.017Z"/>
    <path d="M146.336,70a1.334,1.334,0,1,0,1.334,1.335A1.336,1.336,0,0,0,146.336,70Z" transform="translate(-135.327 -65.329)"/>
    <path d="M151,140a1,1,0,0,0-1,1v6.005a1,1,0,0,0,2,0V141A1,1,0,0,0,151,140Z" transform="translate(-139.992 -130.659)"/>
  </g>
</svg>
