<svg xmlns="http://www.w3.org/2000/svg" viewBox="0 0 21.022 21.022">
  <g transform="translate(0.15 0.15)">
    <path d="M9.147,352H.809a.809.809,0,0,0-.809.809v4.857a.809.809,0,0,0,.809.809H9.147a.809.809,0,0,0,.809-.809v-4.857A.809.809,0,0,0,9.147,352Zm-.809,4.857H1.619v-3.238H8.337Z" transform="translate(0 -337.754)"/>
    <path d="M9.147,0H.809A.809.809,0,0,0,0,.809V12.628a.809.809,0,0,0,.809.809H9.147a.809.809,0,0,0,.809-.809V.809A.809.809,0,0,0,9.147,0ZM8.337,11.818H1.619V1.619H8.337Z"/>
    <path d="M275.147,0h-8.337A.809.809,0,0,0,266,.809V5.666a.809.809,0,0,0,.809.809h8.337a.809.809,0,0,0,.809-.809V.809A.809.809,0,0,0,275.147,0Zm-.809,4.857h-6.718V1.619h6.718Z" transform="translate(-255.234)"/>
    <path d="M275.147,180h-8.337a.809.809,0,0,0-.809.809v11.818a.809.809,0,0,0,.809.809h8.337a.809.809,0,0,0,.809-.809V180.809A.809.809,0,0,0,275.147,180Zm-.809,11.818h-6.718v-10.2h6.718Z" transform="translate(-255.234 -172.715)"/>
  </g>
</svg>
