<svg xmlns="http://www.w3.org/2000/svg" viewBox="0 0 48.897 32.351">
  <path d="M40.73,23.352l1.8,4.667L31.4,23.67,30.441,12.64l.318-.849-1.379-.424-9.652,2.864L11.986,10.2,0,23.67l16.44,7.106,14-5.2,15.91,6.152L42.745,22.5ZM20.471,16.14l7.955-2.44.849,9.97L17.819,27.913ZM12.41,12.852l5.94,3.076L15.7,28.125l-12.2-5.3Z" transform="translate(0 0.619)"/>
  <path d="M39.237,3H35.1v9.97h2.121V9.788h2.015a3.288,3.288,0,0,0,3.5-3.288A3.329,3.329,0,0,0,39.237,3Zm0,4.773H37.221V5.121h2.015A1.215,1.215,0,0,1,40.509,6.5C40.615,6.818,40.509,7.773,39.237,7.773Z" transform="translate(2.129 0.182)"/>
  <path d="M43.658,0H33.794A3.351,3.351,0,0,0,30.4,3.394v9.864a3.351,3.351,0,0,0,3.394,3.394h1.061L38.673,22.7l3.818-6.046h1.167a3.351,3.351,0,0,0,3.394-3.394V3.394A3.351,3.351,0,0,0,43.658,0Zm1.273,13.258a1.225,1.225,0,0,1-1.273,1.273H41.325l-2.652,4.137-2.652-4.137H33.794a1.225,1.225,0,0,1-1.273-1.273V3.394a1.225,1.225,0,0,1,1.273-1.273h9.864a1.29,1.29,0,0,1,1.273,1.273Z" transform="translate(1.844)"/>
</svg>
