<svg xmlns="http://www.w3.org/2000/svg" viewBox="0 0 22.217 22.217">
  <g transform="translate(0 0)">
    <path d="M20.727,5.532A11.062,11.062,0,0,0,16.685,1.49,10.866,10.866,0,0,0,11.109,0,10.866,10.866,0,0,0,5.533,1.49,11.059,11.059,0,0,0,1.49,5.532,10.866,10.866,0,0,0,0,11.108a10.868,10.868,0,0,0,1.49,5.576,11.062,11.062,0,0,0,4.043,4.043,10.867,10.867,0,0,0,5.576,1.49,10.867,10.867,0,0,0,5.576-1.49,11.059,11.059,0,0,0,4.043-4.043,10.868,10.868,0,0,0,1.49-5.576A10.868,10.868,0,0,0,20.727,5.532Zm-1.1,9.17A9.126,9.126,0,0,1,14.7,19.627a9.124,9.124,0,0,1-7.189,0A9.126,9.126,0,0,1,2.589,14.7a9.125,9.125,0,0,1,0-7.189A9.127,9.127,0,0,1,7.514,2.589a9.127,9.127,0,0,1,7.189,0,9.127,9.127,0,0,1,4.925,4.925,9.124,9.124,0,0,1,0,7.189Z" transform="translate(0 0)"/>
    <path d="M80.5,73.085a7.408,7.408,0,1,0,5.236,2.17A7.135,7.135,0,0,0,80.5,73.085Zm3.927,11.333a5.552,5.552,0,1,1,1.627-3.927A5.351,5.351,0,0,1,84.425,84.418Z" transform="translate(-69.389 -69.382)"/>
    <path d="M149.884,146.178a3.7,3.7,0,1,0,2.618,1.085A3.568,3.568,0,0,0,149.884,146.178Z" transform="translate(-138.775 -138.772)"/>
  </g>
</svg>
