<?xml version="1.0" encoding="utf-8"?>
<!-- Generator: Adobe Illustrator 19.0.0, SVG Export Plug-In . SVG Version: 6.00 Build 0)  -->
<svg version="1.1" id="Layer_1" xmlns="http://www.w3.org/2000/svg" xmlns:xlink="http://www.w3.org/1999/xlink" x="0px" y="0px"
	 viewBox="0 0 32 32" style="enable-background:new 0 0 32 32;" xml:space="preserve">
<style type="text/css">
	.st0{fill:#FFFFFF;}
</style>
<g id="XMLID_16_">
	<rect id="XMLID_50_" x="20.5" y="4" class="st0" width="2" height="3.2"/>
	<path id="XMLID_21_" class="st0" d="M29.3,8.8c-0.2-0.6-0.9-1.1-1.5-1.1h-5.3V4h3.3V3h-4.3h-4.3V4h3.3v3.7h-5.3
		c-0.6,0-1.3,0.4-1.5,1.1l-2.2,6.4v12.7c0,0.6,0.4,1.1,1.1,1.1h1.1c0.6,0,1.1-0.4,1.1-1.1v-1.1h6.8h6.8v1.1c0,0.6,0.4,1.1,1.1,1.1
		h1.1c0.6,0,1.1-0.4,1.1-1.1V15.2L29.3,8.8z M15.2,23.6c-0.9,0-1.6-0.8-1.6-1.6c0-0.9,0.8-1.6,1.6-1.6c0.9,0,1.6,0.8,1.6,1.6
		C16.8,22.9,16.1,23.6,15.2,23.6z M27.8,23.6c-0.9,0-1.6-0.8-1.6-1.6c0-0.9,0.8-1.6,1.6-1.6c0.9,0,1.6,0.8,1.6,1.6
		C29.4,22.9,28.6,23.6,27.8,23.6z M21.5,14.1h-7.9l1.6-4.8h6.3h6.3l1.6,4.8H21.5z"/>
	<g id="XMLID_17_">
		<path id="XMLID_18_" class="st0" d="M9.5,14.9l0.3-0.7H2.6l1.6-4.8h6.3h0.9l0.4-1.2c0-0.1,0.1-0.3,0.2-0.4h-0.5V4h3.3V3h-4.3H6.2
			V4h3.3v3.7H4.2C3.6,7.7,3,8.1,2.7,8.8l-2.2,6.4v12.7c0,0.6,0.4,1.1,1.1,1.1h1.1c0.6,0,1.1-0.4,1.1-1.1v-1.1h5.8V14.9z M4.2,23.6
			c-0.9,0-1.6-0.8-1.6-1.6c0-0.9,0.8-1.6,1.6-1.6c0.9,0,1.6,0.8,1.6,1.6C5.9,22.9,5.1,23.6,4.2,23.6z"/>
	</g>
</g>
</svg>
