<?xml version="1.0" encoding="utf-8"?>
<!-- Generator: Adobe Illustrator 19.0.0, SVG Export Plug-In . SVG Version: 6.00 Build 0)  -->
<svg version="1.1" id="Layer_1" xmlns="http://www.w3.org/2000/svg" xmlns:xlink="http://www.w3.org/1999/xlink" x="0px" y="0px"
	 viewBox="0 0 32 32" style="enable-background:new 0 0 32 32;" xml:space="preserve">
<style type="text/css">
	.st0{fill:#FFFFFF;}
</style>
<path id="XMLID_13_" class="st0" d="M31.3,3.4h-4.3v2l0,0.2H5.1l0-0.2v-2H0.8v2l3.7,21.5c-0.8,0.1-1.4,0.4-1.4,0.8
	c0,0.5,1,0.9,2.2,0.9c1.2,0,2.2-0.4,2.2-0.9c0-0.4-0.6-0.7-1.4-0.8L5.5,15.7h20.9L26,26.9c-0.8,0.1-1.4,0.4-1.4,0.8
	c0,0.5,1,0.9,2.2,0.9c1.2,0,2.2-0.4,2.2-0.9c0-0.4-0.5-0.7-1.3-0.8l3.7-21.5V3.4z M5.2,7.4l0-1h2.3v1C6.8,8.6,5.9,9.8,5.3,11
	C5.2,9.8,5.2,8.6,5.2,7.4z M6.1,15.1c-0.1,0-0.1,0-0.2,0H5.5l0-0.7l0.4-0.8l0,0c1-2.1,2.1-4.1,3.3-6.2v-1h2.2v1
	c-1.5,2.6-2.9,5.1-4.1,7.7C6.9,15.1,6.5,15.1,6.1,15.1z M8.9,15.1c1.3-2.6,2.7-5.1,4.2-7.7v-1h2.3v1c-1.5,2.6-3,5.1-4.4,7.7
	C10.3,15.1,9.6,15.1,8.9,15.1z M12.6,15.1c1.4-2.6,2.9-5.1,4.5-7.7v-1h2.2v1c-1.6,2.6-3.2,5.1-4.6,7.7C14,15.1,13.3,15.1,12.6,15.1z
	 M16.3,15.1c1.5-2.6,3-5.1,4.7-7.7h0v-1h2.3v1c-1.7,2.6-3.3,5.1-4.8,7.7C17.7,15.1,17,15.1,16.3,15.1z M26.5,15.1
	c-0.8,0-1.8,0-2.7,0c0.9-1.4,1.9-2.9,2.9-4.3C26.6,12.2,26.6,13.7,26.5,15.1z M26.8,7.4c0,0.2,0,0.4,0,0.5c-1.6,2.4-3.2,4.8-4.7,7.1
	c-0.7,0-1.4,0-2.1,0c1.6-2.6,3.2-5.1,4.9-7.7v-1h1.9L26.8,7.4z"/>
</svg>
