<?xml version="1.0" encoding="utf-8"?>
<!-- Generator: Adobe Illustrator 19.0.0, SVG Export Plug-In . SVG Version: 6.00 Build 0)  -->
<svg version="1.1" id="Layer_1" xmlns="http://www.w3.org/2000/svg" xmlns:xlink="http://www.w3.org/1999/xlink" x="0px" y="0px"
	 viewBox="-729 739 24 24" style="enable-background:new -729 739 24 24;" xml:space="preserve">
<style type="text/css">
	.st0{fill:#FFFFFF;}
</style>
<g id="XMLID_2_">
	<path id="XMLID_25_" class="st0" d="M-710.8,753.9c-1.2-0.7-4.2-1.6-4.2-2.8c0-1.1,1.6-1.7,1.6-2.8s0-1.5,0-2.8c0-1.4-1-3-2.1-3
		s-1.4,0-1.4,0s-0.3,0-1.4,0s-2.1,1.6-2.1,3s0,1.8,0,2.8s1.6,1.6,1.6,2.8c0,1.3-3,2.3-4.2,2.8c-1.2,0.7-1,7-1,8.1h7.1h7.3
		C-709.7,761-709.6,754.6-710.8,753.9z"/>
	<g id="XMLID_3_">
		<path id="XMLID_4_" class="st0" d="M-705,763h-24v-24h24V763z M-727.5,761.5h21v-21h-21V761.5z"/>
	</g>
</g>
</svg>
