<?xml version="1.0" encoding="utf-8"?>
<!-- Generator: Adobe Illustrator 19.0.0, SVG Export Plug-In . SVG Version: 6.00 Build 0)  -->
<svg version="1.1" id="Layer_1" xmlns="http://www.w3.org/2000/svg" xmlns:xlink="http://www.w3.org/1999/xlink" x="0px" y="0px"
	 viewBox="0 0 24 24" style="enable-background:new 0 0 24 24;" xml:space="preserve">
<style type="text/css">
	.st0{fill:#FFFFFF;}
</style>
<g id="XMLID_2_">
	<g id="XMLID_13_">
		<path id="XMLID_14_" class="st0" d="M21.7,19.2H2.2C1,19.2,0,18.2,0,17V7c0-1.2,1-2.3,2.3-2.3h19.5C23,4.8,24,5.8,24,7V17
			C24,18.2,23,19.2,21.7,19.2z M2.2,5.5C1.4,5.5,0.7,6.2,0.7,7V17c0,0.8,0.7,1.5,1.5,1.5h19.5c0.8,0,1.5-0.7,1.5-1.5V7
			c0-0.8-0.7-1.5-1.5-1.5H2.2z"/>
	</g>
	<g id="XMLID_26_">
		<path id="XMLID_12_" class="st0" d="M10.9,13.9c-0.7-0.4-2.6-1-2.6-1.8c0-0.7,1-1.1,1-1.7c0-0.6,0-0.9,0-1.8S8.6,6.8,7.9,6.8
			S7,6.8,7,6.8s-0.2,0-0.9,0s-1.3,1-1.3,1.8s0,1.1,0,1.8c0,0.6,1,1,1,1.7c0,0.8-1.8,1.4-2.6,1.8c-0.7,0.4-0.6,4.3-0.6,5h4.5h4.5
			C11.5,18.2,11.6,14.3,10.9,13.9z"/>
	</g>
	<g id="XMLID_9_">
		<rect id="XMLID_10_" x="13.9" y="7.6" class="st0" width="9.7" height="0.7"/>
	</g>
	<g id="XMLID_7_">
		<rect id="XMLID_8_" x="17.6" y="10.3" class="st0" width="6" height="0.7"/>
	</g>
	<g id="XMLID_5_">
		<rect id="XMLID_6_" x="13.9" y="13" class="st0" width="9.7" height="0.7"/>
	</g>
	<g id="XMLID_3_">
		<rect id="XMLID_4_" x="17.6" y="15.7" class="st0" width="6" height="0.7"/>
	</g>
</g>
</svg>
