<?xml version="1.0" encoding="utf-8"?>
<!-- Generator: Adobe Illustrator 19.0.0, SVG Export Plug-In . SVG Version: 6.00 Build 0)  -->
<svg version="1.1" id="Layer_1" xmlns="http://www.w3.org/2000/svg" xmlns:xlink="http://www.w3.org/1999/xlink" x="0px" y="0px"
	 viewBox="0 0 32 32" style="enable-background:new 0 0 32 32;" xml:space="preserve">
<style type="text/css">
	.st0{fill:#FFFFFF;}
</style>
<g id="XMLID_2_">
	<path id="XMLID_25_" class="st0" d="M24.3,19.9c-1.6-0.9-5.6-2.1-5.6-3.8c0-1.5,2.1-2.3,2.1-3.7s0-2,0-3.8s-1.3-4-2.8-4
		c-1.5,0-1.9,0-1.9,0s-0.4,0-1.9,0s-2.8,2.1-2.8,4s0,2.4,0,3.8s2.1,2.1,2.1,3.7c0,1.7-4,3-5.6,3.8c-1.6,0.9-1.4,9.4-1.4,10.8H16h9.7
		C25.7,29.3,25.9,20.8,24.3,19.9z"/>
	<g id="XMLID_3_">
		<path id="XMLID_4_" class="st0" d="M32,32H0V0h32V32z M2,30h28V2H2V30z"/>
	</g>
</g>
</svg>
