<?xml version="1.0" encoding="utf-8"?>
<!-- Generator: Adobe Illustrator 19.0.0, SVG Export Plug-In . SVG Version: 6.00 Build 0)  -->
<svg version="1.1" id="Layer_1" xmlns="http://www.w3.org/2000/svg" xmlns:xlink="http://www.w3.org/1999/xlink" x="0px" y="0px"
	 viewBox="0 0 32 32" style="enable-background:new 0 0 32 32;" xml:space="preserve">
<style type="text/css">
	.st0{fill:#FFFFFF;}
</style>
<g id="XMLID_2_">
	<circle id="XMLID_4_" class="st0" cx="16" cy="6.8" r="6.4"/>
	<path id="XMLID_3_" class="st0" d="M22.5,13.5C21,15,19,16,16.7,16.2l1.5,11l-2.2,2.4h-0.1l-2.2-2.4l1.5-11C13,16,11,15,9.5,13.5
		c-3.3,1.8-5.3,4.9-5.3,8.5c0,5.6,0.3,9.6,3.6,9.6s8.2,0,8.2,0s5,0,8.2,0c3.3,0,3.6-4,3.6-9.6C27.8,18.5,25.8,15.3,22.5,13.5z"/>
</g>
</svg>
