<?xml version="1.0" encoding="utf-8"?>
<!-- Generator: Adobe Illustrator 19.0.0, SVG Export Plug-In . SVG Version: 6.00 Build 0)  -->
<svg version="1.1" id="Layer_1" xmlns="http://www.w3.org/2000/svg" xmlns:xlink="http://www.w3.org/1999/xlink" x="0px" y="0px"
	 viewBox="0 0 32 32" style="enable-background:new 0 0 32 32;" xml:space="preserve">
<style type="text/css">
	.st0{fill:#FFFFFF;}
</style>
<g id="XMLID_18_">
	<g id="XMLID_23_">
		<circle id="XMLID_25_" class="st0" cx="16" cy="11.1" r="4.5"/>
		<path id="XMLID_24_" class="st0" d="M20.6,15.8c-1.2,1.1-2.8,1.9-4.6,1.9c-1.8,0-3.4-0.7-4.6-1.9c-2.3,1.3-3.7,3.4-3.7,5.9
			c0,3.9,0.2,4.5,2.5,4.5s5.8,0,5.8,0s3.5,0,5.8,0s2.5-0.6,2.5-4.5C24.3,19.3,22.9,17.1,20.6,15.8z"/>
	</g>
	<circle id="XMLID_22_" class="st0" cx="6" cy="8.6" r="2.9"/>
	<circle id="XMLID_21_" class="st0" cx="26" cy="8.6" r="2.9"/>
	<path id="XMLID_20_" class="st0" d="M9.6,12.2c-0.9,0.9-2.2,1.5-3.6,1.5c-1.4,0-2.7-0.6-3.6-1.5c-1.1,0.9-1.8,2.1-1.8,3.5
		c0,2.6,0.1,6.1,1.6,6.1c1.2,0,2.8,0,3.5,0c0-3.2,1.8-6.1,4.8-7.7l0.5-0.3C10.6,13.1,10.2,12.6,9.6,12.2z"/>
	<path id="XMLID_19_" class="st0" d="M29.7,12.2c-0.9,0.9-2.2,1.5-3.6,1.5c-1.4,0-2.7-0.6-3.6-1.5c-0.6,0.4-1,1-1.3,1.5l0.5,0.3
		c3,1.7,4.8,4.5,4.8,7.7c0.7,0,2.3,0,3.4,0c1.5,0,1.6-3.5,1.6-6.1C31.5,14.3,30.8,13,29.7,12.2z"/>
</g>
</svg>
