<?xml version="1.0" encoding="utf-8"?>
<!-- Generator: Adobe Illustrator 19.0.0, SVG Export Plug-In . SVG Version: 6.00 Build 0)  -->
<svg version="1.1" id="Layer_1" xmlns="http://www.w3.org/2000/svg" xmlns:xlink="http://www.w3.org/1999/xlink" x="0px" y="0px"
	 viewBox="0 0 32 32" style="enable-background:new 0 0 32 32;" xml:space="preserve">
<style type="text/css">
	.st0{fill:#FFFFFF;}
</style>
<g id="XMLID_2_">
	<g id="XMLID_9_">
		<g id="XMLID_10_">
			<path id="XMLID_11_" class="st0" d="M25.7,18.2c-0.4-2.6-2.3-3-3.2-3.1c-0.3,0-0.5-0.2-0.7-0.4c-0.6-1-1.5-1.2-2.2-1.2
				c-0.5,0-1,0.1-1.2,0.2c0,0-0.1,0-0.1,0c-0.1,0-0.2-0.1-0.3-0.1c-0.6-1.1-1.5-1.4-2.3-1.4c-0.4,0-0.8,0.1-1.1,0.2c0,0-0.1,0-0.1,0
				c-0.1,0-0.3-0.1-0.3-0.3V6.5c0-1.3-1-1.9-1.9-1.9c-1,0-1.9,0.6-1.9,1.9v9.9c0,0.6-0.4,0.9-0.9,0.9c-0.3,0-0.6-0.1-0.8-0.4
				l-0.3-0.5c-0.4-0.7-1-1-1.6-1c-1.3,0-2.6,1.4-1.7,3l6.7,13c0,0.1,0.1,0.2,0.2,0.2h8.7c0.1,0,0.3-0.1,0.3-0.3l1.8-4.2
				c0,0,0-0.1,0-0.1C25.4,23.2,26.2,20.7,25.7,18.2L25.7,18.2z M25.7,18.2"/>
		</g>
	</g>
	<g id="XMLID_7_">
		<polygon id="XMLID_8_" class="st0" points="29.5,24.6 27.6,24.6 27.6,2.2 4.4,2.2 4.4,13.6 2.5,13.6 2.5,0.4 29.5,0.4 		"/>
	</g>
	<g id="XMLID_5_">
		<rect id="XMLID_6_" x="17.5" y="4.8" class="st0" width="11" height="1.8"/>
	</g>
	<g id="XMLID_3_">
		<rect id="XMLID_4_" x="20.6" y="9.5" class="st0" width="8" height="1.8"/>
	</g>
</g>
</svg>
