<?xml version="1.0" encoding="utf-8"?>
<!-- Generator: Adobe Illustrator 19.0.0, SVG Export Plug-In . SVG Version: 6.00 Build 0)  -->
<svg version="1.1" id="Layer_1" xmlns="http://www.w3.org/2000/svg" xmlns:xlink="http://www.w3.org/1999/xlink" x="0px" y="0px"
	 viewBox="0 0 24 24" style="enable-background:new 0 0 24 24;" xml:space="preserve">
<style type="text/css">
	.st0{fill:#FFFFFF;}
</style>
<g id="XMLID_2_">
	<g id="XMLID_58_">
		<g id="XMLID_63_">
			<rect id="XMLID_64_" x="2.4" y="18.3" class="st0" width="0.8" height="0.8"/>
		</g>
		<g id="XMLID_61_">
			<rect id="XMLID_62_" x="2.4" y="20.5" class="st0" width="0.8" height="1.4"/>
		</g>
		<g id="XMLID_59_">
			<rect id="XMLID_60_" x="2.4" y="23.2" class="st0" width="0.8" height="0.8"/>
		</g>
	</g>
	<g id="XMLID_49_">
		<g id="XMLID_56_">
			<rect id="XMLID_57_" x="6.1" y="15.4" class="st0" width="0.8" height="0.8"/>
		</g>
		<g id="XMLID_52_">
			<path id="XMLID_53_" class="st0" d="M6.9,21.8H6.1v-1.4h0.8V21.8z M6.9,19H6.1v-1.4h0.8V19z"/>
		</g>
		<g id="XMLID_50_">
			<rect id="XMLID_51_" x="6.1" y="23.2" class="st0" width="0.8" height="0.8"/>
		</g>
	</g>
	<g id="XMLID_39_">
		<g id="XMLID_47_">
			<rect id="XMLID_48_" x="9.9" y="10.4" class="st0" width="0.8" height="0.8"/>
		</g>
		<g id="XMLID_42_">
			<path id="XMLID_43_" class="st0" d="M10.7,21.5H9.9v-1.7h0.8V21.5z M10.7,18.1H9.9v-1.7h0.8V18.1z M10.7,14.6H9.9v-1.7h0.8V14.6z
				"/>
		</g>
		<g id="XMLID_40_">
			<rect id="XMLID_41_" x="9.9" y="23.2" class="st0" width="0.8" height="0.8"/>
		</g>
	</g>
	<g id="XMLID_28_">
		<g id="XMLID_37_">
			<rect id="XMLID_38_" x="13.7" y="6.8" class="st0" width="0.8" height="0.8"/>
		</g>
		<g id="XMLID_31_">
			<path id="XMLID_32_" class="st0" d="M14.5,21.5h-0.8v-1.7h0.8V21.5z M14.5,18h-0.8v-1.7h0.8V18z M14.5,14.5h-0.8v-1.7h0.8V14.5z
				 M14.5,11.1h-0.8V9.3h0.8V11.1z"/>
		</g>
		<g id="XMLID_29_">
			<rect id="XMLID_30_" x="13.7" y="23.2" class="st0" width="0.8" height="0.8"/>
		</g>
	</g>
	<g id="XMLID_18_">
		<g id="XMLID_26_">
			<rect id="XMLID_27_" x="17.5" y="10.4" class="st0" width="0.8" height="0.8"/>
		</g>
		<g id="XMLID_21_">
			<path id="XMLID_22_" class="st0" d="M18.3,21.5h-0.8v-1.7h0.8V21.5z M18.3,18.1h-0.8v-1.7h0.8V18.1z M18.3,14.6h-0.8v-1.7h0.8
				V14.6z"/>
		</g>
		<g id="XMLID_19_">
			<rect id="XMLID_20_" x="17.5" y="23.2" class="st0" width="0.8" height="0.8"/>
		</g>
	</g>
	<g id="XMLID_9_">
		<g id="XMLID_16_">
			<rect id="XMLID_17_" x="21.3" y="14" class="st0" width="0.8" height="0.8"/>
		</g>
		<g id="XMLID_12_">
			<path id="XMLID_13_" class="st0" d="M22.1,21.5h-0.8v-1.7h0.8V21.5z M22.1,18.2h-0.8v-1.7h0.8V18.2z"/>
		</g>
		<g id="XMLID_10_">
			<rect id="XMLID_11_" x="21.3" y="23.2" class="st0" width="0.8" height="0.8"/>
		</g>
	</g>
	<g id="XMLID_7_">
		<polygon id="XMLID_8_" class="st0" points="2.2,13.2 1.9,12.4 6.6,11 10,5.6 14.1,0.1 18.2,6 21.9,8.2 21.5,8.9 17.6,6.5 
			14.1,1.5 10.6,6 7.1,11.6 		"/>
	</g>
	<g id="XMLID_5_">
		<circle id="XMLID_6_" class="st0" cx="14.1" cy="1.5" r="1.5"/>
	</g>
	<g id="XMLID_3_">
		<circle id="XMLID_4_" class="st0" cx="6.3" cy="11.5" r="1.5"/>
	</g>
</g>
</svg>
