<svg xmlns="http://www.w3.org/2000/svg" viewBox="0 0 107.322 82.343">
  <defs>
    <style>
      .cls-1 {
        fill: #fff;
        stroke: #fff;
        fill-rule: evenodd;
      }
    </style>
  </defs>
  <path id="Path_17165" data-name="Path 17165" class="cls-1" d="M65.471,0A40.7,40.7,0,0,0,24.8,40.671a42.209,42.209,0,0,0,2.356,13.764l-5.7,3.224h0L22.2,58.9,2.108,70.431l1.86,3.1L0,75.887l1.86,3.224,3.968-2.232,1.736,3.1,1.984-1.116c3.1.372,17.608,2.108,19.1,2.232a5.631,5.631,0,0,0,3.6-.5c.62-.372,4.588-2.6,5.208-2.976a1.2,1.2,0,0,0,.248-1.736c-.248-.5-3.968-6.944-4.96-8.68l1.364-.744A40.647,40.647,0,1,0,65.471,0ZM29.016,55.055l38.811-22.2,5.456,9.548L34.471,64.6h0l-5.456,3.1L23.56,58.279l5.456-3.224ZM65.471,26.288a14.384,14.384,0,1,1,0,28.768,13.922,13.922,0,0,1-7.564-2.232l17.36-9.92L68.323,31,51.087,40.8v-.124A14.394,14.394,0,0,1,65.471,26.288Zm-.62-1.364v-8.06h1.24v8.06h-1.24ZM78.243,49.971a15.352,15.352,0,0,0,3.1-9.424v-.62c2.728-.62,6.076-1.364,6.572-1.488a1.48,1.48,0,0,1,1.364.744l.744,2.48a39.6,39.6,0,0,1-1.488,6.448,20.086,20.086,0,0,1-2.728,5.58l-2.232,1.364a1.369,1.369,0,0,1-1.364-.372A33.25,33.25,0,0,1,78.243,49.971Zm1.86,9.3-.992.744-4.588-6.324c.372-.248.62-.5.992-.744Zm.5-23.312-.372-1.116,7.564-2.48.372,1.116Zm3.72-6.7c-.5.248-3.348,1.364-5.952,2.356a16.227,16.227,0,0,0-8.432-6.076c.124-2.728.372-6.076.5-6.7.124-.868,1.116-.992,1.116-.992l2.6.124a38.942,38.942,0,0,1,5.7,3.348,18.076,18.076,0,0,1,4.588,4.34l.62,2.48A1.47,1.47,0,0,1,84.319,29.264ZM74.027,62.619l-2.232,1.488a34.3,34.3,0,0,1-6.572.62,20.539,20.539,0,0,1-6.2-.868l-1.984-1.736a1.4,1.4,0,0,1,0-1.488c.248-.5,1.86-2.852,3.348-5.084a14.361,14.361,0,0,0,5.208.868,19.188,19.188,0,0,0,5.332-.868c1.488,2.356,3.224,5.208,3.472,5.7C74.647,61.875,74.027,62.619,74.027,62.619ZM52.7,31.62c-2.6-.992-5.456-2.108-5.952-2.356A1.462,1.462,0,0,1,46,28.024l.62-2.48a18.076,18.076,0,0,1,4.588-4.34,48.139,48.139,0,0,1,5.7-3.348l2.6-.124s.992.248,1.116.992c0,.5.248,3.844.5,6.7A15.95,15.95,0,0,0,52.7,31.62Zm-1.86,3.348-.372,1.116L42.9,33.6l.372-1.116Zm-7.688,3.6c.5.124,3.968.868,6.7,1.488v1.488L42.035,46c-.62-2.48-.868-4.216-.868-4.216l.744-2.48C41.787,39.307,42.283,38.315,43.151,38.563ZM56.667,53.691l-4.588,6.2-.992-.744,3.1-4.216,2.48-1.24Zm-28.272,16,.992-.62c.868,1.488,3.348,5.952,3.472,6.2.248.372.124.62-.248.744-.372.248-1.736.992-2.232,1.24a2.67,2.67,0,0,1-1.364.248c-.248-.124-11.532-1.364-14.26-1.736l12.772-7.316.868,1.24ZM2.48,77.251l-.5-.868,2.728-1.612.5.868Zm5.58.868L3.968,70.927l17.98-10.168,4.092,7.192Zm27.9-2.356a.881.881,0,0,1-.248,1.364c-.5.248-3.6,2.108-4.092,2.356a7.578,7.578,0,0,1-3.1.372c-.744-.124-17.112-2.108-17.112-2.108L12.772,77s15.128,1.86,16,1.984a3.687,3.687,0,0,0,2.356-.248c.62-.372,2.976-1.736,3.472-1.984s.5-.5.124-1.24c-.372-.62-3.472-5.952-3.968-6.944l.868-.5C32.116,68.943,35.587,75.143,35.959,75.763Zm29.512,4.092A38.913,38.913,0,0,1,35.339,65.719l11.284-6.448a26.567,26.567,0,1,0-7.688-18.724,23.61,23.61,0,0,0,.868,6.7L28.52,53.691a37.8,37.8,0,0,1-2.232-13.02A39.183,39.183,0,1,1,65.471,79.855Z" transform="translate(0.68 0.5)"/>
</svg>
