<svg xmlns="http://www.w3.org/2000/svg" viewBox="0 0 97.502 74.8">
  <defs>
    <style>
      .cls-1 {
        fill: #023b41;
        fill-rule: evenodd;
      }
    </style>
  </defs>
  <path id="Path_17233" data-name="Path 17233" class="cls-1" d="M60.3,0A37.343,37.343,0,0,0,22.9,37.4a38.071,38.071,0,0,0,2.2,12.7l-5.2,3,.7,1.2L1.9,64.8l1.7,2.9L0,69.8l1.7,3,3.6-2.1,1.6,2.8,1.8-1c2.8.3,16.2,1.9,17.5,2.1a5.834,5.834,0,0,0,3.3-.4c.6-.3,4.2-2.4,4.8-2.8.6-.3.5-1,.2-1.6-.3-.4-3.6-6.4-4.6-8l1.3-.7A37.378,37.378,0,0,0,97.5,37.4,37.11,37.11,0,0,0,60.3,0ZM2.2,71.1l-.5-.8,2.5-1.4.5.8Zm5.3.8L3.7,65.3l16.4-9.4,3.8,6.6Zm18-8.9.6,1.1,1-.6c.8,1.4,3.1,5.4,3.2,5.7.2.3.1.5-.2.7s-1.6.9-2,1.2a2.089,2.089,0,0,1-1.3.2c-.3-.1-10.7-1.3-13.1-1.6Zm7.6,6.7c.3.6.2.9-.3,1.2s-3.3,1.9-3.8,2.2a7.219,7.219,0,0,1-2.8.4c-.7-.1-15.7-2-15.7-2l1.2-.7s14,1.7,14.7,1.8a3.973,3.973,0,0,0,2.2-.2c.5-.3,2.7-1.6,3.2-1.8.5-.3.4-.5.1-1.1s-3.8-6.6-3.8-6.6l.8-.5C28.9,62.3,32.8,69.1,33.1,69.7Zm-6.4-7.4-5-8.7L62.5,30.3l5,8.7ZM47,37.4c0-.6.1-1.2.1-1.8a.6.6,0,0,1,.1-.4c0-.2.1-.4.1-.6.1-.3.1-.6.2-.9a13.075,13.075,0,0,1,8.6-8.8h0c.2-.1.4-.1.5-.2.2,0,.3-.1.5-.1a15.458,15.458,0,0,1,3.1-.4h.5a8.807,8.807,0,0,1,1.7.2h.1c.2,0,.5.1.7.1s.3.1.5.1a13.14,13.14,0,0,1,7.1,4.9h0a16.924,16.924,0,0,1,1.7,2.9h0c.1.3.3.7.4,1.1.1.3.2.7.3,1,0,.2.1.3.1.5a4.331,4.331,0,0,0,.1.5,7.569,7.569,0,0,1,.1,1.5h0v.3a13.443,13.443,0,0,1-2.4,7.6h0c-.3.4-.7.9-1,1.3l-.2.2a14.422,14.422,0,0,1-2.7,2.2c-.1.1-.2.1-.3.2l-.6.3c-.1,0-.2.1-.3.1a9.385,9.385,0,0,1-1.5.6h0a14.211,14.211,0,0,1-4.2.7,14.027,14.027,0,0,1-4.1-.6l-.9-.3c-.2-.1-.3-.1-.5-.2l-.6-.3c-.1-.1-.3-.1-.4-.2-.2-.1-.3-.2-.5-.3l15.9-9.1-6.3-11L47,37.5ZM60.3,61.7A24.407,24.407,0,0,1,43,54.5l6.9-3.9L47,54.5l.9.7,4.2-5.8a13.529,13.529,0,0,0,3.4,1.7c-1.4,2.1-2.8,4.3-3.1,4.7a1.281,1.281,0,0,0,0,1.3l1.8,1.6a19,19,0,0,0,5.7.8,31.266,31.266,0,0,0,6.1-.6l2-1.3s.7-.7.3-1.4c-.2-.4-1.8-3-3.2-5.2a13.529,13.529,0,0,0,3.4-1.7l4.2,5.8.9-.7-4.2-5.9a15.388,15.388,0,0,0,2.5-2.6c1.5,1.9,3.1,4,3.5,4.4a1.36,1.36,0,0,0,1.3.4l2.1-1.2a18.759,18.759,0,0,0,2.6-5.1,43.446,43.446,0,0,0,1.4-5.9L82,36.1a1.272,1.272,0,0,0-1.2-.7c-.5.1-3.6.8-6.1,1.4a15.061,15.061,0,0,0-.6-3.7l7-2.3-.4-1.1-7,2.3a14.287,14.287,0,0,0-1.6-3c2.4-.9,4.9-1.9,5.4-2.2a1.25,1.25,0,0,0,.7-1.1l-.6-2.3a17.4,17.4,0,0,0-4.2-3.9,37.382,37.382,0,0,0-5.3-3l-2.4-.1s-.9.2-1,1c0,.5-.3,3.6-.4,6.1a20.811,20.811,0,0,0-3.6-.6V15.4H59.6v7.5a15.058,15.058,0,0,0-3.6.6c-.2-2.6-.4-5.6-.4-6.1-.1-.8-1-1-1-1l-2.4.1a37.382,37.382,0,0,0-5.3,3,17.4,17.4,0,0,0-4.2,3.9l-.6,2.3a1.25,1.25,0,0,0,.7,1.1c.5.2,3.1,1.2,5.5,2.2a18.689,18.689,0,0,0-1.7,3.1l-7-2.3-.4,1.1,7,2.3a19.312,19.312,0,0,0-.6,3.6c-2.5-.6-5.6-1.3-6.1-1.4-.8-.2-1.2.7-1.2.7l-.6,2.3a33.692,33.692,0,0,0,.8,3.9l-2,1.1a24.894,24.894,0,0,1-.8-6.1,24.4,24.4,0,1,1,48.8,0A24.074,24.074,0,0,1,60.3,61.7Z"/>
</svg>
