<svg xmlns="http://www.w3.org/2000/svg" viewBox="0 0 61.826 87.207">
  <defs>
    <style>
      .cls-1 {
        fill: #023b41;
      }
    </style>
  </defs>
  <g id="Group_15984" data-name="Group 15984" transform="translate(-950.979 -162)">
    <g id="Group_15983" data-name="Group 15983" transform="translate(950.978 195.253)">
      <path id="Path_16864" data-name="Path 16864" class="cls-1" d="M167.93,165.734c-1.115-9-8.763-14.234-14.96-17.034l-9.671,9.7a22.259,22.259,0,0,1,6.585,2.852h4.122v3.422a22.354,22.354,0,0,1,5.03,8.478,32.842,32.842,0,0,0,7.285-3.682A3.882,3.882,0,0,0,167.93,165.734Z" transform="translate(-106.149 -145.926)"/>
      <path id="Path_16865" data-name="Path 16865" class="cls-1" d="M84.455,205.622a20.73,20.73,0,0,0-3.5-6.508,20.041,20.041,0,0,0-8.193-6.041,21.167,21.167,0,0,0-3.785-1.115h-.052a19.779,19.779,0,0,0-3.474-.259c-.856,0-1.737.052-2.515.13a12.522,12.522,0,0,0-1.607.233,19.936,19.936,0,0,0-14.674,12.445c-.207.518-.389,1.063-.544,1.581a19.57,19.57,0,0,0,.83,13.56A19.957,19.957,0,0,0,65.348,231.73a19.681,19.681,0,0,0,13.819-5.5,20.425,20.425,0,0,0,5.859-10.474A25.822,25.822,0,0,0,85,207.645,12.889,12.889,0,0,0,84.455,205.622Zm-20.611,4.952a1.922,1.922,0,0,1,1.5-.8,1.977,1.977,0,0,1,1.426.7,1.756,1.756,0,0,1-.052,2.541,1.464,1.464,0,0,1-1.374.622A1.91,1.91,0,0,1,63.844,210.574ZM50.518,216.2c-.83-.752-1.063-1.763-1.063-4.563a14.828,14.828,0,0,1,1.633-7.026,16.947,16.947,0,0,1,1.348-2.23,15.064,15.064,0,0,1,3.5-3.526,17.3,17.3,0,0,1,2.437-1.452,6.829,6.829,0,0,1,2.826-.933,2.07,2.07,0,0,1,1.167.363,1.678,1.678,0,0,1,.83.959c.233.7.233,2.022.233,5.107v4.8l-.778.544a.567.567,0,0,0-.13.1,4.684,4.684,0,0,0-1.556,3.111v.7l-4.019,2.333c-3.5,2.022-4.148,2.333-4.9,2.333A2.073,2.073,0,0,1,50.518,216.2Zm24.526,8.193a16.351,16.351,0,0,1-9.774,3.267,15.308,15.308,0,0,1-4.848-.778c-2.982-1.011-5.756-2.826-6.274-4.148a2.345,2.345,0,0,1,.467-2.567,59.415,59.415,0,0,1,8.141-4.615h0c.207.026.907.233,1.556.389a4.041,4.041,0,0,0,1.115.233,4.565,4.565,0,0,0,1.374-.337l1.322-.415,3.915,2.256a32.741,32.741,0,0,1,4.278,2.748C77.2,221.619,76.729,223.123,75.044,224.393Zm5.782-9a2.382,2.382,0,0,1-2.2,1.4c-.726,0-1.374-.311-4.848-2.307l-4.019-2.333v-.7a4.521,4.521,0,0,0-1.633-3.163c-.026-.026-.052-.026-.078-.052l-.778-.545v-4.8c0-5.185.026-5.367,1.063-6.067a2.07,2.07,0,0,1,1.167-.363,6.464,6.464,0,0,1,2.515.778l.311.156a15.6,15.6,0,0,1,5.419,4.3,16.357,16.357,0,0,1,2.722,5c.026.052.026.078.052.13.6,1.737.622,1.944.622,4.874C81.163,214.256,81.111,214.878,80.826,215.4Z" transform="translate(-33.538 -177.778)"/>
      <path id="Path_16868" data-name="Path 16868" class="cls-1" d="M27.357,150.263a21.742,21.742,0,0,1,4.226-.389l10.811-10.837c-1.763-.6-3.085-.882-3.6-1.037l-7.882,3.837L23.027,138c-2.282.519-21.156,5.159-23,19.756a4.075,4.075,0,0,0,1.633,3.759,36.064,36.064,0,0,0,8.945,4.252c.156-.57.363-1.141.57-1.711A22,22,0,0,1,27.357,150.263Z" transform="translate(-0.006 -138)"/>
    </g>
    <circle id="Ellipse_366" data-name="Ellipse 366" class="cls-1" cx="15.972" cy="15.972" r="15.972" transform="translate(966.112 162)"/>
  </g>
</svg>
