<svg xmlns="http://www.w3.org/2000/svg" viewBox="0 0 63.716 81.5">
  <defs>
    <style>
      .cls-1 {
        fill: #fff;
      }
    </style>
  </defs>
  <g id="Group_14851" data-name="Group 14851" transform="translate(0.107)">
    <path id="Path_16143" data-name="Path 16143" class="cls-1" d="M36.626,8.823h3.14L43.355,0H12.4V8.823H36.626Z" transform="translate(6.196)"/>
    <path id="Path_16144" data-name="Path 16144" class="cls-1" d="M37.972,7.8H12.4v4.785h0v.449A13.365,13.365,0,0,0,26.756,25.147,13.069,13.069,0,0,0,38.57,12.585h4.038L39.766,7.8H37.972Z" transform="translate(6.196 3.864)"/>
    <path id="Path_16145" data-name="Path 16145" class="cls-1" d="M.053,54.638v16.45H11.718V45.965c0-.3-.15-.748,0-1.047.3-.449.748-.9,1.2-.9a1.731,1.731,0,0,1,1.047.748,2.915,2.915,0,0,1,.15,1.2V71.087H49.7V45.217c0-.9.3-1.346,1.2-1.346s1.2.6,1.2,1.346V70.938H63.608v-32.9a12.143,12.143,0,0,0-1.944-6.729A14.394,14.394,0,0,0,49.4,25.029H43.719s-3.739-.9-4.187-2.991a1.1,1.1,0,0,0-1.794-.748A46.458,46.458,0,0,0,33.1,26.076c-.449.748-.15,1.2.449,1.645a20.421,20.421,0,0,1,3.14,2.243c.6.748.748,1.2,0,1.794S35.046,33.1,34.6,33.553c-.449.6-.748,1.047.15,1.794.748.9,1.794,1.047,1.346,2.991S34,64.807,33.85,66.6c-.15,1.645-1.047,2.243-1.5,2.243h-.6a2.283,2.283,0,0,1-1.5-2.243c-.15-1.944-1.794-26.469-2.243-28.263-.449-1.944.6-2.094,1.346-2.991s.6-1.346.15-1.794a8.662,8.662,0,0,0-2.094-1.794c-.748-.6-.6-1.047,0-1.794a20.421,20.421,0,0,1,3.14-2.243c.6-.449.9-.9.449-1.645a46.95,46.95,0,0,0-4.636-4.785,1.084,1.084,0,0,0-1.794.748c-.449,2.094-4.187,2.991-4.187,2.991H14.708a19.933,19.933,0,0,0-4.187.449C5.287,26.674-.4,30.861-.1,38.637.352,44.021.053,49.4.053,54.638ZM40.429,38.787l3.14-2.094,3.14,2.094a4.958,4.958,0,0,1-.9,3.439,8.282,8.282,0,0,1-2.243,2.243,8.282,8.282,0,0,1-2.243-2.243A4.958,4.958,0,0,1,40.429,38.787Zm-22.581.6h6.729v2.243H17.849Z" transform="translate(0 10.413)"/>
  </g>
</svg>
