<svg xmlns="http://www.w3.org/2000/svg" viewBox="0 0 62.491 101.961">
  <defs>
    <style>
      .cls-1 {
        fill: #023b41;
      }
    </style>
  </defs>
  <g id="Group_15986" data-name="Group 15986" transform="translate(0.021)">
    <path id="Path_17198" data-name="Path 17198" class="cls-1" d="M57.266,104.523a25.041,25.041,0,0,0-1.353-3.285,21.981,21.981,0,0,0-2.319-3.671c0-.064-.129-.193-.193-.258a21.422,21.422,0,0,0-9.146-6.7c-.709-.258-1.353-.515-2.061-.709h0a10.294,10.294,0,0,0-1.353-.322c-.258-.064-.515-.129-.709-.193h-.064c-.193,0-.322-.064-.515-.064A13.471,13.471,0,0,0,36.4,89h-.322c-.966,0-1.932.064-2.834.129h-.064a7,7,0,0,0-1.675.258,22.406,22.406,0,0,0-15.2,11.272c-.451.837-.837,1.739-1.224,2.641-.193.58-.451,1.224-.58,1.8a21.012,21.012,0,0,0-.9,6.57,21.906,21.906,0,0,0,1.8,8.5,22.257,22.257,0,0,0,20.483,13.462h.064a21.772,21.772,0,0,0,15.394-6.119,22.879,22.879,0,0,0,6.57-11.658,24.29,24.29,0,0,0,.322-4.251,25.958,25.958,0,0,0-.386-4.9A7.385,7.385,0,0,0,57.266,104.523Zm-21.32,4.638a2.059,2.059,0,0,1,1.224.451,1.093,1.093,0,0,1,.386.386,1.942,1.942,0,0,1,.58,1.675,2.463,2.463,0,0,1-.58,1.159,1.638,1.638,0,0,1-1.546.709,2.04,2.04,0,0,1-2.061-1.8,2.1,2.1,0,0,1,.386-1.61,2.318,2.318,0,0,1,.9-.709A.969.969,0,0,1,35.946,109.161Zm-16.553,7.214c-.9-.837-1.224-2-1.224-5.088a16.325,16.325,0,0,1,.451-4.058,18.221,18.221,0,0,1,1.417-3.8,23.463,23.463,0,0,1,1.481-2.512,17.493,17.493,0,0,1,3.929-3.929,23.03,23.03,0,0,1,2.705-1.61,7.58,7.58,0,0,1,3.156-1.031,2.322,2.322,0,0,1,1.288.386,1.8,1.8,0,0,1,.966,1.095,2.316,2.316,0,0,1,.129.709v10.241l-.837.58c-.064,0-.064.064-.129.129a5.479,5.479,0,0,0-1.739,3.478v.773l-4.444,2.576c-3.929,2.254-4.638,2.576-5.475,2.576A1.89,1.89,0,0,1,19.392,116.374Zm27.374,9.146a18.076,18.076,0,0,1-10.95,3.671h0a16.633,16.633,0,0,1-5.346-.9c-3.349-1.095-6.441-3.156-7.021-4.638a2.612,2.612,0,0,1,.515-2.9,70.738,70.738,0,0,1,9.082-5.153,17.675,17.675,0,0,1,1.739.451,4.63,4.63,0,0,0,1.224.258,5.219,5.219,0,0,0,1.546-.386l1.481-.451,4.315,2.512a33.355,33.355,0,0,1,4.766,3.027,2.394,2.394,0,0,1,.515,1.417A3.817,3.817,0,0,1,46.767,125.521Zm6.828-13.075c0,1.868-.064,2.448-.322,2.963a2.65,2.65,0,0,1-2.448,1.546c-.837,0-1.546-.322-5.41-2.576L40.906,111.8v-.773a5.143,5.143,0,0,0-1.8-3.543l-.064-.064-.837-.58h0V101.5l.9-6.57h0c.064-.064.193-.129.258-.193a2.322,2.322,0,0,1,1.288-.386,7.033,7.033,0,0,1,2.77.837l.386.193a17.654,17.654,0,0,1,6.055,4.831,17.258,17.258,0,0,1,3.027,5.539c0,.064,0,.064.064.129a8.816,8.816,0,0,1,.644,3.027v2.383Q53.594,111.962,53.594,112.445Z" transform="translate(-4.843 -31.675)"/>
    <path id="Path_17199" data-name="Path 17199" class="cls-1" d="M52,8.631h3.092L58.637,0H28.3V8.631H52Z" transform="translate(-10.079)"/>
    <path id="Path_17200" data-name="Path 17200" class="cls-1" d="M82.084,62.056A12.922,12.922,0,0,0,79.057,58.9L67.077,70.88h0a4.612,4.612,0,0,1-.773,1.61,7.289,7.289,0,0,1-2.126,2.126s-.193-.129-.515-.386L60.7,77.193l1.159.386a25.239,25.239,0,0,1,8.5,5.668V75.454c0-.837.322-1.288,1.159-1.288a1.138,1.138,0,0,1,1.159,1.353v10.5a22.606,22.606,0,0,1,3.543,6.892,9.628,9.628,0,0,1,.644,2.512,25.317,25.317,0,0,1,.451,5.41h6.763V68.562A10.922,10.922,0,0,0,82.084,62.056Z" transform="translate(-21.61 -20.962)"/>
    <path id="Path_17201" data-name="Path 17201" class="cls-1" d="M60.4,63.4h0L71.087,52.777a15,15,0,0,0-4.9-.773H60.653a8.008,8.008,0,0,1-1.868-.709,3.78,3.78,0,0,1-2.19-2.254,1.08,1.08,0,0,0-1.8-.709A52.584,52.584,0,0,0,50.283,53.1c-.451.709-.129,1.159.451,1.61a30.658,30.658,0,0,1,3.027,2.254c.58.773.773,1.224,0,1.8a13.965,13.965,0,0,0-2,1.8c-.451.515-.644,1.031.129,1.8.773.837,1.739,1.031,1.288,2.9-.129.515-.322,2.834-.58,5.861L57.239,66.5a5.015,5.015,0,0,1,0-1.095Z" transform="translate(-17.827 -17.093)"/>
    <path id="Path_17202" data-name="Path 17202" class="cls-1" d="M28.4,23.017A12.876,12.876,0,0,0,54.1,22.5h3.929l-2.834-4.7H28.4v4.766h0Z" transform="translate(-10.115 -6.335)"/>
    <path id="Path_17203" data-name="Path 17203" class="cls-1" d="M11.458,72.386c0-.322-.129-.773,0-1.031.322-.386.709-.837,1.159-.9.322,0,.837.451,1.095.773.193.258.064.709.064,1.095v6.763a25.072,25.072,0,0,1,12.367-6.57c.644-.129,1.353-.258,1.932-.322-.258-3.671-.515-6.441-.644-7.021-.386-1.868.58-2.061,1.353-2.9s.58-1.288.129-1.8a19.924,19.924,0,0,0-2-1.8c-.773-.58-.58-1.031,0-1.8a23,23,0,0,1,3.027-2.254c.58-.451.9-.9.451-1.61a53.285,53.285,0,0,0-4.573-4.766,1.074,1.074,0,0,0-1.8.709C23.567,51,19.96,51.9,19.96,51.9H14.485a18.06,18.06,0,0,0-4.122.515C5.21,53.579-.329,57.765-.007,65.237c.322,5.217.064,10.435.064,15.652v16.1H6.434a25.805,25.805,0,0,1,1.031-7.278c.193-.644.451-1.288.644-1.868a23.114,23.114,0,0,1,3.349-6.055Zm5.99-6.441h6.634V68.2H17.448Z" transform="translate(0 -17.058)"/>
  </g>
</svg>
