<svg xmlns="http://www.w3.org/2000/svg" viewBox="0 0 56.473 81.959">
  <defs>
    <style>
      .cls-1 {
        fill: #fff;
      }
    </style>
  </defs>
  <g id="Group_15861" data-name="Group 15861" transform="translate(-0.006)">
    <path id="Path_16864" data-name="Path 16864" class="cls-1" d="M165.8,164.258c-1.018-8.217-8-13-13.664-15.558l-8.833,8.857a20.331,20.331,0,0,1,6.015,2.6h3.765v3.126a20.416,20.416,0,0,1,4.594,7.744,30,30,0,0,0,6.654-3.363A3.546,3.546,0,0,0,165.8,164.258Z" transform="translate(-109.361 -113.487)"/>
    <path id="Path_16865" data-name="Path 16865" class="cls-1" d="M81.062,204.417a18.933,18.933,0,0,0-3.2-5.944,18.3,18.3,0,0,0-7.483-5.518,19.329,19.329,0,0,0-3.457-1.018h-.047A18.064,18.064,0,0,0,63.7,191.7c-.781,0-1.587.047-2.3.118a11.461,11.461,0,0,0-1.468.213,18.21,18.21,0,0,0-13.4,11.367c-.189.474-.355.971-.5,1.445a17.875,17.875,0,0,0,.758,12.385,18.228,18.228,0,0,0,16.813,11.035,17.976,17.976,0,0,0,12.622-5.02,18.656,18.656,0,0,0,5.352-9.567,23.585,23.585,0,0,0-.024-7.412A11.771,11.771,0,0,0,81.062,204.417ZM62.235,208.94a1.756,1.756,0,0,1,1.373-.734,1.806,1.806,0,0,1,1.3.639,1.6,1.6,0,0,1-.047,2.321,1.337,1.337,0,0,1-1.255.568A1.745,1.745,0,0,1,62.235,208.94Zm-12.172,5.139c-.758-.687-.971-1.61-.971-4.168a13.544,13.544,0,0,1,1.492-6.417,15.485,15.485,0,0,1,1.231-2.037,13.758,13.758,0,0,1,3.2-3.221,15.787,15.787,0,0,1,2.226-1.326,6.237,6.237,0,0,1,2.581-.853,1.89,1.89,0,0,1,1.066.332,1.533,1.533,0,0,1,.758.876,20.532,20.532,0,0,1,.213,4.665v4.381l-.71.5a.517.517,0,0,0-.118.095,4.278,4.278,0,0,0-1.421,2.842v.639l-3.671,2.131c-3.2,1.847-3.789,2.131-4.476,2.131A1.894,1.894,0,0,1,50.064,214.078Zm22.4,7.483a14.934,14.934,0,0,1-8.928,2.984,13.982,13.982,0,0,1-4.428-.71c-2.723-.924-5.257-2.581-5.731-3.789a2.141,2.141,0,0,1,.426-2.344,54.27,54.27,0,0,1,7.436-4.215h0c.189.024.829.213,1.421.355a3.689,3.689,0,0,0,1.018.213,4.171,4.171,0,0,0,1.255-.308l1.208-.379,3.576,2.06a29.906,29.906,0,0,1,3.907,2.51C74.431,219.028,74,220.4,72.466,221.561Zm5.281-8.217a2.175,2.175,0,0,1-2.013,1.279c-.663,0-1.255-.284-4.428-2.108l-3.671-2.131v-.639a4.13,4.13,0,0,0-1.492-2.889c-.024-.024-.047-.024-.071-.047l-.71-.5V201.93c0-4.736.024-4.9.971-5.541a1.89,1.89,0,0,1,1.066-.332,5.9,5.9,0,0,1,2.3.71l.284.142a14.246,14.246,0,0,1,4.949,3.931,14.941,14.941,0,0,1,2.486,4.57c.024.047.024.071.047.118.545,1.587.568,1.776.568,4.452C78.054,212.3,78.007,212.871,77.746,213.344Z" transform="translate(-34.548 -146.304)"/>
    <path id="Path_16866" data-name="Path 16866" class="cls-1" d="M81.883,9.164,83.706,0H52.4l1.894,9.164Z" transform="translate(-39.987)"/>
    <path id="Path_16867" data-name="Path 16867" class="cls-1" d="M56.552,68.534c7.815,0,14.137-6.654,14.137-14.8a16.208,16.208,0,0,0-.876-5.186H43.291c0,.071-.071.142-.071.213l-.142-.26L37.3,54.8h5.115C43.031,62.472,49.093,68.534,56.552,68.534Z" transform="translate(-28.462 -37.015)"/>
    <path id="Path_16868" data-name="Path 16868" class="cls-1" d="M24.988,149.2a19.856,19.856,0,0,1,3.86-.355l9.875-9.9c-1.61-.545-2.818-.805-3.292-.947l-7.2,3.5-7.2-3.5c-2.084.474-19.323,4.712-21,18.045a3.722,3.722,0,0,0,1.492,3.434,32.939,32.939,0,0,0,8.17,3.884c.142-.521.332-1.042.521-1.563A20.094,20.094,0,0,1,24.988,149.2Z" transform="translate(0 -105.321)"/>
  </g>
</svg>
