<svg xmlns="http://www.w3.org/2000/svg" viewBox="0 0 23.048 22.7">
  <path d="M20.927,5.794H18.363a3.074,3.074,0,0,0,1.52-2.6A3.407,3.407,0,0,0,16.3,0c-1.678,0-3.673,2.881-4.781,4.749C10.416,2.881,8.421,0,6.744,0A3.417,3.417,0,0,0,3.134,3.2a3.074,3.074,0,0,0,1.52,2.6H2.09A2.108,2.108,0,0,0,0,7.883v3.293a2.081,2.081,0,0,0,1.171,1.868V20.61a2.108,2.108,0,0,0,2.09,2.09H19.946a2.108,2.108,0,0,0,2.09-2.09V12.949a2.089,2.089,0,0,0,1.013-1.773V7.883A2.115,2.115,0,0,0,20.927,5.794ZM16.3,1.9a1.546,1.546,0,0,1,1.678,1.3A1.546,1.546,0,0,1,16.3,4.5H13.93A8.024,8.024,0,0,1,16.3,1.9Zm-9.593,0A7.8,7.8,0,0,1,9.086,4.464H6.744a1.546,1.546,0,0,1-1.678-1.3C5.034,2.5,5.825,1.9,6.712,1.9Zm14.405,9.276V11.3a.031.031,0,0,1-.032.032h-.032c-.032,0-.032.032-.063.032h-.728a.169.169,0,0,0-.127.158h0V20.61a.2.2,0,0,1-.19.19H3.261a.2.2,0,0,1-.19-.19v-9.15c0-.095-.095-.095-.127-.095H2.09c-.032,0-.063,0-.063-.032H1.995L1.963,11.3h0V7.883a.2.2,0,0,1,.19-.19H21.022a.2.2,0,0,1,.19.19h0v3.293Z"/>
  <g transform="translate(8.786 8.928)">
    <path d="M31.914,32.949a11.141,11.141,0,0,0-1.266-.57,2.979,2.979,0,0,1-.7-.38.6.6,0,0,1,.158-1.076.975.975,0,0,1,.412-.095,3.147,3.147,0,0,1,1.615.317c.253.127.348.095.412-.19.095-.285.158-.57.253-.855a.265.265,0,0,0-.19-.38A3.77,3.77,0,0,0,31.6,29.4c-.475-.063-.475-.063-.475-.538,0-.665,0-.665-.665-.665h-.285c-.317,0-.348.063-.38.38v.412c0,.412,0,.412-.38.538a2.166,2.166,0,0,0-1.583,2.026A2.011,2.011,0,0,0,29,33.519a14.841,14.841,0,0,0,1.456.665A3.006,3.006,0,0,1,31,34.5a.722.722,0,0,1-.158,1.266,1.881,1.881,0,0,1-.95.127,4.352,4.352,0,0,1-1.425-.412c-.253-.127-.348-.095-.443.19-.063.253-.158.507-.222.76-.095.348-.063.412.253.57a6.113,6.113,0,0,0,1.3.38c.348.063.348.063.348.443v.507c0,.222.095.317.317.317h.728c.19,0,.285-.127.285-.317v-.665a.381.381,0,0,1,.317-.412,2.4,2.4,0,0,0,1.266-.823A2.265,2.265,0,0,0,31.914,32.949Z" transform="translate(-27.751 -28.2)"/>
  </g>
</svg>
