<svg xmlns="http://www.w3.org/2000/svg" viewBox="0 0 62.748 81.608">
  <defs>
    <style>
      .cls-1 {
        fill: #fff;
      }
    </style>
  </defs>
  <g id="Group_15862" data-name="Group 15862" transform="translate(15255 -5470)">
    <path id="Path_16881" data-name="Path 16881" class="cls-1" d="M106.006,32.208A16.1,16.1,0,1,0,89.9,16.1,16.122,16.122,0,0,0,106.006,32.208Z" transform="translate(-15329.63 5470)"/>
    <path id="Path_16882" data-name="Path 16882" class="cls-1" d="M87.306,141.7l-.027-.009c-2.1-.512-8.518-1.41-8.518-1.41a1.427,1.427,0,0,0-1.76.876l-9.665,26.518a1.745,1.745,0,0,1-3.279,0l-9.665-26.518a1.427,1.427,0,0,0-1.34-.94c-.138,0-6.741.926-8.938,1.472-6.006,1.493-9.794,7.4-9.794,13.554v22.065a5.987,5.987,0,0,0,5.987,5.987H91.081a5.987,5.987,0,0,0,5.987-5.987V155.174A14.169,14.169,0,0,0,87.306,141.7Z" transform="translate(-15289.32 5368.308)"/>
    <path id="Path_16883" data-name="Path 16883" class="cls-1" d="M141.138,136.946a2.053,2.053,0,0,0-1.52-.632h-4.255a2.054,2.054,0,0,0-1.52.632,1.974,1.974,0,0,0-.26,2.325l2.275,3.429-1.065,8.982,2.1,5.578a.64.64,0,0,0,1.2,0l2.1-5.578-1.065-8.982,2.275-3.429A1.975,1.975,0,0,0,141.138,136.946Z" transform="translate(-15361.117 5371.142)"/>
  </g>
</svg>
