<svg id="Group_15861" data-name="Group 15861" xmlns="http://www.w3.org/2000/svg" viewBox="0 0 113.741 48.053">
  <defs>
    <style>
      .cls-1 {
        fill: #fff;
      }
    </style>
  </defs>
  <path id="Path_16146" data-name="Path 16146" class="cls-1" d="M87.527,33.8a8.227,8.227,0,1,0,8.227,8.227A8.239,8.239,0,0,0,87.527,33.8Zm0,11.686a3.553,3.553,0,1,1,3.553-3.553A3.551,3.551,0,0,1,87.527,45.486Z" transform="translate(-5.164 -2.201)"/>
  <path id="Path_16147" data-name="Path 16147" class="cls-1" d="M2.1,35.6A1.337,1.337,0,0,0,.6,37.1a4.742,4.742,0,0,0,2.9,4.768H5.181v-6.17H2.1Z" transform="translate(-0.039 -2.318)"/>
  <path id="Path_16148" data-name="Path 16148" class="cls-1" d="M29.527,33.8a8.227,8.227,0,1,0,8.227,8.227A8.239,8.239,0,0,0,29.527,33.8Zm0,12.06a3.927,3.927,0,1,1,3.927-3.927A3.891,3.891,0,0,1,29.527,45.86Z" transform="translate(-1.387 -2.201)"/>
  <path id="Path_16149" data-name="Path 16149" class="cls-1" d="M49.005,1.309C49.005.561,48.631,0,48.07,0H42.835c-.561,0-.935.561-.935,1.309V3.272h7.105Z" transform="translate(-2.728)"/>
  <rect id="Rectangle_2704" data-name="Rectangle 2704" class="cls-1" width="12.808" height="18.043" transform="translate(37.769 21.409)"/>
  <path id="Path_16150" data-name="Path 16150" class="cls-1" d="M104.714,32.9l-21.5-7.2H56.1V41.126H75.546a10.52,10.52,0,0,1,10.471-10.19,10.314,10.314,0,0,1,10.377,10.19h4.768s3.459-.187,3.459-4.955C104.714,35.8,104.714,32.9,104.714,32.9Z" transform="translate(-3.653 -1.674)"/>
  <rect id="Rectangle_2705" data-name="Rectangle 2705" class="cls-1" width="2.805" height="13.369" transform="translate(38.891 5.703)"/>
  <path id="Path_16151" data-name="Path 16151" class="cls-1" d="M53.305,19.469,49.1,6.1H46.2l4.113,13.369Z" transform="translate(-3.008 -0.397)"/>
  <rect id="Rectangle_2706" data-name="Rectangle 2706" class="cls-1" width="3.179" height="2.805" transform="translate(53.727 17.592) rotate(-10.078)"/>
  <path id="Path_16152" data-name="Path 16152" class="cls-1" d="M2.3,20.241v11.5H7.068v8.04H17.819A10.457,10.457,0,0,1,28.29,29.59a10.714,10.714,0,0,1,8.227,3.927V6.124c0-2.337-2.711-2.524-2.711-2.524H18.286a9.086,9.086,0,0,0-6.451,2.618s-4.207,4.861-6.077,7.012C2.3,16.969,2.3,20.241,2.3,20.241Zm7.479-5.609,4.674-6.451A5.72,5.72,0,0,1,18.473,6.5H28.944a1.676,1.676,0,0,1,1.683,1.683v7.386a1.676,1.676,0,0,1-1.683,1.683h-17.2C8.938,17.249,8.657,16.221,9.779,14.632Z" transform="translate(-0.15 -0.234)"/>
  <path id="Path_16153" data-name="Path 16153" class="cls-1" d="M.748,26.6v5.983A5.052,5.052,0,0,1,0,29.592,5.052,5.052,0,0,1,.748,26.6Z" transform="translate(0 -1.732)"/>
  <rect id="Rectangle_2707" data-name="Rectangle 2707" class="cls-1" width="4.674" height="16.267" transform="matrix(0.734, -0.68, 0.68, 0.734, 99.256, 21.272)"/>
  <rect id="Rectangle_2708" data-name="Rectangle 2708" class="cls-1" width="4.674" height="3.272" transform="translate(99.653 14.839) rotate(-42.828)"/>
  <rect id="Rectangle_2709" data-name="Rectangle 2709" class="cls-1" width="1.87" height="16.267" transform="translate(92.945 12.248) rotate(-42.824)"/>
  <path id="Path_16154" data-name="Path 16154" class="cls-1" d="M79.837,20.6,61.7,23.031H77.406A6.731,6.731,0,0,1,79.837,20.6Z" transform="translate(-4.018 -1.341)"/>
  <path id="Path_16155" data-name="Path 16155" class="cls-1" d="M98.562,18.2,85.1,19.976a5.13,5.13,0,0,1,3.272,2.244l9.162-.935,10.19,10.938v5.235h2.8V31.1Z" transform="translate(-5.541 -1.185)"/>
  <path id="Path_16156" data-name="Path 16156" class="cls-1" d="M93.918,27.233a1.81,1.81,0,0,1,1.589-.935,1.775,1.775,0,0,1,1.776,1.776v.28L99.9,29.2a4.737,4.737,0,0,0,.187-1.215A4.588,4.588,0,0,0,95.507,23.4,4.485,4.485,0,0,0,91.3,26.3Z" transform="translate(-5.945 -1.524)"/>
  <path id="Path_16157" data-name="Path 16157" class="cls-1" d="M82.279,24.266a1.7,1.7,0,0,1,2.524,0l3.272,1.122A4.568,4.568,0,0,0,79.1,24.266h3.179Z" transform="translate(-5.151 -1.361)"/>
</svg>
