<?xml version="1.0" encoding="utf-8"?>
<!-- Generator: Adobe Illustrator 22.1.0, SVG Export Plug-In . SVG Version: 6.00 Build 0)  -->
<svg version="1.1" id="Layer_1" xmlns="http://www.w3.org/2000/svg" xmlns:xlink="http://www.w3.org/1999/xlink" x="0px" y="0px"
	 viewBox="0 0 248 248" style="enable-background:new 0 0 248 248;" xml:space="preserve">
<style type="text/css">
	.st0{fill:#0572B9;}
	.st1{fill:#FFFFFF;}
	.st2{fill:#F6F7F7;}
	.st3{fill:none;stroke:#808184;stroke-width:0.2911;stroke-miterlimit:10;}
	.st4{fill:#404041;}
	.st5{fill-rule:evenodd;clip-rule:evenodd;fill:#404041;}
</style>
<g>
	<rect x="0.2" class="st0" width="248" height="248"/>
	<rect x="0.2" y="199" class="st1" width="248" height="2.1"/>
	<g>
		<path class="st1" d="M26.4,215.8c1.1-0.2,2.5-0.3,4.5-0.3c2.2,0,3.7,0.5,4.7,1.3c1,0.8,1.6,2.1,1.6,3.6c0,1.5-0.5,2.8-1.4,3.7
			c-1.2,1.2-3,1.8-5.1,1.8c-0.6,0-1,0-1.4-0.1v6.2h-2.9V215.8z M29.3,223.4c0.4,0.1,0.8,0.1,1.4,0.1c2.2,0,3.5-1.1,3.5-3
			c0-1.8-1.2-2.8-3.3-2.8c-0.8,0-1.4,0.1-1.7,0.1V223.4z"/>
		<path class="st1" d="M48.3,229.1c0,1.1,0,2.1,0.2,2.8h-2.7l-0.2-1.3h-0.1c-0.7,0.9-1.9,1.6-3.5,1.6c-2.3,0-3.7-1.7-3.7-3.5
			c0-2.9,2.6-4.5,6.9-4.4V224c0-0.8-0.3-2.1-2.4-2.1c-1.2,0-2.3,0.4-3.1,0.9l-0.6-1.9c0.9-0.5,2.4-1,4.2-1c3.7,0,4.8,2.4,4.8,5
			V229.1z M45.4,226.1c-2.1,0-4.1,0.4-4.1,2.2c0,1.2,0.7,1.7,1.7,1.7c1.2,0,2-0.8,2.3-1.6c0.1-0.2,0.1-0.4,0.1-0.7V226.1z"/>
		<path class="st1" d="M53.1,220.1l2.1,6.3c0.2,0.7,0.5,1.6,0.7,2.3h0.1c0.2-0.7,0.4-1.5,0.6-2.3l1.8-6.3h3.1l-2.9,8
			c-1.6,4.4-2.7,6.3-4.1,7.6c-1.2,1-2.4,1.4-3.1,1.5l-0.7-2.5c0.5-0.1,1.1-0.4,1.7-0.8c0.6-0.4,1.2-1.1,1.6-1.9
			c0.1-0.2,0.2-0.4,0.2-0.5c0-0.1,0-0.3-0.1-0.6l-4.3-10.8H53.1z"/>
		<path class="st1" d="M73.1,214.8h2.9v7h0c0.7-1.1,2-1.9,3.7-1.9c2.9,0,4.9,2.4,4.9,6c0,4.2-2.7,6.3-5.3,6.3c-1.5,0-2.9-0.6-3.7-2
			h0l-0.1,1.8H73c0-0.8,0.1-2.1,0.1-3.3V214.8z M76.1,227c0,0.2,0,0.5,0.1,0.7c0.3,1.2,1.3,2.1,2.6,2.1c1.8,0,3-1.5,3-3.9
			c0-2.1-1-3.8-2.9-3.8c-1.2,0-2.3,0.9-2.6,2.2c0,0.2-0.1,0.5-0.1,0.8V227z"/>
		<path class="st1" d="M88.9,220.1l2.1,6.3c0.2,0.7,0.5,1.6,0.7,2.3h0.1c0.2-0.7,0.4-1.5,0.6-2.3l1.8-6.3h3.1l-2.9,8
			c-1.6,4.4-2.7,6.3-4.1,7.6c-1.2,1-2.4,1.4-3.1,1.5l-0.7-2.5c0.5-0.1,1.1-0.4,1.7-0.8c0.6-0.4,1.2-1.1,1.6-1.9
			c0.1-0.2,0.2-0.4,0.2-0.5c0-0.1,0-0.3-0.1-0.6l-4.3-10.8H88.9z"/>
		<path class="st1" d="M107.1,227.3l-1.4,4.6h-3l5.2-16.3h3.8l5.3,16.3h-3.2l-1.5-4.6H107.1z M111.8,225l-1.3-4
			c-0.3-1-0.6-2.1-0.8-3h0c-0.2,0.9-0.5,2.1-0.8,3l-1.2,4H111.8z"/>
		<path class="st1" d="M118.9,224c0-1.5,0-2.8-0.1-3.9h2.6l0.1,1.8h0c0.9-1.3,2.2-2.1,4-2.1c2.7,0,4.9,2.3,4.9,6
			c0,4.2-2.7,6.3-5.3,6.3c-1.5,0-2.7-0.6-3.3-1.6h0v6.1h-2.9V224z M121.9,227c0,0.3,0,0.6,0.1,0.8c0.3,1.2,1.3,2.1,2.6,2.1
			c1.9,0,3-1.6,3-3.9c0-2.1-1-3.8-2.9-3.8c-1.2,0-2.3,0.9-2.7,2.2c0,0.2-0.1,0.5-0.1,0.7V227z"/>
		<path class="st1" d="M132.9,224c0-1.5,0-2.8-0.1-3.9h2.6l0.1,1.8h0c0.9-1.3,2.2-2.1,4-2.1c2.7,0,4.9,2.3,4.9,6
			c0,4.2-2.7,6.3-5.3,6.3c-1.5,0-2.7-0.6-3.3-1.6h0v6.1h-2.9V224z M135.8,227c0,0.3,0,0.6,0.1,0.8c0.3,1.2,1.3,2.1,2.6,2.1
			c1.9,0,3-1.6,3-3.9c0-2.1-1-3.8-2.9-3.8c-1.2,0-2.3,0.9-2.7,2.2c0,0.2-0.1,0.5-0.1,0.7V227z"/>
		<path class="st1" d="M150.3,232.8l5.8-17.5h2.1l-5.9,17.5H150.3z"/>
		<path class="st1" d="M178.3,225.2c-0.1-2.1-0.2-4.6-0.2-6.8H178c-0.5,2-1.2,4.2-1.9,6.2l-2.4,7h-2.3l-2.2-6.9
			c-0.6-2.1-1.2-4.3-1.6-6.3h0c-0.1,2.1-0.2,4.7-0.3,6.9l-0.4,6.5h-2.8l1.1-16.3h3.9l2.1,6.5c0.6,1.9,1.1,3.8,1.5,5.6h0.1
			c0.4-1.8,1-3.8,1.6-5.7l2.2-6.5h3.8l0.9,16.3h-2.9L178.3,225.2z"/>
		<path class="st1" d="M186.3,226.8c0.1,2.1,1.7,3,3.6,3c1.4,0,2.3-0.2,3.2-0.5l0.4,2c-1,0.4-2.4,0.7-4.1,0.7c-3.8,0-6-2.3-6-5.9
			c0-3.3,2-6.3,5.7-6.3c3.8,0,5,3.1,5,5.7c0,0.6,0,1-0.1,1.3H186.3z M191.4,224.8c0-1.1-0.5-2.9-2.4-2.9c-1.8,0-2.6,1.7-2.7,2.9
			H191.4z"/>
		<path class="st1" d="M199.9,217.1v3h2.8v2.2h-2.8v5.2c0,1.4,0.4,2.2,1.5,2.2c0.5,0,0.8,0,1.2-0.1l0,2.2c-0.4,0.2-1.2,0.3-2.1,0.3
			c-1.1,0-2-0.4-2.5-1c-0.6-0.7-0.9-1.8-0.9-3.3v-5.5h-1.7v-2.2h1.7v-2.2L199.9,217.1z"/>
		<path class="st1" d="M206.9,226.8c0.1,2.1,1.7,3,3.6,3c1.4,0,2.3-0.2,3.2-0.5l0.4,2c-1,0.4-2.4,0.7-4.1,0.7c-3.8,0-6-2.3-6-5.9
			c0-3.3,2-6.3,5.7-6.3c3.8,0,5,3.1,5,5.7c0,0.6,0,1-0.1,1.3H206.9z M212,224.8c0-1.1-0.5-2.9-2.4-2.9c-1.8,0-2.6,1.7-2.7,2.9H212z"
			/>
		<path class="st1" d="M217.1,223.9c0-1.6,0-2.8-0.1-3.8h2.5l0.1,2.2h0.1c0.6-1.6,1.9-2.5,3.2-2.5c0.3,0,0.5,0,0.7,0.1v2.8
			c-0.3,0-0.5-0.1-0.9-0.1c-1.4,0-2.4,0.9-2.6,2.2c0,0.3-0.1,0.6-0.1,0.9v6.1h-2.9V223.9z"/>
	</g>
	<g>
		<path class="st1" d="M30.4,120.3c0.9,0,1.8-0.8,1.8-1.7c0-0.9-0.8-1.7-1.8-1.7c-0.9,0-1.7,0.8-1.7,1.7
			C28.7,119.5,29.4,120.3,30.4,120.3z"/>
		<path class="st1" d="M34.7,120.3c0.9,0,1.7-0.8,1.7-1.7c0-0.9-0.8-1.7-1.7-1.7s-1.7,0.8-1.7,1.7C32.9,119.5,33.7,120.3,34.7,120.3
			z"/>
		<path class="st1" d="M47.1,141.8c0-0.9-0.8-1.7-1.7-1.7c-0.9,0-1.7,0.7-1.7,1.7c0,0.9,0.8,1.7,1.7,1.7
			C46.3,143.5,47.1,142.7,47.1,141.8z"/>
		<path class="st1" d="M48,141.8c0,0.9,0.8,1.7,1.7,1.7c0.9,0,1.7-0.8,1.7-1.7c0-0.9-0.8-1.7-1.7-1.7C48.7,140.1,48,140.9,48,141.8z
			"/>
		<path class="st1" d="M61.7,141.8c0-0.9-0.8-1.7-1.7-1.7c-0.9,0-1.7,0.8-1.7,1.7c0,0.9,0.8,1.7,1.7,1.7
			C61,143.6,61.7,142.8,61.7,141.8z"/>
		<path class="st1" d="M100.4,120.3c0.9,0,1.7-0.8,1.7-1.7c0-0.9-0.8-1.7-1.7-1.7c-0.9,0-1.7,0.8-1.7,1.7
			C98.7,119.5,99.5,120.3,100.4,120.3z"/>
		<path class="st1" d="M96.1,120.3c0.9,0,1.7-0.8,1.7-1.7c0-0.9-0.8-1.7-1.7-1.7c-0.9,0-1.7,0.7-1.7,1.7
			C94.4,119.5,95.2,120.3,96.1,120.3z"/>
		<path class="st1" d="M38.6,137.4h2.1h0.9H43c1.9,0,3.4-0.6,4.5-1.7c1.1,1.1,2.6,1.7,4.4,1.7H53h0.9h1.5c1.9,0,3.4-0.6,4.5-1.7
			c1.1,1.1,2.6,1.7,4.4,1.7h0.9h1h25.3h0.9h1.5c1.9,0,3.4-0.6,4.5-1.7c1.1,1.1,2.6,1.7,4.4,1.7h1.1h0.9h1.2c1.8,0,3.3-0.5,4.4-1.6
			c1.1-1.1,1.6-2.4,1.6-4.1v-14.9l-3.2,0.9v13.7c0,2.1-1,3.2-3,3.2h-1.9v0.1H103c-2.1,0-3.1-1-3.1-3.1v-8.7l-3.1,0.9v7.6
			c0,2.1-1,3.2-3.1,3.2h-1.3v-0.1h-3.1c0.1-3.5-0.4-6.1-1.4-7.8c-1.5-2.5-3.7-3.7-6.7-3.7c-0.1,0-0.2,0-0.3,0
			c-3.7,0.1-6.6,1.8-8.6,4.9v-10.7l-3.2,1v16.3h-3.9v0.1h-0.8c-2.1,0-3.1-1-3.1-3.1v-8.7l-3.1,0.9v7.6c0,2.1-1,3.2-3.1,3.2h-1.3H53
			h-0.9c-2.1,0-3.1-1-3.1-3.1v-8.7l-3.1,0.9v7.6c0,2.1-1,3.2-3.1,3.2h-1.3h-0.9h-2v-4.1c0-2.1-0.4-3.8-1.3-5.2
			c-1.1-1.7-2.7-2.5-5-2.5c-2.2,0-3.9,0.8-5,2.5c-0.9,1.4-1.3,3.1-1.3,5.2c0,4.5,2.3,6.8,6.9,6.8h2.5c-0.1,2.1-1.8,3.1-5.2,3.1
			l-0.2,0c-2.3,0-4-0.6-4.9-1.8c-1-1.2-1.5-3.3-1.5-6.2v-0.1l-2.8,1l0,0.1c0.3,3.4,1,5.9,2.1,7.3c1.4,1.8,3.8,2.7,7.1,2.7
			C35.4,143.5,38.3,141.5,38.6,137.4z M75.2,129c1.7-2,3.6-3.1,5.6-3.1c0.1,0,0.2,0,0.3,0c1.8,0.1,3.1,0.8,4.1,2.1
			c0.8,1.5,1.2,3.2,1.2,5.2c0,0.5,0,1-0.1,1.4h-14C72.7,132.6,73.7,130.7,75.2,129z M33,134.6c-1.4,0-2.3-0.3-2.9-0.8
			c-0.7-0.6-1-1.7-1-3.2c0-3.2,1.1-4.9,3.2-4.9s3.2,1.6,3.2,4.9v4H33z"/>
		<polygon class="st1" points="117.8,116.8 114.7,117.8 114.7,137.4 117.8,137.4 		"/>
		<path class="st1" d="M145.9,140.2c-0.9,0-1.7,0.8-1.7,1.7c0,0.9,0.8,1.7,1.7,1.7c0.9,0,1.7-0.8,1.7-1.7
			C147.6,140.9,146.9,140.2,145.9,140.2z"/>
		<path class="st1" d="M135.3,137.4h3.6h0.9h1.5c1.9,0,3.4-0.6,4.5-1.7c1.1,1.1,2.6,1.7,4.4,1.7h1.1h0.8h16.4l-2.4-2.8H158v-5.9
			c0-1.9,1.2-3.1,3-3.1c0.9,0,1.8,0.5,2.5,1.3l0,0.1l2.4-2.1l-0.1-0.1c-1.3-1.3-2.8-1.9-4.5-1.9c-2,0-3.6,0.6-4.8,1.8
			c-1.1,1.2-1.7,2.7-1.7,4.5v5.4h-3.5v0.1h-0.9c-2.1,0-3.1-1-3.1-3.1v-8.7l-3.1,0.9v7.6c0,2.1-1,3.2-3.1,3.2h-1.3v-0.1h-4.5v-11.7
			l-3.2,0.9v12.6c0,2.7-1.5,4.3-4.1,4.3c-1.8,0-3.3-0.4-4.8-1.2l-0.2-0.1l1.5,3.2l0,0l0,0c0.9,0.6,2.1,0.9,3.4,0.9
			C132.1,143.5,134.8,141.2,135.3,137.4z"/>
		<path class="st1" d="M198.3,118.5c0,0.9,0.8,1.7,1.7,1.7s1.7-0.8,1.7-1.7c0-0.9-0.8-1.7-1.7-1.7S198.3,117.6,198.3,118.5z"/>
		<path class="st1" d="M206.5,132.4v-4.9c0-1.4-0.5-2.6-1.5-3.5c-1.1-1.1-2.8-1.6-4.9-1.6c-3.8,0-6.2,2-6.2,5.2c0,1.7,0.3,3,1,3.8
			c0.8,0.9,2.2,1.4,4.3,1.4h4.2c0,0.9-0.3,1.5-1,1.8c-0.3,0.1-1.1,0.2-2.2,0.2h-7.8h-0.9h-0.9c-1.4,0-2.1-0.7-2.1-2.3v-1.5h2.6
			l-1.6-2.8h-5.6v-0.6c0-1.4,0.6-2.1,1.8-2.1c0.8,0,1.5,0.4,2,1.1l0,0.1l2.1-2.1l0,0c-1-1.2-2.3-1.8-3.8-1.8c-1.6,0-2.9,0.5-3.8,1.5
			c-0.9,1-1.3,2.2-1.3,3.7v1c-2.8,1.3-4.5,4-4.5,7.3c0,2.2,0.8,4,2.3,5.3c1.6,1.4,3.5,2.1,5.9,2.1c1.9,0,3.6-0.4,5-1.2l0,0l0-3.5
			l-0.1,0.1c-1,0.8-1.9,1.4-2.6,1.6c-0.6,0.2-1.3,0.3-2.3,0.3c-3.1,0-5-1.7-5-4.6c0-3.2,2-5.3,5-5.3h0.9v2.8c0,2.5,1.2,3.8,3.5,3.8
			h2.7h0.9h8.2c2,0,3.3-0.3,4.2-1C205.9,135.6,206.5,134.3,206.5,132.4z M203.3,130h-3.6c-1.2,0-2-0.1-2.3-0.4
			c-0.3-0.3-0.5-0.9-0.5-2c0-1.6,1-2.4,3.1-2.4c2.2,0,3.3,0.8,3.3,2.4V130z"/>
		<path class="st1" d="M220,124.5c-1.2-1-2.7-1.5-4.6-1.5c-1.4,0-2.9,0.6-4.3,1.9l0,0v3.7l0.1-0.2c1-1.8,2.5-2.7,4.2-2.7
			c2.1,0,3.2,1,3.2,3v6h-7.8l-1.9,2.7h12.8v-8.9C221.8,126.8,221.2,125.5,220,124.5z"/>
		<polygon class="st1" points="224.4,137.4 227.6,137.4 227.6,116.8 224.4,117.8 		"/>
		<path class="st1" d="M46,157c0.9,0,1.7-0.8,1.7-1.7c0-1-0.8-1.8-1.7-1.8c-0.9,0-1.7,0.8-1.7,1.8C44.2,156.2,45,157,46,157z"/>
		<path class="st1" d="M60.1,157c0.9,0,1.8-0.8,1.8-1.7c0-0.9-0.8-1.7-1.8-1.7c-0.9,0-1.7,0.8-1.7,1.7C58.4,156.2,59.2,157,60.1,157
			z"/>
		<path class="st1" d="M62.7,155.3c0,0.9,0.8,1.7,1.7,1.7c0.9,0,1.7-0.8,1.7-1.7c0-0.9-0.8-1.7-1.7-1.7
			C63.5,153.6,62.7,154.3,62.7,155.3z"/>
		<path class="st1" d="M67.4,160.7c-1.1-1.1-2.8-1.6-4.9-1.6c-3.8,0-6.2,2-6.2,5.2c0,1.7,0.3,3,1,3.8c0.8,0.9,2.2,1.4,4.3,1.4h4.2
			c0,0.9-0.3,1.5-1,1.8c-0.3,0.1-1.1,0.2-2.2,0.2h-8.7v0.1h-3.5c1.2-1.4,1.9-2.9,1.9-4.4c0.1-2-0.4-3.7-1.3-5
			c-1.1-1.5-2.8-2.3-5-2.3c-2.2,0-3.9,0.8-5,2.3c-0.9,1.3-1.3,2.9-1.3,5c0,1.5,0.7,3,1.9,4.4h-6.2c-2,0-3.1-1-3.1-3v-6.1l-3.1,3.2
			v3.2c0,3.3,2.3,5.5,5.8,5.5h9.2c0.6,0,1.2-0.1,1.9-0.2c0.6,0.1,1.2,0.2,1.8,0.2h6.1h0.9H63c2,0,3.3-0.3,4.2-1
			c1.1-0.8,1.7-2.2,1.7-4.1v-4.9C68.9,162.8,68.4,161.6,67.4,160.7z M48.4,169.1c-0.6,1-1.4,1.7-2.4,2c-1-0.3-1.8-1-2.5-2
			c-0.5-0.9-0.8-1.9-0.8-2.9c0-2.3,1.3-3.7,3.3-3.7c2,0,3.2,1.5,3.2,3.7C49.2,167.2,48.9,168.2,48.4,169.1z M65.8,166.7h-3.6
			c-1.2,0-2-0.1-2.3-0.4c-0.3-0.3-0.5-0.9-0.5-2c0-1.6,1-2.4,3.1-2.4c2.2,0,3.3,0.8,3.3,2.4V166.7z"/>
		<polygon class="st1" points="71.5,174.1 74.6,174.1 74.6,153.5 71.5,154.5 		"/>
		<path class="st1" d="M118.4,168.2c0,2.1-1,3.2-3,3.2h-1.1v0l-0.1,0h-0.7v0.1c-2.1,0-3.4-1.1-3.7-3.1c-0.3-2-0.9-3.3-1.8-4.2
			c-1-1-2.6-1.4-4.7-1.4c-3.8,0-5.9,1.9-6.5,5.6c-0.2,2-1.5,3-3.7,3h-0.9v0.1h-2.4l0-0.8c0-1.2,0-2.2,0-3c0-5-2.1-7.5-6.1-7.5
			c-2.2,0-3.9,0.8-5,2.4c-0.9,1.3-1.4,3-1.4,5.1c0,1.9,0.6,3.5,1.6,4.6c1.2,1.2,2.8,1.9,5,1.9h2.4c-0.3,1.9-1.8,3.3-3.6,3.3
			c-1.5,0.1-3.2-0.3-5-1.1l-0.2-0.1l1.4,3.1l0,0c0.9,0.6,2.1,0.8,3.8,0.8c1.9,0,3.4-0.6,4.7-1.9c1.1-1.1,1.8-2.5,2.1-4.2h2.7h1.1h0
			c1.7,0,3-0.5,3.9-1.5c0.9,2.4,3.2,3.8,6.1,3.8c3.1,0,5.4-1.5,6.2-4.1c1,1.2,2.3,1.8,4,1.9v0h0.3h0.5h1.3c1.8,0,3.3-0.5,4.4-1.6
			c1.1-1.1,1.6-2.4,1.6-4.1v-14.9l-3.2,0.9V168.2z M86.6,171.4h-2.7c-2.3,0-3.5-1.3-3.5-3.8c0-3.1,1.1-4.7,3.2-4.7
			c1.3,0,2.1,0.5,2.6,1.5c0.3,0.6,0.4,1.7,0.4,3.2L86.6,171.4z M103.2,173.7c-2.2,0-3.3-1.4-3.3-4.2c0-2.8,1.1-4.2,3.3-4.2
			c2.2,0,3.3,1.4,3.3,4.2C106.5,172.3,105.4,173.7,103.2,173.7z"/>
		<polygon class="st1" points="124.1,174.1 127.3,174.1 127.3,153.5 124.1,154.5 		"/>
		<path class="st1" d="M143,157c0.9,0,1.7-0.8,1.7-1.7c0-1-0.8-1.8-1.7-1.8c-0.9,0-1.7,0.8-1.7,1.8C141.3,156.2,142.1,157,143,157z"
			/>
		<path class="st1" d="M141.7,173.2c0,2.6-1.6,4.3-4.1,4.3c-1.8,0-3.3-0.4-4.8-1.2l-0.2-0.1l1.5,3.2l0,0l0,0
			c0.9,0.6,2.1,0.9,3.4,0.9c2.2,0,4-0.7,5.3-2c1.3-1.3,2-3,2-5.2v-13.5l-3.2,0.9V173.2z"/>
		<path class="st1" d="M185.2,176.8c-0.9,0-1.7,0.8-1.7,1.7c0,0.9,0.8,1.7,1.7,1.7c0.9,0,1.7-0.8,1.7-1.7
			C187,177.6,186.2,176.8,185.2,176.8z"/>
		<path class="st1" d="M185.3,159.7c-2.6,0-4.9,1-7.1,3.1l-0.1,0.1l2.3,2.1l0-0.1c1.5-1.6,3.1-2.4,4.8-2.4c2,0,3.4,0.9,4.1,2.6
			c0.4,1.1,0.7,2.8,0.7,5.2v1.1h-12.9v-0.1h-3.3V170c0-2.5-0.1-4.3-0.4-5.5c-0.3-1.4-0.9-2.6-1.9-3.5c-1.5-1.3-3.4-2-5.8-2
			c-2.4,0-4.3,0.9-5.8,2.8c-1.5,1.9-2.2,4-2.2,6.7c0,1.1,0.2,2.1,0.6,2.9h-3.3h-0.9h-2.1c-1,0-1.5-0.5-1.5-1.5v-16.4l-3.2,1V170
			c0,2.6,1.6,4.2,4.3,4.2h2.5h0.9h21.1h0.9h16.1v-3.8c0-3.1-0.4-5.5-1.2-7.1C190.8,160.9,188.5,159.7,185.3,159.7z M163,171.3
			c-1.4,0-2.3-1.2-2.3-3c0-0.9,0.2-1.7,0.6-2.4c0.4-0.7,1-1.1,1.7-1.1c0.7,0,1.2,0.4,1.7,1.1c0.4,0.7,0.7,1.5,0.7,2.4
			C165.3,170.1,164.4,171.3,163,171.3z M170.8,171.3h-3.5c0.6-0.5,0.9-1.5,0.9-3c0-1.6-0.4-2.9-1.2-4.1c-0.9-1.3-2.1-2-3.6-2.1
			c0.6-0.3,1.4-0.4,2.5-0.4c2.3,0,3.8,0.8,4.4,2.7c0.3,0.9,0.5,2.7,0.5,5.5V171.3z"/>
		<path class="st1" d="M207.3,160.2c-2.2,0-3.9,0.8-5,2.3c-0.9,1.3-1.3,2.9-1.3,4.9c0,2,0.4,3.6,1.3,4.9c1.1,1.5,2.7,2.3,5,2.3
			c1.1,0,2-0.2,2.9-0.7c-0.3,2.3-1.5,3.5-3.7,3.6c-1.6,0.1-3.3-0.3-5-1.1l-0.2-0.1l1.4,3.1l0,0c0.9,0.6,2.2,0.8,3.8,0.8
			c2.3,0,4-0.7,5.2-2.2c1.1-1.3,1.7-3,1.7-5.2c0-0.3,0-1,0.1-2c0-0.9,0-1.7,0-2.3c0-2.4-0.4-4.4-1.1-5.7
			C211.5,161.1,209.7,160.2,207.3,160.2z M207.3,171.8c-2.1,0-3.1-1.5-3.1-4.4c0-2.9,1.1-4.4,3.1-4.4c2.1,0,3.1,1.5,3.1,4.4
			C210.4,170.4,209.4,171.8,207.3,171.8z"/>
		<polygon class="st1" points="216.1,174.1 219.3,174.1 219.3,153.5 216.1,154.5 		"/>
		<path class="st1" d="M188.1,70.7c1.7,0.2,3.8,0.4,6.2,0.4c10.8,0,20-2.7,26.2-8.6c4.8-4.6,7.4-11.3,7.4-19.3
			c0-8-3.5-14.7-8.6-18.8c-5.4-4.3-13.4-6.5-24.7-6.5c-11.1,0-19,0.7-24.7,1.7v80.1h18.1V70.7z M188.1,32.5c1.3-0.4,3.8-0.7,7.5-0.7
			c9.1,0,14.2,4.5,14.2,11.9c0,8.3-6,13.3-15.7,13.3c-2.6,0-4.5-0.1-6.1-0.5V32.5z"/>
		<path class="st1" d="M114.4,17.1C92.7,17.1,75,35.5,75,58.1C75,80.7,92.7,99,114.4,99c21.8,0,39.4-18.3,39.4-40.9
			C153.9,35.5,136.2,17.1,114.4,17.1z M95.6,39.4c4.2,0,7.6,3.4,7.6,7.7c0,4.2-3.4,7.7-7.6,7.7c-4.2,0-7.6-3.4-7.6-7.7
			C87.9,42.8,91.4,39.4,95.6,39.4z M123.3,76.4l0,1l-0.9,0l0-1h-1l0-1.5l0.3,0l0-1.5c0,0,1-4.2,2.2-0.1c0,0.5,0,1.1,0,1.4
			c0.1,0,0.3,0,0.3,0l0,1.6L123.3,76.4z M126.2,54.4c-0.2,1.9-1.9,4.4-1.9,4.4l-4.9,0.2c0,0-0.4-1.5-0.5-2.8
			c-0.3,0.1-0.5,0.1-1.3,0.3c-1,0-1.5-1-1.1-2c0.6-1,2.2-1.2,2.8-1c0.4-1.1,1.2-3.2,2.6-4.1c1.6-1.1,2.9-0.1,3.5,0.5
			C126,50.6,126.4,52.5,126.2,54.4z M138.5,82.6l-9.7,2.7H127l-0.1-38.2l-12.1,1.5v14.1c1.4-0.6,7.1-0.4,5.5,5.5
			c-1.9,2.1-3.9,4.2-5.5,6v11.1h-1.7V76c-1.1,1.1-1.7,1.8-1.7,1.8l-8.7-7.3v14.7H87.3V62.6c0-2.7,4.4-9.4,12-6
			C104.1,61,110.6,67,110.6,67s1.4-1.4,2.5-2.6V39.5l16.1-2l9.3-2.5V82.6z M138.5,33.8l-9.5,2.6c0,0-14.8,1.9-15.9,2
			c-1.1,0.1-1.7-1.7-1.7-1.7s16.1-3.7,19.4-4.5c4.8-2.8,10.1-2.7,10.1-2.7L138.5,33.8z"/>
	</g>
	<g>
		<g>
			<path class="st2" d="M40.9,92C40.9,92,40.9,92,40.9,92c-0.7,0-1.3,0.3-1.7,0.7c-0.5,0.5-0.7,1.1-0.7,1.7c0,1.4,1.1,2.5,2.5,2.5
				c0,0,0,0,0,0c0.7,0,1.3-0.3,1.7-0.7c0.5-0.5,0.7-1.1,0.7-1.7c0-0.7-0.3-1.3-0.7-1.8C42.2,92.3,41.6,92,40.9,92z"/>
			<rect x="24" y="28.2" class="st2" width="33.8" height="61.1"/>
			<path class="st2" d="M54.9,18.1l-27.9,0c-3,0-5.4,2.4-5.4,5.4l0,70.4c0,3,2.4,5.4,5.4,5.4l27.9,0c3,0,5.4-2.4,5.4-5.4l0-70.4
				C60.3,20.6,57.8,18.1,54.9,18.1z M40.9,19.5c0.3,0,0.5,0.2,0.5,0.5c0,0.3-0.2,0.5-0.5,0.5c-0.3,0-0.5-0.2-0.5-0.5
				C40.4,19.8,40.6,19.5,40.9,19.5z M38,22.4l5.8,0c0.2,0,0.3,0.1,0.3,0.3c0,0.2-0.1,0.3-0.3,0.3L38,23c-0.2,0-0.3-0.1-0.3-0.3
				C37.6,22.6,37.8,22.4,38,22.4z M34.5,22.1C34.5,22.1,34.5,22.1,34.5,22.1c0.4,0,0.7,0.3,0.7,0.7c0,0.4-0.3,0.7-0.7,0.7
				c-0.4,0-0.7-0.3-0.7-0.7C33.8,22.4,34.1,22.1,34.5,22.1z M43.3,96.8c-0.6,0.6-1.5,1-2.4,1c0,0,0,0,0,0c-1.8,0-3.4-1.5-3.4-3.4
				c0-0.9,0.3-1.7,1-2.4c0.6-0.6,1.5-1,2.4-1c0,0,0,0,0,0c0.9,0,1.7,0.3,2.4,1c0.6,0.6,1,1.5,1,2.4C44.3,95.4,43.9,96.2,43.3,96.8z
				 M58.6,90.1l-35.4,0l0-62.8l35.4,0L58.6,90.1z"/>
		</g>
		<path class="st3" d="M25.1,42.4c0,0.6,0.5,1.1,1.1,1.1h24.5c0.6,0,1.1-0.5,1.1-1.1v-6.3c0-0.6-0.5-1.1-1.1-1.1H26.2
			c-0.6,0-1.1,0.5-1.1,1.1V42.4z"/>
		<g>
			<path class="st4" d="M39.9,38c0.1,0,0.3-0.1,0.3-0.2c0-0.1-0.1-0.2-0.3-0.2c-0.1,0-0.2,0.1-0.2,0.2C39.6,37.9,39.8,38,39.9,38z"
				/>
			<path class="st4" d="M31.5,38c0.1,0,0.2-0.1,0.2-0.2c0-0.1-0.1-0.2-0.2-0.2c-0.1,0-0.2,0.1-0.2,0.2C31.2,37.9,31.3,38,31.5,38z"
				/>
			<path class="st4" d="M49.5,38c0.1,0,0.2-0.1,0.2-0.2c0-0.1-0.1-0.2-0.2-0.2c-0.1,0-0.2,0.1-0.2,0.2C49.2,37.9,49.3,38,49.5,38z"
				/>
			<path class="st4" d="M44.3,41c-0.1,0-0.2,0.1-0.2,0.2c0,0.1,0.1,0.2,0.2,0.2c0.1,0,0.2-0.1,0.2-0.2C44.6,41.2,44.5,41,44.3,41z"
				/>
			<path class="st4" d="M30.8,38c0.1,0,0.3-0.1,0.3-0.2c0-0.1-0.1-0.2-0.3-0.2c-0.1,0-0.2,0.1-0.2,0.2C30.6,37.9,30.7,38,30.8,38z"
				/>
			<path class="st4" d="M40.5,38c0.1,0,0.2-0.1,0.2-0.2c0-0.1-0.1-0.2-0.2-0.2c-0.1,0-0.2,0.1-0.2,0.2C40.3,37.9,40.4,38,40.5,38z"
				/>
			<path class="st4" d="M50.1,38c0.1,0,0.2-0.1,0.2-0.2c0-0.1-0.1-0.2-0.2-0.2c-0.1,0-0.2,0.1-0.2,0.2C49.9,37.9,50,38,50.1,38z"/>
			<path class="st4" d="M36.4,38.6c-0.3,0-0.6,0.1-0.7,0.3c-0.1,0.2-0.2,0.4-0.2,0.7v0.2c0,0.3-0.2,0.5-0.5,0.5h-0.1h-0.1h-0.4
				c0-0.2,0-0.4,0-0.6c0-0.7-0.3-1.1-0.9-1.1c-0.3,0-0.6,0.1-0.7,0.4c-0.1,0.2-0.2,0.4-0.2,0.8c0,0.3,0.1,0.5,0.2,0.7
				c0.2,0.2,0.4,0.3,0.7,0.3h0.4c0,0.3-0.3,0.5-0.6,0.5c-0.2,0-0.5,0-0.7-0.2l0.2,0.4c0.1,0.1,0.3,0.1,0.6,0.1
				c0.3,0,0.5-0.1,0.7-0.3c0.2-0.2,0.3-0.4,0.3-0.6h0.4h0.1H35c0.3,0,0.5-0.1,0.7-0.3c0.2,0.2,0.4,0.3,0.7,0.3
				c0.3,0,0.6-0.1,0.7-0.3c0.1-0.2,0.2-0.4,0.2-0.7c0-0.3-0.1-0.5-0.2-0.7C36.9,38.7,36.7,38.6,36.4,38.6z M33.9,40.2h-0.4
				c-0.4,0-0.5-0.2-0.5-0.6c0-0.5,0.2-0.7,0.5-0.7c0.2,0,0.3,0.1,0.4,0.2c0,0.1,0.1,0.3,0.1,0.5L33.9,40.2z M36.4,40.2
				c-0.3,0-0.5-0.2-0.5-0.6s0.2-0.6,0.5-0.6c0.3,0,0.5,0.2,0.5,0.6S36.7,40.2,36.4,40.2z"/>
			<path class="st4" d="M42.1,41c-0.1,0-0.2,0.1-0.2,0.2c0,0.1,0.1,0.2,0.2,0.2c0.1,0,0.2-0.1,0.2-0.2C42.4,41.1,42.3,41,42.1,41z"
				/>
			<path class="st4" d="M28.7,38c0.1,0,0.2-0.1,0.2-0.2c0-0.1-0.1-0.3-0.2-0.3c-0.1,0-0.2,0.1-0.2,0.3C28.5,37.9,28.6,38,28.7,38z"
				/>
			<path class="st4" d="M42.8,41c-0.1,0-0.2,0.1-0.2,0.2c0,0.1,0.1,0.2,0.2,0.2s0.2-0.1,0.2-0.2C43,41.1,42.9,41,42.8,41z"/>
			<path class="st4" d="M49.9,39.7c0,0.3-0.2,0.5-0.5,0.5h-0.2v0h-0.5c0-0.5-0.1-0.9-0.2-1.2c-0.2-0.4-0.6-0.6-1-0.5
				c-0.6,0-1,0.3-1.3,0.8v-1.6l-0.5,0.1v2.4h-0.6v0H45c-0.3,0-0.5-0.2-0.5-0.5v-1.3l-0.4,0.1v1.1c0,0.3-0.2,0.5-0.5,0.5h-0.2h-0.1
				h-0.1c-0.3,0-0.5-0.2-0.5-0.5v-1.3l-0.4,0.1v1.1c0,0.3-0.2,0.5-0.5,0.5h-0.2h-0.1h-0.3v-0.6c0-0.3-0.1-0.6-0.2-0.8
				c-0.2-0.2-0.4-0.4-0.7-0.4c-0.3,0-0.6,0.1-0.7,0.4c-0.1,0.2-0.2,0.5-0.2,0.8c0,0.7,0.3,1,1,1h0.4c0,0.3-0.3,0.5-0.8,0.5
				c-0.3,0-0.6-0.1-0.7-0.3c-0.1-0.2-0.2-0.5-0.2-0.9L38.5,40c0,0.5,0.1,0.9,0.3,1.1c0.2,0.3,0.6,0.4,1.1,0.4c0.8,0,1.2-0.3,1.3-0.9
				h0.3h0.1h0.2c0.3,0,0.5-0.1,0.7-0.3c0.2,0.2,0.4,0.3,0.7,0.3h0.2h0.1h0.2c0.3,0,0.5-0.1,0.7-0.3c0.2,0.2,0.4,0.3,0.7,0.3h0.2h0.1
				h3.8h0.1h0.3c0.3,0,0.5-0.1,0.7-0.2c0.2-0.2,0.2-0.4,0.2-0.6v-1.3l-0.4,0.1V39.7z M40.7,40.2h-0.4c-0.2,0-0.4,0-0.4-0.1
				c-0.1-0.1-0.2-0.3-0.2-0.5c0-0.5,0.2-0.7,0.5-0.7c0.3,0,0.5,0.2,0.5,0.7V40.2z M48.3,40.2h-2.1c0.1-0.3,0.2-0.6,0.4-0.9
				c0.3-0.3,0.6-0.5,0.9-0.5c0.3,0,0.5,0.1,0.6,0.3c0.1,0.2,0.2,0.5,0.2,0.8C48.3,40.1,48.3,40.1,48.3,40.2z"/>
			<path class="st4" d="M31.2,38.4c-0.6,0-0.9,0.3-0.9,0.8c0,0.3,0.1,0.4,0.2,0.6c0.1,0.1,0.3,0.2,0.6,0.2h0.6
				c0,0.1-0.1,0.2-0.2,0.3c-0.1,0-0.2,0-0.3,0h-1.3v0h-0.6c0.2-0.2,0.3-0.4,0.3-0.7c0-0.3-0.1-0.5-0.2-0.7c-0.2-0.2-0.4-0.3-0.7-0.3
				c-0.3,0-0.6,0.1-0.7,0.3c-0.1,0.2-0.2,0.4-0.2,0.7c0,0.2,0.1,0.5,0.3,0.7h-1c-0.3,0-0.5-0.2-0.5-0.5v-0.9l-0.4,0.5v0.5
				c0,0.5,0.3,0.8,0.9,0.8h1.4c0.1,0,0.2,0,0.3,0c0.1,0,0.2,0,0.3,0h0.9H30h1.2c0.3,0,0.5,0,0.6-0.1c0.2-0.1,0.3-0.3,0.3-0.6v-0.7
				c0-0.2-0.1-0.4-0.2-0.5C31.7,38.5,31.5,38.4,31.2,38.4z M29.1,39.9c-0.1,0.1-0.2,0.3-0.4,0.3c-0.2-0.1-0.3-0.2-0.4-0.3
				c-0.1-0.1-0.1-0.3-0.1-0.4c0-0.3,0.2-0.6,0.5-0.6c0.3,0,0.5,0.2,0.5,0.6C29.2,39.6,29.2,39.7,29.1,39.9z M31.7,39.5h-0.6
				c-0.2,0-0.3,0-0.4-0.1c0,0-0.1-0.1-0.1-0.3c0-0.3,0.2-0.4,0.5-0.4c0.3,0,0.5,0.1,0.5,0.4V39.5z"/>
		</g>
		<g>
			<path class="st4" d="M54.3,36.8c-1,0-1.8,0.8-1.8,1.8c0,1,0.8,1.8,1.8,1.8c0.3,0,0.7-0.1,0.9-0.3c0.3-0.2,0.5-0.4,0.6-0.7
				c0.1-0.2,0.2-0.5,0.2-0.8C56,37.6,55.3,36.8,54.3,36.8 M55.5,39.1c-0.1,0.3-0.3,0.6-0.6,0.7c-0.2,0.1-0.4,0.1-0.6,0.1
				c-0.7,0-1.3-0.6-1.3-1.3c0-0.7,0.6-1.3,1.3-1.3c0.7,0,1.3,0.6,1.3,1.3C55.6,38.8,55.6,38.9,55.5,39.1"/>
			<path class="st4" d="M57.3,41.6c-0.1,0.1-0.2,0.1-0.3,0.1c-0.1,0-0.2,0-0.3-0.1l-1.4-1.4c0.3-0.2,0.5-0.4,0.6-0.7l1.4,1.4
				C57.5,41.1,57.5,41.4,57.3,41.6"/>
		</g>
		<g>
			<path class="st5" d="M40.6,51.7c-0.1-0.5,0-1.1,0.2-1.4c0.2-0.4,0.4-0.7,0.7-1c0.5-0.5,1-0.9,1.8-1.1c0.1,0,0.1,0,0.2,0
				c0.1,0,0.1,0,0.2,0c0,0,0,0,0,0c0,0.1,0,0.2,0,0.4c0,1-0.4,1.6-0.8,2.1c-0.3,0.3-0.6,0.6-0.9,0.8C41.6,51.5,41.2,51.6,40.6,51.7"
				/>
			<path class="st5" d="M46.7,52.9c-0.5,0.3-0.9,0.7-1.2,1.2c-0.3,0.5-0.5,1.1-0.5,1.9c0.1,0.7,0.3,1.3,0.7,1.7
				c0.4,0.4,0.8,0.8,1.4,1.1v0c-0.4,1-0.9,1.9-1.5,2.7c-0.3,0.4-0.7,0.7-1.1,1c-0.2,0.1-0.5,0.3-0.7,0.3c-0.3,0.1-0.6,0-0.9-0.1
				c-0.3-0.1-0.5-0.2-0.8-0.3c-0.3-0.1-0.5-0.2-0.8-0.2c-0.3,0-0.7,0-1,0.1c-0.3,0.1-0.5,0.1-0.8,0.3c-0.4,0.1-0.7,0.3-1.3,0.3
				c-0.5,0-0.8-0.2-1.1-0.4c-0.6-0.4-1-1.1-1.4-1.7c-0.5-0.9-1-1.8-1.2-3c-0.1-0.6-0.2-1.2-0.2-1.9c0-1.4,0.4-2.4,1-3.1
				c0.6-0.7,1.4-1.2,2.6-1.3c0.5,0,1.1,0,1.5,0.2c0.3,0.1,0.7,0.3,1,0.4c0.2,0.1,0.4,0.1,0.6,0c0.2,0,0.4-0.1,0.5-0.2
				c0.4-0.1,0.7-0.3,1.1-0.3c0.4-0.1,0.9-0.1,1.3-0.1c1.2,0.1,2.1,0.6,2.7,1.4C46.7,52.9,46.7,52.9,46.7,52.9"/>
		</g>
		<path class="st4" d="M42.6,77l-7.1,7.1c0.1,0,0.2-0.1,0.3-0.1l8.9-4.9L42.6,77z"/>
		<path class="st4" d="M42.6,76.1l2.1-2.1l-8.9-4.9c-0.1-0.1-0.2-0.1-0.3-0.1L42.6,76.1z"/>
		<path class="st4" d="M48.1,75.9l-2.9-1.6L43,76.6l2.2,2.2l2.9-1.6C48.8,76.8,48.8,76.3,48.1,75.9z"/>
		<path class="st4" d="M42.2,76.6l-7.3-7.4c-0.1,0.1-0.2,0.4-0.2,0.6v13.5c0,0.3,0.1,0.5,0.2,0.6L42.2,76.6z"/>
	</g>
</g>
</svg>
