<?xml version="1.0" encoding="utf-8"?>
<!-- Generator: Adobe Illustrator 22.1.0, SVG Export Plug-In . SVG Version: 6.00 Build 0)  -->
<svg version="1.1" id="Layer_1" xmlns="http://www.w3.org/2000/svg" xmlns:xlink="http://www.w3.org/1999/xlink" x="0px" y="0px"
	 viewBox="0 0 248 248" style="enable-background:new 0 0 248 248;" xml:space="preserve">
<style type="text/css">
	.st0{fill:#FFFFFF;}
	.st1{fill:#EC1C24;}
	.st2{fill:none;}
	.st3{enable-background:new    ;}
	.st4{fill:#0054A5;}
	.st5{fill:#ED1C24;}
	.st6{fill:#0054A5;stroke:#231F20;stroke-width:6.858108e-02;}
</style>
<g>
	<rect x="41.3" class="st0" width="165.3" height="248"/>
	<g>
		<path class="st1" d="M45,130.5c0-1.5,1.4-5.5,6.6-5.5c4.5,0,143.6-0.2,145.2-0.2s6.4,1.1,6.4,5.6c0,4.5,0.1,20.2,0.1,21.7
			s-1.7,5.5-6.4,5.5c-5.8,0-145.6,0-145.6,0s-6.5-0.4-6.5-5.6C44.8,146.7,45,132,45,130.5z"/>
	</g>
	<rect x="96.8" y="27.8" class="st2" width="76" height="80"/>
	<g class="st3">
		<path class="st4" d="M103.3,32.2c4.6-0.8,11.1-1.4,20.2-1.4c9.2,0,15.8,1.8,20.2,5.3c4.3,3.3,7,8.8,7,15.3c0,6.5-2.1,12-6.1,15.7
			c-5.1,4.7-12.6,6.9-21.4,6.9c-2,0-3.7-0.1-5.1-0.4v23.7h-14.8V32.2z M118,62.2c1.3,0.3,2.7,0.4,5,0.4c7.9,0,12.8-4,12.8-10.7
			c0-6.1-4.2-9.7-11.7-9.7c-2.9,0-5,0.2-6.1,0.5V62.2z"/>
	</g>
	<g>
		<path class="st5" d="M121.9,120.1c-7.7,0-15.2-1.5-22.3-4.5c-6.8-2.9-12.9-7-18.2-12.3C76.2,98.1,72,92,69.2,85.2
			c-3-7.1-4.5-14.6-4.5-22.3s1.5-15.2,4.5-22.3c2.9-6.8,7-12.9,12.3-18.2S92.9,13,99.7,10.1c7.1-3,14.6-4.5,22.3-4.5
			s15.2,1.5,22.3,4.5c6.8,2.9,12.9,7,18.2,12.3s9.4,11.4,12.3,18.2c3,7.1,4.5,14.6,4.5,22.3s-1.5,15.2-4.5,22.3
			c-2.9,6.8-7,12.9-12.3,18.2c-5.3,5.3-11.4,9.4-18.2,12.3C137.1,118.6,129.6,120.1,121.9,120.1z M121.9,15.7
			c-6.4,0-12.5,1.2-18.4,3.7c-5.6,2.4-10.7,5.8-15,10.1s-7.7,9.4-10.1,15c-2.5,5.8-3.7,12-3.7,18.4s1.2,12.5,3.7,18.4
			c2.4,5.6,5.8,10.7,10.1,15c4.3,4.3,9.4,7.7,15,10.1c5.8,2.5,12,3.7,18.4,3.7s12.5-1.2,18.4-3.7c5.6-2.4,10.7-5.8,15-10.1
			c4.3-4.3,7.7-9.4,10.1-15c2.5-5.8,3.7-12,3.7-18.4s-1.2-12.5-3.7-18.4c-2.4-5.6-5.8-10.7-10.1-15s-9.4-7.7-15-10.1
			C134.4,17,128.3,15.7,121.9,15.7z"/>
	</g>
	<g>
		
			<rect x="111.3" y="11.7" transform="matrix(0.7071 -0.7071 0.7071 0.7071 -12.8744 102.0285)" class="st1" width="10.9" height="109.7"/>
	</g>
	<g>
		<path class="st4" d="M45.4,185.3l20.5-4.9l16.4,11.7l19.3-4.2l4.5,18.9l2.7-0.6l20.4-28.4h15l42.1,22.8h17.1v-33.9
			c0,0-1-5.1-5.1-5.1s-146.5,0-147.1,0c-2.3,0-5.5,2-5.6,5C45.5,170.5,45.4,185.3,45.4,185.3z"/>
		<polygon class="st4" points="145.6,184.9 175.3,201.4 156.3,201.4 		"/>
		<path class="st4" d="M98.9,213.3l11.8-2.8l20.2-28.3h8.9l11.7,18.5h-15.3v22.4l20.2-0.1c0,0,0.4-15.3,16.2-16.1
			C188.7,207.8,189,223,189,223s12.8,0.1,14.4,0.1v14.4c0,3.4-2.8,6.2-6.2,6.2H51.6c-3.4,0-6.2-2.8-6.2-6.2V226l22.1-5.3
			c0,0-0.8-3.7,0.2-7.9c0.9-3.8,3.6-7.8,8.9-10.4c3.2-1.6,7.3-1.6,10-1.1C94,202.7,98.1,208.8,98.9,213.3"/>
		<ellipse class="st0" cx="172.4" cy="223" rx="12.8" ry="12.8"/>
		<circle class="st0" cx="83.3" cy="217.4" r="12.8"/>
		<polygon class="st6" points="45.5,188.7 64.8,184.1 72.1,194.4 45.4,200.7 		"/>
	</g>
	<g>
		<path class="st0" d="M83.7,144.1c0,1.2-0.3,2-1,2.5c-0.6,0.4-1.5,0.6-2.6,0.6H73c-2.1,0-3.6-1.4-3.6-3.4v-2l1.9-1.9v3.7
			c0,1.3,0.7,1.9,2,1.9h6.6c0.7,0,1.2,0,1.4-0.1c0.4-0.2,0.6-0.6,0.6-1.2h-2.7c-1.2,0-2.1-0.3-2.6-0.8c-0.4-0.5-0.6-1.2-0.6-2.3
			c0-1.9,1.4-3.2,3.8-3.2c1.3,0,2.4,0.3,3.1,1c0.6,0.6,0.9,1.3,0.9,2.2v3H83.7z M81.8,141.2c0-1-0.7-1.6-2.1-1.6c-1.3,0-2,0.5-2,1.6
			c0,0.7,0.1,1.1,0.3,1.3c0.2,0.2,0.7,0.2,1.5,0.2h2.3C81.8,142.7,81.8,141.2,81.8,141.2z M80.8,135.5c0,0.6-0.5,1-1,1
			c-0.6,0-1-0.5-1-1c0-0.6,0.5-1,1-1S80.8,135,80.8,135.5z"/>
		<path class="st0" d="M95.2,147.2h-2.3c-0.2,1.1-0.6,2-1.3,2.6c-0.8,0.8-1.7,1.1-2.9,1.1c-1,0-1.8-0.2-2.3-0.5l-0.8-1.8
			c1.1,0.5,2.1,0.7,3.1,0.7c1.2,0,2.2-1,2.3-2.2h-1.5c-1.3,0-2.4-0.4-3.1-1.2c-0.7-0.7-1-1.7-1-2.8c0-1.3,0.3-2.4,0.9-3.2
			c0.7-1,1.7-1.5,3.1-1.5c2.5,0,3.8,1.5,3.8,4.6c0,0.6,0,1.4,0,2.4h2.2v1.8H95.2z M91.2,143.2c0-0.9-0.1-1.6-0.3-2
			c-0.3-0.7-0.8-1-1.6-1c-1.4,0-2.1,1-2.1,3c0,1.6,0.7,2.4,2.2,2.4h1.7L91.2,143.2z"/>
		<path class="st0" d="M104,144.1c0,1.2-0.4,2-1,2.5c-0.6,0.4-1.4,0.6-2.6,0.6h-5.6v-1.7h5.4c0.7,0,1.2,0,1.4-0.1
			c0.4-0.2,0.6-0.6,0.6-1.2h-2.7c-1.3,0-2.1-0.3-2.6-0.8c-0.4-0.5-0.6-1.2-0.6-2.3c0-1.9,1.5-3.2,3.8-3.2c1.3,0,2.4,0.3,3,1
			c0.6,0.6,0.9,1.3,0.9,2.2L104,144.1L104,144.1z M99.6,135.5c0,0.6-0.5,1-1,1c-0.6,0-1-0.5-1-1c0-0.6,0.5-1,1-1
			C99.2,134.5,99.6,135,99.6,135.5z M102.1,141.2c0-1-0.7-1.6-2.1-1.6c-1.3,0-2,0.5-2,1.6c0,0.7,0.1,1.1,0.3,1.3
			c0.2,0.2,0.7,0.2,1.5,0.2h2.3C102.1,142.7,102.1,141.2,102.1,141.2z M102.3,135.5c0,0.6-0.5,1-1,1c-0.6,0-1-0.5-1-1
			c0-0.6,0.5-1,1-1S102.3,135,102.3,135.5z"/>
		<path class="st0" d="M115.5,147.2h-2.3c-0.2,1.1-0.6,2-1.3,2.6c-0.8,0.8-1.7,1.1-2.9,1.1c-1,0-1.8-0.2-2.3-0.5l-0.8-1.8
			c1.1,0.5,2.1,0.7,3.1,0.7c1.2,0,2.2-1,2.3-2.2h-1.5c-1.3,0-2.4-0.4-3.1-1.2c-0.7-0.7-1-1.7-1-2.8c0-1.3,0.3-2.4,0.9-3.2
			c0.7-1,1.7-1.5,3.1-1.5c2.5,0,3.8,1.5,3.8,4.6c0,0.6,0,1.4,0,2.4h2.2v1.8H115.5z M111.5,143.2c0-0.9-0.1-1.6-0.3-2
			c-0.3-0.7-0.8-1-1.6-1c-1.4,0-2.1,1-2.1,3c0,1.6,0.7,2.4,2.2,2.4h1.7L111.5,143.2z"/>
		<path class="st0" d="M120,143.7c0,1-0.3,1.8-1,2.5s-1.6,1-2.7,1H115v-1.7h1.2c1.3,0,1.9-0.7,1.9-2V135l1.9-0.6V143.7z"/>
		<path class="st0" d="M123.6,147.2h-1.9v-12.1l1.9-0.6V147.2z"/>
		<path class="st0" d="M137.6,143.1h-2h-2c-2,0-3.2,1.4-3.2,3.3c0,1.8,1.2,2.9,3.2,2.9c0.6,0,1.1-0.1,1.4-0.2c0.5-0.1,1-0.5,1.6-1v2
			c-0.9,0.5-1.9,0.8-3.1,0.8c-1.5,0-2.7-0.4-3.7-1.3c-0.9-0.8-1.4-1.9-1.4-3.3c0-2.1,1-3.7,2.8-4.5v-0.7c0-0.9,0.3-1.6,0.8-2.3
			c0.6-0.6,1.3-0.9,2.4-0.9c0.9,0,1.7,0.4,2.4,1.1l-1.2,1.2c-0.3-0.5-0.8-0.7-1.3-0.7c-0.8,0-1.2,0.5-1.2,1.3v0.4h3.5L137.6,143.1z"
			/>
		<path class="st0" d="M149.1,147.2h-2.3c-0.2,1.1-0.6,2-1.3,2.6c-0.8,0.8-1.7,1.1-2.9,1.1c-1,0-1.8-0.2-2.3-0.5l-0.8-1.8
			c1.1,0.5,2.1,0.7,3.1,0.7c1.2,0,2.2-1,2.3-2.2h-1.5c-1.3,0-2.4-0.4-3.1-1.2c-0.7-0.7-1-1.7-1-2.8c0-1.3,0.3-2.4,0.9-3.2
			c0.7-1,1.7-1.5,3.1-1.5c2.5,0,3.8,1.5,3.8,4.6c0,0.6,0,1.4,0,2.4h2.2v1.8H149.1z M145.1,143.2c0-0.9-0.1-1.6-0.3-2
			c-0.3-0.7-0.8-1-1.6-1c-1.4,0-2.1,1-2.1,3c0,1.6,0.7,2.4,2.2,2.4h1.7L145.1,143.2z"/>
		<path class="st0" d="M156.8,147.2h-1.2c-1.2,0-2.1-0.4-2.7-1c-0.7,0.7-1.6,1-2.8,1h-1.4v-1.6h1.3c1.3,0,2-0.7,2-2v-4.7l1.9-0.6
			v5.3c0,1.3,0.7,2,2,2h1.1v1.6H156.8z M153.8,135.5c0,0.6-0.5,1-1,1c-0.6,0-1-0.5-1-1c0-0.6,0.5-1,1-1S153.8,135,153.8,135.5z"/>
		<path class="st0" d="M169.9,147.2h-0.3c-1.2,0-2.1-0.4-2.7-1.2c-0.5,1.7-1.9,2.6-3.8,2.6c-1.8,0-3.2-0.9-3.8-2.4
			c-0.6,0.7-1.4,1-2.4,1h-0.6v-1.7h0.5c1.4,0,2.2-0.6,2.4-1.9c0.3-2.3,1.7-3.5,4-3.5c1.3,0,2.2,0.3,2.9,0.9c0.6,0.5,0.9,1.4,1.1,2.6
			c0.2,1.3,1,1.9,2.4,1.9h0.4L169.9,147.2L169.9,147.2z M165.1,144.4c0-1.8-0.7-2.6-2.1-2.6c-1.4,0-2.1,0.9-2.1,2.6
			c0,1.8,0.7,2.6,2.1,2.6C164.4,147,165.1,146.2,165.1,144.4z"/>
		<path class="st0" d="M179.8,143c0,1.2-0.3,2.2-0.8,2.9c-0.7,0.9-1.7,1.3-3,1.3c-1.1,0-2.1-0.4-2.7-1c-0.6,0.7-1.6,1-2.9,1h-0.9
			v-1.6h0.8c1.3,0,1.9-0.7,1.9-2V143c0-1.2,0.3-2.2,0.8-2.9c0.7-0.9,1.7-1.3,3-1.3s2.4,0.4,3,1.3C179.5,140.8,179.8,141.8,179.8,143
			z M177.9,143c0-1.8-0.7-2.6-1.9-2.6c-1.3,0-2,0.9-2,2.6s0.7,2.6,2,2.6S177.9,144.8,177.9,143z"/>
	</g>
</g>
</svg>
