<?xml version="1.0" encoding="utf-8"?>
<!-- Generator: Adobe Illustrator 22.1.0, SVG Export Plug-In . SVG Version: 6.00 Build 0)  -->
<svg version="1.1" id="Layer_1" xmlns="http://www.w3.org/2000/svg" xmlns:xlink="http://www.w3.org/1999/xlink" x="0px" y="0px"
	 viewBox="0 0 248 248" style="enable-background:new 0 0 248 248;" xml:space="preserve">
<style type="text/css">
	.st0{fill:#FFFFFF;}
	.st1{fill:#0054A5;}
	.st2{fill:#EC1C24;}
	.st3{fill:#231F20;}
</style>
<g>
	<rect x="41.7" y="0.6" class="st0" width="165.3" height="248"/>
	<g>
		<g>
			
				<ellipse transform="matrix(0.371 -0.9286 0.9286 0.371 19.6312 155.3004)" class="st1" cx="124.5" cy="63.2" rx="48.8" ry="48.8"/>
		</g>
	</g>
	<path class="st2" d="M177,40.9c-2.9-6.8-7-12.9-12.2-18.1c-5.2-5.2-11.3-9.3-18.1-12.2c-7-3-14.5-4.5-22.2-4.5
		c-7.7,0-15.2,1.5-22.2,4.5c-6.8,2.9-12.9,7-18.1,12.2c-5.2,5.2-9.3,11.3-12.2,18.1c-3,7-4.5,14.5-4.5,22.2c0,7.7,1.5,15.2,4.5,22.2
		c2.9,6.8,7,12.9,12.2,18.1c5.2,5.2,11.3,9.3,18.1,12.2c7,3,14.5,4.5,22.2,4.5c7.7,0,15.2-1.5,22.2-4.5c6.8-2.9,12.9-7,18.1-12.2
		c5.2-5.2,9.3-11.3,12.2-18.1c3-7,4.5-14.5,4.5-22.2C181.5,55.4,180,47.9,177,40.9z M105.7,18.7c5.9-2.5,12.2-3.8,18.8-3.8
		c6.5,0,12.8,1.3,18.8,3.8c3.9,1.6,7.5,3.8,10.8,6.4l-29.8,29.8L94.6,25.2C98,22.6,101.7,20.4,105.7,18.7z M76.3,63.1
		c0-6.5,1.3-12.8,3.8-18.8c1.7-4.1,4-7.9,6.8-11.4l29.6,29.6L86.4,92.7c-2.6-3.3-4.7-6.9-6.4-10.8C77.6,75.9,76.3,69.6,76.3,63.1z
		 M143.2,107.5c-5.9,2.5-12.2,3.8-18.8,3.8c-6.5,0-12.8-1.3-18.8-3.8c-4.2-1.8-8.1-4.1-11.6-7l30.1-30.1l30.3,30.3
		C151.1,103.5,147.3,105.8,143.2,107.5z M168.9,81.8c-1.7,4-3.9,7.7-6.5,11.1L132,62.6l29.9-29.9c2.9,3.5,5.2,7.4,7,11.6
		c2.5,5.9,3.8,12.2,3.8,18.8C172.6,69.6,171.4,75.9,168.9,81.8z"/>
	<g>
		<path class="st2" d="M45.4,131.1c0-1.5,1.4-5.5,6.6-5.5c4.5,0,143.6-0.2,145.2-0.2c1.6,0,6.4,1.1,6.4,5.6c0,4.5,0.1,20.2,0.1,21.7
			c0,1.5-1.7,5.5-6.4,5.5c-5.8,0-145.6,0-145.6,0s-6.5-0.4-6.5-5.6C45.2,147.3,45.4,132.6,45.4,131.1z"/>
	</g>
	<g>
		<g>
			<path class="st0" d="M54.9,147.3H53c-1.5,0-2.4-0.9-2.4-2.3v-8.7l1.7-0.5v9.2c0,0.6,0.3,0.9,0.9,0.9h1.7V147.3z"/>
			<path class="st0" d="M61.8,147.3h-1.1c-1.1,0-1.9-0.3-2.5-0.9c-0.6,0.6-1.4,0.9-2.5,0.9h-1.3v-1.5h1.2c1.2,0,1.8-0.6,1.8-1.8
				v-4.3l1.7-0.5v4.8c0,1.2,0.6,1.8,1.8,1.8h1V147.3z M58,149.8c0,0.5-0.4,0.9-0.9,0.9c-0.5,0-0.9-0.4-0.9-0.9
				c0-0.5,0.4-0.9,0.9-0.9C57.6,148.9,58,149.3,58,149.8z M60.4,149.8c0,0.5-0.4,0.9-0.9,0.9c-0.5,0-0.9-0.4-0.9-0.9
				c0-0.5,0.4-0.9,0.9-0.9C60,148.9,60.4,149.3,60.4,149.8z"/>
			<path class="st0" d="M71.3,147.3h-9.9v-1.5h2v-3.1c0-1,0.3-1.8,0.9-2.5c0.6-0.7,1.5-1,2.7-1c1,0,1.8,0.4,2.5,1.1l-1.3,1.1
				c-0.4-0.5-0.9-0.8-1.5-0.8c-1,0-1.7,0.8-1.7,1.8v3.3h6.2V147.3z"/>
			<path class="st0" d="M86.1,147.3H70.8v-1.5H73v-9.2l1.7-0.5v6.1c1.1-1.9,2.8-2.8,4.9-2.9c1.7-0.1,3,0.6,3.9,2.1
				c0.6,1,0.9,2.4,0.8,4.4h1.8V147.3z M82.6,145.8c0.1-0.3,0.1-0.5,0.1-0.8c0-1.1-0.2-2.1-0.7-2.9c-0.5-0.7-1.3-1.1-2.3-1.2
				c-1.2-0.1-2.3,0.5-3.3,1.7c-0.9,1-1.4,2.1-1.7,3.2H82.6z"/>
			<path class="st0" d="M94.1,144.5c0,1.1-0.3,1.8-0.9,2.3c-0.5,0.4-1.3,0.6-2.4,0.6h-5.1v-1.5h4.9c0.6,0,1.1,0,1.3-0.1
				c0.4-0.2,0.6-0.5,0.6-1.1h-2.4c-1.1,0-1.9-0.3-2.4-0.8c-0.4-0.4-0.6-1.1-0.6-2.1c0-1.7,1.3-2.9,3.5-2.9c1.2,0,2.1,0.3,2.8,0.9
				c0.6,0.5,0.8,1.2,0.8,2V144.5z M90.1,136.7c0,0.5-0.4,0.9-0.9,0.9c-0.5,0-0.9-0.4-0.9-0.9s0.4-0.9,0.9-0.9
				C89.6,135.8,90.1,136.2,90.1,136.7z M92.4,141.8c0-0.9-0.6-1.4-1.9-1.4c-1.2,0-1.8,0.5-1.8,1.4c0,0.6,0.1,1,0.3,1.2
				c0.2,0.1,0.6,0.2,1.3,0.2h2.1V141.8z M92.5,136.7c0,0.5-0.4,0.9-0.9,0.9c-0.5,0-0.9-0.4-0.9-0.9s0.4-0.9,0.9-0.9
				C92,135.8,92.5,136.2,92.5,136.7z"/>
			<path class="st0" d="M111.4,144.5c0,1.1-0.3,1.8-0.9,2.3c-0.5,0.4-1.3,0.6-2.4,0.6h-6.4c-1.9,0-3.2-1.2-3.2-3.1v-1.8l1.7-1.7v3.3
				c0,1.2,0.6,1.8,1.8,1.8h5.9c0.6,0,1.1,0,1.3-0.1c0.4-0.2,0.6-0.5,0.6-1.1h-2.4c-1.1,0-1.9-0.3-2.4-0.8c-0.4-0.4-0.5-1.1-0.5-2.1
				c0-1.7,1.3-2.9,3.5-2.9c1.2,0,2.1,0.3,2.8,0.9c0.5,0.5,0.8,1.2,0.8,2V144.5z M109.7,141.8c0-0.9-0.6-1.4-1.9-1.4
				c-1.2,0-1.8,0.5-1.8,1.4c0,0.6,0.1,1,0.3,1.2c0.2,0.1,0.6,0.2,1.4,0.2h2V141.8z M108.8,136.7c0,0.5-0.4,0.9-0.9,0.9
				c-0.5,0-0.9-0.4-0.9-0.9s0.4-0.9,0.9-0.9C108.3,135.8,108.8,136.2,108.8,136.7z"/>
			<path class="st0" d="M121.8,147.3h-2.1c-0.2,1-0.5,1.8-1.2,2.4c-0.7,0.7-1.5,1-2.6,1c-0.9,0-1.6-0.2-2.1-0.5l-0.8-1.6
				c1,0.4,1.9,0.7,2.8,0.6c1.1,0,2-0.9,2.1-2h-1.4c-1.2,0-2.1-0.4-2.8-1.1c-0.6-0.6-0.9-1.5-0.9-2.6c0-1.2,0.3-2.1,0.8-2.9
				c0.6-0.9,1.6-1.3,2.8-1.3c2.3,0,3.4,1.4,3.4,4.2c0,0.6,0,1.3,0,2.2h2V147.3z M118.2,143.6c0-0.8-0.1-1.4-0.2-1.8
				c-0.3-0.6-0.8-0.9-1.5-0.9c-1.2,0-1.9,0.9-1.9,2.7c0,1.4,0.7,2.2,2,2.2h1.6L118.2,143.6z"/>
			<path class="st0" d="M129.8,144.5c0,1.1-0.3,1.8-0.9,2.3c-0.5,0.4-1.3,0.6-2.4,0.6h-5.1v-1.5h4.9c0.6,0,1.1,0,1.3-0.1
				c0.4-0.2,0.6-0.5,0.6-1.1h-2.4c-1.1,0-1.9-0.3-2.4-0.8c-0.4-0.4-0.6-1.1-0.6-2.1c0-1.7,1.3-2.9,3.5-2.9c1.2,0,2.1,0.3,2.8,0.9
				c0.6,0.5,0.8,1.2,0.8,2V144.5z M125.8,136.7c0,0.5-0.4,0.9-0.9,0.9c-0.5,0-0.9-0.4-0.9-0.9s0.4-0.9,0.9-0.9
				C125.4,135.8,125.8,136.2,125.8,136.7z M128.1,141.8c0-0.9-0.6-1.4-1.9-1.4c-1.2,0-1.8,0.5-1.8,1.4c0,0.6,0.1,1,0.3,1.2
				c0.2,0.1,0.6,0.2,1.3,0.2h2.1V141.8z M128.2,136.7c0,0.5-0.4,0.9-0.9,0.9c-0.5,0-0.9-0.4-0.9-0.9s0.4-0.9,0.9-0.9
				C127.8,135.8,128.2,136.2,128.2,136.7z"/>
			<path class="st0" d="M140.2,147.3h-2.1c-0.2,1-0.5,1.8-1.2,2.4c-0.7,0.7-1.5,1-2.6,1c-0.9,0-1.6-0.2-2.1-0.5l-0.8-1.6
				c1,0.4,1.9,0.7,2.8,0.6c1.1,0,2-0.9,2.1-2H135c-1.2,0-2.1-0.4-2.8-1.1c-0.6-0.6-0.9-1.5-0.9-2.6c0-1.2,0.3-2.1,0.8-2.9
				c0.6-0.9,1.6-1.3,2.8-1.3c2.3,0,3.4,1.4,3.4,4.2c0,0.6,0,1.3,0,2.2h2V147.3z M136.6,143.6c0-0.8-0.1-1.4-0.2-1.8
				c-0.3-0.6-0.8-0.9-1.5-0.9c-1.2,0-1.9,0.9-1.9,2.7c0,1.4,0.7,2.2,2,2.2h1.6L136.6,143.6z"/>
			<path class="st0" d="M144.3,144.1c0,0.9-0.3,1.7-0.9,2.3c-0.6,0.6-1.4,0.9-2.5,0.9h-1.1v-1.5h1.1c1.2,0,1.8-0.6,1.8-1.8v-7.7
				l1.7-0.5V144.1z"/>
			<path class="st0" d="M147.6,147.3h-1.7v-11l1.7-0.5V147.3z"/>
			<path class="st0" d="M160.2,143.6h-1.8h-1.8c-1.8,0-2.9,1.3-2.9,3c0,1.6,1.1,2.6,2.9,2.6c0.6,0,1-0.1,1.3-0.1
				c0.4-0.1,0.9-0.4,1.5-0.9l0,1.8c-0.8,0.5-1.7,0.7-2.8,0.7c-1.3,0-2.4-0.4-3.3-1.1c-0.9-0.8-1.3-1.7-1.3-3c0-1.9,0.9-3.4,2.5-4.1
				v-0.6c0-0.8,0.3-1.5,0.7-2c0.5-0.6,1.2-0.8,2.1-0.8c0.8,0,1.6,0.3,2.1,1l-1.1,1.1c-0.3-0.4-0.7-0.6-1.2-0.6
				c-0.7,0-1.1,0.4-1.1,1.2v0.4h3.2L160.2,143.6z"/>
			<path class="st0" d="M170.7,147.3h-2.1c-0.2,1-0.5,1.8-1.2,2.4c-0.7,0.7-1.5,1-2.6,1c-0.9,0-1.6-0.2-2.1-0.5l-0.8-1.6
				c1,0.4,1.9,0.7,2.8,0.6c1.1,0,2-0.9,2.1-2h-1.4c-1.2,0-2.1-0.4-2.8-1.1c-0.6-0.6-0.9-1.5-0.9-2.6c0-1.2,0.3-2.1,0.8-2.9
				c0.6-0.9,1.6-1.3,2.8-1.3c2.3,0,3.4,1.4,3.4,4.2c0,0.6,0,1.3,0,2.2h2V147.3z M167.1,143.6c0-0.8-0.1-1.4-0.2-1.8
				c-0.3-0.6-0.8-0.9-1.5-0.9c-1.2,0-1.9,0.9-1.9,2.7c0,1.4,0.7,2.2,2,2.2h1.6L167.1,143.6z"/>
			<path class="st0" d="M177.6,147.3h-1.1c-1.1,0-1.9-0.3-2.5-0.9c-0.6,0.6-1.4,0.9-2.5,0.9h-1.3v-1.5h1.2c1.2,0,1.8-0.6,1.8-1.8
				v-4.3l1.7-0.5v4.8c0,1.2,0.6,1.8,1.8,1.8h1V147.3z M174.9,136.7c0,0.5-0.4,0.9-0.9,0.9c-0.5,0-0.9-0.4-0.9-0.9s0.4-0.9,0.9-0.9
				C174.5,135.8,174.9,136.2,174.9,136.7z"/>
			<path class="st0" d="M189.5,147.3h-0.2c-1.1,0-1.9-0.4-2.5-1.1c-0.4,1.5-1.8,2.4-3.5,2.4c-1.6,0-2.9-0.8-3.4-2.1
				c-0.5,0.6-1.3,0.9-2.2,0.9h-0.6v-1.5h0.5c1.3,0,2-0.6,2.1-1.7c0.3-2.1,1.5-3.1,3.6-3.1c1.2,0,2,0.3,2.6,0.8
				c0.5,0.5,0.8,1.3,1,2.3c0.2,1.2,0.9,1.8,2.2,1.8l0.4,0V147.3z M185.2,144.7c0-1.6-0.6-2.4-1.9-2.4c-1.3,0-1.9,0.8-1.9,2.4
				s0.6,2.4,1.9,2.4C184.6,147.1,185.2,146.3,185.2,144.7z"/>
			<path class="st0" d="M198.5,143.4c0,1.1-0.3,2-0.7,2.6c-0.6,0.8-1.5,1.2-2.7,1.2c-1,0-1.9-0.3-2.5-0.9c-0.6,0.6-1.4,0.9-2.6,0.9
				h-0.8v-1.5h0.7c1.2,0,1.8-0.6,1.8-1.8v-0.6c0-1.1,0.3-2,0.7-2.6c0.6-0.8,1.5-1.2,2.7-1.2c1.2,0,2.1,0.4,2.7,1.2
				C198.2,141.5,198.5,142.3,198.5,143.4z M196.8,143.4c0-1.6-0.6-2.4-1.8-2.4c-1.2,0-1.8,0.8-1.8,2.4c0,1.6,0.6,2.4,1.8,2.4
				C196.2,145.8,196.8,145,196.8,143.4z"/>
		</g>
	</g>
	<g>
		<g>
			<g>
				<path class="st1" d="M45.6,186l20.5-4.9l16.4,11.7l19.3-4.2l4.5,18.9l2.7-0.6l20.4-28.4l14.9,0l42.1,22.8l17.1,0v-33.9
					c0,0-1-5.1-5.1-5.1c-4.1,0-146.4,0-147,0c-2.3,0-5.5,2-5.5,5C45.7,171.2,45.6,186,45.6,186z"/>
			</g>
			<g>
				<path class="st1" d="M98.9,213.9c-0.8-4.4-4.9-10.5-12.3-12c-2.6-0.5-6.8-0.5-9.9,1.1c-5.3,2.6-7.9,6.6-8.9,10.4
					c-1,4.2-0.2,7.9-0.2,7.9l-22.1,5.3v11.5c0,3.4,2.8,6.2,6.2,6.2h145.5c3.4,0,6.2-2.8,6.2-6.2v-14.4c-1.7,0-14.4-0.1-14.4-0.1
					s-0.2-15.2-16.3-16.1c-15.8,0.7-16.2,16.1-16.2,16.1l-20.1,0.1l0-22.4h15.3L140,182.8l-8.9,0l-20.2,28.3l-11.8,2.8"/>
			</g>
			<g>
				<polygon class="st1" points="45.7,189.3 65.1,184.7 72.3,195 45.7,201.3 				"/>
				<path class="st3" d="M45.7,201.4L45.7,201.4l0.1-12.1l0,0l19.3-4.6l0,0l7.3,10.3l0,0L45.7,201.4z M45.8,189.4l-0.1,11.9
					l26.5-6.3L65,184.8L45.8,189.4z"/>
			</g>
		</g>
		<g>
			
				<ellipse transform="matrix(0.6452 -0.764 0.764 0.6452 -109.3993 211.603)" class="st0" cx="173.1" cy="223.6" rx="12.8" ry="12.8"/>
		</g>
		<g>
			
				<ellipse transform="matrix(0.6452 -0.764 0.764 0.6452 -137.0354 141.3732)" class="st0" cx="83.7" cy="218.2" rx="12.8" ry="12.8"/>
		</g>
		<g>
			<polygon class="st1" points="145.5,184.9 175.2,201.4 156.2,201.4 			"/>
		</g>
	</g>
</g>
</svg>
