<?xml version="1.0" encoding="utf-8"?>
<!-- Generator: Adobe Illustrator 22.1.0, SVG Export Plug-In . SVG Version: 6.00 Build 0)  -->
<svg version="1.1" id="Layer_1" xmlns="http://www.w3.org/2000/svg" xmlns:xlink="http://www.w3.org/1999/xlink" x="0px" y="0px"
	 viewBox="0 0 248 248" style="enable-background:new 0 0 248 248;" xml:space="preserve">
<style type="text/css">
	.st0{fill:#FFFFFF;}
	.st1{fill:#EC1C24;}
	.st2{fill:#0054A5;}
	.st3{fill:#231F20;}
</style>
<g>
	<rect x="41.1" y="0" class="st0" width="165.3" height="248"/>
	<path class="st1" d="M197.9,121.2H49.6c-3.1,0-5.7,2.5-5.7,5.5v25.5c0,3,2.6,5.5,5.7,5.5h148.3c3.1,0,5.7-2.5,5.7-5.5v-25.5
		C203.6,123.6,201.1,121.2,197.9,121.2"/>
	<path class="st2" d="M197.9,99.9H49.6c-3.1,0-5.7,2.5-5.7,5.5v7.4c0,3,2.6,5.5,5.7,5.5h148.3c3.1,0,5.7-2.5,5.7-5.5v-7.4
		C203.6,102.4,201.1,99.9,197.9,99.9"/>
	<g>
		<g>
			<path class="st2" d="M44.2,184.9l20.7-4.9l16.5,11.8l19.5-4.2l4.5,19l2.7-0.6l20.6-28.6l15.1,0l42.4,23l17.2,0v-34.1
				c0,0-1-5.1-5.2-5.1c-4.2,0-147.5,0-148.2,0c-2.3,0-5.7,2-5.7,5.1C44.2,170,44.2,184.9,44.2,184.9z"/>
		</g>
		<g>
			<polygon class="st2" points="145.1,184.5 175.1,201.2 155.8,201.2 			"/>
		</g>
		<g>
			<path class="st2" d="M98.1,213.1l11.9-2.8l20.3-28.5l9,0l11.8,18.6h-15.4l0,22.5l20.3-0.1c0,0,0.4-15.4,16.3-16.2
				c16.2,0.9,16.5,16.2,16.5,16.2s12.9,0.1,14.5,0.1v14.5c0,3.5-2.8,6.3-6.3,6.3H50.4c-3.5,0-6.3-2.8-6.3-6.3v-11.6l22.2-5.3
				c0,0-0.8-3.7,0.2-8c0.9-3.8,3.6-7.8,8.9-10.4c3.2-1.6,7.4-1.6,10-1.1c7.4,1.5,11.6,7.6,12.4,12.1"/>
		</g>
		<g>
			
				<ellipse transform="matrix(0.6452 -0.764 0.764 0.6452 -109.1983 210.5332)" class="st0" cx="172.1" cy="222.8" rx="12.9" ry="12.9"/>
		</g>
		<g>
			<circle class="st0" cx="82.4" cy="217.2" r="12.9"/>
		</g>
		<g>
			<polygon class="st2" points="44.3,188.3 63.8,183.7 71.1,194.1 44.2,200.4 			"/>
			<path class="st3" d="M44.2,200.4L44.2,200.4l0.1-12.1l0,0l19.5-4.6l0,0l7.3,10.4l0,0L44.2,200.4z M44.3,188.3l-0.1,12L71,194
				l-7.3-10.3L44.3,188.3z"/>
		</g>
	</g>
	<path class="st2" d="M159,9H87.7c-3.1,0-5.7,2.5-5.7,5.5v70.4c0,3,2.6,5.5,5.7,5.5H159c3.1,0,5.7-2.5,5.7-5.5V14.5
		C164.7,11.5,162.1,9,159,9"/>
	<g>
		<path class="st0" d="M64.3,144c0.6-0.1,1.5-0.2,2.6-0.2c1.2,0,2.1,0.2,2.6,0.7c0.6,0.4,0.9,1.2,0.9,2c0,0.8-0.3,1.6-0.8,2.1
			c-0.7,0.6-1.7,0.9-2.8,0.9c-0.3,0-0.5,0-0.7-0.1v3.1h-1.9V144z M66.3,148c0.2,0,0.4,0.1,0.7,0.1c1,0,1.7-0.5,1.7-1.4
			c0-0.8-0.6-1.3-1.5-1.3c-0.4,0-0.7,0-0.8,0.1V148z"/>
		<path class="st0" d="M73.2,150.1c0.1,0.8,0.9,1.2,1.8,1.2c0.7,0,1.2-0.1,1.7-0.3l0.3,1.3c-0.6,0.3-1.4,0.4-2.3,0.4
			c-2.1,0-3.3-1.2-3.3-3.2c0-1.6,1-3.3,3.2-3.3c2,0,2.8,1.6,2.8,3.1c0,0.3,0,0.6-0.1,0.8H73.2z M75.5,148.7c0-0.5-0.2-1.3-1.1-1.3
			c-0.8,0-1.2,0.8-1.2,1.3H75.5z"/>
		<path class="st0" d="M78.8,148.4c0-0.9,0-1.5-0.1-2.1h1.7l0.1,1.2h0.1c0.3-0.9,1.1-1.3,1.7-1.3c0.2,0,0.3,0,0.4,0v1.8
			c-0.2,0-0.3-0.1-0.5-0.1c-0.7,0-1.2,0.4-1.3,1c0,0.1,0,0.3,0,0.4v3.2h-2V148.4z"/>
		<path class="st0" d="M84,148.3c0-0.8,0-1.4-0.1-2h1.7l0.1,0.8h0c0.3-0.4,0.8-1,1.9-1c0.8,0,1.4,0.4,1.7,1.1h0
			c0.2-0.3,0.5-0.6,0.8-0.8c0.3-0.2,0.7-0.3,1.2-0.3c1.2,0,2.1,0.8,2.1,2.7v3.7h-1.9v-3.4c0-0.9-0.3-1.4-0.9-1.4
			c-0.5,0-0.8,0.3-0.9,0.7c0,0.1-0.1,0.3-0.1,0.5v3.7h-1.9V149c0-0.8-0.3-1.3-0.9-1.3c-0.5,0-0.8,0.4-0.9,0.7
			c-0.1,0.2-0.1,0.3-0.1,0.5v3.7H84V148.3z"/>
		<path class="st0" d="M97.4,144.6c0,0.5-0.4,1-1.1,1c-0.6,0-1-0.4-1-1c0-0.6,0.4-1,1-1C97,143.6,97.4,144,97.4,144.6z M95.4,152.6
			v-6.3h2v6.3H95.4z"/>
		<path class="st0" d="M101.4,144.6v1.7h1.4v1.4h-1.4v2.3c0,0.8,0.2,1.1,0.8,1.1c0.3,0,0.4,0,0.6-0.1l0,1.5
			c-0.2,0.1-0.7,0.2-1.3,0.2c-0.6,0-1.2-0.2-1.5-0.5c-0.4-0.4-0.5-1-0.5-1.9v-2.6h-0.8v-1.4h0.8v-1.2L101.4,144.6z"/>
		<path class="st0" d="M109.2,143.9v3.3h3.2v-3.3h2v8.6h-2V149h-3.2v3.6h-2v-8.6H109.2z"/>
		<path class="st0" d="M122.5,149.4c0,2.3-1.6,3.3-3.3,3.3c-1.8,0-3.2-1.2-3.2-3.2c0-2,1.3-3.3,3.4-3.3
			C121.2,146.1,122.5,147.5,122.5,149.4z M117.9,149.4c0,1.1,0.4,1.9,1.3,1.9c0.8,0,1.2-0.8,1.2-1.9c0-0.9-0.4-1.9-1.2-1.9
			C118.3,147.5,117.9,148.5,117.9,149.4z"/>
		<path class="st0" d="M124,143.5h2v9.1h-2V143.5z"/>
		<path class="st0" d="M133.9,143.5v7.2c0,0.7,0,1.5,0.1,1.9h-1.7l-0.1-0.9h0c-0.4,0.7-1.2,1.1-2,1.1c-1.5,0-2.7-1.3-2.7-3.2
			c0-2.1,1.3-3.3,2.8-3.3c0.8,0,1.4,0.3,1.7,0.7h0v-3.4H133.9z M132,149c0-0.1,0-0.2,0-0.4c-0.1-0.5-0.5-0.9-1.1-0.9
			c-0.9,0-1.3,0.8-1.3,1.8c0,1.1,0.5,1.7,1.3,1.7c0.6,0,1-0.4,1.1-0.9c0-0.1,0-0.3,0-0.4V149z"/>
		<path class="st0" d="M137.3,150.1c0.1,0.8,0.9,1.2,1.8,1.2c0.7,0,1.2-0.1,1.7-0.3l0.3,1.3c-0.6,0.3-1.4,0.4-2.3,0.4
			c-2.1,0-3.3-1.2-3.3-3.2c0-1.6,1-3.3,3.2-3.3c2,0,2.8,1.6,2.8,3.1c0,0.3,0,0.6-0.1,0.8H137.3z M139.6,148.7c0-0.5-0.2-1.3-1.1-1.3
			c-0.8,0-1.2,0.8-1.2,1.3H139.6z"/>
		<path class="st0" d="M142.9,148.4c0-0.9,0-1.5-0.1-2.1h1.7l0.1,1.2h0.1c0.3-0.9,1.1-1.3,1.7-1.3c0.2,0,0.3,0,0.4,0v1.8
			c-0.2,0-0.3-0.1-0.5-0.1c-0.7,0-1.2,0.4-1.3,1c0,0.1,0,0.3,0,0.4v3.2h-2V148.4z"/>
		<path class="st0" d="M148.1,150.9c0.4,0.2,1.1,0.5,1.7,0.5c0.6,0,0.8-0.2,0.8-0.5c0-0.3-0.2-0.5-0.9-0.7c-1.3-0.4-1.8-1.1-1.8-1.9
			c0-1.2,1-2.1,2.6-2.1c0.7,0,1.4,0.2,1.8,0.4l-0.3,1.3c-0.3-0.2-0.8-0.4-1.4-0.4c-0.5,0-0.7,0.2-0.7,0.5c0,0.3,0.2,0.5,1,0.7
			c1.2,0.4,1.7,1,1.7,1.9c0,1.2-0.9,2-2.7,2c-0.8,0-1.6-0.2-2-0.4L148.1,150.9z"/>
		<path class="st0" d="M164.9,148.2c0,2.8-1.7,4.6-4.2,4.6c-2.6,0-4.1-1.9-4.1-4.4c0-2.6,1.7-4.5,4.2-4.5
			C163.4,143.8,164.9,145.8,164.9,148.2z M158.6,148.3c0,1.7,0.8,2.9,2.1,2.9c1.3,0,2.1-1.3,2.1-2.9c0-1.6-0.7-2.9-2.1-2.9
			C159.4,145.3,158.6,146.6,158.6,148.3z"/>
		<path class="st0" d="M166.5,148.3c0-0.8,0-1.4-0.1-2h1.7l0.1,0.9h0c0.3-0.4,0.9-1,1.9-1c1.3,0,2.2,0.9,2.2,2.7v3.7h-2v-3.5
			c0-0.8-0.3-1.4-1-1.4c-0.5,0-0.9,0.4-1,0.7c-0.1,0.1-0.1,0.3-0.1,0.5v3.6h-2V148.3z"/>
		<path class="st0" d="M174.3,143.5h2v9.1h-2V143.5z"/>
		<path class="st0" d="M179.6,146.3l0.9,3.1c0.1,0.4,0.2,0.8,0.3,1.2h0.1c0.1-0.3,0.2-0.8,0.3-1.2l0.8-3.1h2.1l-1.5,4.1
			c-0.9,2.5-1.5,3.5-2.2,4.1c-0.7,0.6-1.4,0.8-1.9,0.9l-0.4-1.6c0.2-0.1,0.6-0.2,0.8-0.3c0.3-0.2,0.6-0.5,0.8-0.8
			c0.1-0.1,0.1-0.2,0.1-0.3c0-0.1,0-0.2-0.1-0.3l-2.3-5.7H179.6z"/>
	</g>
	<g>
		<path class="st0" d="M113,57v21.3h-11.8V19.5h23.4c6.9,0,12.2,1.7,16,5.1c3.8,3.4,5.7,7.9,5.7,13.7s-1.9,10.3-5.7,13.6
			c-3.8,3.4-9.2,5-16,5H113z M113,47.9h11.6c3.4,0,5.9-0.9,7.5-2.6c1.7-1.8,2.5-4.1,2.5-6.9c0-2.9-0.8-5.2-2.5-7
			c-1.7-1.8-4.2-2.7-7.5-2.7H113V47.9z"/>
	</g>
	<g>
		<path class="st0" d="M59.1,109.8c0-1.3,0.2-2.3,0.7-3.2c0.5-0.9,1-1.4,1.7-1.7l0.3,0.7c-0.4,0.3-0.8,0.8-1.1,1.5
			c-0.3,0.7-0.4,1.6-0.4,2.7v0.1c0,1.1,0.1,2,0.4,2.7c0.3,0.7,0.6,1.2,1.1,1.5l-0.3,0.7c-0.6-0.3-1.2-0.8-1.7-1.7
			c-0.5-0.8-0.7-1.9-0.7-3.2V109.8z"/>
		<path class="st0" d="M68.1,105.6c0.3,0,0.5,0,0.7,0.1c0.2,0,0.4,0.1,0.7,0.2l-0.2,1c-0.2-0.1-0.4-0.1-0.6-0.2
			c-0.2,0-0.3-0.1-0.6-0.1c-0.4,0-0.8,0.2-1,0.5c-0.3,0.3-0.4,0.8-0.4,1.4c0.2-0.2,0.4-0.3,0.6-0.4c0.2-0.1,0.5-0.1,0.8-0.1
			c0.6,0,1.1,0.2,1.5,0.6c0.3,0.4,0.5,1,0.5,1.7c0,0.7-0.2,1.3-0.6,1.7c-0.4,0.4-1,0.7-1.7,0.7c-0.7,0-1.3-0.2-1.8-0.7
			c-0.5-0.5-0.7-1.2-0.7-2.1v-1.3c0-0.9,0.3-1.6,0.8-2.2C66.6,105.8,67.3,105.6,68.1,105.6z M67.8,109c-0.3,0-0.5,0-0.7,0.1
			c-0.2,0.1-0.3,0.2-0.4,0.3v0.5c0,0.6,0.1,1,0.3,1.3c0.2,0.3,0.5,0.4,0.8,0.4c0.3,0,0.5-0.1,0.7-0.4c0.2-0.3,0.3-0.6,0.3-1
			c0-0.4-0.1-0.7-0.3-0.9C68.3,109.1,68.1,109,67.8,109z"/>
		<path class="st0" d="M73.9,105.6c0.3,0,0.5,0,0.7,0.1c0.2,0,0.4,0.1,0.7,0.2l-0.2,1c-0.2-0.1-0.4-0.1-0.6-0.2
			c-0.2,0-0.3-0.1-0.6-0.1c-0.4,0-0.8,0.2-1,0.5c-0.3,0.3-0.4,0.8-0.4,1.4c0.2-0.2,0.4-0.3,0.6-0.4c0.2-0.1,0.5-0.1,0.8-0.1
			c0.6,0,1.1,0.2,1.5,0.6c0.3,0.4,0.5,1,0.5,1.7c0,0.7-0.2,1.3-0.6,1.7c-0.4,0.4-1,0.7-1.7,0.7c-0.7,0-1.3-0.2-1.8-0.7
			c-0.5-0.5-0.7-1.2-0.7-2.1v-1.3c0-0.9,0.3-1.6,0.8-2.2C72.4,105.8,73.1,105.6,73.9,105.6z M73.6,109c-0.3,0-0.5,0-0.7,0.1
			c-0.2,0.1-0.3,0.2-0.4,0.3v0.5c0,0.6,0.1,1,0.3,1.3c0.2,0.3,0.5,0.4,0.8,0.4c0.3,0,0.5-0.1,0.7-0.4c0.2-0.3,0.3-0.6,0.3-1
			c0-0.4-0.1-0.7-0.3-0.9C74.1,109.1,73.9,109,73.6,109z"/>
		<path class="st0" d="M81.6,109.9c0,0.9-0.2,1.6-0.6,2.1c-0.4,0.5-1,0.7-1.7,0.7c-0.7,0-1.3-0.2-1.7-0.7c-0.4-0.5-0.6-1.2-0.6-2.1
			v-1.5c0-0.9,0.2-1.6,0.6-2.1c0.4-0.5,1-0.7,1.7-0.7c0.7,0,1.3,0.2,1.7,0.7c0.4,0.5,0.6,1.2,0.6,2.1V109.9z M80.2,108.2
			c0-0.6-0.1-1-0.2-1.2c-0.2-0.2-0.4-0.4-0.7-0.4c-0.3,0-0.6,0.1-0.7,0.4c-0.2,0.2-0.2,0.7-0.2,1.2v1.8c0,0.6,0.1,1,0.2,1.2
			c0.2,0.2,0.4,0.4,0.7,0.4c0.3,0,0.6-0.1,0.7-0.4c0.2-0.2,0.2-0.7,0.2-1.2V108.2z"/>
		<path class="st0" d="M87.5,112.6h-4.7v-0.9l2.2-2.4c0.3-0.4,0.6-0.7,0.7-0.9c0.1-0.2,0.2-0.5,0.2-0.7c0-0.3-0.1-0.5-0.2-0.7
			c-0.2-0.2-0.4-0.3-0.7-0.3c-0.3,0-0.6,0.1-0.7,0.3c-0.2,0.2-0.2,0.5-0.2,0.9h-1.4c0-0.6,0.2-1.2,0.6-1.6c0.4-0.4,1-0.6,1.7-0.6
			c0.7,0,1.3,0.2,1.7,0.5c0.4,0.4,0.6,0.9,0.6,1.5c0,0.4-0.1,0.8-0.3,1.2c-0.2,0.3-0.6,0.8-1.1,1.4l-1.3,1.4h2.9V112.6z"/>
		<path class="st0" d="M94,110.2h-2.7v-1.1H94V110.2z"/>
		<path class="st0" d="M100.7,105.6c0.3,0,0.5,0,0.7,0.1c0.2,0,0.4,0.1,0.7,0.2l-0.2,1c-0.2-0.1-0.4-0.1-0.6-0.2
			c-0.2,0-0.3-0.1-0.6-0.1c-0.4,0-0.8,0.2-1,0.5c-0.3,0.3-0.4,0.8-0.4,1.4c0.2-0.2,0.4-0.3,0.6-0.4c0.2-0.1,0.5-0.1,0.8-0.1
			c0.6,0,1.1,0.2,1.5,0.6c0.3,0.4,0.5,1,0.5,1.7c0,0.7-0.2,1.3-0.6,1.7c-0.4,0.4-1,0.7-1.7,0.7c-0.7,0-1.3-0.2-1.8-0.7
			c-0.5-0.5-0.7-1.2-0.7-2.1v-1.3c0-0.9,0.3-1.6,0.8-2.2C99.2,105.8,99.9,105.6,100.7,105.6z M100.4,109c-0.3,0-0.5,0-0.7,0.1
			c-0.2,0.1-0.3,0.2-0.4,0.3v0.5c0,0.6,0.1,1,0.3,1.3c0.2,0.3,0.5,0.4,0.8,0.4c0.3,0,0.5-0.1,0.7-0.4c0.2-0.3,0.3-0.6,0.3-1
			c0-0.4-0.1-0.7-0.3-0.9C100.9,109.1,100.7,109,100.4,109z"/>
		<path class="st0" d="M106.5,105.6c0.3,0,0.5,0,0.7,0.1c0.2,0,0.4,0.1,0.7,0.2l-0.2,1c-0.2-0.1-0.4-0.1-0.6-0.2
			c-0.2,0-0.3-0.1-0.6-0.1c-0.4,0-0.8,0.2-1,0.5c-0.3,0.3-0.4,0.8-0.4,1.4c0.2-0.2,0.4-0.3,0.6-0.4c0.2-0.1,0.5-0.1,0.8-0.1
			c0.6,0,1.1,0.2,1.5,0.6c0.3,0.4,0.5,1,0.5,1.7c0,0.7-0.2,1.3-0.6,1.7c-0.4,0.4-1,0.7-1.7,0.7c-0.7,0-1.3-0.2-1.8-0.7
			c-0.5-0.5-0.7-1.2-0.7-2.1v-1.3c0-0.9,0.3-1.6,0.8-2.2C105.1,105.8,105.7,105.6,106.5,105.6z M106.2,109c-0.3,0-0.5,0-0.7,0.1
			c-0.2,0.1-0.3,0.2-0.4,0.3v0.5c0,0.6,0.1,1,0.3,1.3c0.2,0.3,0.5,0.4,0.8,0.4c0.3,0,0.5-0.1,0.7-0.4c0.2-0.3,0.3-0.6,0.3-1
			c0-0.4-0.1-0.7-0.3-0.9C106.8,109.1,106.5,109,106.2,109z"/>
		<path class="st0" d="M114.2,109.9c0,0.9-0.2,1.6-0.6,2.1c-0.4,0.5-1,0.7-1.7,0.7c-0.7,0-1.3-0.2-1.7-0.7c-0.4-0.5-0.6-1.2-0.6-2.1
			v-1.5c0-0.9,0.2-1.6,0.6-2.1c0.4-0.5,1-0.7,1.7-0.7c0.7,0,1.3,0.2,1.7,0.7c0.4,0.5,0.6,1.2,0.6,2.1V109.9z M112.9,108.2
			c0-0.6-0.1-1-0.2-1.2c-0.2-0.2-0.4-0.4-0.7-0.4c-0.3,0-0.6,0.1-0.7,0.4c-0.2,0.2-0.2,0.7-0.2,1.2v1.8c0,0.6,0.1,1,0.2,1.2
			c0.2,0.2,0.4,0.4,0.7,0.4c0.3,0,0.6-0.1,0.7-0.4c0.2-0.2,0.2-0.7,0.2-1.2V108.2z"/>
		<path class="st0" d="M117.4,111.6c0.4,0,0.7-0.1,0.9-0.4c0.2-0.3,0.3-0.7,0.3-1.2v-0.2l0,0c-0.2,0.2-0.3,0.3-0.5,0.4
			c-0.2,0.1-0.4,0.1-0.7,0.1c-0.7,0-1.2-0.2-1.5-0.6c-0.4-0.4-0.5-1-0.5-1.8c0-0.7,0.2-1.3,0.6-1.8s1-0.7,1.7-0.7
			c0.7,0,1.3,0.2,1.7,0.7c0.4,0.5,0.7,1.2,0.7,2.1v1.6c0,0.9-0.2,1.5-0.7,2c-0.5,0.5-1.1,0.7-1.9,0.7c-0.2,0-0.5,0-0.7-0.1
			c-0.3,0-0.5-0.1-0.7-0.2l0.2-1c0.2,0.1,0.4,0.1,0.6,0.2C116.9,111.6,117.2,111.6,117.4,111.6z M117.6,109.4c0.2,0,0.4,0,0.6-0.1
			c0.2-0.1,0.3-0.2,0.4-0.3v-0.7c0-0.5-0.1-0.9-0.3-1.2c-0.2-0.3-0.4-0.4-0.7-0.4c-0.3,0-0.5,0.1-0.7,0.4c-0.2,0.3-0.3,0.6-0.3,1
			c0,0.4,0.1,0.8,0.2,1C117.1,109.3,117.3,109.4,117.6,109.4z"/>
		<path class="st0" d="M126.3,109.9c0,1.2-0.2,2.3-0.7,3.2c-0.5,0.9-1.1,1.4-1.7,1.7l-0.3-0.7c0.4-0.3,0.8-0.8,1-1.5
			c0.3-0.7,0.4-1.6,0.4-2.7v-0.1c0-1.1-0.1-2-0.4-2.7c-0.3-0.7-0.6-1.2-1-1.5l0.3-0.7c0.6,0.3,1.2,0.8,1.7,1.7
			c0.5,0.9,0.7,1.9,0.7,3.2V109.9z"/>
	</g>
	<g>
		<g>
			<path class="st0" d="M76.9,134.4h1.1v-6.5h1.4l-0.2,4.4c1.1-1.5,2.3-2.1,3.6-2.1c2.1,0,3.1,1.4,3.1,4.2h1.4v1.4H76.9V134.4z
				 M79.1,134.4h5.5l0-0.4c0-1.6-0.7-2.6-1.9-2.6C81.4,131.4,79.9,132.7,79.1,134.4z"/>
			<path class="st0" d="M95.4,135.8H94c-1.2,0-2.1-0.2-2.7-0.7c-0.6,0.5-1.5,0.7-2.7,0.7h-1.5v-1.4h1.4c0.6,0,1,0,1.1-0.1
				c-0.4-0.3-0.7-0.7-0.9-1.1c-0.2-0.4-0.3-0.8-0.3-1.3c0-0.3,0-0.6,0.1-0.8c0.5-1.2,1.5-1.9,2.7-1.9c1.4,0,2.9,0.9,2.9,2.7
				c0,0.5-0.1,0.9-0.3,1.3c-0.2,0.5-0.5,0.9-0.9,1.2c0.1,0.1,0.5,0.1,1.1,0.1h1.3V135.8z M90.8,128.2h-1.3v-1.4h1.3V128.2z
				 M92,133.3c0.5-0.4,0.8-0.9,0.8-1.6c0-0.4-0.1-0.8-0.4-1.1c-0.3-0.3-0.7-0.5-1.2-0.5c-0.5,0-0.9,0.2-1.2,0.5
				c-0.3,0.3-0.4,0.6-0.4,1.1c0,0.6,0.3,1.2,0.8,1.6c0.2,0.2,0.5,0.3,0.8,0.5C91.6,133.6,91.8,133.5,92,133.3z M93.1,128.2h-1.3
				v-1.4h1.3V128.2z"/>
			<path class="st0" d="M102.1,133c0,1.6-1.1,2.8-2.7,2.8H95v-1.4h1.9c-0.2-0.4-0.4-0.9-0.4-1.5c0-1.7,1.1-2.8,2.8-2.8
				C101,130.1,102.1,131.4,102.1,133z M100.7,133c0-0.9-0.6-1.6-1.4-1.6c-0.8,0-1.3,0.6-1.3,1.6c0,0.9,0.6,1.6,1.4,1.6
				C100.1,134.5,100.7,133.9,100.7,133z M100,129.1h-1.3v-1.4h1.3V129.1z"/>
			<path class="st0" d="M117.4,135.8h-0.6c-1,0-1.8-0.4-2.4-1c-0.5,0.7-1.2,1.1-2.2,1.1c-1.6,0-2.8-1.2-2.8-2.9c0-0.5,0.1-1,0.3-1.4
				h-1c-0.9,0-1.5,0.8-1.5,2.1v4.1h-1.4v-4.3c0-2,1.1-3.3,2.9-3.3h3.4c1.2,0,2.2,0.7,2.5,1.8c0.6,1.9,1.1,2.4,2.1,2.4h0.6V135.8z
				 M113.4,133.1c0-0.9-0.5-1.6-1.4-1.6c-0.8,0-1.3,0.7-1.3,1.6c0,0.9,0.6,1.6,1.4,1.6C112.9,134.7,113.4,134,113.4,133.1z"/>
			<path class="st0" d="M127.2,135.8h-10.3v-1.4h1c0.7,0,1-0.5,1-1.4v-2.1h1.4v1.7c1.1-1.5,2.4-2.3,3.7-2.3c2.1,0,3.2,1.4,3.2,4.3
				C127.2,134.9,127.2,135.3,127.2,135.8z M125.8,134.4l0-0.4c0-1.6-0.7-2.6-1.9-2.6c-1.4,0-2.8,1.3-3.6,3H125.8z"/>
			<path class="st0" d="M130,135.8h-1.4v-7.9h1.4V135.8z"/>
			<path class="st0" d="M142.2,132.3v1.3c0,2.4-1.9,4.2-4.2,4.2h-0.1c-2.4,0-4.2-1.8-4.2-4.2v-1.4h1.4v1.2c0,1.8,1.1,3,2.9,3
				c1.8,0,2.7-1,2.9-2.9h-3.2c0-2.6,1.5-4,4.1-4v1.3c-1.5,0-2.1,0.4-2.5,1.4H142.2z"/>
			<path class="st0" d="M148.3,135.8h-2.2c-0.2,1.3-1.3,2-3,2v-1.2c1.1,0,1.7-0.6,1.7-1.7v-4.7h1.4v4.2h2.1V135.8z"/>
			<path class="st0" d="M159.6,135.8h-12.1v-1.4h1.4c0.7,0,1-0.5,1-1.4v-2.1h1.4v1.7c1.1-1.5,2.4-2.3,3.8-2.3c2.1,0,3.1,1.4,3.2,4.2
				h1.4V135.8z M156.8,134.4l0-0.4c0-1.6-0.7-2.6-1.9-2.6c-1.4,0-2.8,1.3-3.6,3H156.8z"/>
			<path class="st0" d="M167.3,135.8h-1.8c-0.5,0.7-1.3,1.1-2.2,1.1c-0.9,0-1.7-0.4-2.2-1.1h-1.9v-1.4h1.3c0-0.1,0-0.3,0-0.4
				c0-0.8,0.3-1.5,0.8-2c0.5-0.5,1.2-0.8,2-0.8c0.8,0,1.5,0.3,2,0.8c0.5,0.6,0.8,1.2,0.8,2v0.4h1.2V135.8z M164.7,134
				c0-0.4-0.1-0.8-0.3-1.1c-0.3-0.3-0.6-0.5-1-0.5c-0.4,0-0.7,0.2-1,0.5c-0.2,0.3-0.3,0.6-0.3,1.1c0,0.9,0.5,1.6,1.4,1.6
				c0.4,0,0.7-0.2,1-0.5C164.6,134.8,164.7,134.5,164.7,134z"/>
			<path class="st0" d="M170.4,133.6c0,1.5-0.7,2.2-2.1,2.2h-1.4v-1.4h1.2c0.5,0,0.7-0.1,0.9-0.4c0.1-0.1,0.1-0.4,0.1-0.9v-5.2h1.4
				V133.6z"/>
			<path class="st0" d="M173,135.8h-1.4v-7.9h1.4V135.8z"/>
		</g>
	</g>
	<g>
		<path class="st0" d="M143.3,111.6h-0.4c-1.2,0-2-0.4-2.4-1.3c-0.4,0.9-1.1,1.3-2.1,1.3c-1.5,0-2.3-1-2.3-2.5
			c0-0.7,0.2-1.4,0.7-1.8h-1.5c-1,0-1.6,0.9-1.6,2.5v3.7h-0.8v-3.8c0-2.1,0.8-3.1,2.4-3.1h3.3c1.3,0,2.1,0.9,2.3,2.5
			c0.1,1.1,0.9,1.8,2,1.8h0.5c0,0.2,0,0.3,0,0.4C143.2,111.4,143.2,111.5,143.3,111.6z M139.8,109c0-1.1-0.5-1.7-1.3-1.7
			c-0.9,0-1.4,0.7-1.4,1.9c0,1.1,0.5,1.7,1.4,1.7C139.3,110.8,139.8,110.2,139.8,109z"/>
		<path class="st0" d="M149.3,109c0,1.5-0.9,2.5-2.3,2.5h-4v-0.8h2.2c-0.4-0.4-0.6-1-0.6-1.7c0-1.5,0.9-2.5,2.4-2.5
			C148.4,106.5,149.3,107.5,149.3,109z M148.4,109c0-1.1-0.5-1.8-1.4-1.8c-1,0-1.5,0.7-1.5,1.9c0,1.1,0.5,1.8,1.5,1.8
			C147.9,110.9,148.4,110.3,148.4,109z M146.6,105.7h-0.8v-1h0.8V105.7z M148.1,105.7h-0.8v-1h0.8V105.7z"/>
		<path class="st0" d="M155.3,111.6h-5v-0.8h4.1c0-1-0.2-1.8-0.5-2.4c-0.4-0.7-1.1-1.1-2.1-1.2h-0.3v-0.7c1.6,0,2.7,0.6,3.2,1.9
			C155.1,109.1,155.3,110.2,155.3,111.6z"/>
		<path class="st0" d="M169.5,111.6h-1.1c-1.6,0-1.7-0.1-2.6-0.6c-0.9,0.5-1.1,0.6-2.6,0.6h-1.8c-2.1,0-3.2-1.1-3.2-3.3v-1.6h0.8
			v1.6c0,1.7,0.8,2.5,2.4,2.5h2.6c0.4,0,0.8-0.1,1.1-0.3c-1-0.5-1.6-1.4-1.6-2.4c0-1.4,1-2.3,2.4-2.3c1.4,0,2.4,1,2.4,2.3
			c0,1.1-0.6,2-1.6,2.4c0.3,0.2,0.7,0.3,1.1,0.3h1.8V111.6z M165.8,110.1c1-0.4,1.5-1.2,1.5-2.1c0-0.9-0.6-1.5-1.6-1.5
			c-1,0-1.6,0.7-1.6,1.5C164.3,108.8,164.9,109.7,165.8,110.1z M166.1,104.7h-0.8v-1h0.8V104.7z"/>
		<path class="st0" d="M175.5,109c0,1.5-0.9,2.5-2.3,2.5h-4v-0.8h2.2c-0.4-0.4-0.6-1-0.6-1.7c0-1.5,0.9-2.5,2.4-2.5
			C174.6,106.5,175.5,107.5,175.5,109z M174.6,109c0-1.1-0.5-1.8-1.4-1.8c-1,0-1.5,0.7-1.5,1.9c0,1.1,0.5,1.8,1.5,1.8
			C174.2,110.9,174.6,110.3,174.6,109z M172.8,105.7h-0.8v-1h0.8V105.7z M174.3,105.7h-0.8v-1h0.8V105.7z"/>
		<path class="st0" d="M182.4,111.6h-1.5c-0.2,1.2-1,1.8-2.3,1.8v-0.7h0.1c0.7,0,1.2-0.4,1.4-1.1h-1.2c-0.6,0-1.1-0.2-1.5-0.7
			c-0.4-0.5-0.6-1.1-0.6-1.8c0-0.7,0.2-1.3,0.6-1.8c0.4-0.5,1-0.7,1.6-0.7c1.2,0,2,0.8,2,2.2v2.1h1.5V111.6z M180.1,110.8v-2.4
			c0-0.3-0.1-0.6-0.3-0.8c-0.2-0.3-0.5-0.4-1-0.4c-0.4,0-0.8,0.2-1,0.6c-0.2,0.3-0.4,0.7-0.4,1.2c0,0.4,0.1,0.8,0.3,1.2
			c0.3,0.4,0.6,0.6,1,0.6L180.1,110.8z"/>
		<path class="st0" d="M188.5,110c0,0.7-0.2,1.3-0.6,1.8c-0.4,0.5-1,0.7-1.7,0.7c-0.9,0-1.5-0.3-1.9-1h-2.2v-0.8h1.8
			c-0.1-0.2-0.1-0.5-0.1-0.8c0-0.7,0.2-1.3,0.6-1.8c0.4-0.5,1-0.7,1.7-0.7s1.3,0.2,1.7,0.7C188.3,108.7,188.5,109.3,188.5,110z
			 M187.6,109.9c0-0.5-0.1-0.9-0.3-1.2c-0.2-0.4-0.6-0.5-1.1-0.5c-0.5,0-0.9,0.2-1.2,0.6c-0.2,0.3-0.3,0.7-0.3,1.3
			c0,0.5,0.1,0.9,0.3,1.2c0.3,0.4,0.6,0.5,1.1,0.5C187.1,111.9,187.6,111.2,187.6,109.9z"/>
	</g>
</g>
</svg>
