<?xml version="1.0" encoding="utf-8"?>
<!-- Generator: Adobe Illustrator 22.1.0, SVG Export Plug-In . SVG Version: 6.00 Build 0)  -->
<svg version="1.1" id="Layer_1" xmlns="http://www.w3.org/2000/svg" xmlns:xlink="http://www.w3.org/1999/xlink" x="0px" y="0px"
	 viewBox="0 0 248 248" style="enable-background:new 0 0 248 248;" xml:space="preserve">
<style type="text/css">
	.st0{fill:#FFFFFF;}
	.st1{fill:#0054A5;}
	.st2{fill:#EC1C24;}
	.st3{fill:#231F20;}
</style>
<g>
	<rect x="41.8" y="0.6" class="st0" width="165.3" height="248"/>
	<g>
		<g>
			<path class="st1" d="M121.2,11.8c0,3.9-3,7-6.8,7c-3.7,0-6.8-3.2-6.8-7c0-3.9,3-7,6.8-7C118.1,4.7,121.2,7.9,121.2,11.8"/>
		</g>
		<g>
			<path class="st1" d="M141.5,74.2c-4.4,8-12.8,13.5-22.3,13.5c-14.2,0-25.7-11.9-25.7-26.7c0-10.8,6.2-20.2,15.2-24.4l0.5,5.8
				c-6.2,3.6-10.3,10.5-10.3,18.4c0,11.7,9.1,21.1,20.4,21.1c9.3,0,17.2-6.5,19.6-15.4L141.5,74.2z"/>
		</g>
		<g>
			<path class="st1" d="M136.8,34.1c1.4,0,2.6,1.2,2.6,2.7c0,1.5-1.2,2.7-2.6,2.7H124l0.4,3.7c0,2.3,1.8,4.2,4,4.2l6.3,0
				c4.9,0,9.2,3.1,11.1,7.5l8,20.9c0.3,0.6,0.4,1.3,0.4,2c0,2.6-2,4.6-4.5,4.6c-1.8,0-3.3-1.1-4-2.6l-7.4-19.4
				c-1-2.1-3.2-3.6-5.6-3.6l-10.6,0c-5.4,0-10-4-11-9.3l-2-20.1c0-4.5,3-7,6.8-7c3.7,0,6.3,3.2,6.8,7c0.6,4.2,0.8,6.8,0.8,6.8H136.8
				z"/>
		</g>
	</g>
	<g>
		<g>
			<path class="st2" d="M198.6,91.3H50.3c-3.1,0-5.7,2.5-5.7,5.5v56c0,3,2.6,5.5,5.7,5.5h148.3c3.1,0,5.7-2.5,5.7-5.5v-56
				C204.3,93.8,201.7,91.3,198.6,91.3"/>
		</g>
		<g>
			<rect x="46.4" y="133.9" class="st0" width="155.1" height="2"/>
		</g>
		<g>
			<path class="st0" d="M49.5,140.2c0.9-0.1,2-0.2,3.2-0.2c2,0,3.4,0.4,4.4,1.3c1,0.9,1.7,2.1,1.7,4c0,1.9-0.7,3.4-1.7,4.3
				c-1.1,1-2.8,1.5-4.9,1.5c-1.2,0-2-0.1-2.7-0.1V140.2z M51.5,149.3c0.3,0,0.7,0,1.1,0c2.6,0,4.1-1.4,4.1-4.2
				c0-2.4-1.4-3.8-3.8-3.8c-0.6,0-1.1,0-1.4,0.1V149.3z"/>
			<path class="st0" d="M62.6,140.8c0,0.6-0.4,1.1-1.1,1.1c-0.7,0-1.1-0.5-1.1-1.1c0-0.6,0.5-1.1,1.1-1.1
				C62.1,139.8,62.5,140.2,62.6,140.8z M60.4,150.9V143h2v7.8H60.4z"/>
			<path class="st0" d="M64.5,149c0.5,0.3,1.3,0.6,2,0.6c0.9,0,1.3-0.4,1.3-0.9c0-0.5-0.3-0.8-1.3-1.1c-1.5-0.5-2.2-1.4-2.2-2.3
				c0-1.4,1.1-2.5,3-2.5c0.9,0,1.6,0.2,2.1,0.5l-0.4,1.4c-0.3-0.2-1-0.5-1.7-0.5c-0.7,0-1.1,0.3-1.1,0.8c0,0.5,0.4,0.7,1.4,1.1
				c1.4,0.5,2.1,1.2,2.1,2.4c0,1.4-1.1,2.4-3.2,2.4c-0.9,0-1.8-0.2-2.4-0.5L64.5,149z"/>
			<path class="st0" d="M75.7,150.9l-0.1-0.9h0c-0.5,0.6-1.3,1-2.3,1c-1.6,0-2.5-1.1-2.5-2.3c0-2,1.8-3,4.7-3v-0.1
				c0-0.5-0.2-1.4-1.6-1.4c-0.8,0-1.6,0.2-2.1,0.6l-0.4-1.3c0.6-0.4,1.6-0.7,2.8-0.7c2.5,0,3.2,1.6,3.2,3.3v2.8c0,0.7,0,1.4,0.1,1.9
				H75.7z M75.4,147c-1.4,0-2.7,0.3-2.7,1.5c0,0.8,0.5,1.1,1.1,1.1c0.8,0,1.4-0.5,1.5-1.1c0-0.1,0.1-0.3,0.1-0.4V147z"/>
			<path class="st0" d="M79.4,150.9c0-0.5,0.1-1.4,0.1-2.2v-9.2h2v4.7h0c0.5-0.8,1.3-1.3,2.5-1.3c1.9,0,3.3,1.6,3.3,4
				c0,2.8-1.8,4.2-3.6,4.2c-1,0-1.9-0.4-2.5-1.4h0l-0.1,1.2H79.4z M81.4,147.6c0,0.2,0,0.3,0,0.5c0.2,0.8,0.9,1.4,1.8,1.4
				c1.2,0,2-1,2-2.6c0-1.4-0.7-2.5-2-2.5c-0.8,0-1.5,0.6-1.8,1.4c0,0.1-0.1,0.3-0.1,0.5V147.6z"/>
			<path class="st0" d="M88.9,139.4h2v11.4h-2V139.4z"/>
			<path class="st0" d="M94.4,147.5c0,1.4,1.2,2,2.4,2c0.9,0,1.6-0.1,2.2-0.4l0.3,1.4c-0.7,0.3-1.6,0.5-2.7,0.5c-2.5,0-4-1.6-4-4
				c0-2.2,1.3-4.2,3.8-4.2c2.5,0,3.4,2.1,3.4,3.8c0,0.4,0,0.7-0.1,0.8H94.4z M97.9,146.1c0-0.7-0.3-1.9-1.6-1.9
				c-1.2,0-1.7,1.1-1.8,1.9H97.9z"/>
			<path class="st0" d="M108.5,139.4v9.2c0,0.8,0,1.7,0.1,2.2h-1.8l-0.1-1.2h0c-0.5,0.9-1.4,1.4-2.6,1.4c-1.9,0-3.3-1.6-3.3-4
				c0-2.6,1.6-4.2,3.5-4.2c1.1,0,1.9,0.5,2.2,1h0v-4.4H108.5z M106.6,146.3c0-0.2,0-0.4,0-0.5c-0.2-0.8-0.8-1.4-1.7-1.4
				c-1.3,0-2,1.1-2,2.6c0,1.4,0.7,2.5,2,2.5c0.8,0,1.5-0.5,1.7-1.4c0-0.2,0.1-0.4,0.1-0.6V146.3z"/>
			<path class="st0" d="M114.1,140.2c0.9-0.1,2-0.2,3.2-0.2c2,0,3.4,0.4,4.4,1.3c1,0.9,1.7,2.1,1.7,4c0,1.9-0.7,3.4-1.7,4.3
				c-1.1,1-2.8,1.5-4.9,1.5c-1.2,0-2-0.1-2.7-0.1V140.2z M116.1,149.3c0.3,0,0.7,0,1.1,0c2.6,0,4.1-1.4,4.1-4.2
				c0-2.4-1.4-3.8-3.8-3.8c-0.6,0-1.1,0-1.4,0.1V149.3z"/>
			<path class="st0" d="M125,145.5c0-1.1,0-1.8-0.1-2.5h1.7l0.1,1.5h0.1c0.4-1.1,1.3-1.7,2.1-1.7c0.2,0,0.3,0,0.5,0v1.9
				c-0.2,0-0.3-0.1-0.6-0.1c-0.9,0-1.6,0.6-1.8,1.5c0,0.2-0.1,0.4-0.1,0.6v4.1h-2V145.5z"/>
			<path class="st0" d="M132.9,140.8c0,0.6-0.4,1.1-1.1,1.1c-0.7,0-1.1-0.5-1.1-1.1c0-0.6,0.5-1.1,1.1-1.1
				C132.4,139.8,132.9,140.2,132.9,140.8z M130.8,150.9V143h2v7.8H130.8z"/>
			<path class="st0" d="M136.1,143l1.3,4c0.2,0.7,0.4,1.3,0.5,2h0c0.1-0.6,0.3-1.3,0.5-2l1.2-4h2.1l-3,7.8h-1.9L134,143H136.1z"/>
			<path class="st0" d="M144.3,147.5c0,1.4,1.2,2,2.4,2c0.9,0,1.6-0.1,2.2-0.4l0.3,1.4c-0.7,0.3-1.6,0.5-2.7,0.5c-2.5,0-4-1.6-4-4
				c0-2.2,1.3-4.2,3.8-4.2c2.5,0,3.4,2.1,3.4,3.8c0,0.4,0,0.7-0.1,0.8H144.3z M147.7,146.1c0-0.7-0.3-1.9-1.6-1.9
				c-1.2,0-1.7,1.1-1.8,1.9H147.7z"/>
			<path class="st0" d="M151.2,145.5c0-1.1,0-1.8-0.1-2.5h1.7l0.1,1.5h0.1c0.4-1.1,1.3-1.7,2.1-1.7c0.2,0,0.3,0,0.5,0v1.9
				c-0.2,0-0.3-0.1-0.6-0.1c-0.9,0-1.6,0.6-1.8,1.5c0,0.2-0.1,0.4-0.1,0.6v4.1h-2V145.5z"/>
			<path class="st0" d="M156.8,149c0.5,0.3,1.3,0.6,2,0.6c0.9,0,1.3-0.4,1.3-0.9c0-0.5-0.3-0.8-1.3-1.1c-1.5-0.5-2.2-1.4-2.2-2.3
				c0-1.4,1.1-2.5,3-2.5c0.9,0,1.6,0.2,2.1,0.5l-0.4,1.4c-0.3-0.2-1-0.5-1.7-0.5c-0.7,0-1.1,0.3-1.1,0.8c0,0.5,0.4,0.7,1.4,1.1
				c1.4,0.5,2.1,1.2,2.1,2.4c0,1.4-1.1,2.4-3.2,2.4c-0.9,0-1.8-0.2-2.4-0.5L156.8,149z"/>
			<path class="st0" d="M176.7,145.3c0,3.6-2.2,5.7-5.2,5.7c-3.1,0-5-2.3-5-5.5c0-3.3,2.1-5.7,5.2-5.7
				C174.8,139.8,176.7,142.2,176.7,145.3z M168.6,145.5c0,2.2,1.1,4,3,4c1.9,0,3-1.8,3-4c0-2-1-4-3-4
				C169.6,141.4,168.6,143.2,168.6,145.5z"/>
			<path class="st0" d="M178.3,145.4c0-0.9,0-1.7-0.1-2.3h1.7l0.1,1.2h0c0.3-0.6,1.2-1.4,2.5-1.4c1.4,0,2.8,0.9,2.8,3.4v4.7h-2v-4.4
				c0-1.1-0.4-2-1.5-2c-0.8,0-1.3,0.6-1.5,1.2c-0.1,0.2-0.1,0.4-0.1,0.6v4.6h-2V145.4z"/>
			<path class="st0" d="M187.5,139.4h2v11.4h-2V139.4z"/>
			<path class="st0" d="M192.9,143l1.4,4.2c0.2,0.5,0.3,1.1,0.4,1.5h0c0.1-0.5,0.3-1,0.4-1.5l1.2-4.2h2.1l-2,5.3
				c-1.1,2.9-1.8,4.2-2.7,5c-0.8,0.7-1.6,0.9-2.1,1l-0.5-1.7c0.3-0.1,0.8-0.3,1.2-0.5c0.4-0.2,0.8-0.7,1.1-1.2
				c0.1-0.1,0.1-0.3,0.1-0.4c0-0.1,0-0.2-0.1-0.4l-2.9-7.2H192.9z"/>
		</g>
		<g>
			<path class="st0" d="M90.3,100.2l-0.5,1.5c-0.6-0.9-1.2-1.3-2-1.3c-1.1,0-1.6,0.5-1.6,1.6v0.8h4v3.2c0,1.2-0.5,2.1-1.4,2.7
				c-0.7,0.5-1.7,0.7-2.9,0.7c-1.7,0-2.8-0.5-3.6-1.4c-0.6-0.7-1-1.9-1.1-3.6l1.5-0.5c0,1.5,0.2,2.5,0.7,3.1
				c0.5,0.6,1.3,0.9,2.4,0.9c0.8,0,1.4-0.1,1.9-0.4c0.6-0.3,0.9-0.9,0.9-1.5v-1.9h-4v-2.2c0-1.7,1.2-2.8,3-2.8
				C88.7,99,89.6,99.4,90.3,100.2z M85.8,111.5c0,0.5-0.4,0.8-0.8,0.8c-0.5,0-0.8-0.4-0.8-0.8c0-0.4,0.4-0.8,0.8-0.8
				C85.4,110.6,85.8,111,85.8,111.5z M87.9,111.5c0,0.5-0.4,0.8-0.8,0.8c-0.5,0-0.8-0.4-0.8-0.8c0-0.4,0.4-0.8,0.8-0.8
				C87.6,110.6,87.9,111,87.9,111.5z M97.9,105.6c0,1.1-0.3,2-0.9,2.6c-0.6,0.7-1.5,1.1-2.6,1.1c-0.8,0-1.4-0.1-1.9-0.4l-0.7-1.5
				c0.9,0.4,1.8,0.6,2.6,0.6c1.2-0.1,1.8-0.7,1.9-1.9c-0.5,0.3-1,0.4-1.5,0.4c-1.1,0-1.9-0.4-2.5-1.2c-0.4-0.6-0.7-1.4-0.7-2.4
				c0-1,0.2-1.8,0.7-2.5c0.5-0.8,1.4-1.1,2.5-1.1c1.2,0,2.1,0.4,2.6,1.3c0.4,0.7,0.5,1.6,0.5,2.8c0,0.3,0,0.7,0,1.2
				C97.9,105.1,97.9,105.5,97.9,105.6z M96.4,102.9c0-1.5-0.5-2.3-1.6-2.3c-1.1,0-1.6,0.8-1.6,2.3c0,1.5,0.5,2.3,1.6,2.3
				C95.9,105.2,96.4,104.4,96.4,102.9z M107.9,106.3h-8.6l0.9-1.3h4v-3.1c0-1-0.6-1.6-1.7-1.6c-0.9,0-1.6,0.5-2.2,1.4V100
				c0.7-0.6,1.4-0.9,2.2-0.9c0.9,0,1.7,0.3,2.3,0.8c0.6,0.5,0.9,1.2,0.9,2v3.1h2.2V106.3z M111.5,103.4c0,0.8-0.3,1.5-0.8,2
				c-0.5,0.5-1.3,0.8-2.2,0.8h-1v-1.4h0.9c1,0,1.6-0.5,1.6-1.6v-6.9l1.5-0.5V103.4z M135.4,106.3h-10.9c-0.1,2.1-1.6,3.1-4.3,3.1
				c-1.9,0-3.2-0.6-3.9-1.8c-0.5-0.9-0.7-2.2-0.7-4l1.5-0.5v1.4c0,2.5,0.9,3.5,3.1,3.5c1.9,0,2.8-0.7,2.8-2.2V101l1.5-0.5v3.5
				c0.2-0.9,0.6-1.7,1.1-2.5c1-1.5,2.4-2.3,4.2-2.4c1.6,0,2.8,0.6,3.5,1.9c0.5,0.9,0.8,2.2,0.7,4h1.4V106.3z M132.5,104.9
				c0-0.3,0-0.5,0-0.8c0-1-0.2-1.8-0.6-2.5c-0.5-0.8-1.2-1.2-2.1-1.2c-1.1,0-2.2,0.5-3.1,1.6c-0.9,0.9-1.3,1.9-1.4,2.8H132.5z
				 M149.4,106.3h-14.3v-1.4h1.9v-4.1l1.5-0.4v3.3c0.2-0.8,0.6-1.6,1-2.3c1-1.5,2.4-2.3,4.2-2.4c1.6,0,2.8,0.6,3.5,1.9
				c0.5,0.9,0.8,2.2,0.7,4h1.4V106.3z M146.5,104.9c0-0.3,0-0.5,0-0.8c0-1-0.2-1.8-0.6-2.5c-0.5-0.8-1.2-1.2-2.1-1.2
				c-1.1,0-2.2,0.5-3.1,1.6c-0.9,0.9-1.3,1.9-1.4,2.8H146.5z M159.8,106.3H149v-1.4h7.2v-0.5c0-1.2-0.1-2.1-0.3-2.7
				c-0.4-0.9-1.1-1.4-2.1-1.4c-0.9,0-1.7,0.4-2.4,1.2l-1.1-1c1.1-1,2.3-1.6,3.5-1.6c1.6,0,2.8,0.6,3.4,1.8c0.4,0.8,0.6,2,0.6,3.6
				v0.6h2V106.3z M154.7,96.7c0,0.5-0.4,0.8-0.8,0.8c-0.5,0-0.9-0.4-0.9-0.8c0-0.5,0.4-0.8,0.9-0.8
				C154.3,95.9,154.7,96.3,154.7,96.7z M167.9,102.8c0,1-0.2,1.8-0.7,2.4c-0.5,0.7-1.4,1.1-2.4,1.1c-0.9,0-1.7-0.3-2.2-0.9
				c-0.5,0.6-1.3,0.9-2.4,0.9h-0.7V105h0.6c1,0,1.6-0.5,1.6-1.6v-0.5c0-1,0.2-1.8,0.7-2.4c0.5-0.7,1.4-1.1,2.5-1.1
				c1.1,0,1.9,0.4,2.4,1.1C167.6,101.1,167.9,101.8,167.9,102.8z M166.3,102.8c0-1.4-0.5-2.2-1.6-2.2c-1.1,0-1.6,0.7-1.6,2.2
				s0.5,2.1,1.6,2.1C165.8,105,166.3,104.3,166.3,102.8z"/>
		</g>
		<g>
			<path class="st0" d="M67.5,125.8H53.9l0.7-1.4h1.2v-8.3l1.5-0.5v5.5c1-1.7,2.5-2.5,4.4-2.6c1.6,0,2.8,0.6,3.6,1.9
				c0.5,0.9,0.8,2.2,0.7,4h1.6V125.8z M64.4,124.5c0-0.2,0-0.5,0-0.7c0-1-0.2-1.9-0.6-2.6c-0.5-0.7-1.2-1-2-1.1
				c-1.1,0-2.1,0.5-3,1.6c-0.8,0.9-1.3,1.9-1.5,2.9H64.4z M76.1,125.8h-3.5c-0.3,0-0.6,0-0.9-0.1c-0.3,0.1-0.6,0.1-0.9,0.1h-3.6
				v-1.4h2.4c-0.7-0.7-1-1.5-1-2.3c0-1,0.2-1.9,0.6-2.5c0.6-0.8,1.4-1.2,2.5-1.2c1.1,0,2,0.4,2.5,1.2c0.5,0.6,0.7,1.5,0.7,2.5
				c0,0.8-0.4,1.6-1,2.3h2.3V125.8z M71.4,116.3c0,0.5-0.4,0.8-0.9,0.8c-0.5,0-0.8-0.4-0.8-0.8s0.4-0.8,0.8-0.8
				C71,115.5,71.4,115.9,71.4,116.3z M71.7,119.9c-1,0-1.7,0.9-1.7,2c0,0.6,0.1,1.1,0.4,1.5c0.3,0.5,0.7,0.9,1.3,1.1
				c0.5-0.2,1-0.5,1.3-1.1c0.3-0.5,0.4-1,0.4-1.5C73.3,120.8,72.7,119.9,71.7,119.9z M73.5,116.3c0,0.5-0.4,0.8-0.8,0.8
				c-0.5,0-0.8-0.4-0.8-0.8s0.4-0.8,0.8-0.8C73.1,115.5,73.5,115.9,73.5,116.3z M83.3,123.3c0,0.9-0.3,1.6-0.9,2
				c-0.5,0.3-1.2,0.5-2.1,0.5h-4.6v-1.3h4.4c0.6,0,0.9-0.1,1.1-0.1c0.3-0.1,0.5-0.5,0.5-1h-2.2c-1,0-1.7-0.2-2.1-0.7
				c-0.3-0.4-0.5-1-0.5-1.9c0-1.6,1.2-2.6,3.1-2.6c1.1,0,1.9,0.3,2.5,0.8c0.5,0.5,0.8,1,0.8,1.8V123.3z M81.7,120.9
				c0-0.9-0.6-1.3-1.7-1.3c-1.1,0-1.6,0.4-1.6,1.3c0,0.6,0.1,0.9,0.2,1c0.2,0.1,0.6,0.2,1.2,0.2h1.9V120.9z M80.9,116.3
				c0,0.5-0.4,0.8-0.8,0.8s-0.8-0.4-0.8-0.8s0.4-0.8,0.8-0.8S80.9,115.9,80.9,116.3z M96.1,125.8h-1c-1.3,0-2.1-0.4-2.4-1.1
				c-0.4,0.8-1.2,1.1-2.4,1.1c-2,0-3.1-1.2-3.1-3.7c0-2.4,1-3.6,3.1-3.6h3.3v4.3c0,1.1,0.5,1.6,1.6,1.6h1V125.8z M92,119.8h-1.6
				c-0.6,0-1.1,0.2-1.3,0.6c-0.2,0.3-0.3,0.9-0.3,1.7c0,0.8,0.1,1.4,0.3,1.7c0.2,0.4,0.7,0.6,1.3,0.6s1.1-0.2,1.3-0.6
				c0.2-0.4,0.3-0.9,0.3-1.7V119.8z M90.6,116.3c0,0.5-0.4,0.8-0.9,0.8c-0.5,0-0.8-0.4-0.8-0.8s0.4-0.8,0.8-0.8
				C90.3,115.5,90.6,115.9,90.6,116.3z M92.8,116.3c0,0.5-0.4,0.8-0.8,0.8c-0.5,0-0.8-0.4-0.8-0.8s0.4-0.8,0.8-0.8
				C92.4,115.5,92.8,115.9,92.8,116.3z M108.6,125.8H95.8v-1.3h1.9v-4.1l1.5-0.4v3.4c0.2-0.9,0.6-1.6,1.1-2.4c1-1.5,2.4-2.3,4.2-2.4
				c1.6,0,2.8,0.6,3.5,1.9c0.5,0.8,0.7,1.9,0.7,3.3C108.7,123.6,108.7,124.3,108.6,125.8z M107.2,124.5c0-0.3,0-0.5,0-0.8
				c0-1-0.2-1.8-0.6-2.5c-0.5-0.8-1.2-1.2-2.1-1.2c-1.1,0-2.2,0.5-3.1,1.6c-0.9,0.9-1.3,1.9-1.4,2.8H107.2z M114.1,125.8h-1.7
				c-1.4,0-2.1-0.8-2.1-2.1v-7.8l1.5-0.5v8.3c0,0.5,0.3,0.8,0.8,0.8h1.5V125.8z M124.4,125.8h-10.8v-1.3h7.2v-0.6
				c0-1.2-0.1-2.1-0.3-2.7c-0.4-0.9-1.1-1.4-2.1-1.4c-0.9,0-1.7,0.4-2.4,1.2l-1.1-1c1.1-1,2.3-1.6,3.5-1.6c1.6,0,2.8,0.6,3.4,1.8
				c0.4,0.8,0.6,2,0.6,3.6v0.5h2V125.8z M119.3,116.3c0,0.5-0.4,0.8-0.8,0.8c-0.5,0-0.9-0.4-0.9-0.8s0.4-0.8,0.9-0.8
				C118.9,115.5,119.3,115.9,119.3,116.3z M128.1,123c0,0.8-0.3,1.5-0.8,2c-0.5,0.5-1.3,0.8-2.2,0.8h-1v-1.4h0.9
				c1,0,1.6-0.5,1.6-1.6v-6.9l1.5-0.5V123z M131,125.8h-1.5v-9.9l1.5-0.5V125.8z M146.7,123.1c0,1.7-1.1,2.8-3,2.8h-5.7
				c-1.7,0-2.9-1.1-2.9-2.8v-1.6l1.5-1.5v3c0,1,0.5,1.6,1.6,1.6h5.4c1.1,0,1.6-0.5,1.6-1.6V119l1.5-0.4V123.1z M140.6,118.8
				c0,0.5-0.4,0.8-0.8,0.8c-0.5,0-0.8-0.4-0.8-0.8c0-0.5,0.4-0.8,0.8-0.8C140.2,117.9,140.6,118.3,140.6,118.8z M142.8,118.8
				c0,0.5-0.4,0.8-0.8,0.8c-0.4,0-0.8-0.4-0.8-0.8c0-0.5,0.4-0.8,0.8-0.8C142.4,117.9,142.8,118.3,142.8,118.8z M151.9,125.8h-1.7
				c-1.4,0-2.1-0.8-2.1-2.1v-7.8l1.5-0.5v8.3c0,0.5,0.3,0.8,0.8,0.8h1.5V125.8z M160,125.8h-8.6v-1.4h7v-0.5c0-1.2-0.1-2.1-0.3-2.7
				c-0.4-0.9-1.1-1.4-2.1-1.4c-0.9,0-1.7,0.4-2.5,1.2l-1.1-1c1.1-1,2.3-1.6,3.6-1.6c1.6,0,2.8,0.6,3.4,1.8c0.4,0.8,0.6,2,0.6,3.6
				V125.8z M156.8,128.1c0,0.5-0.4,0.8-0.8,0.8c-0.5,0-0.8-0.4-0.8-0.8s0.4-0.8,0.8-0.8C156.4,127.3,156.8,127.6,156.8,128.1z
				 M165.3,125.8h-1.7c-1.4,0-2.1-0.8-2.1-2.1v-7.8l1.5-0.5v8.3c0,0.5,0.3,0.8,0.8,0.8h1.5V125.8z M171.5,125.8h-1
				c-0.9,0-1.7-0.3-2.2-0.9c-0.5,0.6-1.3,0.9-2.3,0.9h-1.2v-1.3h1.1c1.1,0,1.6-0.5,1.6-1.6V119l1.5-0.5v4.3c0,1.1,0.5,1.6,1.6,1.6
				h0.9V125.8z M168.1,128.1c0,0.5-0.4,0.8-0.8,0.8c-0.5,0-0.8-0.4-0.8-0.8s0.4-0.8,0.8-0.8C167.7,127.3,168.1,127.6,168.1,128.1z
				 M170.2,128.1c0,0.5-0.4,0.8-0.8,0.8c-0.5,0-0.8-0.4-0.8-0.8s0.4-0.8,0.8-0.8C169.8,127.3,170.2,127.6,170.2,128.1z M177.8,125.8
				h-1c-0.9,0-1.7-0.3-2.2-0.9c-0.5,0.6-1.3,0.9-2.3,0.9h-1.2v-1.3h1.1c1.1,0,1.6-0.5,1.6-1.6V119l1.5-0.5v4.3
				c0,1.1,0.5,1.6,1.6,1.6h0.9V125.8z M174.2,116.3c0,0.5-0.4,0.8-0.8,0.8c-0.5,0-0.8-0.4-0.8-0.8s0.4-0.8,0.8-0.8
				C173.8,115.5,174.2,115.9,174.2,116.3z M176.4,116.3c0,0.5-0.4,0.8-0.8,0.8c-0.4,0-0.8-0.4-0.8-0.8s0.4-0.8,0.8-0.8
				C176,115.5,176.4,115.9,176.4,116.3z M185.9,125.8h-8.6v-1.3h7v-0.6c0-1.2-0.1-2.1-0.3-2.7c-0.4-0.9-1.1-1.4-2.1-1.4
				c-0.9,0-1.7,0.4-2.5,1.2l-1.1-1c1.1-1,2.3-1.6,3.6-1.6c1.6,0,2.8,0.6,3.4,1.8c0.4,0.8,0.6,2,0.6,3.6V125.8z M194.9,123
				c0,0.8-0.3,1.5-0.8,2c-0.5,0.5-1.3,0.8-2.2,0.8h-4.6l0.7-1.4h1.6v-7.9l1.5-0.5v8.4h0.6c1.1,0,1.6-0.5,1.6-1.6v-7.1l1.5-0.5V123z
				 M191.2,129h-2.7l0.3-0.6h0.5v-0.3c0-0.7,0.3-1.1,1-1.1c0.3,0,0.5,0.1,0.7,0.3l-0.4,0.5c-0.1-0.2-0.3-0.2-0.4-0.2
				c-0.3,0-0.4,0.2-0.4,0.6v0.3h1.3V129z M197.8,125.8h-1.5v-9.9l1.5-0.5V125.8z"/>
		</g>
		<g>
			<path class="st0" d="M102.4,96.7c0,0.5-0.4,0.8-0.8,0.8c-0.5,0-0.9-0.4-0.9-0.8c0-0.5,0.4-0.8,0.9-0.8
				C102.1,95.9,102.4,96.3,102.4,96.7z"/>
		</g>
	</g>
	<g>
		<g>
			<path class="st1" d="M44.9,185.5l20.7-4.9L82,192.4l19.5-4.2l4.5,19l2.7-0.6l20.6-28.6l15.1,0l42.4,23l17.2,0v-34.1
				c0,0-1-5.1-5.2-5.1s-147.5,0-148.2,0c-2.3,0-5.7,2-5.7,5.1C44.9,170.6,44.9,185.5,44.9,185.5z"/>
		</g>
		<g>
			<polygon class="st1" points="145.8,185.1 175.7,201.7 156.5,201.7 			"/>
		</g>
		<g>
			<path class="st1" d="M98.7,213.7l11.9-2.8l20.3-28.5l9,0l11.8,18.6h-15.4l0,22.5l20.3-0.1c0,0,0.4-15.4,16.3-16.2
				c16.2,0.9,16.5,16.2,16.5,16.2s12.9,0.1,14.5,0.1V238c0,3.5-2.8,6.3-6.3,6.3H51.1c-3.5,0-6.3-2.8-6.3-6.3v-11.6l22.2-5.3
				c0,0-0.8-3.7,0.2-8c0.9-3.8,3.6-7.8,8.9-10.4c3.2-1.6,7.4-1.6,10-1.1c7.4,1.5,11.6,7.6,12.4,12.1"/>
		</g>
		<g>
			
				<ellipse transform="matrix(0.6452 -0.764 0.764 0.6452 -109.4087 211.2635)" class="st0" cx="172.8" cy="223.4" rx="12.9" ry="12.9"/>
		</g>
		<g>
			<circle class="st0" cx="83" cy="217.8" r="12.9"/>
		</g>
		<g>
			<polygon class="st1" points="45,188.9 64.4,184.3 71.7,194.7 44.9,201 			"/>
			<path class="st3" d="M44.9,201L44.9,201l0.1-12.1l0,0l19.5-4.6l0,0l7.3,10.4l0,0L44.9,201z M45,188.9l-0.1,12l26.7-6.3l-7.3-10.3
				L45,188.9z"/>
		</g>
	</g>
</g>
</svg>
