<svg xmlns="http://www.w3.org/2000/svg" viewBox="0 0 49.798 54.979">
  <defs>
    <style>
      .cls-1 {
        fill: #1c75bc;
      }

      .cls-2 {
        fill: #fff;
      }
    </style>
  </defs>
  <g id="Group_16281" data-name="Group 16281" transform="translate(16247 -16687.609)">
    <g id="Group_15979" data-name="Group 15979" transform="translate(-16247 16687.609)">
      <path id="Path_15003" data-name="Path 15003" class="cls-1" d="M16.235,49.884H5.267A3.276,3.276,0,0,1,2,46.617V5.267A3.276,3.276,0,0,1,5.267,2h41.35a3.276,3.276,0,0,1,3.267,3.267v41.35a3.276,3.276,0,0,1-3.267,3.267H35.6L25.9,55.018Z" transform="translate(-1.067 -1.067)"/>
      <path id="Path_15004" data-name="Path 15004" class="cls-2" d="M45.551,1.867A2.34,2.34,0,0,1,47.884,4.2V45.55a2.34,2.34,0,0,1-2.334,2.334H34.3l-.42.233-9.054,4.807-9.007-4.854-.42-.233H4.2A2.34,2.34,0,0,1,1.867,45.5V4.2A2.34,2.34,0,0,1,4.2,1.867h41.35m0-1.867H4.2A4.183,4.183,0,0,0,0,4.2V45.55a4.213,4.213,0,0,0,4.2,4.2H14.935l9.941,5.227,9.941-5.227H45.6a4.213,4.213,0,0,0,4.2-4.2V4.2A4.283,4.283,0,0,0,45.551,0Z" transform="translate(0 0)"/>
    </g>
    <g id="XMLID_2_" transform="translate(-16237.103 16704.75)">
      <path id="Path_17191" data-name="Path 17191" class="cls-2" d="M93.557,31.6v1.821a1.1,1.1,0,0,1-1.076,1.1l-2.428.11A2.954,2.954,0,0,0,87.1,31.9v-.3Z" transform="translate(-63.139 -22.881)"/>
      <path id="Path_17192" data-name="Path 17192" class="cls-2" d="M31.142,7.257v1.38H.9C1.259,7.616,2.059,6.65,3.963,5.629,6.915,4,8.626,0,12.3,0H29.79a.786.786,0,0,1,.8.717,44.645,44.645,0,0,1,.552,5.657V6.76H27.665v.5ZM12.682,4.3l.248-2.98h-.414c-4.139.138-4.663,2.4-5.436,3.918l4.608-.193h.248A.825.825,0,0,0,12.682,4.3Z" transform="translate(-0.724)"/>
      <path id="Path_17193" data-name="Path 17193" class="cls-2" d="M80.828,34.8A2.428,2.428,0,1,1,78.4,37.228,2.432,2.432,0,0,1,80.828,34.8Zm1.049,2.428a1.049,1.049,0,1,0-1.049,1.049A1.048,1.048,0,0,0,81.877,37.228Z" transform="translate(-56.84 -25.198)"/>
      <path id="Path_17194" data-name="Path 17194" class="cls-2" d="M40.108,31.6v.3a2.885,2.885,0,0,0-2.952,2.87h-12A2.885,2.885,0,0,0,22.2,31.9v-.3Z" transform="translate(-16.147 -22.881)"/>
      <path id="Path_17195" data-name="Path 17195" class="cls-2" d="M16.028,34.8A2.428,2.428,0,1,1,13.6,37.228,2.414,2.414,0,0,1,16.028,34.8Zm1.049,2.428a1.049,1.049,0,1,0-1.049,1.049A1.048,1.048,0,0,0,17.077,37.228Z" transform="translate(-9.92 -25.198)"/>
      <path id="Path_17196" data-name="Path 17196" class="cls-2" d="M23.3,8.718c.773-1.518,1.3-3.78,5.436-3.918-4.084.138-4.636,2.428-5.353,3.891l4.525-.166Z" transform="translate(-16.943 -3.476)"/>
      <path id="Path_17197" data-name="Path 17197" class="cls-2" d="M6.053,31.6v.3A2.885,2.885,0,0,0,3.1,34.773H.617c-.276,0-.717-.3-.717-1.518.028-.331.028-.5.055-.855a3.743,3.743,0,0,1,.166-.8Z" transform="translate(0 -22.881)"/>
    </g>
  </g>
</svg>
