<svg xmlns="http://www.w3.org/2000/svg" viewBox="0 0 49.761 54.938">
  <defs>
    <style>
      .cls-1 {
        fill: #1c75bc;
      }

      .cls-2 {
        fill: #fff;
      }
    </style>
  </defs>
  <g id="Group_16280" data-name="Group 16280" transform="translate(16401 -16687)">
    <g id="Group_16076" data-name="Group 16076" transform="translate(-17259 16539)">
      <g id="Group_15977" data-name="Group 15977">
        <path id="Path_15005" data-name="Path 15005" class="cls-1" d="M16.224,49.849H5.265A3.274,3.274,0,0,1,2,46.584V5.265A3.274,3.274,0,0,1,5.265,2h41.32a3.274,3.274,0,0,1,3.265,3.265v41.32a3.274,3.274,0,0,1-3.265,3.265H35.578l-9.7,5.13Z" transform="translate(856.933 146.933)"/>
        <path id="Path_15006" data-name="Path 15006" class="cls-2" d="M45.517,1.865A2.339,2.339,0,0,1,47.849,4.2v41.32a2.339,2.339,0,0,1-2.332,2.332H34.278l-.42.233-9.047,4.8-9-4.85-.42-.233H4.2A2.339,2.339,0,0,1,1.865,45.47V4.2A2.339,2.339,0,0,1,4.2,1.865h41.32m0-1.865H4.2A4.18,4.18,0,0,0,0,4.2v41.32a4.21,4.21,0,0,0,4.2,4.2H14.924l9.934,5.223,9.934-5.223H45.564a4.21,4.21,0,0,0,4.2-4.2V4.2A4.28,4.28,0,0,0,45.517,0Z" transform="translate(858 148)"/>
      </g>
    </g>
    <g id="Group_16075" data-name="Group 16075" transform="translate(-16383.975 16696.027)">
      <path id="Path_17212" data-name="Path 17212" class="cls-2" d="M.009,2.392V3.978l.052.069V29.386l-.061.1v1.5s-.009.286.416.459c0,0,1.23.606,1.291,1.04l1.265.875H4.253l.113-.1a43.322,43.322,0,0,0,7.026,0l.1.1h1.594l.832-.832.009-.26,1.455-.866a.791.791,0,0,0,.338-.416l.026-1.447-.113-.139V4.03l.087-.1V2.7s-.035-.511-.347-.615L14.268,1.37a.786.786,0,0,1-.225-.4L13.115.114H11.426l-.061.078s-5.12-.407-7.034,0l-.1-.078H2.954L1.7.928A.584.584,0,0,1,1.4,1.4l-1.161.65S.017,2.254.009,2.392Z" transform="translate(0 0)"/>
      <g id="Group_16071" data-name="Group 16071" transform="translate(1.386 0.539)">
        <path id="Path_17213" data-name="Path 17213" class="cls-1" d="M28.812,67H16.173A.174.174,0,0,1,16,66.829V41.273a.174.174,0,0,1,.173-.173H28.812a.174.174,0,0,1,.173.173V66.829A.174.174,0,0,1,28.812,67Z" transform="translate(-16 -38.068)"/>
        <circle id="Ellipse_367" data-name="Ellipse 367" class="cls-1" cx="0.45" cy="0.45" r="0.45" transform="translate(1.256 31.437)"/>
        <circle id="Ellipse_368" data-name="Ellipse 368" class="cls-1" cx="0.45" cy="0.45" r="0.45" transform="translate(1.256)"/>
        <circle id="Ellipse_369" data-name="Ellipse 369" class="cls-1" cx="0.45" cy="0.45" r="0.45" transform="translate(10.811)"/>
        <circle id="Ellipse_370" data-name="Ellipse 370" class="cls-1" cx="0.45" cy="0.45" r="0.45" transform="translate(10.777 31.437)"/>
        <path id="Path_17214" data-name="Path 17214" class="cls-1" d="M66.688,368.2a29.5,29.5,0,0,0,3.327,0s.061.017.173-.165l.329-.719s.017-.269-.208-.321H66.515s-.3.035-.26.26Z" transform="translate(-61.898 -335.736)"/>
        <path id="Path_17215" data-name="Path 17215" class="cls-1" d="M72.8,9.009l.355.728a23.622,23.622,0,0,0,2.391,0l.381-.693A8.984,8.984,0,0,0,72.8,9.009Z" transform="translate(-67.88 -8.645)"/>
      </g>
      <g id="Group_16074" data-name="Group 16074" transform="translate(3.872 13.108)">
        <g id="Group_16072" data-name="Group 16072" transform="translate(1.273 0.927)">
          <path id="Path_17216" data-name="Path 17216" class="cls-2" d="M75.243,162.125H75V161.9h.243Z" transform="translate(-73.649 -161.9)"/>
          <rect id="Rectangle_4265" data-name="Rectangle 4265" class="cls-2" width="0.243" height="0.225" transform="translate(2.365)"/>
          <rect id="Rectangle_4266" data-name="Rectangle 4266" class="cls-2" width="0.243" height="0.225" transform="translate(2.737)"/>
          <path id="Path_17217" data-name="Path 17217" class="cls-2" d="M62.415,166.321a.488.488,0,0,0-.338-.121.412.412,0,0,0-.442.45.426.426,0,0,0,.035.182h-.347a.566.566,0,0,0,.035-.182.424.424,0,0,0-.13-.329.488.488,0,0,0-.338-.121.412.412,0,0,0-.442.45.426.426,0,0,0,.035.182h-.424a.56.56,0,0,1-.277-.052.264.264,0,0,1-.113-.243V166.2H59.4v.338c0,.372.217.554.65.554H62.1a.466.466,0,0,0,.329-.121.424.424,0,0,0,.121-.321A.462.462,0,0,0,62.415,166.321Zm-1.655.485a.3.3,0,0,1-.043-.156.248.248,0,0,1,.043-.147.144.144,0,0,1,.13-.069h.017c.113,0,.173.078.173.234a.248.248,0,0,1-.043.147.168.168,0,0,1-.139.069A.2.2,0,0,1,60.76,166.806Zm1.464,0a.168.168,0,0,1-.139.069.157.157,0,0,1-.139-.069.3.3,0,0,1-.043-.156.248.248,0,0,1,.043-.147.144.144,0,0,1,.13-.069h.017c.113,0,.173.078.173.234A.262.262,0,0,1,62.224,166.806Z" transform="translate(-59.4 -165.827)"/>
          <path id="Path_17218" data-name="Path 17218" class="cls-2" d="M99.888,166.321a.488.488,0,0,0-.338-.121.412.412,0,0,0-.442.45.426.426,0,0,0,.035.182h-.459v-.182a.442.442,0,1,0-.884-.009.437.437,0,0,0,.45.45.759.759,0,0,0,.173-.009c-.026.078-.087.113-.191.113h-.424v.217h.433c.269,0,.416-.1.45-.321h.884a.466.466,0,0,0,.329-.121.424.424,0,0,0,.121-.321A.462.462,0,0,0,99.888,166.321Zm-1.481.511H98.25a.181.181,0,0,1-.173-.2c0-.1.052-.182.156-.182a.173.173,0,0,1,.173.191Zm1.291-.026a.173.173,0,0,1-.277,0,.3.3,0,0,1-.043-.156.248.248,0,0,1,.043-.147.144.144,0,0,1,.13-.069h.017c.113,0,.173.078.173.234A.262.262,0,0,1,99.7,166.806Z" transform="translate(-94.473 -165.827)"/>
        </g>
        <path id="Path_17219" data-name="Path 17219" class="cls-2" d="M60.227,187.6h0a.413.413,0,0,0-.269.1.373.373,0,0,0-.269-.1h0a.38.38,0,0,0-.39.4v.39h.234v-.4a.146.146,0,0,1,.147-.165.151.151,0,0,1,.147.165v.4h.243v-.4a.146.146,0,0,1,.147-.165.151.151,0,0,1,.147.165v.4h.243V188A.378.378,0,0,0,60.227,187.6Z" transform="translate(-58.035 -184.447)"/>
        <path id="Path_17220" data-name="Path 17220" class="cls-2" d="M87.074,187.6v.4a.146.146,0,0,1-.147.165A.151.151,0,0,1,86.78,188v-.4h-.243v.4a.146.146,0,0,1-.147.165.151.151,0,0,1-.147-.165v-.4H86v.39a.38.38,0,0,0,.39.4h0a.413.413,0,0,0,.269-.1.373.373,0,0,0,.269.1h0a.38.38,0,0,0,.39-.4v-.39Z" transform="translate(-82.422 -184.447)"/>
        <path id="Path_17221" data-name="Path 17221" class="cls-2" d="M117.7,187.491h.121V187.3H117.7c-.234,0-.372.1-.4.286v.814h.234v-.528h.286v-.2h-.286v-.078C117.551,187.525,117.6,187.491,117.7,187.491Z" transform="translate(-111.011 -184.173)"/>
        <path id="Path_17222" data-name="Path 17222" class="cls-2" d="M113.034,187.4v.806H112.8V187.4Z" transform="translate(-106.901 -184.264)"/>
        <g id="Group_16073" data-name="Group 16073" transform="translate(4.981 3.145)">
          <path id="Path_17223" data-name="Path 17223" class="cls-2" d="M102.98,188.288c-.026.191-.156.286-.4.286H102.2v-.191h.372c.1,0,.147-.035.165-.1a.541.541,0,0,1-.147.009.38.38,0,0,1-.39-.4.386.386,0,1,1,.771.009Zm-.234-.234v-.165a.146.146,0,0,0-.147-.165c-.1,0-.139.069-.139.165a.159.159,0,0,0,.147.173h.139Z" transform="translate(-102.2 -187.5)"/>
        </g>
        <path id="Path_17224" data-name="Path 17224" class="cls-2" d="M76.037,188.488v-.009a.541.541,0,0,1-.147.009.38.38,0,0,1-.39-.4.386.386,0,1,1,.771.009v.39Zm0-.234v-.165a.146.146,0,0,0-.147-.165c-.1,0-.139.069-.139.165a.159.159,0,0,0,.147.173h.139Z" transform="translate(-72.832 -184.538)"/>
        <path id="Path_17225" data-name="Path 17225" class="cls-2" d="M113.017,183.8H112.8v-.2h.217Z" transform="translate(-106.901 -180.793)"/>
        <path id="Path_17226" data-name="Path 17226" class="cls-2" d="M125.3,151.2v.476h.728v.728h.468v-1.2Z" transform="translate(-118.318 -151.2)"/>
        <path id="Path_17227" data-name="Path 17227" class="cls-2" d="M45.9,151.2v.476h-.728v.728H44.7v-1.2Z" transform="translate(-44.7 -151.2)"/>
        <path id="Path_17228" data-name="Path 17228" class="cls-2" d="M125.3,198.8v-.468h.728V197.6h.468v1.2Z" transform="translate(-118.318 -193.58)"/>
        <path id="Path_17229" data-name="Path 17229" class="cls-2" d="M45.9,198.8v-.468h-.728V197.6H44.7v1.2Z" transform="translate(-44.7 -193.58)"/>
      </g>
    </g>
  </g>
</svg>
