<svg xmlns="http://www.w3.org/2000/svg" viewBox="0 0 49.797 54.979">
  <defs>
    <style>
      .cls-1 {
        fill: #1c75bc;
      }

      .cls-2 {
        fill: #fff;
      }
    </style>
  </defs>
  <g id="Group_16279" data-name="Group 16279" transform="translate(16480 -16687.609)">
    <g id="Group_14798" data-name="Group 14798" transform="translate(-16480 16687.609)">
      <path id="Path_15003" data-name="Path 15003" class="cls-1" d="M16.235,49.884H5.267A3.276,3.276,0,0,1,2,46.617V5.267A3.276,3.276,0,0,1,5.267,2h41.35a3.276,3.276,0,0,1,3.267,3.267v41.35a3.276,3.276,0,0,1-3.267,3.267H35.6L25.9,55.018Z" transform="translate(-1.067 -1.067)"/>
      <path id="Path_15004" data-name="Path 15004" class="cls-2" d="M45.551,1.867A2.34,2.34,0,0,1,47.884,4.2V45.55a2.34,2.34,0,0,1-2.334,2.334H34.3l-.42.233-9.054,4.807-9.007-4.854-.42-.233H4.2A2.34,2.34,0,0,1,1.867,45.5V4.2A2.34,2.34,0,0,1,4.2,1.867h41.35m0-1.867H4.2A4.183,4.183,0,0,0,0,4.2V45.55a4.213,4.213,0,0,0,4.2,4.2H14.935l9.941,5.227,9.941-5.227H45.6a4.213,4.213,0,0,0,4.2-4.2V4.2A4.283,4.283,0,0,0,45.551,0Z" transform="translate(0 0)"/>
    </g>
    <g id="Group_15984" data-name="Group 15984" transform="translate(-17417.35 16537.508)">
      <g id="Group_15983" data-name="Group 15983" transform="translate(950.978 173.41)">
        <path id="Path_16864" data-name="Path 16864" class="cls-2" d="M151.751,154.545c-.383-3.087-3.007-4.884-5.133-5.845l-3.318,3.327a7.637,7.637,0,0,1,2.26.979h1.414v1.174a7.67,7.67,0,0,1,1.726,2.909,11.269,11.269,0,0,0,2.5-1.263A1.332,1.332,0,0,0,151.751,154.545Z" transform="translate(-130.553 -147.748)"/>
        <path id="Path_16865" data-name="Path 16865" class="cls-2" d="M58.718,196.477a7.113,7.113,0,0,0-1.2-2.233,6.876,6.876,0,0,0-2.811-2.073,7.262,7.262,0,0,0-1.3-.383h-.018A6.787,6.787,0,0,0,52.2,191.7c-.294,0-.6.018-.863.044a4.3,4.3,0,0,0-.552.08,6.84,6.84,0,0,0-5.035,4.27c-.071.178-.133.365-.187.543a6.715,6.715,0,0,0,.285,4.652,6.848,6.848,0,0,0,6.316,4.145,6.753,6.753,0,0,0,4.741-1.886,7.008,7.008,0,0,0,2.01-3.594,8.86,8.86,0,0,0-.009-2.784A4.422,4.422,0,0,0,58.718,196.477Zm-7.072,1.7a.66.66,0,0,1,.516-.276.678.678,0,0,1,.489.24.6.6,0,0,1-.018.872.5.5,0,0,1-.471.213A.655.655,0,0,1,51.646,198.176Zm-4.572,1.93c-.285-.258-.365-.6-.365-1.566a5.088,5.088,0,0,1,.56-2.411,5.816,5.816,0,0,1,.463-.765,5.169,5.169,0,0,1,1.2-1.21,5.931,5.931,0,0,1,.836-.5,2.343,2.343,0,0,1,.97-.32.71.71,0,0,1,.4.125.576.576,0,0,1,.285.329,7.713,7.713,0,0,1,.08,1.752v1.646l-.267.187a.2.2,0,0,0-.044.036,1.607,1.607,0,0,0-.534,1.068v.24l-1.379.8c-1.2.694-1.423.8-1.681.8A.711.711,0,0,1,47.073,200.107Zm8.415,2.811a5.61,5.61,0,0,1-3.354,1.121,5.252,5.252,0,0,1-1.664-.267,3.97,3.97,0,0,1-2.153-1.423.8.8,0,0,1,.16-.881,20.385,20.385,0,0,1,2.793-1.583h0c.071.009.311.08.534.133a1.386,1.386,0,0,0,.383.08,1.566,1.566,0,0,0,.471-.116l.454-.142,1.343.774a11.234,11.234,0,0,1,1.468.943C56.227,201.966,56.067,202.482,55.489,202.918Zm1.984-3.087a.817.817,0,0,1-.756.48c-.249,0-.471-.107-1.664-.792l-1.379-.8v-.24a1.551,1.551,0,0,0-.56-1.085c-.009-.009-.018-.009-.027-.018l-.267-.187v-1.646c0-1.779.009-1.841.365-2.082a.71.71,0,0,1,.4-.125,2.218,2.218,0,0,1,.863.267l.107.053a5.352,5.352,0,0,1,1.859,1.477,5.613,5.613,0,0,1,.934,1.717c.009.018.009.027.018.044a3.663,3.663,0,0,1,.213,1.672C57.588,199.439,57.57,199.653,57.472,199.831Z" transform="translate(-41.247 -186.923)"/>
        <path id="Path_16868" data-name="Path 16868" class="cls-2" d="M9.391,142.208a7.46,7.46,0,0,1,1.45-.133l3.71-3.718c-.6-.2-1.059-.3-1.237-.356l-2.7,1.317L7.905,138c-.783.178-7.259,1.77-7.891,6.779a1.4,1.4,0,0,0,.56,1.29,12.374,12.374,0,0,0,3.069,1.459c.053-.2.125-.391.2-.587A7.548,7.548,0,0,1,9.391,142.208Z" transform="translate(-0.006 -138)"/>
      </g>
      <circle id="Ellipse_366" data-name="Ellipse 366" class="cls-2" cx="5.48" cy="5.48" r="5.48" transform="translate(956.171 162)"/>
    </g>
  </g>
</svg>
