<svg xmlns="http://www.w3.org/2000/svg" viewBox="0 0 48.951 54.043">
  <defs>
    <style>
      .cls-1 {
        fill: #1c75bc;
      }

      .cls-2 {
        fill: #fff;
      }
    </style>
  </defs>
  <g id="Group_15974" data-name="Group 15974" transform="translate(-781 -148.609)">
    <g id="Group_15973" data-name="Group 15973">
      <path id="Path_15000" data-name="Path 15000" class="cls-1" d="M15.993,49.07H5.211A3.221,3.221,0,0,1,2,45.859V5.211A3.221,3.221,0,0,1,5.211,2H45.859A3.221,3.221,0,0,1,49.07,5.211V45.859a3.221,3.221,0,0,1-3.211,3.211H35.032l-9.542,5.046Z" transform="translate(779.918 147.526)"/>
      <path id="Path_15001" data-name="Path 15001" class="cls-2" d="M44.776,1.835A2.3,2.3,0,0,1,47.07,4.129V44.776a2.3,2.3,0,0,1-2.294,2.294H33.72l-.413.229-8.9,4.725-8.854-4.771-.413-.229H4.129A2.3,2.3,0,0,1,1.835,44.73V4.129A2.3,2.3,0,0,1,4.129,1.835H44.776m0-1.835H4.129A4.112,4.112,0,0,0,0,4.129V44.776a4.141,4.141,0,0,0,4.129,4.129H14.681l9.772,5.138,9.772-5.138h10.6a4.141,4.141,0,0,0,4.129-4.129V4.129A4.211,4.211,0,0,0,44.776,0Z" transform="translate(781 148.609)"/>
    </g>
    <g id="Group_14851" data-name="Group 14851" transform="translate(794.81 158.761)">
      <path id="Path_16143" data-name="Path 16143" class="cls-2" d="M20.122,2.812h1L22.267,0H12.4V2.812h7.722Z" transform="translate(-6.546)"/>
      <path id="Path_16144" data-name="Path 16144" class="cls-2" d="M20.551,7.8H12.4V9.325h0v.143a4.26,4.26,0,0,0,4.576,3.861,4.166,4.166,0,0,0,3.766-4h1.287L21.123,7.8h-.572Z" transform="translate(-6.546 -4.082)"/>
      <path id="Path_16145" data-name="Path 16145" class="cls-2" d="M-.056,31.734v5.243H3.662V28.97c0-.1-.048-.238,0-.334.1-.143.238-.286.381-.286a.552.552,0,0,1,.334.238.929.929,0,0,1,.048.381v8.008H15.769V28.731c0-.286.1-.429.381-.429s.381.191.381.429v8.2H20.2V26.443a3.871,3.871,0,0,0-.62-2.145,4.588,4.588,0,0,0-3.909-2H13.863s-1.192-.286-1.335-.953a.351.351,0,0,0-.572-.238,14.809,14.809,0,0,0-1.478,1.525c-.143.238-.048.381.143.524a6.509,6.509,0,0,1,1,.715c.191.238.238.381,0,.572s-.524.429-.667.572c-.143.191-.238.334.048.572.238.286.572.334.429.953s-.667,8.437-.715,9.009c-.048.524-.334.715-.477.715h-.191a.728.728,0,0,1-.477-.715c-.048-.62-.572-8.437-.715-9.009-.143-.62.191-.667.429-.953s.191-.429.048-.572a2.761,2.761,0,0,0-.667-.572c-.238-.191-.191-.334,0-.572a6.509,6.509,0,0,1,1-.715c.191-.143.286-.286.143-.524A14.965,14.965,0,0,0,8.333,21.1a.346.346,0,0,0-.572.238c-.143.667-1.335.953-1.335.953H4.615a6.354,6.354,0,0,0-1.335.143A4.09,4.09,0,0,0-.1,26.634C.039,28.35-.056,30.066-.056,31.734Zm12.87-5.053,1-.667,1,.667a1.58,1.58,0,0,1-.286,1.1,2.64,2.64,0,0,1-.715.715,2.64,2.64,0,0,1-.715-.715A1.58,1.58,0,0,1,12.814,26.682Zm-7.2.191H7.761v.715H5.616Z" transform="translate(0 -10.999)"/>
    </g>
  </g>
</svg>
