<svg xmlns="http://www.w3.org/2000/svg" viewBox="0 0 49.762 54.938">
  <defs>
    <style>
      .cls-1 {
        fill: #1c75bc;
      }

      .cls-2 {
        fill: #fff;
      }
    </style>
  </defs>
  <g id="Group_15987" data-name="Group 15987" transform="translate(-858 -148)">
    <g id="Group_15977" data-name="Group 15977">
      <path id="Path_15005" data-name="Path 15005" class="cls-1" d="M16.224,49.849H5.265A3.274,3.274,0,0,1,2,46.584V5.265A3.274,3.274,0,0,1,5.265,2h41.32a3.274,3.274,0,0,1,3.265,3.265v41.32a3.274,3.274,0,0,1-3.265,3.265H35.578l-9.7,5.13Z" transform="translate(856.933 146.933)"/>
      <path id="Path_15006" data-name="Path 15006" class="cls-2" d="M45.517,1.865A2.339,2.339,0,0,1,47.849,4.2v41.32a2.339,2.339,0,0,1-2.332,2.332H34.278l-.42.233-9.047,4.8-9-4.85-.42-.233H4.2A2.339,2.339,0,0,1,1.865,45.47V4.2A2.339,2.339,0,0,1,4.2,1.865h41.32m0-1.865H4.2A4.18,4.18,0,0,0,0,4.2v41.32a4.21,4.21,0,0,0,4.2,4.2H14.924l9.934,5.223,9.934-5.223H45.564a4.21,4.21,0,0,0,4.2-4.2V4.2A4.28,4.28,0,0,0,45.517,0Z" transform="translate(858 148)"/>
    </g>
    <g id="Group_15986" data-name="Group 15986" transform="translate(872.92 159.195)">
      <path id="Path_17198" data-name="Path 17198" class="cls-2" d="M27.568,93.969a8.015,8.015,0,0,0-.433-1.051,7.036,7.036,0,0,0-.742-1.175c0-.021-.041-.062-.062-.082A6.857,6.857,0,0,0,23.4,89.515c-.227-.082-.433-.165-.66-.227h0a3.3,3.3,0,0,0-.433-.1c-.082-.021-.165-.041-.227-.062h-.021c-.062,0-.1-.021-.165-.021a4.312,4.312,0,0,0-1.01-.1h-.1c-.309,0-.618.021-.907.041h-.021a2.242,2.242,0,0,0-.536.082,7.172,7.172,0,0,0-4.865,3.608c-.144.268-.268.557-.392.845-.062.186-.144.392-.186.577a6.726,6.726,0,0,0-.289,2.1,7.012,7.012,0,0,0,.577,2.721,7.124,7.124,0,0,0,6.556,4.309h.021a6.969,6.969,0,0,0,4.927-1.959,7.323,7.323,0,0,0,2.1-3.732,7.775,7.775,0,0,0,.1-1.361,8.309,8.309,0,0,0-.124-1.567A2.364,2.364,0,0,0,27.568,93.969Zm-6.824,1.484a.659.659,0,0,1,.392.144.35.35,0,0,1,.124.124.622.622,0,0,1,.186.536.788.788,0,0,1-.186.371.524.524,0,0,1-.495.227.653.653,0,0,1-.66-.577.672.672,0,0,1,.124-.515.742.742,0,0,1,.289-.227A.31.31,0,0,1,20.744,95.453Zm-5.3,2.309c-.289-.268-.392-.639-.392-1.629a5.225,5.225,0,0,1,.144-1.3,5.832,5.832,0,0,1,.454-1.216,7.51,7.51,0,0,1,.474-.8,5.6,5.6,0,0,1,1.258-1.258,7.37,7.37,0,0,1,.866-.515,2.426,2.426,0,0,1,1.01-.33.743.743,0,0,1,.412.124.577.577,0,0,1,.309.35.741.741,0,0,1,.041.227V94.69l-.268.186c-.021,0-.021.021-.041.041a1.754,1.754,0,0,0-.557,1.113v.247l-1.423.825c-1.258.722-1.484.825-1.752.825A.6.6,0,0,1,15.446,97.762Zm8.762,2.928a5.786,5.786,0,0,1-3.5,1.175h0a5.324,5.324,0,0,1-1.711-.289,4.061,4.061,0,0,1-2.247-1.484.836.836,0,0,1,.165-.928,22.641,22.641,0,0,1,2.907-1.649,5.657,5.657,0,0,1,.557.144,1.482,1.482,0,0,0,.392.082,1.67,1.67,0,0,0,.495-.124l.474-.144,1.381.8a10.676,10.676,0,0,1,1.526.969.766.766,0,0,1,.165.454A1.222,1.222,0,0,1,24.208,100.69ZM26.393,96.5a2.127,2.127,0,0,1-.1.948.848.848,0,0,1-.783.495c-.268,0-.495-.1-1.732-.825L22.331,96.3v-.247a1.646,1.646,0,0,0-.577-1.134l-.021-.021-.268-.186h0V93l.289-2.1h0c.021-.021.062-.041.082-.062a.743.743,0,0,1,.412-.124,2.251,2.251,0,0,1,.887.268l.124.062A5.651,5.651,0,0,1,25.2,92.587a5.524,5.524,0,0,1,.969,1.773c0,.021,0,.021.021.041a2.822,2.822,0,0,1,.206.969v.763Q26.393,96.35,26.393,96.5Z" transform="translate(-10.803 -70.651)"/>
      <path id="Path_17199" data-name="Path 17199" class="cls-2" d="M35.887,2.763h.99L38.01,0H28.3V2.763h7.587Z" transform="translate(-22.482)"/>
      <path id="Path_17200" data-name="Path 17200" class="cls-2" d="M67.545,59.91a4.136,4.136,0,0,0-.969-1.01l-3.835,3.835h0a1.476,1.476,0,0,1-.247.515,2.333,2.333,0,0,1-.68.68s-.062-.041-.165-.124l-.948.948.371.124a8.079,8.079,0,0,1,2.721,1.814V64.2c0-.268.1-.412.371-.412a.364.364,0,0,1,.371.433v3.36a7.236,7.236,0,0,1,1.134,2.206,3.082,3.082,0,0,1,.206.8,8.1,8.1,0,0,1,.144,1.732h2.165V61.992A3.5,3.5,0,0,0,67.545,59.91Z" transform="translate(-48.202 -46.757)"/>
      <path id="Path_17201" data-name="Path 17201" class="cls-2" d="M53.375,52.951h0l3.422-3.4a4.8,4.8,0,0,0-1.567-.247H53.458a2.563,2.563,0,0,1-.6-.227,1.21,1.21,0,0,1-.7-.722.346.346,0,0,0-.577-.227,16.83,16.83,0,0,0-1.443,1.526c-.144.227-.041.371.144.515a9.813,9.813,0,0,1,.969.722c.186.247.247.392,0,.577a4.47,4.47,0,0,0-.639.577c-.144.165-.206.33.041.577.247.268.557.33.412.928-.041.165-.1.907-.186,1.876l1.484-1.484a1.605,1.605,0,0,1,0-.35Z" transform="translate(-39.764 -38.127)"/>
      <path id="Path_17202" data-name="Path 17202" class="cls-2" d="M28.4,19.47a4.121,4.121,0,0,0,8.226-.165h1.258L36.976,17.8H28.4v1.526h0Z" transform="translate(-22.561 -14.13)"/>
      <path id="Path_17203" data-name="Path 17203" class="cls-2" d="M3.653,55.758c0-.1-.041-.247,0-.33.1-.124.227-.268.371-.289.1,0,.268.144.35.247.062.082.021.227.021.35V57.9a8.025,8.025,0,0,1,3.958-2.1c.206-.041.433-.082.618-.1-.082-1.175-.165-2.062-.206-2.247-.124-.6.186-.66.433-.928s.186-.412.041-.577a6.377,6.377,0,0,0-.639-.577c-.247-.186-.186-.33,0-.577a7.361,7.361,0,0,1,.969-.722c.186-.144.289-.289.144-.515a17.056,17.056,0,0,0-1.464-1.526.344.344,0,0,0-.577.227c-.144.66-1.3.948-1.3.948H4.622a5.781,5.781,0,0,0-1.319.165,4.007,4.007,0,0,0-3.319,4.1c.1,1.67.021,3.34.021,5.01v5.154H2.045a8.26,8.26,0,0,1,.33-2.33c.062-.206.144-.412.206-.6a7.4,7.4,0,0,1,1.072-1.938ZM5.571,53.7H7.694v.722H5.571Z" transform="translate(0 -38.048)"/>
    </g>
  </g>
</svg>
