<svg xmlns="http://www.w3.org/2000/svg" viewBox="0 0 49.798 54.978">
  <defs>
    <style>
      .cls-1 {
        fill: #1c75bc;
      }

      .cls-2 {
        fill: #fff;
      }
    </style>
  </defs>
  <g id="Group_18072" data-name="Group 18072" transform="translate(16187 -3429.609)">
    <g id="Group_16659" data-name="Group 16659" transform="translate(-16187 3429.609)">
      <path id="Path_15003" data-name="Path 15003" class="cls-1" d="M16.235,49.884H5.267A3.276,3.276,0,0,1,2,46.617V5.267A3.276,3.276,0,0,1,5.267,2h41.35a3.276,3.276,0,0,1,3.267,3.267v41.35a3.276,3.276,0,0,1-3.267,3.267H35.6L25.9,55.018Z" transform="translate(-1.067 -1.067)"/>
      <path id="Path_15004" data-name="Path 15004" class="cls-2" d="M45.551,1.867A2.34,2.34,0,0,1,47.884,4.2V45.55a2.34,2.34,0,0,1-2.334,2.334H34.3l-.42.233-9.054,4.807-9.007-4.854-.42-.233H4.2A2.34,2.34,0,0,1,1.867,45.5V4.2A2.34,2.34,0,0,1,4.2,1.867h41.35m0-1.867H4.2A4.183,4.183,0,0,0,0,4.2V45.55a4.213,4.213,0,0,0,4.2,4.2H14.935l9.941,5.227,9.941-5.227H45.6a4.213,4.213,0,0,0,4.2-4.2V4.2A4.283,4.283,0,0,0,45.551,0Z" transform="translate(0 0)"/>
    </g>
    <g id="gps-route" transform="translate(-16213.309 3437.375)">
      <path id="Path_17303" data-name="Path 17303" class="cls-2" d="M398.215,196.79h0Z" transform="translate(-336.805 -183.288)"/>
      <path id="Path_17304" data-name="Path 17304" class="cls-2" d="M59.842,165.065c-.283-.447-.573-.924-.864-1.409H38.61a2.014,2.014,0,0,0-2.012,2.012v2.416a2.014,2.014,0,0,0,2.012,2.011H50.517a.21.21,0,0,1,.21.21v3.333a2.1,2.1,0,0,0,2.1,2.1h5.386a.448.448,0,0,1,.447.447v7.615a.448.448,0,0,1-.447.447H46.643c-.381.651-.768,1.29-1.142,1.882a1.863,1.863,0,0,1-.339.392H58.208a2.725,2.725,0,0,0,2.721-2.721V176.18a2.724,2.724,0,0,0-2.721-2.721H53V170.3a2.487,2.487,0,0,0-2.484-2.484H38.872V165.93H61.408A1.847,1.847,0,0,1,59.842,165.065Z" transform="translate(0 -152.428)"/>
      <path id="Path_17305" data-name="Path 17305" class="cls-2" d="M85.775,306.938a4.254,4.254,0,0,0-4.253,4.253c0,1.791,2.472,5.918,3.647,7.777a.717.717,0,0,0,1.213,0c1.176-1.86,3.647-5.986,3.647-7.777A4.253,4.253,0,0,0,85.775,306.938Zm0,6.353a1.908,1.908,0,1,1,1.908-1.908A1.908,1.908,0,0,1,85.775,313.291Z" transform="translate(-41.842 -285.88)"/>
      <path id="Path_17306" data-name="Path 17306" class="cls-2" d="M340.5,0a4.254,4.254,0,0,0-4.254,4.253c0,1.791,2.471,5.917,3.647,7.777a.716.716,0,0,0,1.212,0c1.175-1.86,3.647-5.986,3.647-7.777A4.253,4.253,0,0,0,340.5,0Zm0,6.353a1.908,1.908,0,1,1,1.907-1.908A1.908,1.908,0,0,1,340.5,6.353Z" transform="translate(-279.093)"/>
    </g>
  </g>
</svg>
