<svg xmlns="http://www.w3.org/2000/svg" viewBox="0 0 49.798 54.979">
  <defs>
    <style>
      .cls-1 {
        fill: #1c75bc;
      }

      .cls-2 {
        fill: #fff;
      }
    </style>
  </defs>
  <g id="Group_16283" data-name="Group 16283" transform="translate(16095 -16687.609)">
    <g id="Group_15981" data-name="Group 15981" transform="translate(-16095 16687.609)">
      <path id="Path_15003" data-name="Path 15003" class="cls-1" d="M16.235,49.884H5.267A3.276,3.276,0,0,1,2,46.617V5.267A3.276,3.276,0,0,1,5.267,2h41.35a3.276,3.276,0,0,1,3.267,3.267v41.35a3.276,3.276,0,0,1-3.267,3.267H35.6L25.9,55.018Z" transform="translate(-1.067 -1.067)"/>
      <path id="Path_15004" data-name="Path 15004" class="cls-2" d="M45.551,1.867A2.34,2.34,0,0,1,47.884,4.2V45.55a2.34,2.34,0,0,1-2.334,2.334H34.3l-.42.233-9.054,4.807-9.007-4.854-.42-.233H4.2A2.34,2.34,0,0,1,1.867,45.5V4.2A2.34,2.34,0,0,1,4.2,1.867h41.35m0-1.867H4.2A4.183,4.183,0,0,0,0,4.2V45.55a4.213,4.213,0,0,0,4.2,4.2H14.935l9.941,5.227,9.941-5.227H45.6a4.213,4.213,0,0,0,4.2-4.2V4.2A4.283,4.283,0,0,0,45.551,0Z" transform="translate(0 0)"/>
    </g>
    <g id="Group_15818" data-name="Group 15818" transform="translate(-16079.501 16700.988)">
      <path id="Path_17160" data-name="Path 17160" class="cls-2" d="M79.787,72.208l-3.735-5.576V59.686A1.284,1.284,0,0,0,74.771,58.4H74.09v7.231l.09-.063a.71.71,0,0,1,.983.194l.889,1.326h0L79.6,72.334a.6.6,0,0,1-.167.835l-3.383,2.242h0l-5.341,3.577h0l-3.284,2.174A.594.594,0,0,1,66.6,81l-1.34-2h0L64,77.13H59.7v.618a1.288,1.288,0,0,0,1.286,1.286h4.028l.122.185,1.277,1.9a.828.828,0,0,0,.686.365.808.808,0,0,0,.456-.14l3.455-2.314h3.762a1.288,1.288,0,0,0,1.286-1.286V75.713l3.51-2.355A.831.831,0,0,0,79.787,72.208Z" transform="translate(-57.007 -55.766)"/>
      <path id="Path_17161" data-name="Path 17161" class="cls-2" d="M146.188,254.215a1.42,1.42,0,0,1-.388,1.967l.785,1.168.487.731,1.277,1.9.217.32a1.42,1.42,0,0,1,1.967.388l1.056-.708,2.851-1.913,1.651-1.105,2.179-1.462,1.687-1.128a1.424,1.424,0,0,1,.388-1.967l-2.075-3.1-.686-1.024a1.42,1.42,0,0,1-1.277.153,1.4,1.4,0,0,1-.69-.541l-.041.027Zm2.955,1.863a.709.709,0,0,1,.789,1.177.784.784,0,0,1-.217.1.706.706,0,0,1-.767-.293A.71.71,0,0,1,149.143,256.078Zm7.069-4.737a1.018,1.018,0,0,1,.095-.054.71.71,0,1,1,0,1.286.723.723,0,0,1-.289-.248A.705.705,0,0,1,156.211,251.342Zm-.636,4.326a2.8,2.8,0,0,1-.911,1,2.856,2.856,0,1,1,.767-3.952,2.661,2.661,0,0,1,.144.244A2.863,2.863,0,0,1,155.575,255.668Z" transform="translate(-139.223 -236.717)"/>
      <path id="Path_17162" data-name="Path 17162" class="cls-2" d="M6.5,20.633h0L5.2,18.68A.71.71,0,0,1,5.4,17.7l10.957-7.344V1.286A1.288,1.288,0,0,0,15.067,0H5.882V.424c0,.045.009.09.009.135V4.082A1.812,1.812,0,0,1,4.082,5.891H.559a.943.943,0,0,1-.113,0H0V19.348a1.288,1.288,0,0,0,1.286,1.286H6.5ZM1.908,7.52H14.043a.7.7,0,0,1,.762.609.7.7,0,0,1-.762.609H1.908a.7.7,0,0,1-.762-.609A.7.7,0,0,1,1.908,7.52ZM1.8,10.285H12.225a.611.611,0,1,1,0,1.218H1.8a.611.611,0,1,1,0-1.218Zm-.654,3.3a.649.649,0,0,1,.686-.609H8.621a.613.613,0,1,1,0,1.218H1.827A.651.651,0,0,1,1.146,13.587Z"/>
      <path id="Path_17163" data-name="Path 17163" class="cls-2" d="M.889,5.643H4.421A1.08,1.08,0,0,0,5.49,4.573V1.041A.541.541,0,0,0,4.944.5a.524.524,0,0,0-.379.162L.505,4.722A.539.539,0,0,0,.889,5.643Z" transform="translate(-0.329 -0.477)"/>
    </g>
  </g>
</svg>
