<svg id="Group_15865" data-name="Group 15865" xmlns="http://www.w3.org/2000/svg" viewBox="0 0 48.951 54.043">
  <defs>
    <style>
      .cls-1 {
        fill: #1b75ab;
      }

      .cls-2 {
        fill: #fff;
      }
    </style>
  </defs>
  <path id="Path_15000" data-name="Path 15000" class="cls-1" d="M15.993,49.07H5.211A3.221,3.221,0,0,1,2,45.859V5.211A3.221,3.221,0,0,1,5.211,2H45.859A3.221,3.221,0,0,1,49.07,5.211V45.859a3.221,3.221,0,0,1-3.211,3.211H35.032l-9.542,5.046Z" transform="translate(-1.082 -1.082)"/>
  <path id="Path_15001" data-name="Path 15001" class="cls-2" d="M44.776,1.835A2.3,2.3,0,0,1,47.07,4.129V44.776a2.3,2.3,0,0,1-2.294,2.294H33.72l-.413.229-8.9,4.725-8.854-4.771-.413-.229H4.129A2.3,2.3,0,0,1,1.835,44.73V4.129A2.3,2.3,0,0,1,4.129,1.835H44.776m0-1.835H4.129A4.112,4.112,0,0,0,0,4.129V44.776a4.141,4.141,0,0,0,4.129,4.129H14.681l9.772,5.138,9.772-5.138h10.6a4.141,4.141,0,0,0,4.129-4.129V4.129A4.211,4.211,0,0,0,44.776,0Z" transform="translate(0 0)"/>
  <g id="Group_11781" data-name="Group 11781" transform="translate(15.048 8.854)">
    <path id="Path_15002" data-name="Path 15002" class="cls-2" d="M32.8,49.35V19.3H43.673a15.938,15.938,0,0,1,3.349.367A8.887,8.887,0,0,1,52.711,24.3a9.067,9.067,0,0,1,.963,4.312,9.431,9.431,0,0,1-2.386,6.1,8.645,8.645,0,0,1-7.019,2.936H37.342V49.4H32.8Zm4.542-25.737v9.726h6.79a4.556,4.556,0,0,0,3.762-1.514,5.107,5.107,0,0,0,1.239-3.3A4.327,4.327,0,0,0,47.16,24.53a5.814,5.814,0,0,0-3.257-.872h-6.56Z" transform="translate(-32.8 -19.3)"/>
  </g>
</svg>
