<svg id="Group_14799" data-name="Group 14799" xmlns="http://www.w3.org/2000/svg" viewBox="0 0 49.761 54.938">
  <defs>
    <style>
      .cls-1, .cls-3 {
        fill: #1b75ab;
      }

      .cls-2, .cls-5 {
        fill: #fff;
      }

      .cls-4, .cls-5 {
        stroke: none;
      }
    </style>
  </defs>
  <path id="Path_15005" data-name="Path 15005" class="cls-1" d="M16.224,49.849H5.265A3.274,3.274,0,0,1,2,46.584V5.265A3.274,3.274,0,0,1,5.265,2h41.32a3.274,3.274,0,0,1,3.265,3.265v41.32a3.274,3.274,0,0,1-3.265,3.265H35.578l-9.7,5.13Z" transform="translate(-1.067 -1.067)"/>
  <path id="Path_15006" data-name="Path 15006" class="cls-2" d="M45.517,1.865A2.339,2.339,0,0,1,47.849,4.2v41.32a2.339,2.339,0,0,1-2.332,2.332H34.278l-.42.233-9.047,4.8-9-4.85-.42-.233H4.2A2.339,2.339,0,0,1,1.865,45.47V4.2A2.339,2.339,0,0,1,4.2,1.865h41.32m0-1.865H4.2A4.18,4.18,0,0,0,0,4.2v41.32a4.21,4.21,0,0,0,4.2,4.2H14.924l9.934,5.223,9.934-5.223H45.564a4.21,4.21,0,0,0,4.2-4.2V4.2A4.28,4.28,0,0,0,45.517,0Z" transform="translate(0 0)"/>
  <path id="Union_1" data-name="Union 1" class="cls-2" d="M0,39.974V.373A4.1,4.1,0,0,1,1.721,0,4.331,4.331,0,0,1,3.5.373v39.6Z" transform="translate(23.282 5.061)"/>
  <g id="Path_16870" data-name="Path 16870" class="cls-3" transform="translate(10.955 7.912)">
    <path class="cls-4" d="M 23.25585174560547 24.5610237121582 L 4.739602565765381 24.5610237121582 C 2.677582740783691 24.5610237121582 1.00000262260437 22.88345336914063 1.00000262260437 20.82143211364746 L 1.00000262260437 4.739593029022217 C 1.00000262260437 2.677572727203369 2.677582740783691 1.000002861022949 4.739602565765381 1.000002861022949 L 23.25585174560547 1.000002861022949 C 25.31787300109863 1.000002861022949 26.99544334411621 2.677572727203369 26.99544334411621 4.739593029022217 L 26.99544334411621 20.82143211364746 C 26.99544334411621 22.88345336914063 25.31787300109863 24.5610237121582 23.25585174560547 24.5610237121582 Z"/>
    <path class="cls-5" d="M 4.739593505859375 2.000001907348633 C 3.228973388671875 2.000001907348633 2.000001907348633 3.228973388671875 2.000001907348633 4.739593505859375 L 2.000001907348633 20.82143211364746 C 2.000001907348633 22.33205223083496 3.228973388671875 23.5610237121582 4.739593505859375 23.5610237121582 L 23.2558422088623 23.5610237121582 C 24.7664623260498 23.5610237121582 25.99544334411621 22.33205223083496 25.99544334411621 20.82143211364746 L 25.99544334411621 4.739593505859375 C 25.99544334411621 3.228973388671875 24.7664623260498 2.000001907348633 23.2558422088623 2.000001907348633 L 4.739593505859375 2.000001907348633 M 4.739593505859375 1.9073486328125e-06 L 23.2558422088623 1.9073486328125e-06 C 25.87345314025879 1.9073486328125e-06 27.99544334411621 2.121992111206055 27.99544334411621 4.739593505859375 L 27.99544334411621 20.82143211364746 C 27.99544334411621 23.43903350830078 25.87345314025879 25.5610237121582 23.2558422088623 25.5610237121582 L 4.739593505859375 25.5610237121582 C 2.121992111206055 25.5610237121582 1.9073486328125e-06 23.43903350830078 1.9073486328125e-06 20.82143211364746 L 1.9073486328125e-06 4.739593505859375 C 1.9073486328125e-06 2.121992111206055 2.121992111206055 1.9073486328125e-06 4.739593505859375 1.9073486328125e-06 Z"/>
  </g>
  <path id="Path_16854" data-name="Path 16854" class="cls-2" d="M32.894,16.174a4.278,4.278,0,0,0,.847.053,3.979,3.979,0,0,0,2.911-1.006,2.754,2.754,0,0,0,.794-2.117,2.783,2.783,0,0,0-.9-2.064,4.277,4.277,0,0,0-2.752-.741,15.389,15.389,0,0,0-2.593.212v9.155h1.694Zm0-4.445a3.776,3.776,0,0,1,1.006-.106c1.164,0,1.905.529,1.905,1.588S35.01,14.9,33.74,14.9a2.063,2.063,0,0,1-.847-.106Z" transform="translate(-3.17 5.216)"/>
  <path id="Path_16864" data-name="Path 16864" class="cls-2" d="M10.986,19.343a5.158,5.158,0,0,0,4.393-2.487A5.281,5.281,0,0,0,16.173,14a5.629,5.629,0,0,0-.794-2.858,4.742,4.742,0,0,0-.794-1.006,5.09,5.09,0,0,0-3.6-1.535A5.277,5.277,0,0,0,5.8,14a5.427,5.427,0,0,0,1.376,3.6A4.831,4.831,0,0,0,10.986,19.343Zm1.27-2.964H12.1v.106h-.106v-.106h-.106v-.159h.053v-.212s.106-.529.318,0v.212h.053v.159Zm.265-2.858a3.247,3.247,0,0,1-.265.582h-.635a1.878,1.878,0,0,1-.053-.37c-.053,0-.053,0-.159.053a.179.179,0,0,1-.159-.265c.053-.159.265-.159.37-.106a1.1,1.1,0,0,1,.318-.529c.212-.159.37,0,.476.053S12.574,13.257,12.521,13.522Zm1.958-3.281-.318.582-1.27.318s-.423.053-.9.106c-.529.053-1.111.159-1.217.159-.159,0-.212-.212-.212-.212s2.117-.476,2.54-.582A2.514,2.514,0,0,1,14.479,10.241Zm-3.387.582a4.408,4.408,0,0,1,.635-.053l-1.164.265A3.382,3.382,0,0,1,11.092,10.823ZM8.5,11.511A1,1,0,0,1,9.5,12.516,1.041,1.041,0,0,1,8.5,13.522a1.006,1.006,0,1,1,0-2.011ZM7.388,14.58a1.094,1.094,0,0,1,1.588-.794c.635.582,1.482,1.376,1.482,1.376l.318-.318V11.564l1.217-.159.9-.106,1.217-.318v6.245l-1.27.37h-.265V12.569l-1.588.212v1.852a.564.564,0,0,1,.741.741,10.16,10.16,0,0,0-.741.794V17.6h-.212V16.379a1.175,1.175,0,0,0-.212.265L9.4,15.691V17.65H7.388Z" transform="translate(9.491 6.016)"/>
</svg>
