<svg id="Layer_1" data-name="Layer 1" xmlns="http://www.w3.org/2000/svg" viewBox="0 0 26.4 26.4"><defs><style>.cls-1{fill:#0073ae;}.cls-2{fill:#fff;}</style></defs><title>Asset_selected</title><circle class="cls-1" cx="13.2" cy="13.2" r="13.2"/><path id="Path_16736" data-name="Path 16736" class="cls-2" d="M20.71,11.81A1.84,1.84,0,0,0,19,13.11h-.64a4.61,4.61,0,0,0-1-2.49l.45-.44a1.85,1.85,0,0,0,.86.21,1.83,1.83,0,1,0-1.83-1.83,2,2,0,0,0,.22.87l-.45.44a4.9,4.9,0,0,0-2.48-1V8.19a1.83,1.83,0,1,0-1.08,0v.64a4.7,4.7,0,0,0-2.48,1L10,9.43a1.89,1.89,0,0,0,.21-.87,1.83,1.83,0,1,0-1.83,1.83,1.86,1.86,0,0,0,.87-.21l.44.44a5,5,0,0,0-1,2.49H8.06a1.82,1.82,0,1,0,0,1.08h.63a4.73,4.73,0,0,0,1,2.48l-.44.44a1.86,1.86,0,0,0-2.16.33A1.82,1.82,0,1,0,9.72,20a1.81,1.81,0,0,0,.53-1.28,1.89,1.89,0,0,0-.21-.87l.45-.44a4.9,4.9,0,0,0,2.48,1v.64a1.84,1.84,0,1,0,1.08,0v-.64a4.77,4.77,0,0,0,2.49-1l.44.44a1.89,1.89,0,0,0-.21.87,1.83,1.83,0,1,0,3.12-1.29,1.85,1.85,0,0,0-2.16-.33l-.44-.44a5,5,0,0,0,1-2.49H19a1.83,1.83,0,1,0,1.76-2.37ZM18.06,8a.74.74,0,0,1,1.07,0,.79.79,0,0,1,.24.54.75.75,0,0,1-.24.54.76.76,0,0,1-.54.23.7.7,0,0,1-.53-.23.79.79,0,0,1-.24-.54A.92.92,0,0,1,18.06,8ZM9,9.1a.76.76,0,0,1-.54.23.74.74,0,0,1-.54-.23.83.83,0,0,1-.23-.54A.76.76,0,0,1,7.88,8,.75.75,0,0,1,8.94,8L9,8a.74.74,0,0,1,.23.54A.91.91,0,0,1,9,9.1ZM6.32,14.4a.75.75,0,1,1,.75-.75h0A.75.75,0,0,1,6.32,14.4ZM9,19.27a.76.76,0,0,1-.54.23.7.7,0,0,1-.53-.23.78.78,0,0,1,0-1.08.74.74,0,0,1,1,0l0,0a.74.74,0,0,1,.23.54.85.85,0,0,1-.23.54Zm9.1-1.08a.74.74,0,0,1,1.05,0l0,0a.76.76,0,0,1,0,1.09.75.75,0,0,1-.53.22.7.7,0,0,1-.53-.23.79.79,0,0,1-.24-.54A.75.75,0,0,1,18.06,18.19ZM12.76,6.46a.75.75,0,1,1,1.5,0,.77.77,0,0,1-.75.75.75.75,0,0,1-.75-.75Zm1.5,14.37a.75.75,0,1,1-.75-.75A.76.76,0,0,1,14.26,20.83Zm-.77-3.35a3.86,3.86,0,1,1,3.85-3.86,3.85,3.85,0,0,1-3.85,3.86Zm7.2-3.08a.75.75,0,0,1,0-1.5.75.75,0,0,1,0,1.5Z"/></svg>