<?xml version="1.0" encoding="utf-8"?>
<!-- Generator: Adobe Illustrator 22.1.0, SVG Export Plug-In . SVG Version: 6.00 Build 0)  -->
<svg version="1.1" id="Layer_1" xmlns="http://www.w3.org/2000/svg" xmlns:xlink="http://www.w3.org/1999/xlink" x="0px" y="0px"
	 viewBox="0 0 26.4 26.4" style="enable-background:new 0 0 26.4 26.4;" xml:space="preserve">
<style type="text/css">
	.st0{fill:#0073AE;}
	.st1{fill:#FFFFFF;}
</style>
<g>
	<circle class="st0" cx="13.2" cy="13.2" r="13.2"/>
	<path class="st1" d="M20.9,7h-2.2v1l0,0.1h-11l0-0.1V7H5.5v1l1.9,10.8c-0.4,0.1-0.7,0.2-0.7,0.4c0,0.2,0.5,0.4,1.1,0.4
		c0.6,0,1.1-0.2,1.1-0.4c0-0.2-0.3-0.3-0.7-0.4l-0.3-5.7h10.6l-0.3,5.6c-0.4,0.1-0.7,0.2-0.7,0.4c0,0.2,0.5,0.4,1.1,0.4
		c0.6,0,1.1-0.2,1.1-0.4c0-0.2-0.3-0.3-0.7-0.4l1.9-10.8V7z M7.7,9.1l0-0.5h1.2v0.5c-0.3,0.6-0.8,1.2-1.1,1.8
		C7.7,10.2,7.7,9.7,7.7,9.1z M8.2,12.9C8.2,12.9,8.1,12.9,8.2,12.9H7.9l0-0.3l0.2-0.4l0,0c0.5-1,1.1-2.1,1.7-3.1V8.5h1.1v0.5
		c-0.7,1.3-1.4,2.6-2.1,3.9C8.6,12.9,8.4,12.9,8.2,12.9z M9.6,12.9c0.7-1.3,1.4-2.6,2.1-3.9V8.5h1.1v0.5c-0.8,1.3-1.5,2.6-2.2,3.9
		C10.3,12.9,9.9,12.9,9.6,12.9z M11.5,12.9c0.7-1.3,1.5-2.6,2.3-3.9V8.5h1.1v0.5c-0.8,1.3-1.6,2.6-2.3,3.9
		C12.2,12.9,11.8,12.9,11.5,12.9z M13.3,12.9c0.7-1.3,1.5-2.6,2.4-3.9h0V8.5h1.1v0.5c-0.9,1.3-1.7,2.6-2.4,3.9
		C14,12.9,13.7,12.9,13.3,12.9z M18.5,12.9c-0.4,0-0.9,0-1.3,0c0.5-0.7,0.9-1.5,1.4-2.2C18.5,11.5,18.5,12.2,18.5,12.9z M18.6,9.1
		c0,0.1,0,0.2,0,0.3c-0.8,1.2-1.6,2.4-2.4,3.6c-0.4,0-0.7,0-1.1,0c0.8-1.3,1.6-2.6,2.5-3.9V8.5h1L18.6,9.1z"/>
</g>
</svg>
