<?xml version="1.0" encoding="utf-8"?>
<!-- Generator: Adobe Illustrator 22.1.0, SVG Export Plug-In . SVG Version: 6.00 Build 0)  -->
<svg version="1.1" id="Layer_1" xmlns="http://www.w3.org/2000/svg" xmlns:xlink="http://www.w3.org/1999/xlink" x="0px" y="0px"
	 viewBox="0 0 26.4 26.4" style="enable-background:new 0 0 26.4 26.4;" xml:space="preserve">
<style type="text/css">
	.st0{fill:#28404C;}
	.st1{fill:#FFFFFF;}
</style>
<g>
	<circle class="st0" cx="13.2" cy="13.2" r="13.2"/>
	<path class="st1" d="M11.2,12.1c-1.3,0-2.3,1.1-2.3,2.3c0,1.3,1.1,2.3,2.3,2.3c1.3,0,2.3-1.1,2.3-2.3
		C13.5,13.1,12.5,12.1,11.2,12.1z M11.2,16.1c-0.9,0-1.7-0.8-1.7-1.7c0-0.1,0-0.2,0-0.2c0.1,0,0.2,0.1,0.4,0.1
		c0.7,0,1.3-0.6,1.3-1.3c0-0.1,0-0.2,0-0.2c0,0,0,0,0.1,0c0.9,0,1.7,0.8,1.7,1.7C12.9,15.4,12.1,16.1,11.2,16.1z M17.2,6.2h-4.1
		c-0.5,0-0.9,0.2-1.2,0.5l0,0l-4,4c0,0,0,0,0,0c-0.3,0.3-0.5,0.7-0.5,1.2v5.3c0,0.9,0.7,1.6,1.6,1.6h1.7v1.5h0.7v-1.5h1.8
		c0.4,0,0.8-0.2,1.1-0.4l0,0l0,0c0,0,0,0,0,0l1.3-1.3v3.3h0.7v-4l1.9-1.9c0.1-0.1,0.2-0.2,0.3-0.3l0,0v0c0.2-0.3,0.3-0.6,0.3-0.9
		V7.8C18.8,6.9,18.1,6.2,17.2,6.2z M14.2,17.1c0,0.5-0.4,0.9-0.9,0.9H9.1c-0.5,0-0.9-0.4-0.9-0.9v-5.3c0-0.5,0.4-0.9,0.9-0.9h4.1
		c0.5,0,0.9,0.4,0.9,0.9V17.1z"/>
</g>
</svg>
