<?xml version="1.0" encoding="utf-8"?>
<!-- Generator: Adobe Illustrator 22.1.0, SVG Export Plug-In . SVG Version: 6.00 Build 0)  -->
<svg version="1.1" id="Layer_1" xmlns="http://www.w3.org/2000/svg" xmlns:xlink="http://www.w3.org/1999/xlink" x="0px" y="0px"
	 viewBox="0 0 24 24" style="enable-background:new 0 0 24 24;" xml:space="preserve">
<style type="text/css">
	.st0{fill:#0E92C6;}
</style>
<g>
	<g>
		<g>
			<polygon class="st0" points="5.5,3.9 5.5,0 2.8,0 2.8,3.9 0,3.9 0,6.7 8.3,6.7 8.3,3.9 			"/>
			<rect x="2.8" y="7.9" class="st0" width="2.7" height="16.1"/>
		</g>
		<g>
			<polygon class="st0" points="21.2,3.9 21.2,0 18.5,0 18.5,3.9 15.7,3.9 15.7,6.7 24,6.7 24,3.9 			"/>
			<rect x="18.5" y="7.9" class="st0" width="2.7" height="16.1"/>
		</g>
	</g>
	<g>
		<polygon class="st0" points="10.6,20.1 10.6,24 13.3,24 13.3,20.1 16.1,20.1 16.1,17.3 7.8,17.3 7.8,20.1 		"/>
		<rect x="10.6" y="0" class="st0" width="2.7" height="16.1"/>
	</g>
</g>
</svg>
