<?xml version="1.0" encoding="utf-8"?>
<!-- Generator: Adobe Illustrator 22.1.0, SVG Export Plug-In . SVG Version: 6.00 Build 0)  -->
<svg version="1.1" id="Layer_1" xmlns="http://www.w3.org/2000/svg" xmlns:xlink="http://www.w3.org/1999/xlink" x="0px" y="0px"
	 viewBox="0 0 26.4 26.4" style="enable-background:new 0 0 26.4 26.4;" xml:space="preserve">
<style type="text/css">
	.st0{fill:#AFAFAF;}
	.st1{fill:#FFFFFF;}
</style>
<g>
	<circle class="st0" cx="13.2" cy="13.2" r="13.2"/>
	<path class="st1" d="M20.7,13.5c0-1-0.8-1.8-1.8-1.8c-0.3,0-0.6,0.1-0.9,0.2L7.9,6.3L7.5,7.2l9.9,5.4c-0.2,0.3-0.3,0.6-0.3,0.9v3.7
		c0,0,0,0.1,0.1,0.1H7.7v-4.5H6.5v4.5v0.5h14.3v-0.5h-0.1c0,0,0.1,0,0.1-0.1V13.5z M19.9,13.5c0,0.5-0.4,0.9-0.9,0.9S18,14,18,13.5
		c0-0.5,0.4-0.9,0.9-0.9S19.9,13,19.9,13.5z"/>
</g>
</svg>
