<?xml version="1.0" encoding="utf-8"?>
<!-- Generator: Adobe Illustrator 22.1.0, SVG Export Plug-In . SVG Version: 6.00 Build 0)  -->
<svg version="1.1" id="Layer_1" xmlns="http://www.w3.org/2000/svg" xmlns:xlink="http://www.w3.org/1999/xlink" x="0px" y="0px"
	 viewBox="0 0 24 24" style="enable-background:new 0 0 24 24;" xml:space="preserve">
<style type="text/css">
	.st0{fill:#0E92C6;}
</style>
<path class="st0" d="M23.3,0.1c-0.4-0.1-0.9,0-1.1,0.3l-6.6,8.5L9,2.8c0,0,0,0,0,0c0,0-0.1-0.1-0.1-0.1c0,0-0.1-0.1-0.1-0.1
	c0,0,0,0,0,0c0,0-0.1,0-0.1,0c0,0-0.1,0-0.1,0c0,0-0.1,0-0.1,0s-0.1,0-0.1,0c-0.1,0-0.1,0-0.1,0c0,0-0.1,0-0.1,0c0,0,0,0,0,0
	c0,0-0.1,0.1-0.1,0.1c0,0-0.1,0.1-0.1,0.1c0,0,0,0,0,0L0.4,9.6C0.2,9.8,0,10.1,0,10.4V23c0,0.4,0.2,0.8,0.6,0.9C0.8,24,0.9,24,1,24
	c0.2,0,0.5-0.1,0.7-0.3l6.6-6.2l6.6,6.2c0,0,0,0,0,0c0.1,0.1,0.1,0.1,0.2,0.1c0,0,0.1,0,0.1,0c0,0,0,0,0,0c0.1,0,0.2,0.1,0.3,0.1
	c0.1,0,0.3,0,0.4-0.1c0,0,0,0,0,0c0,0,0,0,0,0c0.1-0.1,0.2-0.1,0.3-0.2c0,0,0,0,0,0l7.3-9.4c0.1-0.2,0.2-0.4,0.2-0.6V1
	C24,0.6,23.7,0.2,23.3,0.1z M2,10.8l5.3-5v9.9l-5.3,5V10.8z M9.4,5.8l5.3,5v9.9l-5.3-5V5.8z M22,13.3l-5.3,6.8v-9.4L22,3.9V13.3z"/>
</svg>
