<?xml version="1.0" encoding="utf-8"?>
<!-- Generator: Adobe Illustrator 22.1.0, SVG Export Plug-In . SVG Version: 6.00 Build 0)  -->
<svg version="1.1" id="Layer_1" xmlns="http://www.w3.org/2000/svg" xmlns:xlink="http://www.w3.org/1999/xlink" x="0px" y="0px"
	 viewBox="0 0 26.4 26.4" style="enable-background:new 0 0 26.4 26.4;" xml:space="preserve">
<style type="text/css">
	.st0{fill:#28404C;}
	.st1{fill:#FFFFFF;}
</style>
<circle class="st0" cx="13.2" cy="13.2" r="13.2"/>
<g>
	<path class="st1" d="M9.1,19.6V6.7h4.2c1.6,0,2.6,0.1,3.1,0.2c0.7,0.2,1.4,0.6,1.9,1.3S19,9.7,19,10.7c0,0.8-0.1,1.5-0.4,2
		s-0.7,1-1.1,1.3s-0.9,0.5-1.3,0.6c-0.6,0.1-1.5,0.2-2.7,0.2h-1.7v4.9H9.1z M11.7,8.9v3.7h1.4c1,0,1.7-0.1,2.1-0.2s0.6-0.3,0.8-0.6
		c0.2-0.3,0.3-0.6,0.3-1c0-0.5-0.1-0.9-0.4-1.2c-0.3-0.3-0.6-0.5-1-0.6c-0.3-0.1-0.9-0.1-1.9-0.1H11.7z"/>
</g>
</svg>
