<?xml version="1.0" encoding="utf-8"?>
<!-- Generator: Adobe Illustrator 22.1.0, SVG Export Plug-In . SVG Version: 6.00 Build 0)  -->
<svg version="1.1" id="Layer_1" xmlns="http://www.w3.org/2000/svg" xmlns:xlink="http://www.w3.org/1999/xlink" x="0px" y="0px"
	 viewBox="0 0 26.4 26.4" style="enable-background:new 0 0 26.4 26.4;" xml:space="preserve">
<style type="text/css">
	.st0{fill:#AFAFAF;}
	.st1{fill:#FFFFFF;}
</style>
<circle class="st0" cx="13.2" cy="13.2" r="13.2"/>
<path class="st1" d="M17.7,5.2H8.6c-0.6,0-1.1,0.5-1.1,1.1v2.8l1,4.9c0,0.6,0.3,1.1,0.7,1.1h1.8l0.2,5.5H11c-0.1,0-0.2,0.1-0.2,0.2
	v0c0,0.1,0.1,0.2,0.2,0.2h4.5c0.1,0,0.2-0.1,0.2-0.2v0c0-0.1-0.1-0.2-0.2-0.2H15l0.2-5.5h1.8c0.4,0,0.7-0.5,0.7-1.1l1-4.9V6.3
	C18.8,5.7,18.3,5.2,17.7,5.2z M16.5,13.8H9.8c-0.1,0-0.2-0.1-0.2-0.2c0-0.1,0.1-0.2,0.2-0.2h6.7c0.1,0,0.2,0.1,0.2,0.2
	C16.7,13.7,16.6,13.8,16.5,13.8z M17.2,12.1l-0.1,0.4H9L9,12.1l-0.6-3c0-0.1,0.1-0.2,0.3-0.2h8.8c0.1,0,0.3,0.1,0.3,0.2L17.2,12.1z"
	/>
</svg>
