<?xml version="1.0" encoding="utf-8"?>
<!-- Generator: Adobe Illustrator 22.1.0, SVG Export Plug-In . SVG Version: 6.00 Build 0)  -->
<svg version="1.1" id="Layer_1" xmlns="http://www.w3.org/2000/svg" xmlns:xlink="http://www.w3.org/1999/xlink" x="0px" y="0px"
	 viewBox="0 0 26.4 26.4" style="enable-background:new 0 0 26.4 26.4;" xml:space="preserve">
<style type="text/css">
	.st0{fill:#0073AE;}
	.st1{fill:#FFFFFF;}
</style>
<circle class="st0" cx="13.2" cy="13.2" r="13.2"/>
<path class="st1" d="M20.8,12.8L20,9.2c0.4-0.3,0.6-0.7,0.6-1.2c0-0.8-0.7-1.5-1.5-1.5c-0.6,0-1.1,0.4-1.4,0.9l-2.2-0.2
	c-0.2-0.6-0.8-1-1.4-1c-0.8,0-1.5,0.7-1.5,1.5c0,0,0,0.1,0,0.1l-6,3.5c-0.3-0.2-0.6-0.4-1-0.4c-0.8,0-1.5,0.7-1.5,1.5
	c0,0.8,0.7,1.5,1.5,1.5C5.9,14,6,14,6.2,14l4.2,6c-0.1,0.2-0.2,0.5-0.2,0.8c0,0.8,0.7,1.5,1.5,1.5s1.5-0.7,1.5-1.5
	c0-0.1,0-0.2,0-0.3l6.6-4.9c0.2,0.2,0.6,0.3,0.9,0.3c0.8,0,1.5-0.7,1.5-1.5C22.1,13.5,21.5,12.8,20.8,12.8z M14.2,9.2
	c0.7,0,1.3-0.5,1.5-1.1l2,0.2c0.1,0.7,0.7,1.2,1.5,1.2c0,0,0,0,0,0l0.8,3.5c-0.5,0.3-0.8,0.7-0.8,1.3c0,0.2,0,0.3,0.1,0.5l-6.5,4.9
	c-0.3-0.2-0.6-0.4-1-0.4c-0.2,0-0.4,0.1-0.6,0.1l-4.2-5.9c0.2-0.3,0.3-0.6,0.3-0.9c0-0.1,0-0.2,0-0.4l5.9-3.5
	C13.3,9,13.7,9.2,14.2,9.2z"/>
</svg>
