<svg xmlns="http://www.w3.org/2000/svg" viewBox="0 0 20.544 22.553">
  <defs>
    <style>
      .cls-1, .cls-2 {
        fill: #fff;
      }

      .cls-1 {
        stroke: #fff;
        stroke-width: 0.3px;
      }
    </style>
  </defs>
  <g id="Group_15875" data-name="Group 15875" transform="translate(13937.15 11436.15)">
    <path id="Path_16753" data-name="Path 16753" class="cls-1" d="M15.166,9.633V5.422a.488.488,0,0,0-.134-.32L10.31.144A.471.471,0,0,0,9.971,0H2.486A2.494,2.494,0,0,0,0,2.509V16.664a2.478,2.478,0,0,0,2.486,2.491H8.394a6.378,6.378,0,1,0,6.771-9.521Zm-4.73-8L13.6,4.962H11.548a1.12,1.12,0,0,1-1.113-1.118Zm-7.949,16.6A1.554,1.554,0,0,1,.928,16.664V2.509A1.567,1.567,0,0,1,2.486.928H9.508V3.845A2.045,2.045,0,0,0,11.548,5.89h2.69V9.512c-.139,0-.25-.018-.371-.018a6.471,6.471,0,0,0-4.23,1.6H3.747a.464.464,0,1,0,0,.927H8.775a7.379,7.379,0,0,0-.816,1.438H3.747a.464.464,0,0,0,0,.928h3.91a6.365,6.365,0,0,0,.278,3.849H2.486Zm11.377,3.1a5.449,5.449,0,1,1,5.449-5.449A5.455,5.455,0,0,1,13.862,21.329Zm0,0" transform="translate(-13937 -11436)"/>
    <g id="Group_14295" data-name="Group 14295" transform="translate(-13925.315 -11423.6)">
      <path id="Path_16755" data-name="Path 16755" class="cls-2" d="M252.136,346.813H251.6a1.89,1.89,0,0,0-1.9,1.888v1.546a.347.347,0,0,0,.335.348H253.7a.334.334,0,0,0,.321-.348V348.7A1.878,1.878,0,0,0,252.136,346.813Zm1.215,3.112h-2.979V348.7a1.223,1.223,0,0,1,1.228-1.218h.535a1.209,1.209,0,0,1,1.215,1.218Zm0,0" transform="translate(-249.703 -343.961)"/>
      <path id="Path_16756" data-name="Path 16756" class="cls-2" d="M275.642,258.686a1.4,1.4,0,1,0-1.4-1.4A1.4,1.4,0,0,0,275.642,258.686Zm0-2.122a.726.726,0,1,1-.726.726A.726.726,0,0,1,275.642,256.564Zm0,0" transform="translate(-273.476 -255.895)"/>
    </g>
    <g id="Group_14294" data-name="Group 14294" transform="translate(-13933.209 -11430.198)">
      <g id="Group_14293" data-name="Group 14293">
        <path id="Path_16758" data-name="Path 16758" class="cls-1" d="M135.525,169.577a.375.375,0,0,0-.53,0l-3.311,3.311-1.743-1.743a.375.375,0,1,0-.53.53l2.008,2.008a.375.375,0,0,0,.53,0l3.576-3.576A.375.375,0,0,0,135.525,169.577Z" transform="translate(-129.301 -169.467)"/>
      </g>
    </g>
  </g>
</svg>
