<?xml version="1.0" encoding="utf-8"?>
<!-- Generator: Adobe Illustrator 22.1.0, SVG Export Plug-In . SVG Version: 6.00 Build 0)  -->
<svg version="1.1" id="Layer_1" xmlns="http://www.w3.org/2000/svg" xmlns:xlink="http://www.w3.org/1999/xlink" x="0px" y="0px"
	 viewBox="0 0 21.7 24.8" style="enable-background:new 0 0 21.7 24.8;" xml:space="preserve">
<style type="text/css">
	.st0{fill:#FFFFFF;}
</style>
<g>
	<path class="st0" d="M17.8,9.1L17.8,9.1h-1.2V5.7C16.6,2.5,14,0,10.9,0c0,0,0,0,0,0s0,0,0,0C7.7,0,5.1,2.5,5,5.7v3.4H3.9h0
		C1.7,9.1,0,10.8,0,13l0,7.9c0,2.1,1.7,3.9,3.9,3.9h13.9c2.1,0,3.9-1.7,3.9-3.9l0-7.9C21.7,10.8,20,9.1,17.8,9.1z M7,5.7
		c0-2.1,1.8-3.8,3.9-3.8c2.1,0,3.8,1.6,3.9,3.8v3.4H7V5.7z M19.8,20.9c0,1.1-0.9,1.9-1.9,1.9H3.9c-1.1,0-1.9-0.9-1.9-1.9V13
		c0-1.1,0.9-1.9,1.9-1.9h13.9c1.1,0,1.9,0.9,1.9,1.9V20.9z"/>
	<circle id="Ellipse_491" class="st0" cx="10.9" cy="17" r="1.4"/>
	<circle id="Ellipse_492" class="st0" cx="6.6" cy="17" r="1.4"/>
	<circle id="Ellipse_493" class="st0" cx="15.1" cy="17" r="1.4"/>
</g>
</svg>
