<?xml version="1.0" encoding="utf-8"?>
<!-- Generator: Adobe Illustrator 22.1.0, SVG Export Plug-In . SVG Version: 6.00 Build 0)  -->
<svg version="1.1" id="Capa_1" xmlns="http://www.w3.org/2000/svg" xmlns:xlink="http://www.w3.org/1999/xlink" x="0px" y="0px"
	 viewBox="0 0 24 24" style="enable-background:new 0 0 24 24;" xml:space="preserve">
<style type="text/css">
	.st0{fill:#FFFFFF;}
</style>
<g>
	<g>
		<path class="st0" d="M0.8,8C0.7,7.9,0.6,7.8,0.5,7.8S0.2,7.9,0.1,8C0,8.1,0,8.2,0,8.3s0.1,0.2,0.1,0.3c0.1,0.1,0.2,0.1,0.3,0.1
			s0.2-0.1,0.3-0.1c0.1-0.1,0.1-0.2,0.1-0.3S0.9,8.1,0.8,8z"/>
	</g>
</g>
<g>
	<g>
		<path class="st0" d="M22.6,0H9C8.7,0,8.5,0.2,8.5,0.5S8.7,0.9,9,0.9h13.6c0.3,0,0.5,0.2,0.5,0.5v21.2c0,0.3-0.2,0.5-0.5,0.5H1.4
			c-0.3,0-0.5-0.2-0.5-0.5V10c0-0.3-0.2-0.5-0.5-0.5S0,9.8,0,10v12.5C0,23.4,0.6,24,1.4,24h21.2c0.8,0,1.4-0.6,1.4-1.4V1.4
			C24,0.6,23.4,0,22.6,0z"/>
	</g>
</g>
<g>
	<g>
		<path class="st0" d="M13,1.9c-0.3,0-0.6,0-1,0.1c-0.3,0-0.4,0.3-0.4,0.5s0.3,0.4,0.5,0.4c0.3,0,0.5-0.1,0.8-0.1
			c2.9,0,5.3,2.4,5.3,5.3c0,1.3-0.5,2.5-1.2,3.4c-0.3-0.6-0.8-1.1-1.4-1.5c-0.3-0.2-0.7-0.4-1.1-0.6c0.4-0.4,0.7-1,0.7-1.6V7.4
			c0-1.3-1-2.3-2.3-2.3s-2.3,1-2.3,2.3v0.5c0,0.6,0.3,1.2,0.7,1.6c-0.4,0.1-0.7,0.3-1.1,0.6c-0.6,0.4-1,0.9-1.4,1.5
			C8.4,10.8,8,10,7.8,9c0-0.3-0.3-0.4-0.5-0.4C7,8.6,6.9,8.9,6.9,9.1c0.2,1.4,1,2.8,2.1,3.7c1.1,1,2.6,1.5,4,1.5
			c3.4,0,6.2-2.8,6.2-6.2S16.5,1.9,13,1.9z M11.7,7.4C11.7,6.6,12.3,6,13,6s1.4,0.6,1.4,1.4v0.5c0,0.8-0.6,1.4-1.4,1.4
			s-1.4-0.6-1.4-1.4V7.4z M13,13.4c-1.3,0-2.4-0.4-3.4-1.2c0.6-1.3,1.9-2.1,3.4-2.1s2.7,0.8,3.4,2.1C15.5,13,14.3,13.4,13,13.4z"/>
	</g>
</g>
<g>
	<g>
		<path class="st0" d="M18.6,18.7h-11c-0.3,0-0.5,0.2-0.5,0.5s0.2,0.5,0.5,0.5h11c0.3,0,0.5-0.2,0.5-0.5S18.8,18.7,18.6,18.7z"/>
	</g>
</g>
<g>
	<g>
		<path class="st0" d="M5.9,16.2C5.9,16.1,5.7,16,5.6,16s-0.2,0.1-0.3,0.1c-0.1,0.1-0.1,0.2-0.1,0.3c0,0.1,0.1,0.2,0.1,0.3
			C5.4,16.9,5.5,17,5.6,17s0.2-0.1,0.3-0.1c0.1-0.1,0.1-0.2,0.1-0.3S6,16.3,5.9,16.2z"/>
	</g>
</g>
<g>
	<g>
		<path class="st0" d="M5.9,18.8c-0.1-0.1-0.2-0.1-0.3-0.1c-0.1,0-0.2,0.1-0.3,0.1c-0.1,0.1-0.1,0.2-0.1,0.3c0,0.1,0.1,0.2,0.1,0.3
			c0.1,0.1,0.2,0.1,0.3,0.1s0.2-0.1,0.3-0.1c0.1-0.1,0.1-0.2,0.1-0.3C6.1,19,6,18.9,5.9,18.8z"/>
	</g>
</g>
<g>
	<g>
		<path class="st0" d="M18.6,16h-11c-0.3,0-0.5,0.2-0.5,0.5S7.4,17,7.6,17h11c0.3,0,0.5-0.2,0.5-0.5S18.8,16,18.6,16z"/>
	</g>
</g>
<g>
	<g>
		<path class="st0" d="M5.5,2.7C5.3,2.5,5,2.5,4.9,2.7L3.3,4.2L2.8,3.7c-0.2-0.2-0.5-0.2-0.7,0C2,3.9,2,4.2,2.1,4.4L3,5.2
			c0.1,0.1,0.2,0.1,0.3,0.1c0.1,0,0.2,0,0.3-0.1l1.9-1.9C5.7,3.2,5.7,2.9,5.5,2.7z"/>
	</g>
</g>
<g>
	<g>
		<path class="st0" d="M3.8,0C1.7,0,0,1.7,0,3.8s1.7,3.8,3.8,3.8S7.7,6,7.7,3.8S6,0,3.8,0z M3.8,6.8c-1.6,0-2.9-1.3-2.9-2.9
			s1.3-2.9,2.9-2.9s2.9,1.3,2.9,2.9S5.4,6.8,3.8,6.8z"/>
	</g>
</g>
</svg>
