<svg id="Group_15875" data-name="Group 15875" xmlns="http://www.w3.org/2000/svg" viewBox="0 0 21.31 23.993">
  <defs>
    <style>
      .cls-1 {
        fill: #fff;
      }
    </style>
  </defs>
  <path id="Path_1903" data-name="Path 1903" class="cls-1" d="M62.265,66.566A2.068,2.068,0,0,0,61,66.1a1.98,1.98,0,0,0-2,2,2,2,0,0,0,2,2.021,1.829,1.829,0,0,0,1.27-.466,2.046,2.046,0,0,0,.751-1.555A2.079,2.079,0,0,0,62.265,66.566Zm-.078,1.166-1.451,1.451a.386.386,0,0,1-.233.1.317.317,0,0,1-.233-.1l-.544-.544a.311.311,0,0,1,.44-.44l.337.337,1.218-1.218a.351.351,0,0,1,.44,0,.362.362,0,0,1,.078.233A.172.172,0,0,1,62.187,67.732Z" transform="translate(-43.713 -48.973)"/>
  <path id="Path_1904" data-name="Path 1904" class="cls-1" d="M59.124,57.71v-.337a.631.631,0,0,0-.622-.622,4.855,4.855,0,0,1-2.125-.57,4.921,4.921,0,0,1-1.14-.829.368.368,0,0,0-.155-.052.537.537,0,0,0-.155.052,4.836,4.836,0,0,1-3.239,1.4.63.63,0,0,0-.622.622v.363a11.34,11.34,0,0,0,.415,3.99,5.432,5.432,0,0,0,1.166,1.84,4.75,4.75,0,0,0,.674.544,5.843,5.843,0,0,0,1.658.829l.1.026.1-.026a6.4,6.4,0,0,0,2.332-1.373,5.064,5.064,0,0,0,1.166-1.84A10.942,10.942,0,0,0,59.124,57.71ZM56.222,63a2.9,2.9,0,0,1-1.14.233,3.109,3.109,0,1,1,0-6.218,2.944,2.944,0,0,1,1.27.285,3.089,3.089,0,0,1,1.814,2.824A3.025,3.025,0,0,1,56.222,63Z" transform="translate(-37.826 -40.972)"/>
  <path id="Path_1905" data-name="Path 1905" class="cls-1" d="M22.142,9.509A4.755,4.755,0,1,0,17.4,4.742,4.755,4.755,0,0,0,22.142,9.509Z" transform="translate(-12.892)"/>
  <path id="Path_1906" data-name="Path 1906" class="cls-1" d="M33.344,39.081a.745.745,0,0,0-.466-.181H31.634a.691.691,0,0,0-.466.181.6.6,0,0,0-.078.674l.674,1.01-.311,2.643.622,1.658a.2.2,0,0,0,.363,0l.622-1.658-.311-2.643.674-1.01A.643.643,0,0,0,33.344,39.081Z" transform="translate(-22.98 -28.821)"/>
  <path id="Path_1907" data-name="Path 1907" class="cls-1" d="M12.929,50.575a11.494,11.494,0,0,1-.466-4.2v-.492a1.456,1.456,0,0,1,1.373-1.373,4,4,0,0,0,2.746-1.166l.052-.052.052-.052a1.141,1.141,0,0,1,.57-.181,1.058,1.058,0,0,1,.57.181l.1.078a4.058,4.058,0,0,0,.544.44,4.111,4.111,0,0,0-2.824-3.42h-.026c-.622-.155-2.513-.415-2.513-.415a.428.428,0,0,0-.518.259l-2.85,7.851a.532.532,0,0,1-.985,0l-2.85-7.851a.45.45,0,0,0-.389-.285c-.026,0-2,.285-2.643.44A4.148,4.148,0,0,0,0,44.408v6.5A1.769,1.769,0,0,0,1.762,52.7H14.277A6.026,6.026,0,0,1,12.929,50.575Z" transform="translate(0 -29.562)"/>
</svg>
