<svg id="statistics" xmlns="http://www.w3.org/2000/svg" viewBox="0 0 36.559 36.559">
  <defs>
    <style>
      .cls-1 {
        fill: #fff;
      }
    </style>
  </defs>
  <path id="Path_1909" data-name="Path 1909" class="cls-1" d="M34.213,17.137a3.2,3.2,0,0,0,2.224-.9l3.17,1.585a3.147,3.147,0,0,0-.039.389,3.213,3.213,0,0,0,6.426,0,3.174,3.174,0,0,0-.322-1.376l4.3-4.3a3.174,3.174,0,0,0,1.376.322A3.217,3.217,0,0,0,54.563,9.64a3.165,3.165,0,0,0-.16-.952l3.737-2.8a3.211,3.211,0,1,0-1.434-2.673,3.165,3.165,0,0,0,.16.952l-3.737,2.8a3.2,3.2,0,0,0-4.67,4.049l-4.3,4.3a3.157,3.157,0,0,0-3.6.581l-3.17-1.585a3.147,3.147,0,0,0,.039-.389,3.213,3.213,0,1,0-3.213,3.213Zm0,0" transform="translate(-28.787)"/>
  <path id="Path_1910" data-name="Path 1910" class="cls-1" d="M35.487,173.706H34.345V151.071A1.071,1.071,0,0,0,33.274,150H28.99a1.071,1.071,0,0,0-1.071,1.071v22.635H25.777V157.5a1.071,1.071,0,0,0-1.071-1.071H20.421A1.071,1.071,0,0,0,19.35,157.5v16.209H17.208v-7.64a1.071,1.071,0,0,0-1.071-1.071H11.853a1.071,1.071,0,0,0-1.071,1.071v7.64H8.64V161.782a1.071,1.071,0,0,0-1.071-1.071H3.285a1.071,1.071,0,0,0-1.071,1.071v11.924H1.071a1.071,1.071,0,0,0,0,2.142H35.487a1.071,1.071,0,1,0,0-2.142Zm0,0" transform="translate(0 -139.289)"/>
</svg>
