<?xml version="1.0" encoding="utf-8"?>
<!-- Generator: Adobe Illustrator 19.0.0, SVG Export Plug-In . SVG Version: 6.00 Build 0)  -->
<svg version="1.1" id="Layer_1" xmlns="http://www.w3.org/2000/svg" xmlns:xlink="http://www.w3.org/1999/xlink" x="0px" y="0px"
	 viewBox="0 0 24 24" style="enable-background:new 0 0 24 24;" xml:space="preserve">
<style type="text/css">
	.st0{fill:#FFFFFF;}
</style>
<g id="XMLID_12_">
	<g id="XMLID_30_">
		<rect id="XMLID_10_" x="4.1" y="6.9" class="st0" width="11" height="0.7"/>
	</g>
	<g id="XMLID_28_">
		<rect id="XMLID_9_" x="10.4" y="9.8" class="st0" width="4.7" height="0.7"/>
	</g>
	<g id="XMLID_26_">
		<rect id="XMLID_8_" x="12.2" y="12.9" class="st0" width="2.8" height="0.7"/>
	</g>
	<g id="XMLID_24_">
		<path id="XMLID_7_" class="st0" d="M12.9,4.1H6.8c-0.6,0-1-0.5-1-1V2.6c0-0.6,0.5-1,1-1h6.1c0.6,0,1,0.5,1,1v0.5
			C13.9,3.7,13.4,4.1,12.9,4.1z"/>
	</g>
	<g id="XMLID_17_">
		<g id="XMLID_20_">
			<path id="XMLID_21_" class="st0" d="M5.7,22.4c-1.5,0-3-0.6-4.1-1.7C0.6,19.6,0,18.2,0,16.7c0-1.5,0.6-3,1.7-4.1s2.5-1.7,4.1-1.7
				s3,0.6,4.1,1.7s1.7,2.5,1.7,4.1c0,1.5-0.6,3-1.7,4.1C8.7,21.8,7.3,22.4,5.7,22.4z M5.7,11.8c-1.3,0-2.5,0.5-3.5,1.4
				s-1.4,2.1-1.4,3.5s0.5,2.5,1.4,3.5s2.1,1.4,3.5,1.4s2.5-0.5,3.5-1.4s1.4-2.1,1.4-3.5s-0.5-2.5-1.4-3.5S7,11.8,5.7,11.8z"/>
		</g>
		<g id="XMLID_18_">
			
				<rect id="XMLID_4_" x="5.3" y="11.4" transform="matrix(0.7071 0.7071 -0.7071 0.7071 13.4652 0.8294)" class="st0" width="0.8" height="10.6"/>
		</g>
	</g>
	<path id="XMLID_3_" class="st0" d="M16,3H3.6C2.3,3,1.2,4.1,1.2,5.5v8.5c0.4-0.4,0.9-1,1.3-1.4V5.5c0-0.6,0.5-1.1,1.1-1.1H16
		c0.6,0,1.1,0.5,1.1,1.1v13.9c0,0.6-0.5,1.1-1.1,1.1H9.4l-1.5,1.3H16c1.3,0,2.4-1.1,2.4-2.4V5.5C18.4,4.1,17.3,3,16,3z"/>
	<path id="XMLID_13_" class="st0" d="M12.2,16.6v2.5h2.5l7.2-7.2l-2.5-2.5L12.2,16.6z M23.8,9.9c0.3-0.3,0.3-0.7,0-0.9l-1.5-1.5
		c-0.3-0.3-0.7-0.3-0.9,0l-1.2,1.2l2.5,2.5L23.8,9.9z"/>
</g>
</svg>
