<?xml version="1.0" encoding="utf-8"?>
<!-- Generator: Adobe Illustrator 19.0.0, SVG Export Plug-In . SVG Version: 6.00 Build 0)  -->
<svg version="1.1" id="Layer_1" xmlns="http://www.w3.org/2000/svg" xmlns:xlink="http://www.w3.org/1999/xlink" x="0px" y="0px"
	 viewBox="0 0 32 32" style="enable-background:new 0 0 32 32;" xml:space="preserve">
<style type="text/css">
	.st0{fill:#FFFFFF;}
</style>
<g id="XMLID_2_">
	<g id="XMLID_19_">
		<path id="XMLID_21_" class="st0" d="M29.9,23.5H16.7c-0.6,0-1.1,0.5-1.1,1.1v3.3c0,0.6,0.5,1.1,1.1,1.1h13.3
			c0.6,0,1.1-0.5,1.1-1.1v-3.3C31.1,24,30.5,23.5,29.9,23.5z M27.9,27.9c-0.4,0-0.7-0.3-0.7-0.7c0-0.6-0.5-1.1-1.1-1.1H20
			c-0.6,0-1.1,0.5-1.1,1.1c0,0.4-0.3,0.7-0.7,0.7c-0.4,0-0.7-0.3-0.7-0.7c0-1.3,1.1-2.4,2.4-2.4h6.1c1.3,0,2.4,1.1,2.4,2.4
			C28.6,27.6,28.3,27.9,27.9,27.9z"/>
		<path id="XMLID_20_" class="st0" d="M16.7,15.7h13.3c0.2,0,0.3,0,0.4,0.1l-2.3-3h-4.7h-4.7l-2.3,3C16.3,15.7,16.5,15.7,16.7,15.7z
			"/>
	</g>
	<g id="XMLID_17_">
		<rect id="XMLID_18_" x="18.3" y="8.7" class="st0" width="1" height="5.6"/>
	</g>
	<circle id="XMLID_16_" class="st0" cx="18.8" cy="8.6" r="1.5"/>
	<g id="XMLID_12_">
		<path id="XMLID_15_" class="st0" d="M24.1,8.6c0,1.5-0.6,2.8-1.5,3.7l0.5,0.5c1.1-1.1,1.7-2.6,1.7-4.2c0-1.6-0.7-3.1-1.7-4.2
			l-0.5,0.5C23.5,5.8,24.1,7.1,24.1,8.6z"/>
		<path id="XMLID_14_" class="st0" d="M22,8.6c0,0.9-0.4,1.7-0.9,2.3l0.5,0.5c0.7-0.7,1.1-1.7,1.1-2.7c0-1.1-0.4-2-1.1-2.8l-0.5,0.5
			C21.7,6.9,22,7.7,22,8.6z"/>
		<path id="XMLID_13_" class="st0" d="M26.8,8.6c0-2.2-0.9-4.2-2.3-5.7L24,3.4c1.3,1.3,2.1,3.2,2.1,5.2c0,1.6-0.6,3.1-1.5,4.3h0.9
			C26.3,11.7,26.8,10.2,26.8,8.6z"/>
	</g>
	<path id="XMLID_8_" class="st0" d="M13.2,7H2.2C1.5,7,0.9,7.6,0.9,8.3v3.4l1.2,5.9C2.2,18.4,2.6,19,3,19h1.6l0.9,9H5
		c-0.2,0-0.3,0.1-0.3,0.3v0c0,0.2,0.1,0.3,0.3,0.3h5.4c0.2,0,0.3-0.1,0.3-0.3v0c0-0.2-0.1-0.3-0.3-0.3H9.9l0.9-9h1.6
		c0.5,0,0.8-0.6,0.8-1.3l1.2-5.9V8.3C14.5,7.6,13.9,7,13.2,7z M11.7,17.4H3.6c-0.1,0-0.3-0.1-0.3-0.3c0-0.1,0.1-0.3,0.3-0.3h8.1
		c0.1,0,0.3,0.1,0.3,0.3C12,17.3,11.9,17.4,11.7,17.4z M12.5,15.3l-0.1,0.5H2.7l-0.1-0.5l-0.7-3.7c0-0.2,0.2-0.3,0.3-0.3h10.7
		c0.2,0,0.3,0.1,0.3,0.3L12.5,15.3z"/>
	<path id="XMLID_3_" class="st0" d="M29.9,16.2H16.7c-0.6,0-1.1,0.5-1.1,1.1v3.3c0,0.6,0.5,1.1,1.1,1.1h13.3c0.6,0,1.1-0.5,1.1-1.1
		v-3.3C31.1,16.7,30.5,16.2,29.9,16.2z M23.3,20.8h-6.1c-0.2,0-0.3-0.1-0.3-0.3c0-0.2,0.1-0.3,0.3-0.3h6.1c0.2,0,0.3,0.1,0.3,0.3
		C23.6,20.6,23.5,20.8,23.3,20.8z M29.4,19.3H17.3c-0.2,0-0.3-0.1-0.3-0.3s0.1-0.3,0.3-0.3h12.1c0.2,0,0.3,0.1,0.3,0.3
		S29.6,19.3,29.4,19.3z M29.4,17.9H17.3c-0.2,0-0.3-0.1-0.3-0.3c0-0.2,0.1-0.3,0.3-0.3h12.1c0.2,0,0.3,0.1,0.3,0.3
		C29.7,17.7,29.6,17.9,29.4,17.9z"/>
</g>
</svg>
