<svg xmlns="http://www.w3.org/2000/svg" viewBox="0 0 36.15 36.15">
  <defs>
    <style>
      .cls-1 {
        fill: #fff;
      }
    </style>
  </defs>
  <path id="Path_16736" data-name="Path 16736" class="cls-1" d="M32.489,14.414A3.654,3.654,0,0,0,28.982,17H27.71a9.4,9.4,0,0,0-2.081-4.972l.886-.886a3.842,3.842,0,0,0,1.734.424A3.652,3.652,0,1,0,24.588,7.9a3.842,3.842,0,0,0,.424,1.734l-.886.886A9.851,9.851,0,0,0,19.154,8.44V7.168a3.661,3.661,0,1,0-2.158,0V8.44a9.4,9.4,0,0,0-4.972,2.081l-.886-.886A3.842,3.842,0,0,0,11.562,7.9,3.652,3.652,0,1,0,7.9,11.562a3.842,3.842,0,0,0,1.734-.424l.886.886A9.851,9.851,0,0,0,8.44,17H7.168a3.661,3.661,0,1,0,0,2.158H8.44a9.4,9.4,0,0,0,2.081,4.972l-.886.886a3.7,3.7,0,0,0-4.316.655,3.652,3.652,0,1,0,6.243,2.582,3.842,3.842,0,0,0-.424-1.734l.886-.886A9.851,9.851,0,0,0,17,27.71v1.272a3.661,3.661,0,1,0,2.158,0V27.71a9.4,9.4,0,0,0,4.972-2.081l.886.886a3.842,3.842,0,0,0-.424,1.734,3.656,3.656,0,1,0,6.243-2.582,3.7,3.7,0,0,0-4.316-.655l-.886-.886a9.851,9.851,0,0,0,2.081-4.972h1.272a3.665,3.665,0,1,0,3.507-4.74ZM27.17,6.821a1.546,1.546,0,0,1,1.079-.462,1.458,1.458,0,0,1,1.079.462A1.546,1.546,0,0,1,29.791,7.9a1.458,1.458,0,0,1-.462,1.079,1.546,1.546,0,0,1-1.079.462A1.458,1.458,0,0,1,27.17,8.98,1.546,1.546,0,0,1,26.708,7.9,1.828,1.828,0,0,1,27.17,6.821ZM8.98,8.98A1.546,1.546,0,0,1,7.9,9.442,1.458,1.458,0,0,1,6.821,8.98,1.546,1.546,0,0,1,6.359,7.9a1.458,1.458,0,0,1,.462-1.079,1.49,1.49,0,0,1,2.158,0A1.546,1.546,0,0,1,9.442,7.9,1.937,1.937,0,0,1,8.98,8.98ZM3.7,19.578a1.5,1.5,0,1,1,1.5-1.5A1.5,1.5,0,0,1,3.7,19.578Zm5.28,9.75a1.546,1.546,0,0,1-1.079.462,1.458,1.458,0,0,1-1.079-.462,1.559,1.559,0,0,1,0-2.158,1.49,1.49,0,0,1,2.158,0,1.546,1.546,0,0,1,.462,1.079A1.828,1.828,0,0,1,8.98,29.329ZM27.17,27.17a1.49,1.49,0,0,1,2.158,0,1.542,1.542,0,0,1-1.079,2.621,1.458,1.458,0,0,1-1.079-.462,1.546,1.546,0,0,1-.462-1.079A1.458,1.458,0,0,1,27.17,27.17ZM16.572,3.7a1.5,1.5,0,0,1,3.006,0,1.53,1.53,0,0,1-1.5,1.5A1.5,1.5,0,0,1,16.572,3.7Zm3.006,28.75a1.5,1.5,0,1,1-1.5-1.5A1.5,1.5,0,0,1,19.578,32.45Zm-1.542-6.706a7.708,7.708,0,1,1,7.708-7.708A7.706,7.706,0,0,1,18.036,25.744ZM32.45,19.578a1.5,1.5,0,1,1,1.5-1.5A1.5,1.5,0,0,1,32.45,19.578Z"/>
</svg>
