<?xml version="1.0" encoding="utf-8"?>
<!-- Generator: Adobe Illustrator 19.0.0, SVG Export Plug-In . SVG Version: 6.00 Build 0)  -->
<svg version="1.1" id="Layer_1" xmlns="http://www.w3.org/2000/svg" xmlns:xlink="http://www.w3.org/1999/xlink" x="0px" y="0px"
	 viewBox="0 0 32 32" style="enable-background:new 0 0 32 32;" xml:space="preserve">
<style type="text/css">
	.st0{fill:#FFFFFF;}
</style>
<g id="XMLID_16_">
	<g id="XMLID_21_">
		<path id="XMLID_22_" class="st0" d="M19,11.3c-0.2-0.7-0.9-1.2-1.6-1.2H4.6c-0.8,0-1.4,0.5-1.6,1.2l-2.4,7v9.3
			c0,0.7,0.5,1.2,1.2,1.2h1.2c0.7,0,1.2-0.5,1.2-1.2v-1.2h14v1.2c0,0.7,0.5,1.2,1.2,1.2h1.2c0.7,0,1.2-0.5,1.2-1.2v-9.3L19,11.3z
			 M4.6,22.9c-0.9,0-1.7-0.8-1.7-1.7c0-0.9,0.8-1.7,1.7-1.7c0.9,0,1.7,0.8,1.7,1.7C6.3,22.1,5.5,22.9,4.6,22.9L4.6,22.9z M17.4,22.9
			c-0.9,0-1.7-0.8-1.7-1.7c0-0.9,0.8-1.7,1.7-1.7c0.9,0,1.7,0.8,1.7,1.7C19.1,22.1,18.3,22.9,17.4,22.9L17.4,22.9z M2.8,17.1
			l1.7-5.2h12.8l1.7,5.2H2.8z M2.8,17.1"/>
	</g>
	<path id="XMLID_20_" class="st0" d="M23.6,12.3c0.1,0,0.1-0.1,0.1-0.2c0-0.1-0.1-0.1-0.2-0.1c0,0-0.8,0.4-0.8,0.4l0,0
		c0,0-0.1,0-0.1,0c0,0,0-0.1,0-0.1l1-0.5c0.1,0,0.1-0.2,0.1-0.2c0-0.1-0.2-0.1-0.2-0.1c0,0-1,0.5-1,0.5c0,0-0.1,0-0.1,0
		c0,0,0-0.1,0-0.1l0.9-0.4c0.1,0,0.1-0.2,0.1-0.2c0-0.1-0.2-0.1-0.2-0.1c-1.2,0.6-1.2,0.6-1.3,0.6c0,0-0.1,0.1-0.1,0c0,0,0,0,0-0.1
		c0.1-0.1,0.1-0.2,0.2-0.3c0.1-0.1,0.1-0.2,0-0.3c-0.1-0.1-0.2,0-0.3,0.1c0,0-0.4,0.7-0.6,0.9c-0.3,0.5-1.5,0.8-2.4,0.9l0.4,1.3
		c0.8-0.3,1.7-0.5,2.6-0.6l0,0c0.2,0,0.4-0.1,0.5-0.1l1.5-0.7c0.1-0.1,0.2-0.1,0.1-0.2c0-0.1-0.1-0.1-0.2-0.1l-0.6,0.3
		c0,0-0.1,0-0.1,0c0,0,0-0.1,0-0.1L23.6,12.3z"/>
	<rect id="XMLID_19_" x="26.9" y="6" class="st0" width="2.4" height="22.8"/>
	<polygon id="XMLID_18_" class="st0" points="27.5,11.2 23.1,14 23.1,14.8 27.5,12.1 	"/>
	<rect id="XMLID_17_" x="29.3" y="3.3" class="st0" width="2.2" height="25.5"/>
</g>
</svg>
