<?xml version="1.0" encoding="utf-8"?>
<!-- Generator: Adobe Illustrator 19.0.0, SVG Export Plug-In . SVG Version: 6.00 Build 0)  -->
<svg version="1.1" id="Layer_1" xmlns="http://www.w3.org/2000/svg" xmlns:xlink="http://www.w3.org/1999/xlink" x="0px" y="0px"
	 viewBox="0 0 32 32" style="enable-background:new 0 0 32 32;" xml:space="preserve">
<style type="text/css">
	.st0{fill:#FFFFFF;}
</style>
<g id="XMLID_20_">
	<g id="XMLID_55_">
		<path id="XMLID_56_" class="st0" d="M26.1,31.7h-9.5c-3.1,0-5.5-2.5-5.5-5.6v-9.5c0-3.1,2.5-5.6,5.5-5.6h9.5
			c3.1,0,5.5,2.5,5.5,5.6v9.5C31.7,29.2,29.2,31.7,26.1,31.7z M16.7,13.2c-1.9,0-3.4,1.5-3.4,3.4v9.5c0,1.9,1.5,3.4,3.4,3.4h9.5
			c1.9,0,3.4-1.5,3.4-3.4v-9.5c0-1.9-1.5-3.4-3.4-3.4H16.7z"/>
	</g>
	<g id="XMLID_53_">
		<rect id="XMLID_54_" x="17.2" y="16.4" class="st0" width="8.3" height="1.4"/>
	</g>
	<g id="XMLID_51_">
		<rect id="XMLID_52_" x="17.2" y="20.7" class="st0" width="8.3" height="1.4"/>
	</g>
	<g id="XMLID_49_">
		<rect id="XMLID_50_" x="17.2" y="24.9" class="st0" width="8.3" height="1.4"/>
	</g>
	<g id="XMLID_21_">
		<path id="XMLID_24_" class="st0" d="M4.6,13.5H6C6,9.4,9.3,6,13.4,6V4.6C8.6,4.6,4.6,8.6,4.6,13.5z"/>
		<path id="XMLID_23_" class="st0" d="M8.8,13.5h1.4c0-1.8,1.4-3.2,3.2-3.2V8.9C10.9,8.9,8.8,10.9,8.8,13.5z"/>
		<path id="XMLID_22_" class="st0" d="M13.4,1.8V0.3C6.2,0.3,0.3,6.2,0.3,13.5h1.4C1.7,7,7,1.8,13.4,1.8z"/>
	</g>
</g>
</svg>
