<?xml version="1.0" encoding="utf-8"?>
<!-- Generator: Adobe Illustrator 19.0.0, SVG Export Plug-In . SVG Version: 6.00 Build 0)  -->
<svg version="1.1" id="Layer_1" xmlns="http://www.w3.org/2000/svg" xmlns:xlink="http://www.w3.org/1999/xlink" x="0px" y="0px"
	 viewBox="0 0 32 32" style="enable-background:new 0 0 32 32;" xml:space="preserve">
<style type="text/css">
	.st0{fill:#FFFFFF;}
</style>
<path id="XMLID_9_" class="st0" d="M24.9,0.3H7.1c-1.2,0-2.1,1-2.1,2.1V8l2,9.7c0,1.2,0.6,2.1,1.4,2.1h3.6l0.5,10.8h-0.8
	c-0.3,0-0.5,0.2-0.5,0.5v0.1c0,0.3,0.2,0.5,0.5,0.5h8.8c0.3,0,0.5-0.2,0.5-0.5v-0.1c0-0.3-0.2-0.5-0.5-0.5h-0.9l0.5-10.8h3.6
	c0.8,0,1.4-1,1.4-2.1l2-9.7V2.4C27.1,1.3,26.1,0.3,24.9,0.3z M22.6,17.3H9.3c-0.2,0-0.4-0.2-0.4-0.4c0-0.2,0.2-0.4,0.4-0.4h13.3
	c0.2,0,0.4,0.2,0.4,0.4C23,17.1,22.8,17.3,22.6,17.3z M23.9,13.9l-0.1,0.7h-16l-0.1-0.7l-1.2-6c0.1-0.3,0.3-0.5,0.6-0.5h17.5
	c0.3,0,0.5,0.2,0.6,0.5L23.9,13.9z"/>
</svg>
