<?xml version="1.0" encoding="utf-8"?>
<!-- Generator: Adobe Illustrator 19.0.0, SVG Export Plug-In . SVG Version: 6.00 Build 0)  -->
<svg version="1.1" id="Layer_1" xmlns="http://www.w3.org/2000/svg" xmlns:xlink="http://www.w3.org/1999/xlink" x="0px" y="0px"
	 viewBox="0 0 24 24" style="enable-background:new 0 0 24 24;" xml:space="preserve">
<style type="text/css">
	.st0{fill:#FFFFFF;}
</style>
<g id="XMLID_2_">
	<g id="XMLID_17_">
		<path id="XMLID_19_" class="st0" d="M23.1,18.7H12.5c-0.5,0-0.9,0.4-0.9,0.9v2.7c0,0.5,0.4,0.9,0.9,0.9h10.6
			c0.5,0,0.9-0.4,0.9-0.9v-2.7C24,19.1,23.6,18.7,23.1,18.7z M21.5,22.3c-0.3,0-0.5-0.2-0.5-0.5c0-0.5-0.4-0.9-0.9-0.9h-4.9
			c-0.5,0-0.9,0.4-0.9,0.9c0,0.3-0.2,0.5-0.5,0.5c-0.3,0-0.5-0.2-0.5-0.5c0-1,0.9-1.9,1.9-1.9h4.9c1,0,1.9,0.9,1.9,1.9
			C22,22,21.8,22.3,21.5,22.3z"/>
		<path id="XMLID_18_" class="st0" d="M12.5,18.2h10.6c0.1,0,0.2,0,0.3,0.1l-1.9-2.4h-3.8H14l-1.9,2.4
			C12.3,18.2,12.4,18.2,12.5,18.2z"/>
	</g>
	<path id="XMLID_13_" class="st0" d="M9.7,5.7H1c-0.6,0-1,0.5-1,1v2.7l1,4.7c0,0.6,0.3,1,0.7,1h1.2l0.7,7.2H3.3
		c-0.1,0-0.2,0.1-0.2,0.2v0c0,0.1,0.1,0.2,0.2,0.2h4.3c0.1,0,0.2-0.1,0.2-0.2v0c0-0.1-0.1-0.2-0.2-0.2H7.1l0.7-7.2h1.2
		c0.4,0,0.7-0.5,0.7-1l1-4.7V6.7C10.8,6.1,10.3,5.7,9.7,5.7z M8.6,13.9H2.1c-0.1,0-0.2-0.1-0.2-0.2s0.1-0.2,0.2-0.2h6.5
		c0.1,0,0.2,0.1,0.2,0.2S8.7,13.9,8.6,13.9z M9.2,12.3l-0.1,0.4H1.4l-0.1-0.4L0.8,9.4c0-0.1,0.1-0.2,0.3-0.2h8.5
		c0.1,0,0.3,0.1,0.3,0.2L9.2,12.3z"/>
	<g id="XMLID_11_">
		<polygon id="XMLID_12_" class="st0" points="22.1,16.6 21.3,16.6 21.3,1.5 3.4,1.5 3.4,6.7 2.6,6.7 2.6,0.8 22.1,0.8 		"/>
	</g>
	<g id="XMLID_9_">
		<rect id="XMLID_10_" x="6.2" y="3.6" class="st0" width="15.5" height="0.7"/>
	</g>
	<g id="XMLID_7_">
		<rect id="XMLID_8_" x="12.2" y="7.1" class="st0" width="9.5" height="0.7"/>
	</g>
	<g id="XMLID_5_">
		<rect id="XMLID_6_" x="13.9" y="10.3" class="st0" width="7.8" height="0.7"/>
	</g>
	<g id="XMLID_3_">
		<rect id="XMLID_4_" x="12.2" y="13.5" class="st0" width="9.5" height="0.7"/>
	</g>
</g>
</svg>
