<?xml version="1.0" encoding="utf-8"?>
<!-- Generator: Adobe Illustrator 19.0.0, SVG Export Plug-In . SVG Version: 6.00 Build 0)  -->
<svg version="1.1" id="Layer_1" xmlns="http://www.w3.org/2000/svg" xmlns:xlink="http://www.w3.org/1999/xlink" x="0px" y="0px"
	 viewBox="0 0 32 32" style="enable-background:new 0 0 32 32;" xml:space="preserve">
<style type="text/css">
	.st0{fill:#FFFFFF;}
</style>
<g id="XMLID_22_">
	<g id="XMLID_55_">
		<path id="XMLID_60_" class="st0" d="M5.5,19.6h20.9l1.1-15.7c0,0,0,0,0-0.1l0,0l0-1.7l0-0.1c0,0,0,0,0-0.1l0-0.1h0
			c-0.1-0.7-0.7-1.3-1.4-1.3H5.9c-0.7,0-1.3,0.6-1.4,1.3h0v0.1c0,0,0,0,0,0.1l0,0.1v1.7l0,0c0,0,0,0.1,0,0.1L5.5,19.6z M7.5,4.4H9
			h1.3h0.9h0.8h12.3c0.6,0,1,0.5,1,1l-0.7,11.4c0,0.6-0.4,1-0.9,1h-6h-5.8h-1H9.9H8.1c-0.5,0-0.9-0.5-0.9-1L6.5,5.4
			C6.5,4.9,7,4.4,7.5,4.4z"/>
		<path id="XMLID_56_" class="st0" d="M5.6,20.8l-0.1-0.6L6.7,30c0,0.8,0.5,1.4,1.1,1.4h16.5c0.6,0,1.1-0.6,1.1-1.4l1-9.2H5.6z
			 M20.7,25.2h-9.4c-0.2,0-0.4-0.2-0.4-0.4c0-0.2,0.2-0.4,0.4-0.4h9.4c0.2,0,0.4,0.2,0.4,0.4C21.1,25,21,25.2,20.7,25.2z M20.7,23.6
			h-9.4c-0.2,0-0.4-0.2-0.4-0.4c0-0.2,0.2-0.4,0.4-0.4h9.4c0.2,0,0.4,0.2,0.4,0.4C21.1,23.4,21,23.6,20.7,23.6z"/>
	</g>
	<g id="XMLID_53_">
		<rect id="XMLID_54_" x="8.3" y="6.4" class="st0" width="10.2" height="0.8"/>
	</g>
	<g id="XMLID_51_">
		<rect id="XMLID_52_" x="8.3" y="9.3" class="st0" width="10.2" height="0.8"/>
	</g>
	<g id="XMLID_49_">
		<rect id="XMLID_50_" x="8.3" y="12.2" class="st0" width="15.3" height="0.8"/>
	</g>
	<g id="XMLID_23_">
		<rect id="XMLID_24_" x="8.3" y="15.2" class="st0" width="15.3" height="0.8"/>
	</g>
</g>
</svg>
