<?xml version="1.0" encoding="utf-8"?>
<!-- Generator: Adobe Illustrator 19.0.0, SVG Export Plug-In . SVG Version: 6.00 Build 0)  -->
<svg version="1.1" id="Layer_1" xmlns="http://www.w3.org/2000/svg" xmlns:xlink="http://www.w3.org/1999/xlink" x="0px" y="0px"
	 viewBox="0 0 32 32" style="enable-background:new 0 0 32 32;" xml:space="preserve">
<style type="text/css">
	.st0{fill:#FFFFFF;}
</style>
<g id="XMLID_19_">
	<g id="XMLID_23_">
		<g id="XMLID_54_">
			<path id="XMLID_55_" class="st0" d="M16.1,28.2h-9c-1.9,0-3.5-1.6-3.5-3.5V12.9c0-1.9,1.6-3.5,3.5-3.5h9c1.9,0,3.5,1.6,3.5,3.5
				v11.7C19.6,26.6,18,28.2,16.1,28.2z M7.1,10.8c-1.2,0-2.1,0.9-2.1,2.1v11.7c0,1.1,0.9,2.1,2.1,2.1h9c1.2,0,2.1-0.9,2.1-2.1V12.9
				c0-1.2-0.9-2.1-2.1-2.1H7.1z"/>
		</g>
		<path id="XMLID_53_" class="st0" d="M28.4,4.1c0-1.9-1.6-3.5-3.5-3.5h-9c-1,0-1.9,0.4-2.5,1.1l0,0l-8.7,8.7
			c0.1-0.1,9.5,0.1,10.8,0v0.1c0.2-0.1,0.4-0.1,0.7-0.1c0.7,0.2,2,0.7,2,0.7l0.9,3.7l0,0.7c-0.1,0.3-0.2,0.5-0.4,0.7
			c0.1,0,0.2,0,0.3,0l-0.4,10.3l-0.2,0.8l8.6-8.7c0.2-0.2,0.4-0.4,0.6-0.6l0.1-0.1v0c0.4-0.6,0.7-1.3,0.7-2.1V4.1z"/>
		<g id="XMLID_49_">
			<path id="XMLID_50_" class="st0" d="M11.6,23.9c-2.8,0-5.2-2.3-5.2-5.2s2.3-5.2,5.2-5.2s5.2,2.3,5.2,5.2S14.4,23.9,11.6,23.9z
				 M11.6,15.1c-2,0-3.7,1.7-3.7,3.7s1.7,3.7,3.7,3.7s3.7-1.7,3.7-3.7S13.6,15.1,11.6,15.1z"/>
		</g>
		<path id="XMLID_24_" class="st0" d="M9.5,14.9c-0.2,0.1-2,1.9-2.3,2.3c-0.1,0.1-0.1,0.4-0.1,0.7c0.5,0.3,1,0.5,1.6,0.5
			c1.5,0,2.8-1.2,2.8-2.8c0-0.5-0.1-0.9-0.3-1.3C11.1,14.4,9.7,14.8,9.5,14.9z"/>
	</g>
	<g id="XMLID_20_">
		<polygon id="XMLID_22_" class="st0" points="12.2,30 12.2,29.7 12.2,27.7 10.8,27.7 10.8,31.4 12.2,31.4 		"/>
		<polygon id="XMLID_21_" class="st0" points="21.5,21.5 21.5,29.7 21.5,30 21.5,31.4 23,31.4 23,21.5 		"/>
	</g>
</g>
</svg>
