<?xml version="1.0" encoding="utf-8"?>
<!-- Generator: Adobe Illustrator 19.0.0, SVG Export Plug-In . SVG Version: 6.00 Build 0)  -->
<svg version="1.1" id="Layer_1" xmlns="http://www.w3.org/2000/svg" xmlns:xlink="http://www.w3.org/1999/xlink" x="0px" y="0px"
	 viewBox="0 0 32 32" style="enable-background:new 0 0 32 32;" xml:space="preserve">
<style type="text/css">
	.st0{fill:#FFFFFF;}
</style>
<g id="XMLID_24_">
	<path id="XMLID_52_" class="st0" d="M24.4,3.9h-5.8l-0.2,2.5h3.4c0.2,0,0.4,0.2,0.4,0.4c0,0.2-0.2,0.4-0.4,0.4H10.1
		C9.9,7.2,9.7,7,9.7,6.8c0-0.2,0.2-0.4,0.4-0.4h5.4c0-0.5,0-1.7,0.1-2.5h-8c-1.2,0-2.3,0.8-2.3,1.9v4.6L8,29.8c0,1,0.8,1.9,1.7,1.9
		h12.6c0.9,0,1.7-0.8,1.7-1.9l2.7-19.4V5.8C26.7,4.8,25.7,3.9,24.4,3.9z M8.5,21.1H11l0.2,2.3H8.9L8.5,21.1z M9.1,24.7h2.4l0.2,2.1
		H9.4L9.1,24.7z M9.8,29.9C9.8,29.9,9.8,29.9,9.8,29.9l0-0.2l-0.2-1.5h2.2l0.2,1.7H9.8z M15.3,29.9h-2l-0.2-1.7h2.2V29.9z
		 M15.3,26.9H13l-0.2-2.1h2.5V26.9z M15.3,23.4h-2.7l-0.2-2.3h2.9V23.4z M18.8,29.9h-2.2v-1.7H19L18.8,29.9z M19,26.9h-2.4v-2.1h2.5
		L19,26.9z M19.3,23.4h-2.6v-2.3h2.8L19.3,23.4z M22.2,29.7v0.1c0,0,0,0.1,0,0.1h-2l0.1-1.7h2.1L22.2,29.7z M22.6,26.9h-2.2l0.1-2.1
		h2.4L22.6,26.9z M23.1,23.4h-2.5l0.2-2.3h2.7L23.1,23.4z M23.7,18.6H8.3l-1.1-8.1c0.1-0.1,0.2-0.1,0.4-0.1h16.8
		c0.2,0,0.4,0.1,0.4,0.1L23.7,18.6z"/>
	<g id="XMLID_49_">
		<path id="XMLID_51_" class="st0" d="M20.4,6.8l0.8-5.6c0-0.5-0.5-0.9-1.1-0.9H19c-0.1,1.4-0.4,4-0.6,6.5H20.4z"/>
		<path id="XMLID_50_" class="st0" d="M15.8,6.8C15.9,4.3,16,1.6,16,0.3h-4.1c-0.6,0-1.1,0.4-1.1,0.9l0.8,5.6H15.8z"/>
	</g>
</g>
</svg>
