<?xml version="1.0" encoding="utf-8"?>
<!-- Generator: Adobe Illustrator 19.0.0, SVG Export Plug-In . SVG Version: 6.00 Build 0)  -->
<svg version="1.1" id="Layer_1" xmlns="http://www.w3.org/2000/svg" xmlns:xlink="http://www.w3.org/1999/xlink" x="0px" y="0px"
	 viewBox="0 0 24 24" style="enable-background:new 0 0 24 24;" xml:space="preserve">
<style type="text/css">
	.st0{fill:#FFFFFF;}
</style>
<path class="st0" d="M21.3,3.1c-0.3-0.8-1-1.3-1.8-1.3h-6.3h-2.3H5.5h-1C3.7,1.8,3,2.3,2.7,3.1L0,10.8v10.1c0,0.8,0.5,1.3,1.3,1.3
	h1.3c0.8,0,1.3-0.5,1.3-1.3v-1.3H12h8.2v1.3c0,0.8,0.5,1.3,1.3,1.3h1.3c0.8,0,1.3-0.5,1.3-1.3V10.8L21.3,3.1z M21.1,18.2H2.9
	c-0.2,0-0.3-0.1-0.3-0.3c0-0.2,0.1-0.3,0.3-0.3h18.2c0.2,0,0.3,0.1,0.3,0.3C21.4,18.1,21.3,18.2,21.1,18.2z M2.6,13.8
	c0-1,0.9-1.9,1.9-1.9c1,0,1.9,0.9,1.9,1.9c0,1-0.9,1.9-1.9,1.9C3.5,15.8,2.6,14.9,2.6,13.8z M19.5,15.8c-1,0-1.9-0.9-1.9-1.9
	c0-1,0.9-1.9,1.9-1.9c1,0,1.9,0.9,1.9,1.9C21.4,14.9,20.5,15.8,19.5,15.8z M12,9.5H2.6l1.9-5.8H12h7.5l1.9,5.8H12z"/>
</svg>
