<?xml version="1.0" encoding="utf-8"?>
<!-- Generator: Adobe Illustrator 19.0.0, SVG Export Plug-In . SVG Version: 6.00 Build 0)  -->
<svg version="1.1" id="Layer_1" xmlns="http://www.w3.org/2000/svg" xmlns:xlink="http://www.w3.org/1999/xlink" x="0px" y="0px"
	 viewBox="0 0 32 32" style="enable-background:new 0 0 32 32;" xml:space="preserve">
<style type="text/css">
	.st0{fill:#FFFFFF;}
</style>
<g>
	<g id="XMLID_2_">
		<g id="XMLID_12_">
			<path id="XMLID_13_" class="st0" d="M32,32H0V0h32V32z M2.1,29.9H30V2H2.1V29.9z"/>
		</g>
		<g id="XMLID_3_">
			<path id="XMLID_25_" class="st0" d="M15.4,22.7c-1.2-0.7-4.3-1.6-4.3-2.9c0-1.2,1.6-1.7,1.6-2.8s0-1.5,0-2.9s-1-3-2.1-3
				s-1.5,0-1.5,0s-0.3,0-1.5,0s-2.1,1.6-2.1,3s0,1.8,0,2.9s1.6,1.6,1.6,2.8c0,1.3-3,2.2-4.3,2.9c-1.2,0.7-1.1,7.1-1.1,8.2h7.4h7.3
				C16.5,29.8,16.6,23.4,15.4,22.7z"/>
			<rect id="XMLID_9_" x="11.6" y="26.1" class="st0" width="13.7" height="0.7"/>
			<polygon id="XMLID_8_" class="st0" points="25.3,26.1 28.8,21.5 28.8,22.3 25.3,26.8 			"/>
			<path id="XMLID_4_" class="st0" d="M15.3,11.5v8.9h13.6v-8.9H15.3z"/>
		</g>
	</g>
	<path class="st0" d="M15.3,21.1l-3.6,4.5h4.7l0.9-1.1h4.1l-0.9,1.1h4.8l3.5-4.5H15.3z M16.3,24c0,0-0.7-1.5-1.4-1.8l0.6-0.8H28
		L26.1,24H16.3z"/>
</g>
</svg>
