<?xml version="1.0" encoding="utf-8"?>
<!-- Generator: Adobe Illustrator 19.0.0, SVG Export Plug-In . SVG Version: 6.00 Build 0)  -->
<svg version="1.1" id="Layer_1" xmlns="http://www.w3.org/2000/svg" xmlns:xlink="http://www.w3.org/1999/xlink" x="0px" y="0px"
	 viewBox="-3 5 24 24" style="enable-background:new -3 5 24 24;" xml:space="preserve">
<style type="text/css">
	.st0{fill:#FFFFFF;}
</style>
<g>
	<g id="XMLID_2_">
		<g id="XMLID_12_">
			<path id="XMLID_13_" class="st0" d="M21,29H-3V5h24V29z M-1.4,27.4h20.9V6.5H-1.4V27.4z"/>
		</g>
		<g id="XMLID_3_">
			<path id="XMLID_25_" class="st0" d="M8.6,22c-0.9-0.5-3.2-1.2-3.2-2.2c0-0.9,1.2-1.3,1.2-2.1s0-1.1,0-2.2S5.8,13.2,5,13.2
				s-1.1,0-1.1,0s-0.2,0-1.1,0c-0.9,0-1.6,1.2-1.6,2.3s0,1.4,0,2.2c0,0.8,1.2,1.2,1.2,2.1c0,1-2.3,1.7-3.2,2.2s-0.8,5.3-0.8,6.2H4
				h5.5C9.4,27.3,9.5,22.5,8.6,22z"/>
			<rect id="XMLID_9_" x="5.7" y="24.6" class="st0" width="10.3" height="0.5"/>
			<polygon id="XMLID_8_" class="st0" points="16,24.6 18.6,21.1 18.6,21.7 16,25.1 			"/>
			<path id="XMLID_4_" class="st0" d="M8.5,13.6v6.7h10.2v-6.7C18.7,13.6,8.5,13.6,8.5,13.6z"/>
		</g>
	</g>
	<path class="st0" d="M8.5,20.8l-2.7,3.4h3.5l0.7-0.8h3.1l-0.7,0.8H16l2.6-3.4H8.5z M9.2,23c0,0-0.5-1.1-1.1-1.4L8.5,21H18l-1.4,2
		H9.2z"/>
</g>
</svg>
