<?xml version="1.0" encoding="utf-8"?>
<!-- Generator: Adobe Illustrator 19.0.0, SVG Export Plug-In . SVG Version: 6.00 Build 0)  -->
<svg version="1.1" id="Layer_1" xmlns="http://www.w3.org/2000/svg" xmlns:xlink="http://www.w3.org/1999/xlink" x="0px" y="0px"
	 viewBox="-3 5 24 24" style="enable-background:new -3 5 24 24;" xml:space="preserve">
<style type="text/css">
	.st0{fill:#FFFFFF;}
</style>
<g>
	<g>
		<path class="st0" d="M-0.5,25.7c-1.4,0-2.5-1.1-2.5-2.5V10.8c0-1.4,1.1-2.5,2.5-2.5h18.9c1.4,0,2.5,1.1,2.5,2.5v12.3
			c0,1.4-1.1,2.5-2.5,2.5H-0.5z M-0.5,9.7c-0.6,0-1.1,0.5-1.1,1.1v12.3c0,0.6,0.5,1.1,1.1,1.1h18.9c0.6,0,1.1-0.5,1.1-1.1V10.8
			c0-0.6-0.5-1.1-1.1-1.1H-0.5z"/>
	</g>
	<g id="XMLID_26_">
		<path class="st0" d="M8.2,19.7c-0.7-0.4-2.5-1-2.5-1.7c0-0.7,0.9-1,0.9-1.6c0-0.6,0-0.9,0-1.7c0-0.8-0.6-1.8-1.3-1.8s-0.9,0-0.9,0
			s-0.2,0-0.9,0s-1.2,1-1.2,1.8c0,0.8,0,1.1,0,1.7c0,0.6,0.9,1,0.9,1.6c0,0.7-1.8,1.3-2.5,1.7c-0.7,0.4-0.6,4.2-0.6,4.8h4.3h4.3
			C8.9,23.9,9,20.1,8.2,19.7z"/>
	</g>
	<g>
		<rect x="10.9" y="11.4" class="st0" width="9.4" height="0.7"/>
	</g>
	<g>
		<rect x="14.5" y="14" class="st0" width="5.8" height="0.7"/>
	</g>
	<g>
		<rect x="10.9" y="16.6" class="st0" width="9.4" height="0.7"/>
	</g>
	<g>
		<rect x="12.6" y="21.9" class="st0" width="7.7" height="0.7"/>
	</g>
	<g>
		<rect x="14.5" y="19.4" class="st0" width="5.8" height="0.7"/>
	</g>
</g>
</svg>
