<svg xmlns="http://www.w3.org/2000/svg" viewBox="0 0 37.144 32.694">
  <defs>
    <style>
      .cls-1 {
        fill: #fff;
      }
    </style>
  </defs>
  <g id="agreement" transform="translate(0 -29.19)">
    <path id="Path_1908" data-name="Path 1908" class="cls-1" d="M28.852,35.149a4.153,4.153,0,0,0,2.141-.587l6.15-3.635v-1.7l-6.92,4.031a3.352,3.352,0,0,1-1.722.457l-9.16-.107c-.457-.168-.823-.274-.96-.328a13.762,13.762,0,0,0-6.63.023A5.118,5.118,0,0,1,8.307,33L0,29.19V44.416l.861.472A6.935,6.935,0,0,1,3.78,47.96l-.488.4a3.041,3.041,0,0,0-.732,4.1A3.065,3.065,0,0,0,4.5,53.63c.091.008.229.015.328.015a3.741,3.741,0,0,0,.793-.053,2.943,2.943,0,0,0,.556,1.753,2.809,2.809,0,0,0,2.225,1.1c.229.015.465.023.648.038a2.758,2.758,0,0,0,.549,1.981,3.065,3.065,0,0,0,1.936,1.174c.091.008.229.015.328.015a2.925,2.925,0,0,0,1.89-.549l.29-.221a2.49,2.49,0,0,0,.45,1.143,2.627,2.627,0,0,0,1.669,1.021c.091.008.183.008.282.015a2.55,2.55,0,0,0,1.608-.472h.046l.343.48a1.981,1.981,0,0,0,2.721.472,2.021,2.021,0,0,0,.686-2.34l.061.091a2.162,2.162,0,0,0,2.6.823,2.088,2.088,0,0,0,1.189-2.522,2.125,2.125,0,0,0,2.774.335l.046-.046a2.093,2.093,0,0,0,.655-2.667,2.262,2.262,0,0,0,3.368-2.987l-1.082-1.547,2.355-2.743a8.459,8.459,0,0,1,2.18-1.814l1.158-.671V43.639l-1.6.907a9.094,9.094,0,0,0-2.423,1.989l-2.53,2.934a2.262,2.262,0,0,0-3.368,2.987l.038.1h-.046a2.168,2.168,0,0,0-2.462-.038l-.046.046a2.093,2.093,0,0,0-.854,2.1l-.244.175a2.1,2.1,0,0,0-2.195.114,2.164,2.164,0,0,0-.892,1.905l-.671.427a1.915,1.915,0,0,0-1.5.29A2.015,2.015,0,0,0,17.52,59.2l-.335.213a.957.957,0,0,1-.8.191,1.216,1.216,0,0,1-.724-.457.957.957,0,0,1-.191-.8,1.216,1.216,0,0,1,.457-.724l3.635-2.736a.657.657,0,0,0,.3-.541.755.755,0,0,0-.747-.777.833.833,0,0,0-.427.114L12.887,57.89a1.588,1.588,0,0,1-1.128.267,1.424,1.424,0,0,1-.991-.61,1.478,1.478,0,0,1,.343-2.073l6.92-4.938a.755.755,0,0,0,.259-.579.747.747,0,0,0-.716-.747.679.679,0,0,0-.564.251l-6.775,4.9a1.627,1.627,0,0,0-.434.351,2,2,0,0,1-2.454-.175,1.542,1.542,0,0,1,.2-1.989l.678-.472,7.529-5.136a.657.657,0,0,0,.3-.541.722.722,0,0,0-.312-.633.686.686,0,0,0-.815-.03L6.866,51.214a.683.683,0,0,1-.2.175l-.777.564a1.486,1.486,0,1,1-1.73-2.416l15.2-11.195A7.419,7.419,0,0,1,21.483,40.5c1.494,4.679,3.353,4.717,4.481,4.153a1.326,1.326,0,0,0,.648-1.608,33.288,33.288,0,0,1-.937-5.3A7.538,7.538,0,0,0,22.42,35.1l4.885.076Z" transform="translate(0 0)"/>
  </g>
</svg>
