<svg xmlns="http://www.w3.org/2000/svg" viewBox="0 0 19.9 23.642">
  <defs>
    <style>
      .cls-1 {
        fill: #fff;
      }
    </style>
  </defs>
  <path id="Subtraction_7" data-name="Subtraction 7" class="cls-1" d="M24750.947-8690.357h0l-.285-.056c-9.9-3.417-9.752-11.535-9.641-17.463l0-.037c.025-.621.025-1.225.025-1.808a.834.834,0,0,1,.852-.852,11.355,11.355,0,0,0,8.451-3.194.888.888,0,0,1,.6-.232.887.887,0,0,1,.6.232,11.349,11.349,0,0,0,8.451,3.194.829.829,0,0,1,.844.852c0,.583,0,1.187.031,1.808.113,5.938.268,14.07-9.645,17.5l-.279.056Zm0-21.71a.727.727,0,0,0-.5.2,9.514,9.514,0,0,1-7.072,2.672.693.693,0,0,0-.709.709c0,.488,0,.994-.025,1.51-.1,4.973-.236,11.782,8.066,14.646l.236.044.236-.044c8.285-2.867,8.16-9.672,8.068-14.641l0-.006c-.025-.516-.025-1.021-.025-1.51a.693.693,0,0,0-.709-.709,9.506,9.506,0,0,1-7.07-2.672A.735.735,0,0,0,24750.947-8712.067Z" transform="translate(-24740.996 8713.999)"/>
</svg>
