<?xml version="1.0" encoding="utf-8"?>
<!-- Generator: Adobe Illustrator 19.0.0, SVG Export Plug-In . SVG Version: 6.00 Build 0)  -->
<svg version="1.1" id="Layer_1" xmlns="http://www.w3.org/2000/svg" xmlns:xlink="http://www.w3.org/1999/xlink" x="0px" y="0px"
	 viewBox="-11 13 24 24" style="enable-background:new -11 13 24 24;" xml:space="preserve">
<style type="text/css">
	.st0{fill:#FFFFFF;}
</style>
<g>
	<g>
		<g>
			<path class="st0" d="M1.4,36.2c-4,0-7.3-3.3-7.3-7.3s3.3-7.3,7.3-7.3s7.3,3.3,7.3,7.3S5.5,36.2,1.4,36.2z M1.4,22.6
				c-3.4,0-6.2,2.8-6.2,6.2s2.8,6.2,6.2,6.2s6.2-2.8,6.2-6.2S4.9,22.6,1.4,22.6z"/>
		</g>
		<g>
			<path class="st0" d="M-2.7,28.9h-0.5c0-2.6,2.1-4.6,4.6-4.6v0.5C-0.8,24.7-2.7,26.6-2.7,28.9z"/>
		</g>
		<g>
			<path class="st0" d="M-0.9,28.9h-0.3c0-1.5,1.2-2.7,2.7-2.7v0.3C0.1,26.5-0.9,27.5-0.9,28.9z"/>
		</g>
		<g>
			<path class="st0" d="M1.7,21.9l-0.5,0c0.1-1.5,0.8-1.9,1.3-2.3c0.3-0.2,0.6-0.4,0.7-0.7l0.5,0.2c-0.2,0.5-0.6,0.7-0.9,0.9
				C2.3,20.4,1.8,20.7,1.7,21.9z"/>
		</g>
		<g>
			<polygon class="st0" points="10.8,23.5 5.4,21.3 5.6,20.8 7.8,21.7 5.4,19.7 6.9,18.8 4.6,18.9 6.5,15.7 3.7,18.2 3,16.3 
				2.9,18.5 1.3,18.2 2,18.8 1.7,19.2 -0.9,17.2 2.4,17.9 2.6,13.6 3.9,17.3 8.7,13 5.6,18.3 9.1,18.1 6.4,19.8 			"/>
		</g>
	</g>
	<g>
		<polygon class="st0" points="-6.4,33.8 -10.3,32.9 -8.2,29.3 -10.1,26.1 -8.2,24.8 -5.3,20.1 -0.8,20.3 -0.9,20.9 -4.9,20.7 
			-7.8,25.3 -9.3,26.3 -7.5,29.3 -9.4,32.5 -6.3,33.2 		"/>
	</g>
	<g>
		<path class="st0" d="M8.7,37H5.6v-0.6h2.6v-2.6l2.6-0.9l-1.1-3.8l1.7-2.2c-0.8-0.3-1.6-0.5-1.7-0.5l0-0.6c0.1,0,0.3,0,2.3,0.7
			l0.4,0.1l-2,2.6l1.1,4l-2.7,0.9V37z"/>
	</g>
</g>
</svg>
