<?xml version="1.0" encoding="utf-8"?>
<!-- Generator: Adobe Illustrator 22.1.0, SVG Export Plug-In . SVG Version: 6.00 Build 0)  -->
<svg version="1.1" id="Layer_1" xmlns="http://www.w3.org/2000/svg" xmlns:xlink="http://www.w3.org/1999/xlink" x="0px" y="0px"
	 viewBox="0 0 24 24" style="enable-background:new 0 0 24 24;" xml:space="preserve">
<style type="text/css">
	.st0{fill:#FFFFFF;}
</style>
<g>
	<g>
		<path class="st0" d="M22.6,0H10.8c-0.3,0-0.5,0.2-0.5,0.5s0.2,0.4,0.5,0.4h11.8c0.3,0,0.5,0.2,0.5,0.5v21.2c0,0.3-0.2,0.5-0.5,0.5
			H1.4c-0.3,0-0.5-0.2-0.5-0.5V11.2c0-0.3-0.2-0.5-0.5-0.5S0,11,0,11.2v11.3C0,23.4,0.6,24,1.4,24h21.2c0.8,0,1.4-0.6,1.4-1.4V1.4
			C24,0.6,23.4,0,22.6,0z"/>
	</g>
</g>
<g>
	<g>
		<path class="st0" d="M18.4,18.7H7.6c-0.3,0-0.5,0.2-0.5,0.5s0.2,0.5,0.5,0.5h10.8c0.3,0,0.5-0.2,0.5-0.5S18.7,18.7,18.4,18.7z"/>
	</g>
</g>
<g>
	<g>
		<path class="st0" d="M18.4,16H7.6c-0.3,0-0.5,0.2-0.5,0.5S7.4,17,7.6,17h10.8c0.3,0,0.5-0.2,0.5-0.5S18.7,16,18.4,16z"/>
	</g>
</g>
<circle class="st0" cx="5.4" cy="16.5" r="0.5"/>
<g>
	<g>
		<path class="st0" d="M18.4,12.9H7.6c-0.3,0-0.5,0.2-0.5,0.5s0.3,0.5,0.5,0.5h10.8c0.3,0,0.5-0.2,0.5-0.5S18.7,12.9,18.4,12.9z"/>
	</g>
</g>
<circle class="st0" cx="5.4" cy="13.4" r="0.5"/>
<g>
	<g>
		<path class="st0" d="M18.4,9.8H7.6c-0.3,0-0.5,0.2-0.5,0.5s0.3,0.5,0.5,0.5h10.8c0.3,0,0.5-0.2,0.5-0.5S18.7,9.8,18.4,9.8z"/>
	</g>
</g>
<circle class="st0" cx="5.4" cy="10.3" r="0.5"/>
<circle class="st0" cx="5.4" cy="19.2" r="0.5"/>
<circle class="st0" cx="0.5" cy="9.3" r="0.5"/>
<g>
	<g>
		<path class="st0" d="M7.1,7.6c-0.1,0-0.3,0-0.4-0.1L0.2,0.9C0,0.7,0,0.3,0.2,0.1s0.5-0.2,0.7,0l6.6,6.6c0.2,0.2,0.2,0.5,0,0.7
			C7.4,7.5,7.2,7.6,7.1,7.6z"/>
	</g>
	<g>
		<path class="st0" d="M0.5,7.6c-0.1,0-0.3,0-0.4-0.1C0,7.2,0,6.9,0.2,6.7l6.6-6.6C6.9,0,7.3,0,7.5,0.1s0.2,0.5,0,0.7L0.9,7.4
			C0.8,7.5,0.7,7.6,0.5,7.6z"/>
	</g>
</g>
</svg>
