<svg xmlns="http://www.w3.org/2000/svg" viewBox="0 0 23.555 27.601">
  <defs>
    <style>
      .cls-1 {
        fill: #fff;
        stroke: #fff;
        stroke-width: 0.5px;
      }
    </style>
  </defs>
  <g id="avatar" transform="translate(-35.821 0.25)">
    <g id="Group_13920" data-name="Group 13920" transform="translate(36.073)">
      <path id="Path_16394" data-name="Path 16394" class="cls-1" d="M142.84,14.6h.18a5.178,5.178,0,0,0,3.956-1.712c2.161-2.436,1.8-6.611,1.762-7.009-.14-2.991-1.555-4.422-2.722-5.09A6.24,6.24,0,0,0,143,0h-.1a6.249,6.249,0,0,0-3.019.769c-1.179.668-2.615,2.1-2.755,5.112-.039.4-.4,4.574,1.762,7.009A5.158,5.158,0,0,0,142.84,14.6Zm-4.215-8.581c0-.017.006-.034.006-.045.185-4.024,3.042-4.456,4.265-4.456h.067c1.515.034,4.091.651,4.265,4.456a.109.109,0,0,0,.006.045c.006.039.4,3.855-1.386,5.864a3.678,3.678,0,0,1-2.89,1.2H142.9a3.666,3.666,0,0,1-2.885-1.2C138.239,9.888,138.62,6.055,138.626,6.022Z" transform="translate(-131.413)"/>
      <path id="Path_16395" data-name="Path 16395" class="cls-1" d="M59.123,266.223v-.017c0-.045-.006-.09-.006-.14-.034-1.111-.107-3.71-2.542-4.54l-.056-.017a16.193,16.193,0,0,1-4.658-2.121.757.757,0,1,0-.87,1.24,17.478,17.478,0,0,0,5.124,2.34c1.308.466,1.453,1.863,1.493,3.143a1.127,1.127,0,0,0,.006.14,10.187,10.187,0,0,1-.118,1.734,20.654,20.654,0,0,1-9.894,2.3,20.772,20.772,0,0,1-9.9-2.307,9.643,9.643,0,0,1-.118-1.734c0-.045.006-.09.006-.14.039-1.279.185-2.677,1.493-3.143a17.642,17.642,0,0,0,5.124-2.34.757.757,0,0,0-.87-1.24,16.015,16.015,0,0,1-4.658,2.121c-.022.006-.039.011-.056.017-2.436.836-2.509,3.435-2.542,4.54a1.127,1.127,0,0,1-.006.14v.017a8.606,8.606,0,0,0,.286,2.542.72.72,0,0,0,.292.354A21.226,21.226,0,0,0,47.607,271.8a21.291,21.291,0,0,0,10.954-2.683.751.751,0,0,0,.292-.354A9.029,9.029,0,0,0,59.123,266.223Z" transform="translate(-36.073 -244.696)"/>
    </g>
  </g>
</svg>
