<svg xmlns="http://www.w3.org/2000/svg" viewBox="0 0 41.417 33.287">
  <defs>
    <style>
      .cls-1 {
        fill: #fff;
      }
    </style>
  </defs>
  <g id="noun_users_1995129" transform="translate(-2.551 -11.8)">
    <g id="Group_14203" data-name="Group 14203" transform="translate(2.55 11.8)">
      <path id="Path_16740" data-name="Path 16740" class="cls-1" d="M28.93,23.012a4.953,4.953,0,0,0,4.93-4.93V16.73a4.93,4.93,0,1,0-9.86.044v1.352A4.916,4.916,0,0,0,28.93,23.012Zm-3.1-6.239a3.1,3.1,0,1,1,6.2,0v1.352a3.1,3.1,0,1,1-6.2,0Z" transform="translate(-14.642 -11.8)"/>
      <path id="Path_16741" data-name="Path 16741" class="cls-1" d="M58.33,23.012a4.953,4.953,0,0,0,4.93-4.93V16.73a4.93,4.93,0,1,0-9.86,0v1.352A4.925,4.925,0,0,0,58.33,23.012Zm-3.1-6.239a3.1,3.1,0,1,1,6.2,0v1.352a3.1,3.1,0,1,1-6.2,0Z" transform="translate(-31.216 -11.8)"/>
      <path id="Path_16742" data-name="Path 16742" class="cls-1" d="M43.93,56.6,43.1,51.148a5.54,5.54,0,0,0-3.534-4.319,4.844,4.844,0,0,0,1.4-3.447V42.03a4.93,4.93,0,0,0-9.86,0v1.352a4.921,4.921,0,0,0,1.4,3.447,5.571,5.571,0,0,0-2.879,2.4,5.376,5.376,0,0,0-2.879-2.4,4.844,4.844,0,0,0,1.4-3.447V42.03a4.93,4.93,0,0,0-9.86,0v1.352a4.921,4.921,0,0,0,1.4,3.447,5.571,5.571,0,0,0-2.879,2.4,5.376,5.376,0,0,0-2.879-2.4,4.844,4.844,0,0,0,1.4-3.447V42.03a4.909,4.909,0,1,0-9.816.087V43.47a4.921,4.921,0,0,0,1.4,3.447,5.475,5.475,0,0,0-3.534,4.319L2.572,56.6a2.362,2.362,0,0,0,.567,1.92,2.415,2.415,0,0,0,1.832.829H41.618A2.348,2.348,0,0,0,43.93,56.6ZM32.98,42.117a3.1,3.1,0,1,1,6.2,0V43.47a3.1,3.1,0,1,1-6.2,0Zm-12.826,0a3.1,3.1,0,1,1,6.2,0V43.47a3.1,3.1,0,1,1-6.2,0ZM17.972,51.41a3.615,3.615,0,0,1,3.577-3.054H25a3.615,3.615,0,0,1,3.577,3.054l.916,6.108H17.056ZM7.327,42.117a3.1,3.1,0,1,1,6.2,0V43.47a3.1,3.1,0,1,1-6.2,0ZM4.492,57.343a.63.63,0,0,1-.131-.48L5.19,51.41a3.6,3.6,0,0,1,3.534-3.054H12.17a3.615,3.615,0,0,1,3.577,3.054l.218,1.483-.7,4.624H4.928A.683.683,0,0,1,4.492,57.343Zm37.519,0a.523.523,0,0,1-.436.218h-10.3l-.7-4.624.218-1.483A3.6,3.6,0,0,1,34.333,48.4h3.447a3.615,3.615,0,0,1,3.577,3.054l.785,5.453A.486.486,0,0,1,42.011,57.343Z" transform="translate(-2.55 -26.062)"/>
    </g>
  </g>
</svg>
