<?xml version="1.0" encoding="utf-8"?>
<!-- Generator: Adobe Illustrator 19.0.0, SVG Export Plug-In . SVG Version: 6.00 Build 0)  -->
<svg version="1.1" id="Layer_1" xmlns="http://www.w3.org/2000/svg" xmlns:xlink="http://www.w3.org/1999/xlink" x="0px" y="0px"
	 viewBox="0 0 32 32" style="enable-background:new 0 0 32 32;" xml:space="preserve">
<style type="text/css">
	.st0{fill:#FFFFFF;}
</style>
<path id="XMLID_2_" class="st0" d="M2.5,23.8V8.2l13.5-7.8l13.4,7.8v15.5L16,31.6L2.5,23.8z M4.9,22.8L15,28.6l-2.8-13.3L4.9,22.8z
	 M17.3,28.4l9.5-5.5l-6.4-3.7L17.3,28.4z M16.1,28l3.1-9.3l-5.8-3.4L16.1,28z M14.1,14.2l12.6,7.3l-5.5-9.6L14.1,14.2z M4.6,21.3
	l6.9-7.1l-6.9-4V21.3z M22.4,11.5l5,8.7V9.8L22.4,11.5z M11.4,5.5l1.6,7.7l7.5-2.4L16,2.9L11.4,5.5z M5.2,9.1l6.4,3.7l-1.4-6.6
	L5.2,9.1z M21.8,10.3l4.6-1.5l-8.3-4.8L21.8,10.3z"/>
</svg>
