<svg id="Group_13034" data-name="Group 13034" xmlns="http://www.w3.org/2000/svg" viewBox="0 0 37.484 24.8">
  <defs>
    <style>
      .cls-1 {
        fill: #fff;
      }
    </style>
  </defs>
  <path id="Path_16107" data-name="Path 16107" class="cls-1" d="M31.223,20.283l1.382,3.578-8.538-3.334-.732-8.456.244-.65-1.057-.325-7.4,2.2L9.188,10.2,0,20.526l12.6,5.448L23.336,21.99l12.2,4.716-2.765-7.074Zm-15.53-5.529,6.1-1.87.65,7.643L13.66,23.779Zm-6.18-2.521,4.553,2.358-2.033,9.351L2.683,19.876Z" transform="translate(0 -1.906)"/>
  <path id="Path_16108" data-name="Path 16108" class="cls-1" d="M38.271,3H35.1v7.643h1.626V8.2h1.545a2.52,2.52,0,0,0,2.683-2.521A2.552,2.552,0,0,0,38.271,3Zm0,3.659H36.726V4.626h1.545a.932.932,0,0,1,.976,1.057C39.328,5.927,39.247,6.659,38.271,6.659Z" transform="translate(-6.56 -0.561)"/>
  <path id="Path_16109" data-name="Path 16109" class="cls-1" d="M40.564,0H33a2.569,2.569,0,0,0-2.6,2.6v7.562a2.569,2.569,0,0,0,2.6,2.6h.813L36.742,17.4l2.927-4.635h.894a2.569,2.569,0,0,0,2.6-2.6V2.6A2.569,2.569,0,0,0,40.564,0Zm.976,10.164a.939.939,0,0,1-.976.976H38.775l-2.033,3.171L34.709,11.14H33a.939.939,0,0,1-.976-.976V2.6A.939.939,0,0,1,33,1.626h7.562a.989.989,0,0,1,.976.976Z" transform="translate(-5.681)"/>
</svg>
