<?xml version="1.0" encoding="utf-8"?>
<!-- Generator: Adobe Illustrator 19.0.0, SVG Export Plug-In . SVG Version: 6.00 Build 0)  -->
<svg version="1.1" id="Layer_1" xmlns="http://www.w3.org/2000/svg" xmlns:xlink="http://www.w3.org/1999/xlink" x="0px" y="0px"
	 viewBox="0 0 32 32" enable-background="new 0 0 32 32" xml:space="preserve">
<g id="XMLID_2_">
	<path id="XMLID_19_" fill="#FFFFFF" d="M23.1,19.1c-0.2-0.5-0.7-0.9-1.2-0.9h-0.7h-3.5h-2.7h-0.8h-3.5h-0.7c-0.5,0-1,0.3-1.2,0.9
		l-1.8,5.1v6.9c0,0.5,0.3,0.9,0.8,0.9h0.9c0.5,0,0.9-0.3,0.9-0.9v-0.9h5.4h7.3v0.9c0,0.5,0.3,0.9,0.9,0.9h0.9c0.5,0,0.8-0.3,0.8-0.9
		v-6.9L23.1,19.1z M10.1,27.7c-0.7,0-1.3-0.6-1.3-1.3c0-0.7,0.6-1.3,1.3-1.3c0.7,0,1.3,0.6,1.3,1.3C11.4,27.1,10.8,27.7,10.1,27.7z
		 M21.9,27.7c-0.7,0-1.3-0.6-1.3-1.3c0-0.7,0.6-1.3,1.3-1.3c0.7,0,1.3,0.6,1.3,1.3C23.2,27.1,22.6,27.7,21.9,27.7z M15.1,23.4H8.8
		l1.3-3.8h5h6.9l1.3,3.8H15.1z"/>
	<polygon id="XMLID_18_" fill="#FFFFFF" points="0,0 0,32 2.3,32 2.3,29.7 2.3,23.9 2.3,2.3 29.7,2.3 29.7,23.9 29.7,29.7 29.7,32 
		32,32 32,0 	"/>
	<g id="XMLID_16_">
		<rect id="XMLID_17_" x="6.3" y="1.3" fill="#FFFFFF" width="0.9" height="13.1"/>
	</g>
	<g id="XMLID_14_">
		<rect id="XMLID_15_" x="10.9" y="1.3" fill="#FFFFFF" width="0.9" height="6.4"/>
	</g>
	<g id="XMLID_12_">
		<polygon id="XMLID_13_" fill="#FFFFFF" points="13.5,15.6 12.8,14.9 15.5,12.2 15.5,1.3 16.5,1.3 16.5,12.6 		"/>
	</g>
	<g id="XMLID_10_">
		<polygon id="XMLID_11_" fill="#FFFFFF" points="24.3,15.6 20.2,11.5 20.2,1.3 21.1,1.3 21.1,11.1 24.9,15 		"/>
	</g>
	<g id="XMLID_8_">
		<rect id="XMLID_9_" x="24.8" y="1.3" fill="#FFFFFF" width="0.9" height="7.7"/>
	</g>
	<circle id="XMLID_7_" fill="#FFFFFF" cx="6.7" cy="14.5" r="1.5"/>
	<circle id="XMLID_6_" fill="#FFFFFF" cx="11.4" cy="7.8" r="1.5"/>
	<circle id="XMLID_5_" fill="#FFFFFF" cx="24.6" cy="15.2" r="1.5"/>
	<circle id="XMLID_4_" fill="#FFFFFF" cx="25.3" cy="9" r="1.5"/>
	<circle id="XMLID_3_" fill="#FFFFFF" cx="13.2" cy="15.2" r="1.5"/>
</g>
</svg>
