<svg id="bullseye" xmlns="http://www.w3.org/2000/svg" viewBox="0 0 31.899 31.899">
  <defs>
    <style>
      .cls-1 {
        fill: #fff;
      }
    </style>
  </defs>
  <g id="Group_3459" data-name="Group 3459" transform="translate(0 0)">
    <path id="Path_1942" data-name="Path 1942" class="cls-1" d="M29.761,7.944a15.883,15.883,0,0,0-5.8-5.8A15.6,15.6,0,0,0,15.95,0,15.6,15.6,0,0,0,7.944,2.139a15.879,15.879,0,0,0-5.8,5.8A15.6,15.6,0,0,0,0,15.95a15.6,15.6,0,0,0,2.139,8.006,15.883,15.883,0,0,0,5.8,5.8A15.6,15.6,0,0,0,15.95,31.9a15.6,15.6,0,0,0,8.006-2.139,15.879,15.879,0,0,0,5.8-5.8A15.6,15.6,0,0,0,31.9,15.95,15.605,15.605,0,0,0,29.761,7.944ZM28.182,21.11a13.1,13.1,0,0,1-7.071,7.071,13.1,13.1,0,0,1-10.322,0A13.1,13.1,0,0,1,3.718,21.11a13.1,13.1,0,0,1,0-10.322,13.106,13.106,0,0,1,7.072-7.072,13.1,13.1,0,0,1,10.322,0,13.105,13.105,0,0,1,7.071,7.072,13.1,13.1,0,0,1,0,10.322Z" transform="translate(0 0)"/>
    <path id="Path_1943" data-name="Path 1943" class="cls-1" d="M83.725,73.085A10.636,10.636,0,1,0,91.243,76.2,10.245,10.245,0,0,0,83.725,73.085Zm5.638,16.272A7.972,7.972,0,1,1,91.7,83.718,7.683,7.683,0,0,1,89.364,89.357Z" transform="translate(-67.775 -67.769)"/>
    <path id="Path_1944" data-name="Path 1944" class="cls-1" d="M151.5,146.178a5.318,5.318,0,1,0,3.759,1.557A5.123,5.123,0,0,0,151.5,146.178Z" transform="translate(-135.548 -135.545)"/>
  </g>
</svg>
