<svg xmlns="http://www.w3.org/2000/svg" viewBox="0 0 37.34 31.402">
  <defs>
    <style>
      .cls-1 {
        fill: #fff;
      }
    </style>
  </defs>
  <path id="Path_16734" data-name="Path 16734" class="cls-1" d="M8.807,3.825A4.617,4.617,0,0,0,7.549,1.308,4.416,4.416,0,0,0,4.428,0,4.468,4.468,0,0,0,0,4.428V26.973A4.448,4.448,0,0,0,4.127,31.4H37.34V3.825ZM7.448,23.048a4.74,4.74,0,0,0-3.321-.856,5.67,5.67,0,0,0-2.416.856V4.227A2.568,2.568,0,0,1,4.479,1.912,2.992,2.992,0,0,1,7.3,3.825c.1.252.151.4.151.4Zm5.536-.453H10.467V20.18h2.516Zm0-4.831H10.467V15.349h2.516Zm0-4.881H10.467V10.467h2.516ZM33.516,22.6H15.449V20.18H33.516Zm0-4.831H15.449V15.349H33.516Zm0-4.881H15.449V10.467H33.516Z"/>
</svg>
