<svg id="tile" xmlns="http://www.w3.org/2000/svg" viewBox="0 0 21.939 21.94">
  <defs>
    <style>
      .cls-1 {
        fill: #fff;
      }
    </style>
  </defs>
  <g id="Group_14768" data-name="Group 14768">
    <path id="Path_16836" data-name="Path 16836" class="cls-1" d="M21.026,0H10.97a.914.914,0,0,0-.914.914V2.742h-6.4a.914.914,0,0,0-.914.914v6.4H.914A.914.914,0,0,0,0,10.97V21.026a.914.914,0,0,0,.914.914H21.026a.914.914,0,0,0,.914-.914V.914A.914.914,0,0,0,21.026,0ZM4.571,4.571H6.4V6.4H4.571Zm0,3.657H6.4v1.828H4.571Zm5.485,11.884H1.828V11.884h8.227Zm0-10.056H8.227V8.227h1.828Zm0-3.657H8.227V4.571h1.828ZM20.112,20.112H11.884V11.884h8.227Zm0-10.056H11.884V1.828h8.227Z"/>
  </g>
</svg>
