<?xml version="1.0" encoding="utf-8"?>
<!-- Generator: Adobe Illustrator 19.0.0, SVG Export Plug-In . SVG Version: 6.00 Build 0)  -->
<svg version="1.1" id="Layer_1" xmlns="http://www.w3.org/2000/svg" xmlns:xlink="http://www.w3.org/1999/xlink" x="0px" y="0px"
	 viewBox="0 0 32 32" style="enable-background:new 0 0 32 32;" xml:space="preserve">
<style type="text/css">
	.st0{fill:#FFFFFF;}
</style>
<g id="XMLID_2_">
	<path id="XMLID_4_" class="st0" d="M13.3,15.9v-2.1c0-2.9-2.4-5.3-5.3-5.3S2.8,11,2.8,13.9v2.1c-1.3,0.1-2.4,1.2-2.4,2.6v7.4
		c0,1.4,1.2,2.6,2.6,2.6h10.1c1.4,0,2.6-1.2,2.6-2.6v-7.4C15.8,17.2,14.7,16.1,13.3,15.9z M9,22.2v3.6H7.1v-3.6
		c-0.4-0.3-0.7-0.8-0.7-1.3c0-0.9,0.7-1.6,1.6-1.6c0.9,0,1.6,0.7,1.6,1.6C9.7,21.4,9.4,21.9,9,22.2z M11.5,15.9H4.7v-2.1
		c0-1.9,1.5-3.4,3.4-3.4s3.4,1.5,3.4,3.4V15.9z"/>
	<path id="XMLID_3_" class="st0" d="M27.7,17.9c-2.7-0.9-3.5-1.8-3.5-3.5c0-1,0.8-0.7,1.2-2.6c0.2-0.8,0.9,0,1-1.8
		c0-0.7-0.4-0.9-0.4-0.9s0.2-1.1,0.3-1.9c0.1-1-0.6-3.7-4.3-3.7s-4.4,2.7-4.3,3.7c0.1,0.8,0.3,1.9,0.3,1.9s-0.4,0.2-0.4,0.9
		c0.2,1.8,0.9,1,1,1.8c0.3,1.9,1.2,1.6,1.2,2.6c0,1.4-0.6,2.2-2.2,3c0.1,0.4,0.1,0.7,0.1,1.1v7.4c0,1-0.3,1.9-0.8,2.6h5.1h9.7
		c0,0,0-7.3,0-7.9C31.6,19.9,30.3,18.9,27.7,17.9z"/>
</g>
</svg>
