<?xml version="1.0" encoding="utf-8"?>
<!-- Generator: Adobe Illustrator 19.0.0, SVG Export Plug-In . SVG Version: 6.00 Build 0)  -->
<svg version="1.1" id="Layer_1" xmlns="http://www.w3.org/2000/svg" xmlns:xlink="http://www.w3.org/1999/xlink" x="0px" y="0px"
	 viewBox="0 0 32 32" style="enable-background:new 0 0 32 32;" xml:space="preserve">
<style type="text/css">
	.st0{fill:#FFFFFF;}
</style>
<g id="XMLID_2_">
	<g id="XMLID_4_">
		<path id="XMLID_5_" class="st0" d="M16,2.9c-4.1,0-7.5,3.4-7.5,7.5c0,1.7,1.1,4.4,3.2,8.3c1.5,2.8,3.1,5.1,3.1,5.2l1.1,1.7
			l1.1-1.7c0.1-0.1,1.6-2.4,3.1-5.2c2.2-3.9,3.2-6.6,3.2-8.3C23.5,6.3,20.1,2.9,16,2.9L16,2.9z M16,14.2c-2.1,0-3.9-1.7-3.9-3.9
			c0-2.1,1.7-3.9,3.9-3.9c2.1,0,3.9,1.7,3.9,3.9C19.9,12.5,18.1,14.2,16,14.2L16,14.2z M16,14.2"/>
	</g>
	<path id="XMLID_3_" class="st0" d="M23.7,16.8c-0.3,0.6-0.7,1.3-1,2c4.3,0.9,6.7,2.5,6.7,3.7c0,1.8-5.1,4.3-13.4,4.3
		S2.6,24.4,2.6,22.6c0-1.3,2.4-2.8,6.7-3.7c-0.4-0.7-0.7-1.4-1-2c-4.5,1-7.9,2.9-7.9,5.7c0,4.2,8,6.5,15.6,6.5s15.6-2.3,15.6-6.5
		C31.6,19.8,28.1,17.9,23.7,16.8z"/>
</g>
</svg>
