<svg xmlns="http://www.w3.org/2000/svg" viewBox="0 0 31.741 23.669">
  <defs>
    <style>
      .cls-1 {
        fill: #fff;
      }
    </style>
  </defs>
  <g id="Group_19898" data-name="Group 19898" transform="translate(-0.079 -0.031)">
    <rect id="Rectangle_5996" data-name="Rectangle 5996" class="cls-1" width="1.5" height="2" transform="matrix(0.966, -0.259, 0.259, 0.966, 8.967, 12.636)"/>
    <rect id="Rectangle_5997" data-name="Rectangle 5997" class="cls-1" width="1.5" height="2" transform="translate(7.985 8.931) rotate(-14.976)"/>
    <rect id="Rectangle_5998" data-name="Rectangle 5998" class="cls-1" width="1.5" height="2" transform="matrix(0.966, -0.259, 0.259, 0.966, 9.976, 16.437)"/>
    <path id="Path_17902" data-name="Path 17902" class="cls-1" d="M22.5,5.9a.693.693,0,0,0-1,.3l-4.9,8.5a.693.693,0,0,0,.3,1c.1.1.2.1.4.1a.755.755,0,0,0,.7-.4L22.8,7A.8.8,0,0,0,22.5,5.9Z"/>
    <path id="Path_17903" data-name="Path 17903" class="cls-1" d="M24.3,10.6a2.491,2.491,0,0,0-1.9-.2,2.555,2.555,0,0,0-1.5,1.2,2.491,2.491,0,0,0-.2,1.9A2.555,2.555,0,0,0,21.9,15a2.663,2.663,0,0,0,1.2.3,1.268,1.268,0,0,0,.6-.1A2.555,2.555,0,0,0,25.2,14a2.491,2.491,0,0,0,.2-1.9A2.094,2.094,0,0,0,24.3,10.6Zm-.4,2.6a1.024,1.024,0,0,1-.6.5.821.821,0,0,1-.7-.1,1.024,1.024,0,0,1-.5-.6.821.821,0,0,1,.1-.7,1.024,1.024,0,0,1,.6-.5h.3a.9.9,0,0,1,.5.1,1.024,1.024,0,0,1,.5.6A1.854,1.854,0,0,1,23.9,13.2Z"/>
    <path id="Path_17904" data-name="Path 17904" class="cls-1" d="M18.5,10.1a2.487,2.487,0,1,0-3.4.9,2.663,2.663,0,0,0,1.2.3A2.316,2.316,0,0,0,18.5,10.1Zm-1.3-.7a.962.962,0,0,1-1.7-.9,1.011,1.011,0,0,1,1.3-.4A.883.883,0,0,1,17.2,9.4Z"/>
    <path id="Path_17905" data-name="Path 17905" class="cls-1" d="M31.7,13.4,28.8,2.6A3.363,3.363,0,0,0,27.2.5,2.983,2.983,0,0,0,24.6.2L2.6,6A3.448,3.448,0,0,0,.2,10.2l.7,2.5H1a1.612,1.612,0,0,0,.7.4v.1h.6a2.378,2.378,0,0,1,2.2,1.6,2.157,2.157,0,0,1-1.1,2.5l-.5.3v.1a2.506,2.506,0,0,0-.4.7l-.2.1L3,21.1a3.513,3.513,0,0,0,3.3,2.6,2.769,2.769,0,0,0,.9-.1l22-5.9A3.58,3.58,0,0,0,31.7,13.4Zm-1.6,1.9a1.785,1.785,0,0,1-1.2.9L12.7,20.5l-.2-.7-1.5.4.2.7L6.9,22.1a1.939,1.939,0,0,1-2.4-1.4L4,19v-.1c0-.1,0-.2.1-.2l.5-.3v-.1a3.794,3.794,0,0,0,1.3-3.9,3.626,3.626,0,0,0-3-2.7v-.1H2.3c-.1,0-.1,0-.2-.1L1.6,9.9A1.859,1.859,0,0,1,3,7.5L7.3,6.3l.2.7,1.4-.4-.1-.7L25,1.6a2,2,0,0,1,1.5.2A2.262,2.262,0,0,1,27.4,3l2.9,10.8A2.622,2.622,0,0,1,30.1,15.3Z"/>
  </g>
</svg>
