<svg xmlns="http://www.w3.org/2000/svg" viewBox="0 0 36.043 36.043">
  <defs>
    <style>
      .cls-1 {
        fill: #fff;
      }
    </style>
  </defs>
  <g id="earnings" transform="translate(0 0.001)">
    <path id="Path_13972" data-name="Path 13972" class="cls-1" d="M62.057,19.006A1.052,1.052,0,0,0,62.8,18.7L70.5,11l3.477,3.477a1.056,1.056,0,0,0,1.493,0L86.343,3.6V5.279a1.056,1.056,0,1,0,2.112,0V1.055c0-.035,0-.07-.005-.1,0-.017,0-.034-.007-.051s0-.034-.008-.051-.01-.04-.015-.06S88.414.763,88.41.75,88.4.708,88.388.688,88.38.664,88.376.653s-.019-.042-.029-.062L88.332.56c-.012-.023-.025-.044-.039-.065L88.28.471c-.019-.028-.039-.056-.061-.082h0a1.082,1.082,0,0,0-.153-.153h0c-.026-.021-.054-.042-.082-.06L87.96.161c-.021-.013-.043-.027-.065-.039L87.863.107c-.02-.01-.041-.02-.062-.029L87.767.066C87.746.058,87.726.05,87.7.044l-.039-.01c-.02,0-.04-.011-.061-.015L87.554.012,87.5,0C87.469,0,87.434,0,87.4,0H83.176a1.056,1.056,0,1,0,0,2.112H84.85L74.728,12.233,71.251,8.756a1.056,1.056,0,0,0-1.493,0L61.31,17.2a1.056,1.056,0,0,0,.747,1.8Zm0,0" transform="translate(-56.707)"/>
    <path id="Path_13973" data-name="Path 13973" class="cls-1" d="M0,477.478a1.055,1.055,0,0,0,1.056,1.056H9.5a1.055,1.055,0,0,0,1.056-1.056V476H0Zm0,0" transform="translate(0 -442.493)"/>
    <path id="Path_13974" data-name="Path 13974" class="cls-1" d="M9.5,410H1.056A1.056,1.056,0,0,0,0,411.056v1.478H10.559v-1.478A1.056,1.056,0,0,0,9.5,410Zm0,0" transform="translate(0 -381.139)"/>
    <path id="Path_13975" data-name="Path 13975" class="cls-1" d="M181,477.478a1.055,1.055,0,0,0,1.056,1.056H190.5a1.055,1.055,0,0,0,1.056-1.056V476H181Zm0,0" transform="translate(-168.258 -442.493)"/>
    <path id="Path_13976" data-name="Path 13976" class="cls-1" d="M362,410h10.559v2.534H362Zm0,0" transform="translate(-336.517 -381.139)"/>
    <path id="Path_13977" data-name="Path 13977" class="cls-1" d="M371.5,212h-8.447A1.056,1.056,0,0,0,362,213.056v1.478h10.559v-1.478A1.055,1.055,0,0,0,371.5,212Zm0,0" transform="translate(-336.517 -197.077)"/>
    <path id="Path_13978" data-name="Path 13978" class="cls-1" d="M362,278h10.559v2.534H362Zm0,0" transform="translate(-336.517 -258.431)"/>
    <path id="Path_13979" data-name="Path 13979" class="cls-1" d="M362,344h10.559v2.534H362Zm0,0" transform="translate(-336.517 -319.785)"/>
    <path id="Path_13980" data-name="Path 13980" class="cls-1" d="M362,477.478a1.056,1.056,0,0,0,1.056,1.056H371.5a1.055,1.055,0,0,0,1.056-1.056V476H362Zm0,0" transform="translate(-336.517 -442.493)"/>
    <path id="Path_13981" data-name="Path 13981" class="cls-1" d="M181,410h10.559v2.534H181Zm0,0" transform="translate(-168.258 -381.139)"/>
    <path id="Path_13982" data-name="Path 13982" class="cls-1" d="M190.5,344h-8.447A1.056,1.056,0,0,0,181,345.056v1.478h10.559v-1.478A1.056,1.056,0,0,0,190.5,344Zm0,0" transform="translate(-168.258 -319.785)"/>
  </g>
</svg>
