<?xml version="1.0" encoding="utf-8"?>
<!-- Generator: Adobe Illustrator 19.0.0, SVG Export Plug-In . SVG Version: 6.00 Build 0)  -->
<svg version="1.1" id="Layer_1" xmlns="http://www.w3.org/2000/svg" xmlns:xlink="http://www.w3.org/1999/xlink" x="0px" y="0px"
	 viewBox="0 0 32 32" style="enable-background:new 0 0 32 32;" xml:space="preserve">
<style type="text/css">
	.st0{fill:#FFFFFF;}
</style>
<g id="XMLID_2_">
	<g id="XMLID_5_">
		<circle id="XMLID_9_" class="st0" cx="16" cy="5.9" r="4.5"/>
		<path id="XMLID_8_" class="st0" d="M20.6,10.6c-1.2,1.1-2.8,1.9-4.6,1.9c-1.8,0-3.4-0.7-4.6-1.9c-2.3,1.3-3.7,3.4-3.7,5.9
			c0,3.9,0.2,4.5,2.5,4.5c0.2,0,0.5,0,0.7,0v8.1c0,1.3,1.1,2.4,2.4,2.4h5.3c1.3,0,2.4-1.1,2.4-2.4v-8.1c0.2,0,0.5,0,0.7,0
			c2.3,0,2.5-0.6,2.5-4.5C24.3,14,22.9,11.9,20.6,10.6z"/>
		<circle id="XMLID_7_" class="st0" cx="6" cy="3.4" r="2.9"/>
		<circle id="XMLID_6_" class="st0" cx="26" cy="3.4" r="2.9"/>
	</g>
	<path id="XMLID_4_" class="st0" d="M5.7,16.5C5.7,16.5,5.7,16.5,5.7,16.5L5.7,16.5C5.7,16.5,5.7,16.5,5.7,16.5c0-0.5,0-0.9,0.1-1.2
		c0,0,0,0,0,0c0.1-0.4,0.1-0.8,0.2-1.1c0,0,0,0,0,0c0.1-0.4,0.2-0.7,0.4-1.1c0-0.1,0.1-0.1,0.1-0.2c0.1-0.3,0.3-0.6,0.5-0.9
		c0.1-0.1,0.2-0.2,0.2-0.3c0.1-0.2,0.3-0.4,0.4-0.6c0.1-0.2,0.3-0.3,0.4-0.5c0.1-0.1,0.2-0.3,0.4-0.4C8.6,10,8.8,9.9,9,9.7
		c0.1-0.1,0.2-0.2,0.3-0.3c0.2-0.1,0.3-0.2,0.5-0.3c0.2-0.1,0.4-0.2,0.5-0.3l0.5-0.3c-0.3-0.6-0.8-1.1-1.3-1.6
		C8.7,7.8,7.4,8.4,6,8.4c-1.4,0-2.7-0.6-3.6-1.5C1.2,7.8,0.5,9,0.5,10.4c0,2.6,0.1,6.1,1.6,6.1c0.3,0,0.7,0,1,0v8.3
		c0,1,0.8,1.8,1.8,1.8h0.6h0.2h1.8v-1.8v-1.4v-0.7c0-0.1,0-0.1,0-0.2C5.7,21.4,5.7,19,5.7,16.5z"/>
	<path id="XMLID_3_" class="st0" d="M26.3,16.5C26.3,16.5,26.3,16.5,26.3,16.5L26.3,16.5C26.3,16.5,26.3,16.5,26.3,16.5
		c0-0.5,0-0.9-0.1-1.2c0,0,0,0,0,0c-0.1-0.4-0.1-0.8-0.2-1.1c0,0,0,0,0,0c-0.1-0.4-0.2-0.7-0.4-1.1c0-0.1-0.1-0.1-0.1-0.2
		c-0.1-0.3-0.3-0.6-0.5-0.9c-0.1-0.1-0.2-0.2-0.2-0.3c-0.1-0.2-0.3-0.4-0.4-0.6c-0.1-0.2-0.3-0.3-0.4-0.5c-0.1-0.1-0.2-0.3-0.4-0.4
		C23.4,10,23.2,9.9,23,9.7c-0.1-0.1-0.2-0.2-0.3-0.3c-0.2-0.1-0.3-0.2-0.5-0.3c-0.2-0.1-0.4-0.2-0.5-0.3l-0.5-0.3
		c0.3-0.6,0.8-1.1,1.3-1.6c0.9,0.9,2.2,1.5,3.6,1.5c1.4,0,2.7-0.6,3.6-1.5c1.1,0.9,1.8,2.1,1.8,3.5c0,2.6-0.1,6.1-1.6,6.1
		c-0.3,0-0.7,0-1,0v8.3c0,1-0.8,1.8-1.8,1.8h-0.6h-0.2h-1.8v-1.8v-1.4v-0.7c0-0.1,0-0.1,0-0.2C26.3,21.4,26.3,19,26.3,16.5z"/>
</g>
</svg>
