<svg xmlns="http://www.w3.org/2000/svg" viewBox="0 0 30.676 26.744">
  <defs>
    <style>
      .cls-1 {
        fill: #fff;
      }
    </style>
  </defs>
  <g id="Group_18888" data-name="Group 18888" transform="translate(-0.1)">
    <path id="Path_17741" data-name="Path 17741" class="cls-1" d="M30.57,184.658h0a2.578,2.578,0,0,0-3.178-1.391l-5.778,1.926-.018-.273a2.481,2.481,0,0,0-.122-.626,2.517,2.517,0,0,0-1.264-1.458l-7.558-3.779a4.346,4.346,0,0,0-3.135-.292l-2.485.711L7,179.239A2.542,2.542,0,0,0,4.5,177.1H.8a.7.7,0,0,0-.7.7v12.759a.7.7,0,0,0,.7.7H6.328a.7.7,0,0,0,.7-.7v-.826l5.019,2.509a7.974,7.974,0,0,0,6.72.194l10.481-4.466a2.518,2.518,0,0,0,1.324-3.311ZM5.623,189.865H1.491V178.5H4.5a1.125,1.125,0,0,1,1.124,1.124Zm23.671-3.791a1.1,1.1,0,0,1-.6.608h0l-10.493,4.472a6.562,6.562,0,0,1-5.541-.164L7.02,188.17v-7.23l2.88-.82a2.933,2.933,0,0,1,2.126.2l7.558,3.779a1.13,1.13,0,0,1,.5,1.507,1.1,1.1,0,0,1-.656.565,1.146,1.146,0,0,1-.851-.061l-4.514-2.26a2.537,2.537,0,0,0-3.1.687.7.7,0,0,0,.632,1.13.716.716,0,0,0,.468-.261,1.123,1.123,0,0,1,1.385-.3l4.508,2.254a2.523,2.523,0,0,0,2.813-.383l.03-.03,7.036-2.345a1.17,1.17,0,0,1,1.452.614A1.118,1.118,0,0,1,29.294,186.074Z" transform="translate(0 -166.34)"/>
    <path id="Path_17742" data-name="Path 17742" class="cls-1" d="M284.808,71.16h1.738V72.9a.608.608,0,0,0,1.215,0V71.16H289.5a.608.608,0,1,0,0-1.215H287.76V68.208a.608.608,0,0,0-1.215,0v1.738h-1.738a.608.608,0,1,0,0,1.215Z" transform="translate(-266.839 -63.493)"/>
    <path id="Path_17743" data-name="Path 17743" class="cls-1" d="M223.66,14.114A7.057,7.057,0,1,0,216.6,7.06,7.066,7.066,0,0,0,223.66,14.114Zm0-12.838a5.784,5.784,0,1,1-5.784,5.784A5.79,5.79,0,0,1,223.66,1.276Z" transform="translate(-203.346)"/>
  </g>
</svg>
