<?xml version="1.0" encoding="utf-8"?>
<!-- Generator: Adobe Illustrator 19.0.0, SVG Export Plug-In . SVG Version: 6.00 Build 0)  -->
<svg version="1.1" id="Layer_1" xmlns="http://www.w3.org/2000/svg" xmlns:xlink="http://www.w3.org/1999/xlink" x="0px" y="0px"
	 viewBox="-11 13 24 24" style="enable-background:new -11 13 24 24;" xml:space="preserve">
<style type="text/css">
	.st0{fill:#FFFFFF;}
</style>
<g>
	<g>
		<path class="st0" d="M1,37c-3.2,0-6.2-1.2-8.5-3.5C-9.8,31.2-11,28.2-11,25s1.2-6.2,3.5-8.5S-2.2,13,1,13s6.2,1.2,8.5,3.5
			S13,21.8,13,25s-1.2,6.2-3.5,8.5C7.2,35.8,4.2,37,1,37z M1,14.8c-2.7,0-5.3,1.1-7.2,3s-3,4.5-3,7.2s1.1,5.3,3,7.2s4.5,3,7.2,3
			s5.3-1.1,7.2-3s3-4.5,3-7.2s-1.1-5.3-3-7.2S3.7,14.8,1,14.8z"/>
	</g>
	<g>
		<rect x="0.1" y="13.9" transform="matrix(0.7071 0.7071 -0.7071 0.7071 17.9706 6.6152)" class="st0" width="1.8" height="22.2"/>
	</g>
</g>
</svg>
