<?xml version="1.0" encoding="utf-8"?>
<!-- Generator: Adobe Illustrator 19.0.0, SVG Export Plug-In . SVG Version: 6.00 Build 0)  -->
<svg version="1.1" id="Layer_1" xmlns="http://www.w3.org/2000/svg" xmlns:xlink="http://www.w3.org/1999/xlink" x="0px" y="0px"
	 viewBox="0 0 32 32" style="enable-background:new 0 0 32 32;" xml:space="preserve">
<style type="text/css">
	.st0{fill:#FFFFFF;}
</style>
<g id="XMLID_2_">
	<g id="XMLID_7_">
		<path id="XMLID_8_" class="st0" d="M12.2,28.4c-0.3,0-0.6,0-1,0c-2.5-0.2-5-1-7.1-2.3c-0.4-0.2-0.8-0.5-1.2-0.9
			c-0.5-0.5-0.8-1.1-1.1-1.7c-2-4.3-1.7-9.6,0.7-13.5C5.1,6,9.8,3.5,14.5,3.6c4.3,0.1,7.9,1.5,10,3.7l2,2c0.8,0.6,1.5,1.4,2.3,2.5
			c1.3,1.8,2.1,3.3,2.5,4.9c0.5,2,0.2,4.1-0.7,5.6c-0.6,1-1.5,1.6-2.4,1.7c-0.9,0-1.7-0.4-2.3-0.8L25.7,23c-1.2-0.8-2.4-1.2-3.5-1.3
			c-1.3-0.1-2.4,0.4-3.2,1.1c-0.4,0.5-0.8,1.1-1.1,1.8c-0.4,0.8-0.8,1.7-1.6,2.4C15.4,28,14,28.4,12.2,28.4z M14.1,5.1
			c-4.1,0-8.1,2.2-10.2,5.8c-2.2,3.5-2.4,8.2-0.7,12.1c0.2,0.4,0.4,0.9,0.8,1.2c0.2,0.2,0.6,0.4,0.9,0.6c2,1.2,4.2,1.9,6.5,2.1
			c1.8,0.2,3.1-0.2,3.9-0.9c0.5-0.5,0.9-1.2,1.2-2c0.4-0.8,0.7-1.5,1.3-2.2c1-1.1,2.7-1.7,4.4-1.6c1.4,0.1,2.8,0.6,4.3,1.5l0.2,0.1
			c0.5,0.3,0.9,0.6,1.4,0.6c0.4,0,0.8-0.4,1.2-0.9c0.7-1.2,0.9-2.8,0.5-4.4c-0.3-1.3-1-2.7-2.2-4.3c-0.7-1-1.4-1.7-2-2.3l0,0l-2.1-2
			c-2.6-2.8-7.1-3.2-8.9-3.2C14.3,5.1,14.2,5.1,14.1,5.1z"/>
	</g>
	<g id="XMLID_3_">
		<path id="XMLID_4_" class="st0" d="M12.2,23.3c-0.2,0-0.4,0-0.6,0c-1.7-0.1-3.4-0.7-4.9-1.5c-0.1-0.1-0.3-0.2-0.3-0.3
			c-1.3-2.7-1.1-6.1,0.5-8.6c1.5-2.4,4.4-4,7.2-4l0.2,0c2.8,0.1,5.3,0.9,6.4,2l0.1,0.1l2.4,2.3c0.4,0.4,0.9,0.9,1.5,1.6
			c0.2,0.3,0.4,0.5,0.6,0.8c0.2,0.3,0.2,0.6,0,0.9c-0.2,0.3-0.5,0.4-0.8,0.3c-0.6-0.1-1.2-0.2-1.9-0.3c-2.8-0.2-5.5,0.9-7.3,2.8
			c-1,1.1-1.5,2.2-1.9,3.1l-0.2,0.4c-0.1,0.3-0.4,0.4-0.7,0.4L12.2,23.3z M7.8,20.5c1.2,0.7,2.6,1.1,4,1.2c0,0,0,0,0.1,0
			c0.5-1,1.1-2.2,2.2-3.4c2.1-2.3,5.3-3.5,8.5-3.3c0.1,0,0.1,0,0.2,0c-0.2-0.3-0.4-0.5-0.6-0.6L22,14.3l-2.5-2.4
			c-0.7-0.7-2.5-1.5-5.2-1.5l-0.1,0c-2.3,0-4.6,1.3-5.9,3.3C7.1,15.6,6.9,18.3,7.8,20.5z"/>
	</g>
</g>
</svg>
