<svg id="Group_15880" data-name="Group 15880" xmlns="http://www.w3.org/2000/svg" viewBox="0 0 27.871 31.379">
  <defs>
    <style>
      .cls-1 {
        fill: #dfdede;
      }
    </style>
  </defs>
  <path id="Path_1903" data-name="Path 1903" class="cls-1" d="M63.27,66.71a2.7,2.7,0,0,0-1.66-.61A2.589,2.589,0,0,0,59,68.709a2.618,2.618,0,0,0,2.609,2.643,2.392,2.392,0,0,0,1.66-.61,2.676,2.676,0,0,0,.983-2.033A2.719,2.719,0,0,0,63.27,66.71Zm-.1,1.525-1.9,1.9a.5.5,0,0,1-.305.136.414.414,0,0,1-.3-.136l-.712-.712a.407.407,0,0,1,.576-.576l.441.441,1.593-1.593a.459.459,0,0,1,.576,0,.473.473,0,0,1,.1.3A.225.225,0,0,1,63.168,68.235Z" transform="translate(-39.007 -43.701)"/>
  <path id="Path_1904" data-name="Path 1904" class="cls-1" d="M61.609,58.451v-.441A.825.825,0,0,0,60.8,57.2a6.35,6.35,0,0,1-2.779-.746,6.437,6.437,0,0,1-1.491-1.084.482.482,0,0,0-.2-.068.7.7,0,0,0-.2.068,6.325,6.325,0,0,1-4.236,1.83.824.824,0,0,0-.813.813v.474a14.831,14.831,0,0,0,.542,5.219,7.1,7.1,0,0,0,1.525,2.406,6.211,6.211,0,0,0,.881.712,7.642,7.642,0,0,0,2.169,1.084l.136.034.136-.034a8.363,8.363,0,0,0,3.05-1.8A6.623,6.623,0,0,0,61.032,63.7,14.31,14.31,0,0,0,61.609,58.451Zm-3.8,6.913a3.787,3.787,0,0,1-1.491.3,4.066,4.066,0,1,1,0-8.133,3.851,3.851,0,0,1,1.66.373A4.04,4.04,0,0,1,60.355,61.6,3.956,3.956,0,0,1,57.813,65.364Z" transform="translate(-33.753 -36.56)"/>
  <path id="Path_1905" data-name="Path 1905" class="cls-1" d="M23.6,12.437A6.218,6.218,0,1,0,17.4,6.2,6.219,6.219,0,0,0,23.6,12.437Z" transform="translate(-11.504)"/>
  <path id="Path_1906" data-name="Path 1906" class="cls-1" d="M34.061,39.137a.974.974,0,0,0-.61-.237H31.824a.9.9,0,0,0-.61.237.782.782,0,0,0-.1.881l.881,1.322L31.587,44.8l.813,2.169a.261.261,0,0,0,.474,0l.813-2.169-.407-3.456.881-1.322A.841.841,0,0,0,34.061,39.137Z" transform="translate(-20.506 -25.718)"/>
  <path id="Path_1907" data-name="Path 1907" class="cls-1" d="M16.91,53.861a15.032,15.032,0,0,1-.61-5.49v-.644a1.9,1.9,0,0,1,1.8-1.8,5.233,5.233,0,0,0,3.592-1.525l.068-.068.068-.068a1.492,1.492,0,0,1,.746-.237,1.383,1.383,0,0,1,.746.237l.136.1a5.307,5.307,0,0,0,.712.576,5.377,5.377,0,0,0-3.694-4.473h-.034c-.813-.2-3.287-.542-3.287-.542a.559.559,0,0,0-.678.339L12.742,50.54a.7.7,0,0,1-1.288,0L7.726,40.273a.588.588,0,0,0-.508-.373c-.034,0-2.609.373-3.456.576A5.425,5.425,0,0,0,0,45.8V54.3A2.314,2.314,0,0,0,2.3,56.64H18.672A7.881,7.881,0,0,1,16.91,53.861Z" transform="translate(0 -26.379)"/>
</svg>
