<svg id="statistics" xmlns="http://www.w3.org/2000/svg" viewBox="0 0 40.593 40.593">
  <defs>
    <style>
      .cls-1 {
        fill: #dfdede;
      }
    </style>
  </defs>
  <path id="Path_1909" data-name="Path 1909" class="cls-1" d="M34.568,19.028a3.55,3.55,0,0,0,2.47-1l3.52,1.76a3.494,3.494,0,0,0-.044.432,3.568,3.568,0,0,0,7.135,0,3.524,3.524,0,0,0-.358-1.528l4.776-4.776a3.524,3.524,0,0,0,1.528.358A3.572,3.572,0,0,0,57.163,10.7a3.514,3.514,0,0,0-.178-1.057l4.149-3.111a3.565,3.565,0,1,0-1.593-2.968,3.514,3.514,0,0,0,.178,1.057L55.571,7.736a3.552,3.552,0,0,0-5.185,4.5L45.61,17.007a3.506,3.506,0,0,0-4,.645l-3.52-1.76a3.5,3.5,0,0,0,.044-.432,3.568,3.568,0,1,0-3.568,3.568Zm0,0" transform="translate(-28.542 0)"/>
  <path id="Path_1910" data-name="Path 1910" class="cls-1" d="M39.4,176.322H38.135V151.189A1.189,1.189,0,0,0,36.946,150H32.189A1.189,1.189,0,0,0,31,151.189v25.133H28.621v-18a1.189,1.189,0,0,0-1.189-1.189H22.675a1.189,1.189,0,0,0-1.189,1.189v18H19.107v-8.483a1.189,1.189,0,0,0-1.189-1.189H13.161a1.189,1.189,0,0,0-1.189,1.189v8.483H9.593v-13.24A1.189,1.189,0,0,0,8.4,161.892H3.647a1.189,1.189,0,0,0-1.189,1.189v13.24H1.189a1.189,1.189,0,1,0,0,2.378H39.4a1.189,1.189,0,1,0,0-2.378Zm0,0" transform="translate(0 -138.108)"/>
</svg>
