<svg xmlns="http://www.w3.org/2000/svg" viewBox="0 0 38.506 38.506">
  <defs>
    <style>
      .cls-1 {
        fill: #023b41;
      }
    </style>
  </defs>
  <path id="Path_17170" data-name="Path 17170" class="cls-1" d="M34.606,15.353A3.893,3.893,0,0,0,30.87,18.1H29.516a10.01,10.01,0,0,0-2.217-5.3l.944-.944a4.093,4.093,0,0,0,1.847.452,3.89,3.89,0,1,0-3.9-3.9,4.092,4.092,0,0,0,.452,1.847l-.944.944A10.493,10.493,0,0,0,20.4,8.99V7.636a3.9,3.9,0,1,0-2.3,0V8.99a10.01,10.01,0,0,0-5.3,2.217l-.944-.944a4.093,4.093,0,0,0,.452-1.847,3.89,3.89,0,1,0-3.9,3.9,4.093,4.093,0,0,0,1.847-.452l.944.944A10.493,10.493,0,0,0,8.99,18.1H7.636a3.9,3.9,0,1,0,0,2.3H8.99a10.01,10.01,0,0,0,2.217,5.3l-.944.944a3.938,3.938,0,0,0-4.6.7,3.89,3.89,0,1,0,6.65,2.75,4.093,4.093,0,0,0-.452-1.847l.944-.944a10.493,10.493,0,0,0,5.3,2.217V30.87a3.9,3.9,0,1,0,2.3,0V29.516A10.01,10.01,0,0,0,25.7,27.3l.944.944a4.093,4.093,0,0,0-.452,1.847,3.894,3.894,0,1,0,6.65-2.75,3.938,3.938,0,0,0-4.6-.7L27.3,25.7a10.493,10.493,0,0,0,2.217-5.3H30.87a3.9,3.9,0,1,0,3.736-5.049ZM28.941,7.266a1.646,1.646,0,0,1,1.149-.493,1.553,1.553,0,0,1,1.149.493,1.646,1.646,0,0,1,.493,1.149,1.553,1.553,0,0,1-.493,1.149,1.646,1.646,0,0,1-1.149.493,1.553,1.553,0,0,1-1.149-.493,1.646,1.646,0,0,1-.493-1.149A1.948,1.948,0,0,1,28.941,7.266ZM9.565,9.565a1.646,1.646,0,0,1-1.149.493,1.553,1.553,0,0,1-1.149-.493,1.646,1.646,0,0,1-.493-1.149,1.553,1.553,0,0,1,.493-1.149,1.587,1.587,0,0,1,2.3,0,1.646,1.646,0,0,1,.493,1.149A2.063,2.063,0,0,1,9.565,9.565ZM3.941,20.854a1.6,1.6,0,1,1,1.6-1.6A1.6,1.6,0,0,1,3.941,20.854ZM9.565,31.24a1.646,1.646,0,0,1-1.149.493,1.553,1.553,0,0,1-1.149-.493,1.661,1.661,0,0,1,0-2.3,1.587,1.587,0,0,1,2.3,0,1.646,1.646,0,0,1,.493,1.149A1.948,1.948,0,0,1,9.565,31.24Zm19.376-2.3a1.587,1.587,0,0,1,2.3,0,1.642,1.642,0,0,1-1.149,2.791,1.553,1.553,0,0,1-1.149-.493,1.646,1.646,0,0,1-.493-1.149A1.553,1.553,0,0,1,28.941,28.941Zm-11.289-25a1.6,1.6,0,0,1,3.2,0,1.63,1.63,0,0,1-1.6,1.6A1.6,1.6,0,0,1,17.652,3.941Zm3.2,30.624a1.6,1.6,0,1,1-1.6-1.6A1.6,1.6,0,0,1,20.854,34.565Zm-1.642-7.143a8.21,8.21,0,1,1,8.21-8.21A8.208,8.208,0,0,1,19.212,27.422Zm15.353-6.568a1.6,1.6,0,1,1,1.6-1.6A1.6,1.6,0,0,1,34.565,20.854Z"/>
</svg>
