<svg id="agreement" xmlns="http://www.w3.org/2000/svg" viewBox="0 0 40.61 35.745">
  <defs>
    <style>
      .cls-1 {
        fill: #dfdede;
      }
    </style>
  </defs>
  <path id="Path_1908" data-name="Path 1908" class="cls-1" d="M31.545,35.706a4.541,4.541,0,0,0,2.341-.642L40.61,31.09V29.232l-7.565,4.408a3.665,3.665,0,0,1-1.883.5l-10.015-.117c-.5-.183-.9-.3-1.05-.358a15.046,15.046,0,0,0-7.249.025,5.6,5.6,0,0,1-3.766-.333L0,29.19V45.837l.942.517a7.582,7.582,0,0,1,3.191,3.358l-.533.433a3.324,3.324,0,0,0-.8,4.483A3.351,3.351,0,0,0,4.916,55.91c.1.008.25.017.358.017a4.089,4.089,0,0,0,.867-.058,3.218,3.218,0,0,0,.608,1.916,3.071,3.071,0,0,0,2.433,1.2c.25.017.508.025.708.042a3.015,3.015,0,0,0,.6,2.166,3.351,3.351,0,0,0,2.116,1.283c.1.008.25.017.358.017a3.2,3.2,0,0,0,2.066-.6l.317-.242a2.722,2.722,0,0,0,.492,1.25,2.873,2.873,0,0,0,1.825,1.116c.1.008.2.008.308.017a2.787,2.787,0,0,0,1.758-.517h.05l.375.525a2.165,2.165,0,0,0,2.975.517A2.21,2.21,0,0,0,23.879,62l.067.1a2.364,2.364,0,0,0,2.841.9,2.282,2.282,0,0,0,1.3-2.758,2.323,2.323,0,0,0,3.033.367l.05-.05a2.288,2.288,0,0,0,.717-2.916,2.473,2.473,0,0,0,3.683-3.266l-1.183-1.691,2.575-3A9.249,9.249,0,0,1,39.343,47.7l1.266-.733V44.987l-1.75.991a9.942,9.942,0,0,0-2.65,2.175l-2.766,3.208a2.473,2.473,0,0,0-3.683,3.266l.042.108h-.05a2.371,2.371,0,0,0-2.691-.042l-.05.05a2.288,2.288,0,0,0-.933,2.291l-.267.192a2.292,2.292,0,0,0-2.4.125,2.366,2.366,0,0,0-.975,2.083L21.7,59.9a2.094,2.094,0,0,0-1.641.317A2.2,2.2,0,0,0,19.155,62l-.367.233a1.047,1.047,0,0,1-.875.208,1.33,1.33,0,0,1-.792-.5,1.047,1.047,0,0,1-.208-.875,1.33,1.33,0,0,1,.5-.792l3.974-2.991a.718.718,0,0,0,.333-.592.825.825,0,0,0-.817-.85.911.911,0,0,0-.467.125l-6.349,4.6a1.737,1.737,0,0,1-1.233.292,1.557,1.557,0,0,1-1.083-.667,1.616,1.616,0,0,1,.375-2.266l7.565-5.4A.826.826,0,0,0,20,51.894a.817.817,0,0,0-.783-.817.742.742,0,0,0-.617.275L11.19,56.71a1.779,1.779,0,0,0-.475.383A2.183,2.183,0,0,1,8.032,56.9a1.686,1.686,0,0,1,.217-2.175l.742-.517,8.232-5.616A.718.718,0,0,0,17.555,48a.789.789,0,0,0-.342-.692.75.75,0,0,0-.892-.033L7.507,53.269a.746.746,0,0,1-.217.192l-.85.617a1.624,1.624,0,1,1-1.891-2.641L21.171,39.2a8.111,8.111,0,0,1,2.316,2.358c1.633,5.116,3.666,5.157,4.9,4.541a1.449,1.449,0,0,0,.708-1.758,36.394,36.394,0,0,1-1.025-5.8c-.458-.991-1.925-2.033-3.558-2.883l5.341.083Z" transform="translate(0 -29.19)"/>
</svg>
