<svg xmlns="http://www.w3.org/2000/svg" viewBox="0 0 40.455 34.021">
  <defs>
    <style>
      .cls-1 {
        fill: #023b41;
      }
    </style>
  </defs>
  <path id="Path_17165" data-name="Path 17165" class="cls-1" d="M9.541,4.144A5,5,0,0,0,8.178,1.418,4.784,4.784,0,0,0,4.8,0,4.84,4.84,0,0,0,0,4.8V29.223a4.819,4.819,0,0,0,4.471,4.8H40.455V4.144ZM8.069,24.971a5.135,5.135,0,0,0-3.6-.927,6.143,6.143,0,0,0-2.617.927V4.58a2.782,2.782,0,0,1,3-2.508A3.241,3.241,0,0,1,7.906,4.144c.109.273.164.436.164.436Zm6-.491H11.34V21.863h2.726Zm0-5.234H11.34V16.629h2.726Zm0-5.289H11.34V11.34h2.726ZM36.311,24.48H16.738V21.863H36.311Zm0-5.234H16.738V16.629H36.311Zm0-5.289H16.738V11.34H36.311Z"/>
</svg>
