<svg id="Group_15866" data-name="Group 15866" xmlns="http://www.w3.org/2000/svg" viewBox="0 0 34.695 38.933">
  <defs>
    <style>
      .cls-1 {
        fill: #023b41;
      }
    </style>
  </defs>
  <path id="Path_17160" data-name="Path 17160" class="cls-1" d="M90.1,79.3l-5.653-8.439V60.346A1.944,1.944,0,0,0,82.512,58.4H81.481V69.345l.137-.1a1.075,1.075,0,0,1,1.488.294l1.345,2.007h0l5.367,7.941a.906.906,0,0,1-.253,1.263l-5.121,3.393h0L76.36,89.562h0l-4.971,3.291a.9.9,0,0,1-1.25-.246l-2.028-3.025h0l-1.9-2.834H59.7v.935a1.949,1.949,0,0,0,1.946,1.946h6.1l.184.28,1.932,2.881a1.254,1.254,0,0,0,1.038.553,1.222,1.222,0,0,0,.69-.212l5.23-3.5h5.694a1.949,1.949,0,0,0,1.946-1.946V84.605l5.312-3.564A1.258,1.258,0,0,0,90.1,79.3Z" transform="translate(-55.624 -54.413)"/>
  <path id="Path_17161" data-name="Path 17161" class="cls-1" d="M146.387,257.459a2.15,2.15,0,0,1-.587,2.977l1.188,1.768.737,1.106,1.932,2.881.328.485a2.15,2.15,0,0,1,2.977.587l1.6-1.072,4.315-2.895,2.5-1.673,3.3-2.212,2.554-1.707a2.156,2.156,0,0,1,.587-2.977l-3.141-4.691-1.038-1.55a2.149,2.149,0,0,1-1.932.232,2.115,2.115,0,0,1-1.045-.819l-.061.041Zm4.472,2.82a1.073,1.073,0,0,1,1.195,1.782,1.185,1.185,0,0,1-.328.15,1.069,1.069,0,0,1-1.161-.444A1.075,1.075,0,0,1,150.859,260.279Zm10.7-7.169a1.537,1.537,0,0,1,.143-.082,1.075,1.075,0,1,1,.007,1.946,1.094,1.094,0,0,1-.437-.376A1.067,1.067,0,0,1,161.559,253.11Zm-.963,6.548a4.237,4.237,0,0,1-1.379,1.516,4.323,4.323,0,1,1,1.161-5.981,4.025,4.025,0,0,1,.218.369A4.333,4.333,0,0,1,160.6,259.658Z" transform="translate(-135.845 -230.974)"/>
  <path id="Path_17162" data-name="Path 17162" class="cls-1" d="M9.846,31.231h0L7.873,28.274a1.075,1.075,0,0,1,.294-1.488L24.751,15.67V1.946A1.949,1.949,0,0,0,22.805,0H8.9V.642c.007.068.014.137.014.2V6.179A2.742,2.742,0,0,1,6.179,8.917H.847A1.427,1.427,0,0,1,.676,8.91H0V29.285a1.949,1.949,0,0,0,1.946,1.946h7.9ZM2.888,11.382H21.255a1.057,1.057,0,0,1,1.154.922,1.057,1.057,0,0,1-1.154.922H2.888A1.057,1.057,0,0,1,1.734,12.3,1.057,1.057,0,0,1,2.888,11.382Zm-.164,4.185H18.5a.924.924,0,1,1,0,1.844H2.724a.924.924,0,1,1,0-1.844Zm-.99,5a.983.983,0,0,1,1.038-.922H13.048a.928.928,0,1,1,0,1.844H2.765A.985.985,0,0,1,1.734,20.566Z"/>
  <path id="Path_17163" data-name="Path 17163" class="cls-1" d="M1.168,8.284H6.514A1.635,1.635,0,0,0,8.132,6.666V1.319A.818.818,0,0,0,7.306.5a.793.793,0,0,0-.574.246L.588,6.891A.816.816,0,0,0,1.168,8.284Z" transform="translate(-0.321 -0.466)"/>
</svg>
