<?xml version="1.0" encoding="utf-8"?>
<!-- Generator: Adobe Illustrator 22.1.0, SVG Export Plug-In . SVG Version: 6.00 Build 0)  -->
<svg version="1.1" id="Layer_1" xmlns="http://www.w3.org/2000/svg" xmlns:xlink="http://www.w3.org/1999/xlink" x="0px" y="0px"
	 viewBox="0 0 48 48" style="enable-background:new 0 0 48 48;" xml:space="preserve">
<style type="text/css">
	.st0{fill:#FBED1F;}
	.st1{fill:#F3DE13;}
	.st2{fill:#FFFFFF;}
</style>
<g>
	<g>
		<g>
			<path class="st0" d="M24,0C16,0,9.4,6.5,9.4,14.6c0,3.2,2.1,8.5,6.3,16.2c3,5.4,6,9.9,6.1,10.1l2.2,3.3l2.2-3.3
				c0.2-0.3,3.2-4.8,6.2-10.2c4.3-7.7,6.3-12.9,6.3-16.2C38.6,6.5,32,0,24,0L24,0z"/>
		</g>
		<path class="st1" d="M26.2,40.9c0.1-0.2,3.1-4.7,6.1-10.1c4.3-7.7,6.3-12.9,6.3-16.2C38.6,6.5,32,0,24,0v44.2L26.2,40.9z"/>
		<path class="st0" d="M30.1,37.1c-0.3,0.5-0.7,1-0.9,1.5c1.6,0.8,2.8,2,2.8,3.3c0,2.4-3.6,4.3-8,4.3s-8-2-8-4.4
			c0-1.3,1-2.5,2.8-3.3c-0.3-0.5-0.6-1-0.9-1.5c-2.2,1.1-3.6,2.8-3.6,4.8c0,3.5,4.3,6.2,9.7,6.2s9.7-2.7,9.7-6.2
			C33.7,39.9,32.3,38.2,30.1,37.1z"/>
	</g>
	<g>
		<g>
			<g>
				<g>
					<path class="st2" d="M23.6,4.4c-3.2,0-5.9,3.8-5.9,8.5s2.6,8.6,5.9,8.6h4.3c3.2,0,5.9-3.8,5.9-8.6s-2.6-8.5-5.9-8.5H23.6
						L23.6,4.4z M27.9,22.2h-4.3c-3.5,0-6.5-4.1-6.5-9.1s2.9-9.1,6.5-9.1h4.3c3.5,0,6.5,4.1,6.5,9.1S31.4,22.2,27.9,22.2L27.9,22.2z
						"/>
					<path class="st2" d="M28.2,4.4c-2.8,0.3-5,4-5,8.5s2.2,8.3,5,8.6c2.6-0.2,4.9-3,5.4-6.8c0.1-0.6,0.2-1.2,0.2-1.7H34h-0.3
						C33.7,8.4,31.3,4.7,28.2,4.4L28.2,4.4z M28.2,22.2L28.2,22.2c-3.2-0.3-5.5-4.3-5.5-9.1s2.4-8.9,5.5-9.1c0,0,0,0,0.1,0
						c3.4,0.3,6,4.3,6.1,9.1v0.1c0,0.6-0.1,1.2-0.2,1.8C33.6,19,31.1,22,28.2,22.2L28.2,22.2L28.2,22.2z"/>
					<path class="st2" d="M28.5,6.9c-1.7,0-3.1,2.9-3.1,6.1s1.4,6.1,3.1,6.1c1.6,0,3.1-2.9,3.1-6.2S30.1,6.9,28.5,6.9L28.5,6.9z
						 M28.5,19.7c-2,0-3.7-3-3.7-6.7s1.6-6.8,3.7-6.8s3.7,3,3.7,6.8S30.5,19.7,28.5,19.7L28.5,19.7z"/>
					<path class="st2" d="M17.8,11.2c-0.1,0-0.1,0-0.2-0.1c-0.2-0.1-0.2-0.3,0-0.4l0.9-0.9c0.1-0.1,0.2-0.1,0.2-0.1l0,0
						c0.1,0,0.1,0,0.2,0.1l0.7,0.7l0.7-0.7c0.1-0.1,0.3-0.1,0.5,0l0.7,0.7L22,9.7c0.2-0.1,0.3-0.1,0.5,0l0.6,0.6
						c0.2,0.1,0.2,0.3,0,0.4c-0.1,0.2-0.3,0.2-0.4,0l-0.4-0.4l-0.7,0.7c-0.1,0.1-0.3,0.1-0.4,0l-0.7-0.7l-0.7,0.7
						c-0.1,0.1-0.3,0.1-0.5,0l-0.7-0.7L18,11.1C18,11.2,17.8,11.2,17.8,11.2L17.8,11.2z"/>
					<path class="st2" d="M18.1,16c-0.1,0-0.2,0-0.2-0.1c-0.1-0.1-0.1-0.3-0.1-0.4l0.6-0.9c0.1-0.1,0.1-0.1,0.2-0.1
						c0.1,0,0.2,0,0.2,0.1l0.7,0.7l0.7-0.7c0.2-0.2,0.3-0.2,0.5,0l0.7,0.7l0.7-0.7c0.1-0.1,0.3-0.2,0.4,0l0.8,0.7
						c0.2,0.1,0.2,0.3,0.1,0.4s-0.3,0.2-0.5,0.1l-0.6-0.5L21.5,16c-0.2,0.1-0.3,0.1-0.5,0l-0.8-0.8l-0.7,0.7c-0.2,0.2-0.3,0.2-0.5,0
						l-0.4-0.5L18.4,16C18.3,16,18.1,16,18.1,16L18.1,16z"/>
					<path class="st2" d="M22,18.5c-0.1,0-0.1,0-0.2-0.1l-0.7-0.7l-0.7,0.7c-0.1,0.1-0.3,0.1-0.5,0l-0.7-0.7L19,18.2
						c-0.1,0.1-0.3,0.1-0.5,0c-0.1-0.2-0.1-0.3,0-0.5l0.6-0.6c0.1-0.1,0.3-0.1,0.5,0l0.7,0.7l0.7-0.7c0.2-0.1,0.3-0.1,0.5,0l0.7,0.7
						l0.4-0.6c0.1-0.1,0.2-0.1,0.4-0.1l1.2,0.6c0.1,0.1,0.2,0.2,0.1,0.4c-0.1,0.1-0.2,0.2-0.4,0.1l-1-0.5l-0.5,0.7
						C22.3,18.5,22.2,18.5,22,18.5C22.1,18.5,22,18.5,22,18.5L22,18.5z"/>
					<path class="st2" d="M20.2,20.7c-0.1,0-0.2-0.1-0.2-0.2c-0.1-0.1-0.1-0.3,0.1-0.5l0.9-0.6c0.1-0.1,0.2-0.1,0.3,0L22,20l0.8-0.5
						c0.1-0.1,0.2-0.1,0.3,0l0.8,0.5l0.8-0.5c0.2-0.1,0.3-0.1,0.4,0.1c0.1,0.1,0.1,0.3-0.1,0.5l-1,0.6c-0.1,0.1-0.2,0.1-0.3,0
						L23,20.1l-0.8,0.5c-0.1,0.1-0.2,0.1-0.3,0l-0.8-0.5l-0.8,0.5C20.3,20.6,20.3,20.7,20.2,20.7L20.2,20.7z"/>
					<g>
						<path class="st2" d="M23.6,8.7c0,0-0.1,0-0.2,0l-1-0.5l-0.8,0.5c-0.1,0.1-0.2,0.1-0.3,0l-0.8-0.5l-0.8,0.5
							c-0.1,0.1-0.2,0.1-0.3,0l-0.9-0.6c-0.1-0.1-0.1-0.3-0.1-0.5c-0.1-0.1,0.2-0.2,0.3-0.1L19.6,8l0.8-0.5c0.1-0.1,0.2-0.1,0.3,0
							L21.4,8l0.8-0.5c0.1-0.1,0.2-0.1,0.3,0l1.2,0.6c0.1,0.1,0.2,0.2,0.1,0.4C23.8,8.7,23.7,8.7,23.6,8.7L23.6,8.7z"/>
						<path class="st2" d="M22.9,13.7c-0.1,0-0.2,0-0.2,0l-1.3-0.8l-0.8,0.8c-0.2,0.1-0.3,0.1-0.5,0l-0.8-0.7l-0.6,0.6
							c-0.1,0.1-0.2,0.2-0.4,0.1l-1.2-0.7c-0.2-0.1-0.2-0.2-0.2-0.4c0.1-0.2,0.2-0.2,0.4-0.2l1,0.6l0.8-0.8c0.1-0.2,0.3-0.2,0.4,0
							l0.7,0.7l0.7-0.7c0.1-0.1,0.2-0.2,0.4-0.1l1.5,0.9c0.1,0.1,0.1,0.3,0.1,0.5C23.2,13.6,23.1,13.7,22.9,13.7L22.9,13.7z"/>
					</g>
					<path class="st2" d="M19.6,6.6c-0.1,0-0.2-0.1-0.3-0.2c-0.1-0.2,0-0.4,0.1-0.4l2.2-0.6c0.1,0,0.2,0,0.3,0.1L22.7,6l0.8-0.5
						c0.1-0.1,0.2-0.1,0.3,0L25,6c0.2,0.1,0.2,0.2,0.2,0.4s-0.2,0.2-0.4,0.1L23.6,6l-0.8,0.5c-0.1,0.1-0.2,0.1-0.3,0L21.7,6
						L19.6,6.6C19.6,6.6,19.6,6.6,19.6,6.6L19.6,6.6z"/>
				</g>
			</g>
			<ellipse class="st2" cx="28.6" cy="13.1" rx="1.3" ry="2"/>
		</g>
		<path class="st2" d="M29.1,14c0,0-2.6,10.9-2.8,12.1c-0.2,1.2-1.1,1.5-2.1,1.4c-1,0-1.9-0.4-2,0.2c-0.2,0.7-0.2,1.1-0.3,1.6
			c-0.1,0.5-0.8,0.2-2.5,0c-1.7-0.2-2-0.4-1.9-1.2c0.2-0.8,0.6-1.8-0.5-2.2c-1.1-0.4-2-0.8-1.7-2.5c0.4-1.6,2.3-7.6,2.3-7.6l1,2.5
			c0,0-0.3,1.6-0.6,2.7s-0.1,2.6,1.5,3c1.6,0.4,3.5,0.3,3.9,0.3c0.5,0,1.1-0.8,1.2-1.6s3.1-9.4,3.1-9.4L29.1,14z"/>
		<ellipse class="st2" cx="28.6" cy="13.1" rx="1.8" ry="2.8"/>
	</g>
</g>
</svg>
