<?xml version="1.0" encoding="utf-8"?>
<!-- Generator: Adobe Illustrator 22.1.0, SVG Export Plug-In . SVG Version: 6.00 Build 0)  -->
<svg version="1.1" id="Layer_1" xmlns="http://www.w3.org/2000/svg" xmlns:xlink="http://www.w3.org/1999/xlink" x="0px" y="0px"
	 viewBox="0 0 48 48" style="enable-background:new 0 0 48 48;" xml:space="preserve">
<style type="text/css">
	.st0{fill:#33404A;}
	.st1{fill:#DB1F31;}
	.st2{fill:#EE4351;}
	.st3{fill:#FFFFFF;}
</style>
<g>
	<g id="XMLID_181_">
		<path id="XMLID_207_" class="st0" d="M15.6,43.1h-0.7c-0.2,0-0.4-0.2-0.4-0.4v-5.5c0-0.2,0.2-0.4,0.4-0.4h0.7
			c0.2,0,0.4,0.2,0.4,0.4v5.5C16,43,15.8,43.1,15.6,43.1z"/>
		<path id="XMLID_206_" class="st0" d="M33.1,43.1h-0.7c-0.2,0-0.4-0.2-0.4-0.4v-5.5c0-0.2,0.2-0.4,0.4-0.4h0.7
			c0.2,0,0.4,0.2,0.4,0.4v5.5C33.5,43,33.4,43.1,33.1,43.1z"/>
		<g id="XMLID_182_">
			<g id="XMLID_203_">
				<path id="XMLID_205_" class="st0" d="M15.6,13h-0.7c-0.2,0-0.4-0.1-0.4-0.4V7.2c0-0.2,0.2-0.4,0.4-0.4h0.7C15.8,6.8,16,7,16,7.2
					v5.5C16,12.9,15.8,13,15.6,13z"/>
				<path id="XMLID_204_" class="st0" d="M33.1,13h-0.7c-0.2,0-0.4-0.1-0.4-0.4V7.2c0-0.2,0.2-0.4,0.4-0.4h0.7
					c0.2,0,0.4,0.2,0.4,0.4v5.5C33.5,12.9,33.4,13,33.1,13z"/>
			</g>
			<path id="XMLID_201_" class="st0" d="M23.9,48c-6.2,0-8-1.2-8.3-1.4l-0.5-0.4V12.5c0-0.6-0.1-0.8-0.1-1c-0.1-0.3-0.2-0.6-0.2-1.3
				c-0.2,0-0.3,0.1-0.5,0.1c-0.5,0-0.8-0.3-0.8-0.4c-0.2-0.2-0.2-0.5,0.1-1.1c0.3-0.5,0.8-0.8,1.1-1c0-0.4,0-0.8,0-1.3
				c0-1.2,0.3-2.9,1.3-3.9c1.6-1.7,4-2.3,5.9-2.5L22.5,0l1.8,0c1.5,0,5.3,0.3,7.4,2.6c1,1,1.2,2.7,1.3,3.9c0,0.5,0,0.9,0,1.3
				c0.4,0.1,1,0.4,1.3,1c0.3,0.4,0.2,0.8,0.1,1c-0.1,0.1-0.3,0.5-0.8,0.5c-0.2,0-0.4-0.1-0.6-0.1c-0.1,0.8-0.2,1.1-0.2,1.4
				c-0.1,0.2-0.1,0.4-0.1,1v33.7l-0.5,0.4C31.9,46.8,30.1,48,23.9,48z"/>
			<g id="XMLID_187_">
				<g id="XMLID_189_">
					<g id="XMLID_199_">
						<path id="XMLID_200_" class="st1" d="M15.8,8.4c0,0-1,0.1-1.3,0.8c-0.4,0.7,0.7,0.1,1.6,0C16.9,9.2,15.8,8.4,15.8,8.4z"/>
					</g>
					<g id="XMLID_197_">
						<path id="XMLID_198_" class="st1" d="M24,6.6c0,0-3.8-0.2-7.6,1.5l2,3.4c0,0,2.3-0.7,5.6-0.7s5.6,0.7,5.6,0.7l2-3.4
							C27.7,6.5,24,6.6,24,6.6z"/>
					</g>
					<rect id="XMLID_196_" x="16.4" y="15" class="st1" width="15.2" height="1.2"/>
					<g id="XMLID_195_">
						<path class="st1" d="M32.3,8.4c0,0,1,0.1,1.3,0.8c0.4,0.7-0.7,0.1-1.6,0C31.3,9.2,32.3,8.4,32.3,8.4z"/>
					</g>
					<g id="XMLID_193_">
						<polyline id="XMLID_194_" class="st1" points="16.3,9.1 18.3,12.2 18.3,16.2 16.4,17.4 16.4,9.1 						"/>
					</g>
					<g id="XMLID_192_">
						<polyline class="st1" points="31.6,9.1 29.7,12.2 29.7,16.2 31.6,17.4 31.6,9.1 						"/>
					</g>
					<g id="XMLID_190_">
						<path id="XMLID_191_" class="st1" d="M20.3,1.7v2c0,0-2.1-0.1-4.2,2c0,0,0.2-0.8,0.5-1.5c0.2-0.7,0.7-1.1,0.8-1.2
							c0-0.1,2-1,2-1L20.3,1.7z"/>
					</g>
				</g>
				<g id="XMLID_188_">
					<path class="st1" d="M27.7,1.7v2c0,0,2.1-0.1,4.2,2c0,0-0.1-0.8-0.4-1.5c-0.2-0.7-0.7-1.1-0.8-1.2c0-0.1-2-1-2-1L27.7,1.7z"/>
				</g>
			</g>
			<path id="XMLID_186_" class="st1" d="M32.2,6.5c0-1-0.2-2.5-1.1-3.4c-1.9-2.1-5.6-2.3-6.8-2.3l0,0h-1l0,0c-1.4,0-4.8,0.3-6.7,2.3
				c-0.8,0.9-1,2.4-1,3.4c-0.1,3.6,0.1,4.3,0.2,4.9c0.1,0.3,0.1,0.5,0.1,1.2v33.3l0.2,0.2c0,0,0.2,0.1,0.6,0.3v-0.8v-1.6V12.5
				c0-0.8-0.1-1.1-0.1-1.4c-0.2-0.5-0.3-1.1-0.2-4.6c0.1-1.4,0.4-2.4,0.8-2.9c2-2.2,6.6-2.1,6.6-2.1l0,0l0,0l0,0c0,0,0,0,0.1,0h0.2
				l0,0c0.9,0,4.6,0.2,6.5,2.1c0.4,0.6,0.8,1.6,0.8,2.9c0.1,3.5-0.1,4.1-0.1,4.6c-0.1,0.3-0.2,0.6-0.2,1.4v31.3v1.6v0.8
				c0.4-0.2,0.6-0.3,0.6-0.3l0.1-0.2V12.5c0-0.7,0.1-0.9,0.1-1.2C32.2,10.8,32.4,10.2,32.2,6.5z"/>
			<g id="XMLID_183_">
				<path id="XMLID_185_" class="st2" d="M21.8,10.6c0.7-0.1,1.3-0.1,1.3-0.1L22.9,7c-0.4,0-1,0.1-1.3,0.1L21.8,10.6z"/>
				<path id="XMLID_184_" class="st2" d="M20.7,7.2c-0.9,0.2-1.5,0.3-1.5,0.3l1,3.2c0.4-0.1,0.8-0.1,1.2-0.1L20.7,7.2z"/>
			</g>
		</g>
	</g>
	<g id="XMLID_178_">
		<path id="XMLID_180_" class="st0" d="M15.6,34.8h-0.7c-0.2,0-0.4-0.2-0.4-0.4V29c0-0.2,0.2-0.4,0.4-0.4h0.7c0.2,0,0.4,0.2,0.4,0.4
			v5.5C16,34.6,15.8,34.8,15.6,34.8z"/>
		<path id="XMLID_179_" class="st0" d="M33.1,34.8h-0.7c-0.2,0-0.4-0.2-0.4-0.4V29c0-0.2,0.2-0.4,0.4-0.4h0.7c0.2,0,0.4,0.2,0.4,0.4
			v5.5C33.5,34.6,33.4,34.8,33.1,34.8z"/>
	</g>
	<g id="XMLID_165_">
		<g id="XMLID_176_">
			<rect id="XMLID_177_" x="18.7" y="20.8" class="st1" width="0.2" height="24.4"/>
		</g>
		<g id="XMLID_174_">
			<rect id="XMLID_175_" x="20.8" y="20.8" class="st1" width="0.2" height="24.4"/>
		</g>
		<g id="XMLID_172_">
			<rect id="XMLID_173_" x="22.9" y="20.8" class="st1" width="0.2" height="24.4"/>
		</g>
		<g id="XMLID_170_">
			<rect id="XMLID_171_" x="25" y="20.8" class="st1" width="0.2" height="24.4"/>
		</g>
		<g id="XMLID_168_">
			<rect id="XMLID_169_" x="27.1" y="20.8" class="st1" width="0.2" height="24.4"/>
		</g>
		<g id="XMLID_166_">
			<rect id="XMLID_167_" x="29.2" y="20.8" class="st1" width="0.2" height="24.4"/>
		</g>
	</g>
	<g>
		<polygon id="XMLID_164_" class="st3" points="19,41.6 24,36.9 29,41.6 		"/>
		<polygon id="XMLID_163_" class="st3" points="24,35.7 27.8,39.3 29,39.3 24,34.5 19,39.3 20.2,39.3 		"/>
		<polygon id="XMLID_162_" class="st3" points="24,33.1 27.8,36.7 29,36.7 24,31.9 19,36.7 20.2,36.7 		"/>
		<polygon id="XMLID_161_" class="st3" points="24,30.5 27.8,34.1 29,34.1 24,29.3 19,34.1 20.2,34.1 		"/>
		<polygon id="XMLID_160_" class="st3" points="24,27.9 27.8,31.5 29,31.5 24,26.7 19,31.5 20.2,31.5 		"/>
		<polygon id="XMLID_159_" class="st3" points="24,25.3 27.8,28.9 29,28.9 24,24.1 19,28.9 20.2,28.9 		"/>
		<polygon id="XMLID_158_" class="st3" points="24,22.7 27.8,26.3 29,26.3 24,21.5 19,26.3 20.2,26.3 		"/>
		<polygon id="XMLID_157_" class="st3" points="24,20.3 27.8,23.9 29,23.9 24,19.1 19,23.9 20.2,23.9 		"/>
	</g>
</g>
</svg>
