<?xml version="1.0" encoding="utf-8"?>
<!-- Generator: Adobe Illustrator 22.1.0, SVG Export Plug-In . SVG Version: 6.00 Build 0)  -->
<svg version="1.1" id="Layer_1" xmlns="http://www.w3.org/2000/svg" xmlns:xlink="http://www.w3.org/1999/xlink" x="0px" y="0px"
	 viewBox="0 0 48 48" style="enable-background:new 0 0 48 48;" xml:space="preserve">
<style type="text/css">
	.st0{fill:#EE4351;}
	.st1{fill:#DB1F31;}
	.st2{fill:#FFFFFF;}
</style>
<g>
	<g>
		<g>
			<path class="st0" d="M24,0C16,0,9.4,6.5,9.4,14.6c0,3.2,2.1,8.5,6.3,16.2c3,5.4,6,9.9,6.1,10.1l2.2,3.3l2.2-3.3
				c0.2-0.3,3.2-4.8,6.2-10.2c4.3-7.7,6.3-12.9,6.3-16.2C38.6,6.5,32,0,24,0L24,0z"/>
		</g>
		<path class="st1" d="M26.2,40.9c0.1-0.2,3.1-4.7,6.1-10.1c4.3-7.7,6.3-12.9,6.3-16.2C38.6,6.5,32,0,24,0v44.2L26.2,40.9z"/>
		<path class="st0" d="M30.1,37.1c-0.3,0.5-0.7,1-0.9,1.5c1.6,0.8,2.8,2,2.8,3.3c0,2.4-3.6,4.3-8,4.3s-8-2-8-4.4
			c0-1.3,1-2.5,2.8-3.3c-0.3-0.5-0.6-1-0.9-1.5c-2.2,1.1-3.6,2.8-3.6,4.8c0,3.5,4.3,6.2,9.7,6.2s9.7-2.7,9.7-6.2
			C33.7,39.9,32.3,38.2,30.1,37.1z"/>
	</g>
	<g>
		<g>
			<g>
				<g>
					<path class="st2" d="M21.6,6.1c-3.7,0-6.6,4.3-6.6,9.7s2.9,9.8,6.6,9.8h4.9c3.7,0,6.6-4.3,6.6-9.7s-3-9.8-6.7-9.8H21.6
						L21.6,6.1z M26.4,26.2h-4.9c-4,0-7.3-4.6-7.3-10.4s3.2-10.4,7.3-10.4h4.9c4.1,0,7.3,4.6,7.3,10.4S30.4,26.2,26.4,26.2
						L26.4,26.2z"/>
					<path class="st2" d="M26.8,6.1c-3.1,0.3-5.5,4.6-5.5,9.7s2.4,9.4,5.5,9.7c3-0.2,5.5-3.5,6.1-7.7c0.1-0.7,0.2-1.3,0.2-1.9h0.4
						H33C33,10.6,30.3,6.4,26.8,6.1L26.8,6.1z M26.8,26.2L26.8,26.2c-3.5-0.3-6.3-4.9-6.3-10.4c0-5.5,2.7-10.1,6.2-10.4
						c0,0,0,0,0.1,0c3.8,0.3,6.8,4.9,6.8,10.3v0.1c0,0.7-0.1,1.3-0.2,2C32.9,22.5,30.1,25.9,26.8,26.2L26.8,26.2L26.8,26.2z"/>
					<path class="st2" d="M27.1,8.9c-1.9,0-3.4,3.1-3.4,6.9s1.6,6.9,3.4,6.9s3.4-3.2,3.4-6.9S29,8.9,27.1,8.9L27.1,8.9z M27.1,23.4
						c-2.3,0-4.1-3.4-4.1-7.7s1.8-7.6,4.1-7.6s4.1,3.4,4.1,7.6S29.5,23.4,27.1,23.4L27.1,23.4z"/>
					<path class="st2" d="M15,13.7c-0.1,0-0.2,0-0.2-0.1c-0.2-0.2-0.2-0.4,0-0.5l1-1c0.1-0.1,0.2-0.1,0.2-0.1l0,0
						c0.1,0,0.2,0,0.2,0.1L17,13l0.8-0.8c0.2-0.2,0.4-0.2,0.5,0l0.8,0.8l0.8-0.8c0.1-0.2,0.4-0.2,0.4,0l0.7,0.7
						c0.1,0.2,0.1,0.4,0,0.5c-0.2,0.1-0.4,0.1-0.5,0l-0.5-0.5l-0.8,0.8c-0.1,0.1-0.4,0.1-0.4,0l-0.8-0.8l-0.8,0.8
						c-0.1,0.1-0.4,0.1-0.5,0L16,12.8l-0.8,0.8C15.2,13.7,15.1,13.7,15,13.7L15,13.7z"/>
					<path class="st2" d="M15.4,19.3c-0.1,0-0.2,0-0.2-0.1c-0.2-0.1-0.2-0.3-0.1-0.5l0.7-1c0.1-0.1,0.2-0.2,0.3-0.2
						c0.1,0,0.2,0,0.3,0.1l0.8,0.8l0.8-0.8c0.1-0.2,0.4-0.2,0.5,0l0.8,0.8l0.8-0.8c0.1-0.1,0.3-0.2,0.5,0l0.9,0.8
						c0.2,0.1,0.2,0.3,0.1,0.5c-0.1,0.1-0.3,0.2-0.5,0.1l-0.8-0.5l-0.8,0.8c-0.1,0.1-0.4,0.1-0.5,0l-0.8-0.8l-0.8,0.8
						c-0.2,0.1-0.4,0.1-0.5,0l-0.8-0.8l-0.4,0.7C15.5,19.2,15.4,19.3,15.4,19.3L15.4,19.3z"/>
					<path class="st2" d="M19.9,22c-0.1,0-0.2,0-0.2-0.1l-0.8-0.8L18,21.9c-0.2,0.1-0.4,0.1-0.5,0l-0.8-0.8l-0.4,0.5
						c-0.2,0.1-0.4,0.1-0.5,0c-0.2-0.2-0.2-0.4,0-0.5l0.7-0.7c0.2-0.2,0.4-0.2,0.5,0l0.8,0.8l0.8-0.8c0.2-0.2,0.4-0.2,0.5,0l0.8,0.8
						l0.5-0.7c0.1-0.1,0.3-0.2,0.5-0.1l1.3,0.7c0.2,0.1,0.2,0.3,0.2,0.5c-0.1,0.1-0.3,0.2-0.5,0.1l-1.1-0.5L20.1,22
						C20.1,22,19.9,22,19.9,22L19.9,22L19.9,22z"/>
					<path class="st2" d="M17.8,24.4c-0.1,0-0.2-0.1-0.3-0.1c-0.1-0.2-0.1-0.4,0.1-0.5l1-0.7c0.1-0.1,0.3-0.1,0.4,0l0.8,0.5l0.8-0.5
						c0.1-0.1,0.3-0.1,0.4,0l0.8,0.5l0.8-0.5c0.2-0.1,0.4-0.1,0.5,0.1c0.1,0.2,0.1,0.4-0.1,0.5l-1,0.7c-0.1,0.1-0.3,0.1-0.4,0
						l-0.8-0.6l-0.8,0.5c-0.1,0.1-0.3,0.1-0.4,0l-0.9-0.5L18,24.4C17.9,24.4,17.8,24.4,17.8,24.4L17.8,24.4z"/>
					<g>
						<path class="st2" d="M21.6,11c0,0-0.1,0-0.1,0l-1.2-0.6L19.3,11C19.3,11,19,11,19,11l-0.9-0.6l-0.8,0.5
							c-0.1,0.1-0.3,0.1-0.4,0l-1.1-0.7c-0.2-0.1-0.2-0.3-0.1-0.5c0.1-0.1,0.3-0.2,0.5-0.1l0.8,0.6l0.8-0.5c0.1-0.1,0.3-0.1,0.4,0
							l0.8,0.5l0.8-0.5c0.1-0.1,0.2-0.1,0.4,0l1.3,0.7c0.2,0.1,0.2,0.3,0.2,0.5C21.8,10.9,21.7,11,21.6,11L21.6,11z"/>
						<path class="st2" d="M20.8,16.5c-0.1,0-0.1,0-0.1,0l-1.5-0.9l-0.8,0.8c-0.1,0.2-0.4,0.2-0.5,0l-0.8-0.8l-0.8,0.8
							c-0.1,0.1-0.3,0.2-0.5,0.1l-1.3-0.8c-0.2-0.1-0.2-0.3-0.2-0.5c0.1-0.1,0.3-0.2,0.5-0.1l1.1,0.7l0.9-0.9c0.2-0.2,0.4-0.2,0.5,0
							l0.8,0.8l0.8-0.8c0.1-0.1,0.3-0.2,0.4-0.1l1.7,1c0.1,0.1,0.2,0.3,0.1,0.5C21.1,16.4,21,16.5,20.8,16.5L20.8,16.5z"/>
					</g>
					<path class="st2" d="M17.1,8.5c-0.1,0-0.3-0.1-0.4-0.2c0-0.2,0.1-0.4,0.2-0.5l2.4-0.7c0.1,0,0.2,0,0.3,0.1l0.8,0.5l0.8-0.5
						c0.1-0.1,0.2-0.1,0.4,0L23,7.9c0.1,0.1,0.2,0.3,0.1,0.4c-0.1,0.1-0.3,0.2-0.5,0.1l-1.2-0.6l-0.9,0.6c-0.1,0.1-0.3,0.1-0.4,0
						l-0.9-0.6L17.1,8.5C17.2,8.5,17.1,8.5,17.1,8.5L17.1,8.5z"/>
				</g>
			</g>
			<ellipse class="st2" cx="27.3" cy="15.8" rx="1.5" ry="2.3"/>
		</g>
	</g>
</g>
</svg>
