<?xml version="1.0" encoding="utf-8"?>
<!-- Generator: Adobe Illustrator 22.1.0, SVG Export Plug-In . SVG Version: 6.00 Build 0)  -->
<svg version="1.1" id="Layer_1" xmlns="http://www.w3.org/2000/svg" xmlns:xlink="http://www.w3.org/1999/xlink" x="0px" y="0px"
	 viewBox="0 0 48 48" style="enable-background:new 0 0 48 48;" xml:space="preserve">
<style type="text/css">
	.st0{fill:#b7c465;}
	.st1{fill:#818d36;}
	.st2{fill:#545c23;}
</style>
<g>
	<g>
		<g>
			<path class="st0" d="M24,0C16,0,9.4,6.5,9.4,14.6c0,3.2,2.1,8.5,6.3,16.2c3,5.4,6,9.9,6.1,10.1l2.2,3.3l2.2-3.3
				c0.2-0.3,3.2-4.8,6.2-10.2c4.3-7.7,6.3-12.9,6.3-16.2C38.6,6.5,32,0,24,0L24,0z"/>
		</g>
		<path class="st1" d="M26.2,40.9c0.1-0.2,3.1-4.7,6.1-10.1c4.3-7.7,6.3-12.9,6.3-16.2C38.6,6.5,32,0,24,0v44.2L26.2,40.9z"/>
		<path class="st0" d="M30.1,37.1c-0.3,0.5-0.7,1-0.9,1.5c1.6,0.8,2.8,2,2.8,3.3c0,2.4-3.6,4.3-8,4.3s-8-2-8-4.4
			c0-1.3,1-2.5,2.8-3.3c-0.3-0.5-0.6-1-0.9-1.5c-2.2,1.1-3.6,2.8-3.6,4.8c0,3.5,4.3,6.2,9.7,6.2s9.7-2.7,9.7-6.2
			C33.7,39.9,32.3,38.2,30.1,37.1z"/>
	</g>

</g>
</svg>
