<?xml version="1.0" encoding="utf-8"?>
<!-- Generator: Adobe Illustrator 22.1.0, SVG Export Plug-In . SVG Version: 6.00 Build 0)  -->
<svg version="1.1" id="Layer_1" xmlns="http://www.w3.org/2000/svg" xmlns:xlink="http://www.w3.org/1999/xlink" x="0px" y="0px"
	 viewBox="0 0 64 64" style="enable-background:new 0 0 64 64;" xml:space="preserve">
<style type="text/css">
	.st0{fill:#2F414B;}
	.st1{fill:#1B303B;}
	.st2{fill-rule:evenodd;clip-rule:evenodd;fill:#FFFFFF;}
</style>
<g>
	<g>
		<path class="st0" d="M32,0C21.3,0,12.5,8.7,12.5,19.5c0,4.3,2.8,11.4,8.4,21.6c4,7.2,8,13.2,8.1,13.5l2.9,4.4l2.9-4.4
			C35.1,54.2,39,48.2,43,41c5.7-10.2,8.4-17.2,8.4-21.6C51.5,8.7,42.7,0,32,0L32,0z"/>
	</g>
	<path class="st1" d="M34.9,54.5C35.1,54.2,39,48.2,43,41c5.7-10.2,8.4-17.2,8.4-21.6C51.5,8.7,42.7,0,32,0v58.9L34.9,54.5z"/>
	<path class="st1" d="M40.2,49.4c-0.4,0.7-0.9,1.4-1.2,2c2.2,1.1,3.7,2.7,3.7,4.4c0,3.2-4.8,5.8-10.6,5.8S21.4,59,21.4,55.8
		c0-1.7,1.4-3.3,3.7-4.4c-0.4-0.6-0.8-1.3-1.2-2c-2.9,1.5-4.8,3.8-4.8,6.4c0,4.6,5.7,8.2,12.9,8.2s12.9-3.6,12.9-8.2
		C44.9,53.2,43.1,50.9,40.2,49.4z"/>
	<path id="XMLID_46_" class="st2" d="M31,9.6c0.2-0.2,0.4-0.5,0.6-0.7c0.2,0.3,0.4,0.5,0.6,0.8c0,0-0.1,0.1-0.1,0.1
		c0.1,0,0.2,0,0.2,0c0.6,0,0.7,0.1,0.7,0.9c0,2.1,0,4.2,0,6.3c0,0.7,0,1.4,0,2.1c0.1,0,0.1,0.1,0.2,0.1c0.9,0.1,0.9,0.1,0.9-0.9
		c0-0.7,0-1.5,0-2.4c1.1,0.4,1.6-0.5,2.2-1.2c2-2.2,3.9-4.5,5.9-6.7c0.2-0.2,0.4-0.5,0.6-0.5c0.3,0,0.7,0.1,0.9,0.3
		C44,8,44,8.4,44,8.8c0,0.2-0.2,0.4-0.4,0.6c-2.1,2.4-4.2,4.8-6.4,7.2c-0.4,0.4-0.6,0.9-0.5,1.5c0,0.4,0,0.7,0,1.1
		c0.2,0,0.3,0,0.4,0c2,0,4,0,6,0c0.3,0,0.5-0.1,0.5-0.5c0-0.4,0-0.7,0.5-0.7c0.4,0,0.5,0.4,0.5,0.7c0,0.1,0,0.3,0,0.4
		c0.1,0,0.2,0.1,0.3,0.1c0.8-0.2,1.3,0.3,1.8,0.9c0.5,0.7,1.1,1.3,1.6,2c0.1,0.1,0.2,0.4,0.2,0.6c-0.1,0.1-0.3,0.3-0.5,0.3
		c-0.6,0-1.2,0-1.8,0c-0.3,0-0.4,0.1-0.5,0.5c-0.3,1.7-1.3,2.7-2.8,2.9c-1.7,0.2-3.1-1-3.5-2.8c-0.1-0.4-0.2-0.5-0.6-0.5
		c-4.8,0-9.5,0-14.3,0c-0.3,0-0.5,0.1-0.6,0.5c-0.3,1.7-1.5,2.9-3.1,2.9c-1.6,0-2.7-1.2-3.1-2.9c-0.1-0.4-0.2-0.6-0.6-0.5
		c-0.3,0-0.5,0-0.8,0c-0.4,0-0.6-0.2-0.6-0.7c0-0.9,0-1.9,0-2.8c0-0.5,0.2-0.7,0.6-0.7c0.4,0,0.5-0.2,0.6-0.5
		c0.4-1.8,1.5-2.7,3.1-2.8c0.7,0,1.4,0,2.1,0c0.4,0,0.7-0.1,0.9-0.5c1.2-1.6,2.5-3.1,3.7-4.7c0.3-0.4,0.6-0.5,1-0.5
		c1.2,0,2.4,0,3.5,0C31.1,9.7,31,9.7,31,9.6z M25.8,14.9c0,0,0.1,0.1,0.1,0.1c1.7,0,3.4,0,5.1,0c0.1,0,0.3-0.2,0.3-0.4
		c0-0.9,0-1.9,0-2.8c0-0.3-0.1-0.4-0.4-0.4c-0.4,0-0.9,0.1-1.3,0c-0.9-0.1-1.4,0.2-1.9,1C27.1,13.3,26.4,14.1,25.8,14.9z M22.4,22.7
		c0-1-0.8-1.9-1.7-1.9c-0.9,0-1.7,0.9-1.7,1.9c0,1.1,0.8,1.9,1.7,1.9C21.7,24.5,22.4,23.7,22.4,22.7z M40.8,22.7
		c0,1.1,0.7,1.9,1.6,1.9c0.9,0,1.7-0.8,1.7-1.8c0-1-0.8-1.9-1.7-1.9C41.5,20.8,40.8,21.6,40.8,22.7z"/>
</g>
</svg>
