<?xml version="1.0" encoding="utf-8"?>
<!-- Generator: Adobe Illustrator 22.1.0, SVG Export Plug-In . SVG Version: 6.00 Build 0)  -->
<svg version="1.1" id="Layer_1" xmlns="http://www.w3.org/2000/svg" xmlns:xlink="http://www.w3.org/1999/xlink" x="0px" y="0px"
	 viewBox="0 0 48 48" style="enable-background:new 0 0 48 48;" xml:space="preserve">
<style type="text/css">
	.st0{fill:#EE4351;}
	.st1{fill:#DB1F31;}
	.st2{fill:#FFFFFF;}
</style>
<g>
	<g>
		<path class="st0" d="M24,0C16,0,9.4,6.5,9.4,14.6c0,3.2,2.1,8.5,6.3,16.2c3,5.4,6,9.9,6.1,10.1l2.2,3.3l2.2-3.3
			c0.2-0.3,3.2-4.8,6.2-10.2c4.3-7.7,6.3-12.9,6.3-16.2C38.6,6.5,32,0,24,0L24,0z"/>
	</g>
	<path class="st1" d="M26.2,40.9c0.1-0.2,3.1-4.7,6.1-10.1c4.3-7.7,6.3-12.9,6.3-16.2C38.6,6.5,32,0,24,0v44.2L26.2,40.9z"/>
	<path class="st0" d="M30.1,37.1c-0.3,0.5-0.7,1-0.9,1.5c1.6,0.8,2.8,2,2.8,3.3c0,2.4-3.6,4.3-8,4.3s-8-2-8-4.4c0-1.3,1-2.5,2.8-3.3
		c-0.3-0.5-0.6-1-0.9-1.5c-2.2,1.1-3.6,2.8-3.6,4.8c0,3.5,4.3,6.2,9.7,6.2s9.7-2.7,9.7-6.2C33.7,39.9,32.3,38.2,30.1,37.1z"/>
	<path id="XMLID_91_" class="st2" d="M23.2,7.2c0.1-0.2,0.3-0.4,0.5-0.5c0.1,0.2,0.3,0.4,0.4,0.6l-0.1,0.1c0.1,0,0.2,0,0.2,0
		c0.4,0,0.5,0.1,0.5,0.7c0,1.6,0,3.1,0,4.7c0,0.5,0,1,0,1.6c0.1,0,0.1,0.1,0.2,0.1c0.7,0.1,0.7,0.1,0.7-0.7c0-0.5,0-1.1,0-1.8
		c0.8,0.3,1.2-0.4,1.6-0.9c1.5-1.6,2.9-3.4,4.4-5c0.2-0.2,0.3-0.4,0.5-0.4c0.2,0,0.5,0.1,0.7,0.2C33,6,33,6.3,33,6.6
		c0,0.1-0.2,0.3-0.3,0.4c-1.6,1.8-3.1,3.6-4.8,5.4c-0.3,0.3-0.4,0.7-0.4,1.1c0,0.3,0,0.5,0,0.8c0.1,0,0.2,0,0.3,0c1.5,0,3,0,4.5,0
		c0.2,0,0.4-0.1,0.4-0.4s0-0.5,0.4-0.5c0.3,0,0.4,0.3,0.4,0.5c0,0.1,0,0.2,0,0.3c0.1,0,0.2,0.1,0.2,0.1c0.6-0.2,1,0.2,1.3,0.7
		c0.4,0.5,0.8,1,1.2,1.5c0.1,0.1,0.2,0.3,0.2,0.5c-0.1,0.1-0.2,0.2-0.4,0.2c-0.4,0-0.9,0-1.3,0c-0.2,0-0.3,0.1-0.4,0.4
		c-0.2,1.3-1,2-2.1,2.2c-1.3,0.2-2.3-0.8-2.6-2.1c-0.1-0.3-0.1-0.4-0.4-0.4c-3.6,0-7.1,0-10.7,0c-0.2,0-0.4,0.1-0.5,0.4
		c-0.2,1.3-1.1,2.2-2.3,2.2s-2-0.9-2.3-2.2c-0.1-0.3-0.2-0.5-0.4-0.4c-0.2,0-0.4,0-0.6,0c-0.3,0-0.5-0.2-0.5-0.5c0-0.7,0-1.4,0-2.1
		c0-0.4,0.1-0.5,0.5-0.5c0.3,0,0.4-0.1,0.4-0.4c0.3-1.3,1.1-2,2.3-2.1c0.5,0,1,0,1.6,0c0.3,0,0.5-0.1,0.7-0.4
		c0.9-1.2,1.9-2.3,2.8-3.5c0.2-0.3,0.5-0.4,0.8-0.4c0.9,0,1.8,0,2.6,0C23.3,7.3,23.2,7.3,23.2,7.2z M19.3,11.2L19.3,11.2
		c1.4,0.1,2.6,0.1,3.9,0.1c0.1,0,0.2-0.1,0.2-0.3c0-0.7,0-1.4,0-2.1c0-0.2-0.1-0.3-0.3-0.3c-0.3,0-0.7,0.1-1,0
		c-0.7-0.1-1.1,0.2-1.4,0.8C20.3,10,19.8,10.6,19.3,11.2z M16.8,17c0-0.8-0.6-1.4-1.3-1.4c-0.7,0-1.3,0.7-1.3,1.4
		c0,0.8,0.6,1.4,1.3,1.4C16.3,18.4,16.8,17.8,16.8,17z M30.6,17c0,0.8,0.5,1.4,1.2,1.4c0.7,0,1.3-0.6,1.3-1.4s-0.6-1.4-1.3-1.4
		C31.1,15.6,30.6,16.2,30.6,17z"/>
</g>
</svg>
