<?xml version="1.0" encoding="utf-8"?>
<!-- Generator: Adobe Illustrator 22.1.0, SVG Export Plug-In . SVG Version: 6.00 Build 0)  -->
<svg version="1.1" id="Layer_1" xmlns="http://www.w3.org/2000/svg" xmlns:xlink="http://www.w3.org/1999/xlink" x="0px" y="0px"
	 viewBox="0 0 24.5 24.5" style="enable-background:new 0 0 24.5 24.5;" xml:space="preserve">
<style type="text/css">
	.st0{fill:#2d404a;}
</style>
<path class="st0" d="M22.1,0H2.3C1.1,0,0,1.1,0,2.3v19.8c0,1.3,1.1,2.3,2.3,2.3h19.8c1.3,0,2.3-1.1,2.3-2.3V2.3
	C24.5,1.1,23.4,0,22.1,0z M19.1,16.9l-2,2c-0.1,0.1-0.2,0.2-0.4,0.3c-0.1,0.1-0.3,0.1-0.4,0.1c0,0,0,0-0.1,0s-0.1,0-0.2,0
	c-0.2,0-0.5,0-0.9-0.1s-1-0.2-1.6-0.5s-1.3-0.6-2.1-1.2c-0.8-0.5-1.6-1.2-2.5-2.1c-0.7-0.7-1.3-1.4-1.7-2c-0.5-0.6-0.8-1.2-1.1-1.8
	c-0.3-0.5-0.5-1-0.6-1.5C5.3,9.9,5.2,9.5,5.2,9.2C5.1,8.8,5.1,8.6,5.1,8.4c0-0.2,0-0.3,0-0.3c0-0.1,0.1-0.3,0.1-0.4
	c0.1-0.1,0.2-0.3,0.3-0.4l2-2C7.7,5.2,7.8,5.1,8,5.1c0.1,0,0.2,0,0.3,0.1s0.2,0.2,0.3,0.3l1.6,3.1c0.1,0.2,0.1,0.3,0.1,0.5
	S10.2,9.5,10,9.6l-0.7,0.7c0,0,0,0.1-0.1,0.1v0.1c0,0.2,0.1,0.5,0.3,0.7c0.1,0.2,0.3,0.5,0.6,0.9c0.3,0.3,0.6,0.7,1.1,1.2
	s0.9,0.8,1.2,1.1c0.4,0.3,0.6,0.4,0.9,0.6c0.2,0.1,0.4,0.2,0.5,0.2H14h0.1c0,0,0.1,0,0.1-0.1l0.9-0.9c0.2-0.2,0.4-0.2,0.6-0.2
	c0.2,0,0.3,0,0.4,0.1l0,0l2.9,1.7c0.2,0.1,0.3,0.3,0.4,0.5C19.4,16.6,19.3,16.8,19.1,16.9z"/>
</svg>
