<?xml version="1.0" encoding="utf-8"?>
<!-- Generator: Adobe Illustrator 22.1.0, SVG Export Plug-In . SVG Version: 6.00 Build 0)  -->
<svg version="1.1" id="Layer_1" xmlns="http://www.w3.org/2000/svg" xmlns:xlink="http://www.w3.org/1999/xlink" x="0px" y="0px"
	 viewBox="0 0 31.7 33.8" style="enable-background:new 0 0 31.7 33.8;" xml:space="preserve">
<style type="text/css">
	.st0{fill:#FFFFFF;}
</style>
<path class="st0" d="M24.4,23.7c-3.9-1.6-5.2-2.9-5.2-5.7c0-1.8,1.2-1.2,1.8-4.4c0.2-1.3,1.3,0,1.4-2.9c0-1.2-0.6-1.5-0.6-1.5
	s0.3-1.8,0.4-3.1c0.2-1.8-0.9-6-6.4-6c-5.5,0-6.5,4.3-6.4,6c0.1,1.4,0.4,3.1,0.4,3.1s-0.6,0.3-0.6,1.5c0.2,2.9,1.3,1.7,1.4,2.9
	c0.6,3.2,1.8,2.6,1.8,4.4c0,2.9-1.3,4.1-5.2,5.7c-4,1.6-7.3,3.2-7.3,4.9c0,1.1,0,5.3,0,5.3h15.8h15.8c0,0,0-4.1,0-5.3
	C31.7,26.9,28.4,25.3,24.4,23.7z"/>
</svg>
