<?xml version="1.0" encoding="utf-8"?>
<!-- Generator: Adobe Illustrator 22.1.0, SVG Export Plug-In . SVG Version: 6.00 Build 0)  -->
<svg version="1.1" id="Layer_1" xmlns="http://www.w3.org/2000/svg" xmlns:xlink="http://www.w3.org/1999/xlink" x="0px" y="0px"
	 viewBox="0 0 32.5 21" style="enable-background:new 0 0 32.5 21;" xml:space="preserve">
<style type="text/css">
	.st0{fill:#3189CE;}
</style>
<g>
	<g>
		<path class="st0" d="M9.2,16.4c-1.6-0.6-2.1-1.1-2.1-2.1c0-0.6,0.5-0.4,0.7-1.6c0.1-0.5,0.5,0,0.6-1.1c0-0.4-0.3-0.5-0.3-0.5
			s0.1-0.6,0.2-1.1C8.4,9.4,8,7.8,5.8,7.8S3.2,9.4,3.2,10c0.1,0.5,0.2,1.1,0.2,1.1s-0.3,0.1-0.3,0.5c0.1,1.1,0.5,0.6,0.6,1.1
			c0.2,1.2,0.7,1,0.7,1.6c0,1.1-0.5,1.5-2.1,2.1C0.7,17,0,17.6,0,18s0,3,0,3h11.6c0,0,0-2.6,0-3S10.8,17,9.2,16.4z"/>
		<path class="st0" d="M15,8.6c-1.6-0.6-2.1-1.1-2.1-2.1c0-0.6,0.5-0.4,0.7-1.6c0.1-0.5,0.5,0,0.6-1.1c0-0.4-0.3-0.5-0.3-0.5
			s0.1-0.6,0.2-1.1C14.2,1.6,13.8,0,11.6,0S8.9,1.6,9,2.2c0,0.5,0.2,1.1,0.2,1.1S8.9,3.4,8.9,3.9C9,5,9.4,4.5,9.5,5
			c0.2,1.2,0.7,1,0.7,1.6S10,7.6,9.6,8c0.5,0.8,0.6,1.6,0.6,2.2c0,0.2,0,0.4-0.1,0.6c0.1,0.3,0.2,0.6,0.2,0.9v0.1v0.1
			c-0.1,0.6-0.2,1.3-0.8,1.8c-0.1,0.3-0.2,0.5-0.3,0.7c0.1,0.1,0.4,0.2,0.7,0.3c1.5,0.6,3.5,1.5,3.5,3.3v3h4V10.2
			C17.3,9.8,16.6,9.2,15,8.6z"/>
		<path class="st0" d="M32.2,6.1c-0.2-0.2-0.4-0.4-0.7-0.5c0,0.3,0,0.5-0.1,0.7l-3.8,12.4c-0.1,0.2-0.2,0.4-0.4,0.5
			c-0.2,0.1-0.5,0.2-0.7,0.2h-7.3V21h7.3c0.5,0,1.1-0.2,1.5-0.5c0.5-0.4,0.8-0.8,1-1.4l3.5-11.4C32.6,7.1,32.5,6.6,32.2,6.1z"/>
	</g>
	<path class="st0" d="M30.2,2.4c-0.3-0.5-0.8-0.7-1.4-0.7h-9.6l0,0H18c-0.2,0-0.3,0.1-0.5,0.1c-0.5,0.3-2.2,5-2.2,5
		c0.1,0,0.2,0.1,0.3,0.1c0.8,0.3,1.6,0.7,2.3,1.2h0.7H19h7.2c0.1,0,0.2,0,0.3,0.1c0.1,0.1,0.1,0.2,0,0.3l-0.3,0.8
		c0,0.1-0.1,0.2-0.2,0.3s-0.2,0.1-0.3,0.1h-6.6c0,0.2,0.1,0.3,0.1,0.5v7.6h5.3c0.8,0,1.3-0.1,1.6-0.4c0.3-0.3,0.6-0.9,0.9-1.9
		L30.4,4C30.6,3.4,30.5,2.9,30.2,2.4z M27.5,5.3l-0.3,0.8c0,0.1-0.1,0.2-0.2,0.3c-0.1,0.1-0.2,0.1-0.3,0.1h-7.6
		c-0.1,0-0.2,0-0.3-0.1c-0.1-0.1-0.1-0.2,0-0.3l0.3-0.8c0-0.1,0.1-0.2,0.2-0.3c0.1-0.1,0.2-0.1,0.3-0.1h7.6c0.1,0,0.2,0,0.3,0.1
		C27.6,5.1,27.6,5.2,27.5,5.3z"/>
</g>
</svg>
