<?xml version="1.0" encoding="utf-8"?>
<!-- Generator: Adobe Illustrator 22.1.0, SVG Export Plug-In . SVG Version: 6.00 Build 0)  -->
<svg version="1.1" id="Layer_1" xmlns="http://www.w3.org/2000/svg" xmlns:xlink="http://www.w3.org/1999/xlink" x="0px" y="0px"
	 viewBox="0 0 24 22.1" style="enable-background:new 0 0 24 22.1;" xml:space="preserve">
<style type="text/css">
	.st0{fill:#A3A3A3;}
</style>
<path class="st0" d="M23.6,5c-0.2-0.3-0.5-0.5-0.9-0.6c0,0.3,0,0.6-0.1,0.8l-4.3,14.2c-0.1,0.2-0.2,0.4-0.5,0.6
	c-0.3,0.1-0.5,0.2-0.8,0.2H3.8c-1.2,0-1.8-0.3-2.1-1c-0.1-0.3-0.1-0.5,0-0.6s0.3-0.2,0.5-0.2h12.5c0.9,0,1.5-0.2,1.9-0.5
	c0.3-0.3,0.7-1.1,1-2.2l3.9-13.1c0.2-0.7,0.1-1.3-0.3-1.9C21,0.3,20.4,0,19.7,0h-11C7.9,0,6.6-0.1,6.2,1L0.3,17.5
	c-0.2,0.6-0.2,1.2,0,1.8C0.6,20,1,20.7,1.7,21.2S3.1,22,3.8,22h13.3c0.6,0,1.2-0.2,1.8-0.6c0.6-0.4,0.9-0.9,1.1-1.5l4-13.1
	C24.1,6.2,24,5.6,23.6,5z M17.1,7.8l-0.3,0.9c0,0.1-0.1,0.2-0.2,0.3s-0.2,0.1-0.4,0.1H7.4c-0.1,0-0.2,0-0.3-0.1c0,0,0-0.1,0-0.2
	l0.3-0.9c0-0.1,0.1-0.2,0.2-0.3C7.8,7.4,7.9,7.4,8,7.4h8.8c0.1,0,0.2,0,0.3,0.1C17.2,7.6,17.2,7.7,17.1,7.8z M8.8,3.9
	C9,3.7,9.1,3.7,9.2,3.7H18c0.1,0,0.2,0,0.3,0.1c0.1,0.1,0.1,0.2,0,0.3l-0.3,1c0,0.1-0.1,0.2-0.2,0.3c-0.1,0.1-0.2,0.1-0.4,0.1H8.6
	c-0.1,0-0.2,0-0.3-0.1c0-0.1,0-0.2,0-0.3l0.3-0.9C8.6,4.1,8.7,4,8.8,3.9z"/>
</svg>
