<?xml version="1.0" encoding="utf-8"?>
<!-- Generator: Adobe Illustrator 22.1.0, SVG Export Plug-In . SVG Version: 6.00 Build 0)  -->
<svg version="1.1" id="Layer_1" xmlns="http://www.w3.org/2000/svg" xmlns:xlink="http://www.w3.org/1999/xlink" x="0px" y="0px"
	 viewBox="0 0 24.5 24.5" style="enable-background:new 0 0 24.5 24.5;" xml:space="preserve">
<style type="text/css">
	.st0{fill:#2d404a;}
</style>
<path class="st0" d="M22.1,0H2.4C1.1,0,0,1.1,0,2.4v19.8c0,1.3,1.1,2.3,2.3,2.3h19.8c1.3,0,2.3-1.1,2.3-2.3V2.4
	C24.5,1.1,23.4,0,22.1,0z M16.9,8.6l-4.6,3l-4.7-3H16.9z M18.2,16.2c0,0.2-0.2,0.4-0.4,0.4H6.7c-0.2,0-0.4-0.2-0.4-0.4V9.6l6,3.9
	l6-3.9L18.2,16.2L18.2,16.2z"/>
</svg>
