<?xml version="1.0" encoding="utf-8"?>
<!-- Generator: Adobe Illustrator 22.1.0, SVG Export Plug-In . SVG Version: 6.00 Build 0)  -->
<svg version="1.1" id="Layer_1" xmlns="http://www.w3.org/2000/svg" xmlns:xlink="http://www.w3.org/1999/xlink" x="0px" y="0px"
	 viewBox="0 0 16 16" style="enable-background:new 0 0 16 16;" xml:space="preserve">
<style type="text/css">
	.st0{fill:#3189CE;}
</style>
<path class="st0" d="M12.3,11.2c-2-0.8-2.6-1.4-2.6-2.7c0-0.8,0.6-0.6,0.9-2.1c0.1-0.6,0.6,0,0.7-1.4c0-0.6-0.3-0.7-0.3-0.7
	s0.2-0.8,0.2-1.5C11.3,2,10.8,0,8,0S4.7,2,4.8,2.9C4.8,3.5,5,4.3,5,4.3S4.7,4.5,4.7,5c0.1,1.4,0.6,0.8,0.7,1.4
	c0.3,1.5,0.9,1.2,0.9,2.1c0,1.4-0.6,2-2.6,2.7C1.7,12,0,12.7,0,13.5C0,14,0,16,0,16h8h8c0,0,0-2,0-2.5C16,12.7,14.3,12,12.3,11.2z"
	/>
</svg>
