<?xml version="1.0" encoding="utf-8"?>
<!-- Generator: Adobe Illustrator 22.1.0, SVG Export Plug-In . SVG Version: 6.00 Build 0)  -->
<svg version="1.1" id="Layer_1" xmlns="http://www.w3.org/2000/svg" xmlns:xlink="http://www.w3.org/1999/xlink" x="0px" y="0px"
	 viewBox="0 0 27.3 15.8" style="enable-background:new 0 0 27.3 15.8;" xml:space="preserve">
<style type="text/css">
	.st0{fill:#FFFFFF;}
</style>
<g>
	<polygon class="st0" points="4.9,2.1 3.6,3.4 7,6.8 0,6.8 0,8.6 7,8.6 3.6,12 4.9,13.3 10.5,7.7 	"/>
	<path class="st0" d="M25.9,4.9c-0.1-0.6-0.1-1.7,0.5-2c0.5-0.1,0.8-0.4,0.5-0.6L20,0.1L8.8,1.7c0,0-0.5,0.1-0.9,0.7l0.5,0.5
		c0-0.1,0.1-0.2,0.1-0.2c0.1-0.1,0.3-0.2,0.4-0.2c0.1,0,0.1,0,0.1,0l4.8,1.6l2.4,0.8l-0.1,2.4l-4.6-1.3l1.7,1.7l2.3,0.5L16,8.2
		l1.6,0.3l0.1,2.4l-6.3-1.6l-1.2,1.2l5.3,1.7l-0.1,2.4l-7.1-2c0,0-0.1,0-0.2-0.1l-0.5,0.5c0.3,0.2,0.5,0.3,0.5,0.3l7.3,2.4l11-2.7
		c0,0,0.7-0.2-1.3-0.8c-0.1-0.6-0.1-1.7,0.5-2c0.5-0.1,0.8-0.4,0.5-0.6l-0.5-0.1c0.3-0.2,0.8-0.7,0.9-2c0.1-0.9-0.2-1.4-0.5-1.7
		l0.9-0.2C27.2,5.7,27.9,5.4,25.9,4.9z M16.6,7.2l0.1-2.4l1.9-0.4l6.3-1.3l0.9-0.2c-0.3,0.5-0.3,1.3-0.2,1.8c0,0.1,0,0.2,0,0.3
		l-1,0.3L16.6,7.2z M24.9,12.4c0,0.1,0,0.2,0,0.3L16,14.9l0.1-2.4l1.9-0.4l7-1.4C24.8,11.1,24.8,11.9,24.9,12.4z M26.1,7.4
		c-0.1,1.5-0.7,1.6-0.8,1.6l-0.7,0.2l-6.4,1.8l-0.1-2.4l2.1-0.7l5.1-1.7c0,0,0.3-0.1,0.5,0.1C26,6.6,26.1,6.9,26.1,7.4z"/>
</g>
</svg>
