<?xml version="1.0" encoding="utf-8"?>
<!-- Generator: Adobe Illustrator 22.1.0, SVG Export Plug-In . SVG Version: 6.00 Build 0)  -->
<svg version="1.1" id="Layer_1" xmlns="http://www.w3.org/2000/svg" xmlns:xlink="http://www.w3.org/1999/xlink" x="0px" y="0px"
	 viewBox="0 0 30.2 23.6" style="enable-background:new 0 0 30.2 23.6;" xml:space="preserve">
<style type="text/css">
	.st0{fill:#A3A3A3;}
</style>
<g>
	<g>
		<path class="st0" d="M28.1,7.1c-0.1-0.9-0.1-2.5,0.7-3l0,0c0.7-0.2,1.2-0.5,0.8-1L19.3,0L2.7,2.3c0,0-1.9,0.3-1.7,3.2
			C1,7.2,1.5,8,2,8.4L0.6,8.8c-0.4,0.4,0.1,0.7,0.8,1l0,0c0.9,0.5,0.8,2.1,0.7,3c-3.1,0.9-2,1.2-2,1.2l0.7,0.2
			c-0.5,0.4-0.9,1.2-0.9,2.8c0.2,3,1.7,3.2,1.7,3.2l10.9,3.5l16.5-4c0,0,1.1-0.3-2-1.2c-0.1-0.9-0.1-2.5,0.7-3l0,0
			c0.7-0.2,1.2-0.5,0.8-1L28,14.2c0.5-0.3,1.2-1,1.3-3c0.1-1.3-0.3-2.1-0.7-2.6L30,8.3C30,8.3,31.1,8,28.1,7.1z M14.3,7.1l2.8-0.6
			l9.4-1.9l1.4-0.3c-0.4,0.8-0.4,1.9-0.4,2.6c0,0.2,0,0.3,0.1,0.4L26,7.8l-11.8,2.9L14.3,7.1z M2.4,10l1.4,0.3l9,1.8l0.8,0.2l0,0
			l0,0l2.4,0.5l0.1,3.6L4,13.4L2.7,13c0-0.1,0-0.3,0.1-0.4C2.8,11.9,2.9,10.8,2.4,10z M1.9,5.4C1.9,4.6,2,4,2.3,3.8
			c0.2-0.2,0.4-0.2,0.5-0.2s0.1,0,0.1,0l7.2,2.3l3.6,1.2l-0.1,3.6L3.5,7.9L3,7.7c0,0,0,0-0.1,0C2.9,7.7,1.9,7.6,1.9,5.4z M12.7,22
			L2.1,19c0,0,0,0-0.1,0c0,0-1-0.1-1.1-2.3c0-0.8,0.1-1.4,0.4-1.7c0.2-0.2,0.4-0.2,0.5-0.2s0.1,0,0.1,0l0,0l10.8,3.5V22z M26.6,18.3
			c0,0.2,0,0.3,0.1,0.4L13.3,22l0.1-3.6l2.9-0.6l0.4,0.1l1.6-0.5l7.3-1.5l1.4-0.3C26.5,16.5,26.5,17.6,26.6,18.3z M27.3,13.4
			C27.3,13.4,27.2,13.4,27.3,13.4l-1.1,0.3l-9.6,2.7l-0.1-3.6l3.1-1l7.6-2.5c0,0,0.4-0.1,0.7,0.2c0.3,0.3,0.4,0.9,0.4,1.6
			C28.3,13.3,27.3,13.4,27.3,13.4z"/>
	</g>
</g>
</svg>
