<?xml version="1.0" encoding="utf-8"?>
<!-- Generator: Adobe Illustrator 22.1.0, SVG Export Plug-In . SVG Version: 6.00 Build 0)  -->
<svg version="1.1" id="Layer_1" xmlns="http://www.w3.org/2000/svg" xmlns:xlink="http://www.w3.org/1999/xlink" x="0px" y="0px"
	 viewBox="0 0 24.4 15.8" style="enable-background:new 0 0 24.4 15.8;" xml:space="preserve">
<style type="text/css">
	.st0{fill:#FFFFFF;}
</style>
<g>
	<polygon class="st0" points="4.9,2 3.6,3.3 7,6.7 0,6.7 0,8.5 7,8.5 3.6,11.9 4.9,13.2 10.5,7.6 	"/>
	<path class="st0" d="M24.1,3.6c-0.1-0.2-0.3-0.3-0.6-0.4c0,0.2,0,0.4-0.1,0.6L20.3,14c-0.1,0.2-0.2,0.3-0.4,0.4
		c-0.2,0.1-0.4,0.2-0.6,0.2H9.9c-0.8,0-1.3-0.2-1.5-0.7c-0.1-0.2-0.1-0.3,0-0.4c0.1-0.1,0.2-0.2,0.4-0.2h9c0.6,0,1.1-0.1,1.3-0.4
		c0.2-0.2,0.5-0.8,0.7-1.6L22.6,2c0.2-0.5,0.1-1-0.2-1.3S21.9,0,21.3,0h-8c-0.6,0-1.3,0.4-1.6,1.1l0,0l-1.5,3.4l3.1,3.1l-6,6
		c0,0.1,0,0.2,0.1,0.3c0.2,0.5,0.5,1,1,1.4s1,0.6,1.5,0.6h9.5c0.4,0,0.9-0.1,1.3-0.4c0.4-0.3,0.7-0.7,0.8-1.1l2.8-9.3
		C24.5,4.4,24.4,4,24.1,3.6z M13.4,3c0-0.1,0.1-0.2,0.2-0.2c0.1-0.1,0.2-0.1,0.3-0.1h6.3c0.1,0,0.2,0,0.2,0.1s0,0.1,0,0.2l-0.2,0.7
		c0,0.1-0.1,0.2-0.2,0.2S19.8,4,19.7,4h-6.3c-0.1,0-0.2,0-0.2-0.1s0-0.1,0-0.2L13.4,3z M12.6,6.6c-0.1,0-0.2,0-0.2-0.1s0-0.1,0-0.2
		l0.2-0.7c0-0.1,0.1-0.2,0.2-0.2c0.1-0.1,0.2-0.1,0.3-0.1h6.3c0.1,0,0.2,0,0.2,0.1s0,0.1,0,0.2l-0.2,0.7c0,0.1-0.1,0.2-0.2,0.2
		c-0.1,0.1-0.2,0.1-0.3,0.1H12.6z"/>
</g>
</svg>
