<svg xmlns="http://www.w3.org/2000/svg" viewBox="0 0 31 23.782">
  <defs>
    <style>
      .cls-1 {
        fill: #fff;
        fill-rule: evenodd;
      }
    </style>
  </defs>
  <g id="Group_18471" data-name="Group 18471" transform="translate(-482 -450)">
    <path id="Path_17237" data-name="Path 17237" class="cls-1" d="M19.172,0A11.873,11.873,0,0,0,7.281,11.891a12.1,12.1,0,0,0,.7,4.038l-1.653.954.223.382L.6,20.6l.541.922L0,22.193l.541.954,1.145-.668.509.89.572-.318c.89.1,5.151.6,5.564.668a1.855,1.855,0,0,0,1.049-.127c.191-.1,1.335-.763,1.526-.89.191-.1.159-.318.064-.509-.1-.127-1.145-2.035-1.463-2.544l.413-.223A11.884,11.884,0,0,0,31,11.891,11.8,11.8,0,0,0,19.172,0ZM.7,22.606l-.159-.254.795-.445.159.254Zm1.685.254-1.208-2.1,5.214-2.989,1.208,2.1Zm5.723-2.83.191.35.318-.191c.254.445.986,1.717,1.017,1.812.064.1.032.159-.064.223s-.509.286-.636.382a.664.664,0,0,1-.413.064c-.1-.032-3.4-.413-4.165-.509Zm2.416,2.13c.1.191.064.286-.1.382s-1.049.6-1.208.7a2.3,2.3,0,0,1-.89.127c-.223-.032-4.992-.636-4.992-.636l.382-.223s4.451.541,4.674.572a1.263,1.263,0,0,0,.7-.064c.159-.1.858-.509,1.017-.572.159-.1.127-.159.032-.35S8.934,20,8.934,20l.254-.159C9.189,19.808,10.429,21.97,10.524,22.161ZM8.489,19.808,6.9,17.042,19.872,9.634l1.59,2.766Zm6.454-7.917c0-.191.032-.382.032-.572a.191.191,0,0,1,.032-.127c0-.064.032-.127.032-.191.032-.1.032-.191.064-.286a4.157,4.157,0,0,1,2.734-2.8h0c.064-.032.127-.032.159-.064.064,0,.1-.032.159-.032a4.915,4.915,0,0,1,.986-.127H19.3a2.8,2.8,0,0,1,.541.064h.032c.064,0,.159.032.223.032s.1.032.159.032a4.178,4.178,0,0,1,2.257,1.558h0a5.381,5.381,0,0,1,.541.922h0c.032.1.1.223.127.35.032.1.064.223.1.318,0,.064.032.1.032.159a1.377,1.377,0,0,0,.032.159,2.406,2.406,0,0,1,.032.477h0v.1a4.274,4.274,0,0,1-.763,2.416h0c-.1.127-.223.286-.318.413l-.064.064a4.585,4.585,0,0,1-.858.7c-.032.032-.064.032-.1.064l-.191.1c-.032,0-.064.032-.1.032a2.984,2.984,0,0,1-.477.191h0a4.518,4.518,0,0,1-1.335.223,4.46,4.46,0,0,1-1.3-.191l-.286-.1c-.064-.032-.1-.032-.159-.064l-.191-.1c-.032-.032-.1-.032-.127-.064-.064-.032-.1-.064-.159-.1L22,12.559l-2-3.5-5.055,2.862Zm4.229,7.726a7.76,7.76,0,0,1-5.5-2.289l2.194-1.24-.922,1.24.286.223,1.335-1.844a4.3,4.3,0,0,0,1.081.541c-.445.668-.89,1.367-.986,1.494a.407.407,0,0,0,0,.413l.572.509a6.041,6.041,0,0,0,1.812.254,9.941,9.941,0,0,0,1.939-.191l.636-.413s.223-.223.1-.445c-.064-.127-.572-.954-1.017-1.653a4.3,4.3,0,0,0,1.081-.541l1.335,1.844L23.4,17.3,22.065,15.42a4.892,4.892,0,0,0,.795-.827c.477.6.986,1.272,1.113,1.4a.432.432,0,0,0,.413.127l.668-.382a5.964,5.964,0,0,0,.827-1.622,13.813,13.813,0,0,0,.445-1.876l-.254-.763a.4.4,0,0,0-.382-.223c-.159.032-1.145.254-1.939.445a4.789,4.789,0,0,0-.191-1.176l2.226-.731-.127-.35-2.226.731a4.542,4.542,0,0,0-.509-.954c.763-.286,1.558-.6,1.717-.7a.4.4,0,0,0,.223-.35l-.191-.731A5.532,5.532,0,0,0,23.337,6.2a11.885,11.885,0,0,0-1.685-.954l-.763-.032s-.286.064-.318.318c0,.159-.1,1.145-.127,1.939A6.617,6.617,0,0,0,19.3,7.281V4.9h-.35V7.281a4.788,4.788,0,0,0-1.145.191c-.064-.827-.127-1.78-.127-1.939-.032-.254-.318-.318-.318-.318l-.763.032a11.885,11.885,0,0,0-1.685.954,5.532,5.532,0,0,0-1.335,1.24l-.191.731a.4.4,0,0,0,.223.35c.159.064.986.382,1.749.7a5.942,5.942,0,0,0-.541.986l-2.226-.731-.127.35,2.226.731A6.14,6.14,0,0,0,14.5,11.7c-.795-.191-1.78-.413-1.939-.445-.254-.064-.382.223-.382.223l-.191.731a10.712,10.712,0,0,0,.254,1.24l-.636.35a7.915,7.915,0,0,1-.254-1.939,7.758,7.758,0,0,1,15.516,0A7.654,7.654,0,0,1,19.172,19.617Z" transform="translate(482 450)"/>
  </g>
</svg>
