<svg xmlns="http://www.w3.org/2000/svg" viewBox="0 0 19.873 27.1">
  <defs>
    <style>
      .cls-1 {
        fill: #b7b7b7;
        fill-rule: evenodd;
      }
    </style>
  </defs>
  <g id="Group_19810" data-name="Group 19810" transform="translate(-1848.041 -282.446)">
    <g id="waste-bin" transform="translate(1848.041 282.446)">
      <path id="Path_16732" data-name="Path 16732" class="cls-1" d="M38.555,25.261A2.461,2.461,0,0,0,41.036,27.1h9.395a2.461,2.461,0,0,0,2.481-1.839L54.767,7.227H36.7ZM49.347,9.937a.9.9,0,0,1,1.807,0l-.9,13.55a.9.9,0,1,1-1.807,0Zm-4.517,0a.9.9,0,1,1,1.807,0v13.55a.9.9,0,1,1-1.807,0Zm-3.613-.9a.9.9,0,0,1,.9.9l.9,13.55a.9.9,0,0,1-1.807,0l-.9-13.55A.9.9,0,0,1,41.217,9.033ZM54.225,3.615H50.25V1.807C50.25.436,49.807,0,48.443,0h-5.42a1.58,1.58,0,0,0-1.807,1.807V3.615H37.242A1.4,1.4,0,0,0,35.8,4.97a1.4,1.4,0,0,0,1.445,1.356H54.225A1.4,1.4,0,0,0,55.67,4.97,1.4,1.4,0,0,0,54.225,3.615Zm-5.781,0h-5.42V1.807h5.42V3.615Z" transform="translate(-35.797 0)"/>
    </g>
  </g>
</svg>
