<svg xmlns="http://www.w3.org/2000/svg" viewBox="0 0 45.281 29.868">
  <defs>
    <style>
      .cls-1 {
        fill: #1c75bc;
      }
    </style>
  </defs>
  <g id="view-list" transform="translate(0 -42)">
    <g id="Group_16571" data-name="Group 16571" transform="translate(0 42)">
      <path id="Path_17283" data-name="Path 17283" class="cls-1" d="M2.585,387A2.607,2.607,0,0,0,0,389.513,2.67,2.67,0,0,0,2.585,392.1,2.607,2.607,0,0,0,5.1,389.513,2.544,2.544,0,0,0,2.585,387Z" transform="translate(0 -362.23)"/>
      <path id="Path_17284" data-name="Path 17284" class="cls-1" d="M2.585,215a2.514,2.514,0,1,0,0,5.026,2.513,2.513,0,0,0,0-5.026Z" transform="translate(0 -202.579)"/>
      <path id="Path_17285" data-name="Path 17285" class="cls-1" d="M134.208,49.667h29.459c1.75,0,3.208-1.005,3.208-2.3S165.417,45,163.667,45H134.208c-1.75,0-3.208,1.077-3.208,2.369S132.458,49.667,134.208,49.667Z" transform="translate(-121.594 -44.785)"/>
      <path id="Path_17286" data-name="Path 17286" class="cls-1" d="M2.585,42A2.67,2.67,0,0,0,0,44.585,2.607,2.607,0,0,0,2.585,47.1,2.544,2.544,0,0,0,5.1,44.585,2.607,2.607,0,0,0,2.585,42Z" transform="translate(0 -42)"/>
      <path id="Path_17287" data-name="Path 17287" class="cls-1" d="M163.667,217H134.208c-1.75,0-3.208,1.077-3.208,2.369s1.458,2.369,3.208,2.369h29.459c1.75,0,3.208-1.077,3.208-2.369S165.417,217,163.667,217Z" transform="translate(-121.594 -204.435)"/>
      <path id="Path_17288" data-name="Path 17288" class="cls-1" d="M163.667,389H134.208c-1.75,0-3.208,1.077-3.208,2.369s1.458,2.369,3.208,2.369h29.459c1.75,0,3.208-1.077,3.208-2.369S165.417,389,163.667,389Z" transform="translate(-121.594 -364.086)"/>
    </g>
  </g>
</svg>
