<svg xmlns="http://www.w3.org/2000/svg" viewBox="0 0 21.178 23.449">
  <defs>
    <style>
      .cls-1 {
        fill: #1c75bc;
      }

      .cls-2, .cls-4 {
        fill: #fff;
      }

      .cls-3, .cls-4 {
        stroke: none;
      }
    </style>
  </defs>
  <g id="Group_19808" data-name="Group 19808" transform="translate(-70.508 -738.692)">
    <g id="Path_15000" data-name="Path 15000" class="cls-1" transform="translate(68.508 736.692)">
      <path class="cls-3" d="M8.3,23.179H3.445A1.449,1.449,0,0,1,2,21.734V3.445A1.449,1.449,0,0,1,3.445,2H21.733a1.449,1.449,0,0,1,1.445,1.445V21.734a1.449,1.449,0,0,1-1.445,1.445H16.862l-4.293,2.271Z"/>
      <path class="cls-4" d="M 12.56991958618164 23.75146484375 L 16.16029739379883 21.85262870788574 L 16.48933792114258 21.67860984802246 L 16.8615665435791 21.67860984802246 L 21.67773628234863 21.67860984802246 L 21.67773628234863 3.499999284744263 L 3.499997138977051 3.499999284744263 L 3.499997138977051 21.67860984802246 L 8.295527458190918 21.67860984802246 L 8.669337272644043 21.67860984802246 L 8.99943733215332 21.85402870178223 L 12.56991958618164 23.75146484375 M 12.56822681427002 25.44921875 L 8.295527458190918 23.17860984802246 L 3.444877147674561 23.17860984802246 C 2.66051721572876 23.17860984802246 1.999997138977051 22.53870964050293 1.999997138977051 21.73366928100586 L 1.999997138977051 3.444929361343384 C 1.999997138977051 2.660539388656616 2.639877080917358 1.999999403953552 3.444877147674561 1.999999403953552 L 21.73285675048828 1.999999403953552 C 22.5172176361084 1.999999403953552 23.17773628234863 2.639899492263794 23.17773628234863 3.444929361343384 L 23.17773628234863 21.73366928100586 C 23.17773628234863 22.51807022094727 22.53785705566406 23.17860984802246 21.73285675048828 23.17860984802246 L 16.8615665435791 23.17860984802246 L 12.56822681427002 25.44921875 Z"/>
    </g>
    <g id="Group_11781" data-name="Group 11781" transform="translate(76.865 742.263)">
      <path id="Path_15002" data-name="Path 15002" class="cls-2" d="M32.8,32.82V19.3h4.892a7.17,7.17,0,0,1,1.507.165,4,4,0,0,1,2.559,2.085,4.08,4.08,0,0,1,.433,1.94,4.244,4.244,0,0,1-1.073,2.745,3.889,3.889,0,0,1-3.158,1.321H34.843v5.284H32.8Zm2.043-11.58v4.376H37.9a2.05,2.05,0,0,0,1.693-.681,2.3,2.3,0,0,0,.557-1.486,1.947,1.947,0,0,0-.888-1.8,2.616,2.616,0,0,0-1.466-.392H34.843Z" transform="translate(-32.8 -19.3)"/>
    </g>
  </g>
</svg>
