<svg xmlns="http://www.w3.org/2000/svg" viewBox="0 0 24.778 25.137">
  <defs>
    <style>
      .cls-1 {
        fill: #1c75bc;
      }
    </style>
  </defs>
  <g id="icon_4_" data-name="icon (4)" transform="translate(-0.208)">
    <path id="Path_1945" data-name="Path 1945" class="cls-1" d="M21.43,5.305a1.739,1.739,0,0,0,1.744-1.74V1.744a1.743,1.743,0,1,0-3.486,0V3.566A1.739,1.739,0,0,0,21.43,5.305Z" transform="translate(-2.665)"/>
    <path id="Path_1946" data-name="Path 1946" class="cls-1" d="M24.959,3.487H21.45v.887a2.654,2.654,0,1,1-5.308,0V3.487H9.059v.887a2.655,2.655,0,1,1-5.31,0V3.487L.208,3.443V25.608H23.217l1.769-.005ZM23.216,23.843H1.979V9.683H23.217v14.16Z" transform="translate(0 -0.471)"/>
    <path id="Path_1947" data-name="Path 1947" class="cls-1" d="M7.078,5.305a1.74,1.74,0,0,0,1.745-1.74V1.744a1.743,1.743,0,1,0-3.486,0V3.566A1.737,1.737,0,0,0,7.078,5.305Z" transform="translate(-0.702)"/>
    <rect id="Rectangle_786" data-name="Rectangle 786" class="cls-1" width="2.789" height="2.462" transform="translate(9.064 11.112)"/>
    <rect id="Rectangle_787" data-name="Rectangle 787" class="cls-1" width="2.792" height="2.462" transform="translate(13.574 11.112)"/>
    <rect id="Rectangle_788" data-name="Rectangle 788" class="cls-1" width="2.789" height="2.462" transform="translate(17.756 11.112)"/>
    <rect id="Rectangle_789" data-name="Rectangle 789" class="cls-1" width="2.789" height="2.46" transform="translate(9.064 15.2)"/>
    <rect id="Rectangle_790" data-name="Rectangle 790" class="cls-1" width="2.792" height="2.46" transform="translate(13.574 15.2)"/>
    <rect id="Rectangle_791" data-name="Rectangle 791" class="cls-1" width="2.789" height="2.46" transform="translate(17.756 15.2)"/>
    <rect id="Rectangle_792" data-name="Rectangle 792" class="cls-1" width="2.789" height="2.46" transform="translate(9.064 19.369)"/>
    <rect id="Rectangle_793" data-name="Rectangle 793" class="cls-1" width="2.787" height="2.46" transform="translate(4.634 15.2)"/>
    <rect id="Rectangle_794" data-name="Rectangle 794" class="cls-1" width="2.787" height="2.46" transform="translate(4.634 19.369)"/>
    <rect id="Rectangle_795" data-name="Rectangle 795" class="cls-1" width="2.792" height="2.46" transform="translate(13.574 19.369)"/>
    <rect id="Rectangle_796" data-name="Rectangle 796" class="cls-1" width="2.789" height="2.46" transform="translate(17.756 19.369)"/>
  </g>
</svg>
