<svg id="Group_16926" data-name="Group 16926" xmlns="http://www.w3.org/2000/svg" viewBox="0 0 94.013 72.564">
  <defs>
    <style>
      .cls-1 {
        fill: #fff;
      }

      .cls-2 {
        fill: none;
        stroke: #fff;
        stroke-linecap: round;
        stroke-miterlimit: 10;
        stroke-width: 2px;
      }
    </style>
  </defs>
  <path id="Path_34" data-name="Path 34" class="cls-1" d="M311.782,91.782c-.342-2.279-.912-5.926-1.14-7.407A4.92,4.92,0,0,0,305.97,80.5H289.219c-3.077,0-4.558,3.077-4.786,4.33-.114.912-.684,4.786-1.026,7.179a4.279,4.279,0,0,0-2.507,3.874v6.268a3.994,3.994,0,0,0,1.709,3.3v4.216a2.507,2.507,0,0,0,5.014,0v-3.419h20.17v3.419a2.507,2.507,0,1,0,5.014,0v-4.1a4.22,4.22,0,0,0,1.823-3.533V95.77A4.216,4.216,0,0,0,311.782,91.782Zm-25.64,9.8a2.433,2.433,0,0,1-2.393-2.507,2.393,2.393,0,0,1,4.786,0A2.364,2.364,0,0,1,286.142,101.582Zm-.342-8.889V85.286a2.579,2.579,0,0,1,2.621-2.621s5.356.342,9.23.342,9.23-.342,9.23-.342a2.579,2.579,0,0,1,2.621,2.621v7.407s-1.026-.114-2.507-.342a3.364,3.364,0,0,0-6.267-.456c-1.026,0-2.051-.114-3.077-.114A99.068,99.068,0,0,0,285.8,92.693Zm15.84-.684a2.7,2.7,0,0,1,2.165-1.253,2.518,2.518,0,0,1,2.393,1.6C304.944,92.237,303.349,92.009,301.64,92.009Zm7.635,9.572a2.529,2.529,0,0,1-2.507-2.507,2.433,2.433,0,0,1,2.507-2.393,2.407,2.407,0,0,1,2.393,2.393A2.364,2.364,0,0,1,309.275,101.582Z" transform="translate(-270.644 -40.616)"/>
  <path id="Path_35" data-name="Path 35" class="cls-1" d="M278.4,117.05h-6.5V47.879a2.286,2.286,0,0,1,2.279-2.279h1.937a2.286,2.286,0,0,1,2.279,2.279Z" transform="translate(-271.9 -45.486)"/>
  <line id="Line_6" data-name="Line 6" class="cls-2" x2="55.04" transform="translate(1.14 71.564)"/>
  <line id="Line_7" data-name="Line 7" class="cls-2" x2="55.04" transform="translate(1.14 31.794)"/>
  <path id="Path_36" data-name="Path 36" class="cls-1" d="M348.7,109.961h6.5V98.679a2.286,2.286,0,0,0-2.279-2.279h-1.937a2.286,2.286,0,0,0-2.279,2.279Z" transform="translate(-261.183 -38.397)"/>
  <line id="Line_8" data-name="Line 8" class="cls-2" x1="54.926" transform="translate(37.833 71.564)"/>
  <path id="Path_37" data-name="Path 37" class="cls-1" d="M315.8,60.884v6.268a4.527,4.527,0,0,0,1.823,3.533v4.1a2.507,2.507,0,0,0,5.014,0V71.368h20.17v3.419a2.507,2.507,0,0,0,5.014,0V70.57a4.154,4.154,0,0,0,1.709-3.3V60.884a4.279,4.279,0,0,0-2.507-3.874c-.342-2.393-.8-6.268-1.026-7.179-.228-1.254-1.709-4.33-4.786-4.33H324.461a4.92,4.92,0,0,0-4.672,3.874c-.228,1.6-.8,5.128-1.14,7.407A4.433,4.433,0,0,0,315.8,60.884ZM341.782,64.3a2.393,2.393,0,0,1,4.786,0,2.4,2.4,0,1,1-4.786,0Zm-9.116-7.293a27.771,27.771,0,0,0-3.077.114,3.431,3.431,0,0,0-3.077-1.937,3.315,3.315,0,0,0-3.191,2.393,19.758,19.758,0,0,0-2.507.342V50.514a2.579,2.579,0,0,1,2.621-2.621s5.356.342,9.23.342,9.23-.342,9.23-.342a2.579,2.579,0,0,1,2.621,2.621v7.407A96.5,96.5,0,0,0,332.665,57.009Zm-8.546.57a2.767,2.767,0,0,1,2.393-1.6,2.443,2.443,0,0,1,2.165,1.254A28.519,28.519,0,0,0,324.119,57.579Zm-5.47,6.723a2.407,2.407,0,0,1,2.393-2.393,2.451,2.451,0,1,1-2.393,2.393Z" transform="translate(-265.774 -45.5)"/>
  <path id="Path_38" data-name="Path 38" class="cls-1" d="M348.7,75.061h6.5V63.779a2.286,2.286,0,0,0-2.279-2.279h-1.937a2.286,2.286,0,0,0-2.279,2.279Z" transform="translate(-261.183 -43.267)"/>
  <line id="Line_9" data-name="Line 9" class="cls-2" x1="54.926" transform="translate(37.833 31.794)"/>
</svg>
