<svg xmlns="http://www.w3.org/2000/svg" viewBox="0 0 68.908 52.864">
  <defs>
    <style>
      .cls-1 {
        fill: #fff;
        fill-rule: evenodd;
      }
    </style>
  </defs>
  <path id="Path_17361" data-name="Path 17361" class="cls-1" d="M42.616,0A26.392,26.392,0,0,0,16.184,26.432a26.907,26.907,0,0,0,1.555,8.976l-3.675,2.12.495.848L1.343,45.8l1.2,2.05L0,49.33l1.2,2.12,2.544-1.484,1.131,1.979,1.272-.707c1.979.212,11.449,1.343,12.368,1.484a4.123,4.123,0,0,0,2.332-.283c.424-.212,2.968-1.7,3.392-1.979.424-.212.353-.707.141-1.131-.212-.283-2.544-4.523-3.251-5.654l.919-.495a26.417,26.417,0,0,0,46.857-16.75A26.227,26.227,0,0,0,42.616,0ZM1.555,50.249,1.2,49.684l1.767-.989.353.565Zm3.746.565L2.615,46.15l11.591-6.643,2.686,4.664Zm12.721-6.29.424.777.707-.424c.565.989,2.191,3.816,2.262,4.028.141.212.071.353-.141.495s-1.131.636-1.413.848a1.477,1.477,0,0,1-.919.141c-.212-.071-7.562-.919-9.258-1.131Zm5.371,4.735c.212.424.141.636-.212.848s-2.332,1.343-2.686,1.555a5.1,5.1,0,0,1-1.979.283c-.495-.071-11.1-1.413-11.1-1.413l.848-.495s9.894,1.2,10.389,1.272a2.807,2.807,0,0,0,1.555-.141c.353-.212,1.908-1.131,2.262-1.272.353-.212.283-.353.071-.777s-2.686-4.664-2.686-4.664l.565-.353C20.425,44.03,23.181,48.836,23.393,49.26ZM18.87,44.03l-3.534-6.149L44.171,21.414,47.7,27.563Zm14.347-17.6c0-.424.071-.848.071-1.272a.425.425,0,0,1,.071-.283c0-.141.071-.283.071-.424.071-.212.071-.424.141-.636A9.241,9.241,0,0,1,39.648,17.6h0c.141-.071.283-.071.353-.141.141,0,.212-.071.353-.071a10.925,10.925,0,0,1,2.191-.283H42.9a6.224,6.224,0,0,1,1.2.141h.071c.141,0,.353.071.495.071s.212.071.353.071a9.287,9.287,0,0,1,5.018,3.463h0a11.961,11.961,0,0,1,1.2,2.05h0c.071.212.212.495.283.777.071.212.141.495.212.707,0,.141.071.212.071.353a3.061,3.061,0,0,0,.071.353,5.349,5.349,0,0,1,.071,1.06h0v.212a9.5,9.5,0,0,1-1.7,5.371h0c-.212.283-.495.636-.707.919l-.141.141a10.193,10.193,0,0,1-1.908,1.555c-.071.071-.141.071-.212.141l-.424.212c-.071,0-.141.071-.212.071a6.633,6.633,0,0,1-1.06.424h0a10.044,10.044,0,0,1-2.968.495,9.913,9.913,0,0,1-2.9-.424l-.636-.212c-.141-.071-.212-.071-.353-.141l-.424-.212c-.071-.071-.212-.071-.283-.141-.141-.071-.212-.141-.353-.212l11.237-6.431-4.452-7.774L33.217,26.5Zm9.4,17.174A17.249,17.249,0,0,1,30.39,38.517l4.876-2.756-2.05,2.756.636.495,2.968-4.1a9.562,9.562,0,0,0,2.4,1.2c-.989,1.484-1.979,3.039-2.191,3.322a.905.905,0,0,0,0,.919l1.272,1.131a13.429,13.429,0,0,0,4.028.565,22.1,22.1,0,0,0,4.311-.424l1.413-.919s.495-.495.212-.989c-.141-.283-1.272-2.12-2.262-3.675a9.562,9.562,0,0,0,2.4-1.2l2.968,4.1.636-.495-2.968-4.17a10.875,10.875,0,0,0,1.767-1.838c1.06,1.343,2.191,2.827,2.474,3.11a.961.961,0,0,0,.919.283l1.484-.848a13.257,13.257,0,0,0,1.838-3.6,30.7,30.7,0,0,0,.989-4.17l-.565-1.7a.9.9,0,0,0-.848-.495c-.353.071-2.544.565-4.311.989a10.645,10.645,0,0,0-.424-2.615l4.947-1.625-.283-.777-4.947,1.625a10.1,10.1,0,0,0-1.131-2.12c1.7-.636,3.463-1.343,3.816-1.555a.883.883,0,0,0,.495-.777l-.424-1.625a12.3,12.3,0,0,0-2.968-2.756,26.419,26.419,0,0,0-3.746-2.12l-1.7-.071s-.636.141-.707.707c0,.353-.212,2.544-.283,4.311a14.708,14.708,0,0,0-2.544-.424v-5.3h-.777v5.3a10.642,10.642,0,0,0-2.544.424c-.141-1.838-.283-3.958-.283-4.311-.071-.565-.707-.707-.707-.707l-1.7.071a26.419,26.419,0,0,0-3.746,2.12,12.3,12.3,0,0,0-2.968,2.756l-.424,1.625a.883.883,0,0,0,.495.777c.353.141,2.191.848,3.887,1.555a13.208,13.208,0,0,0-1.2,2.191l-4.947-1.625-.283.777,4.947,1.625a13.649,13.649,0,0,0-.424,2.544c-1.767-.424-3.958-.919-4.311-.989-.565-.141-.848.495-.848.495l-.424,1.625a23.812,23.812,0,0,0,.565,2.756l-1.413.777a17.593,17.593,0,0,1-.565-4.311,17.244,17.244,0,0,1,34.489,0A17.014,17.014,0,0,1,42.616,43.606Z"/>
</svg>
