<svg id="clock" xmlns="http://www.w3.org/2000/svg" viewBox="0 0 37.635 37.615">
  <defs>
    <style>
      .cls-1 {
        fill: #fff;
      }
    </style>
  </defs>
  <g id="Group_12976" data-name="Group 12976" transform="translate(0 0)">
    <path id="Path_16079" data-name="Path 16079" class="cls-1" d="M36.133,11.65A18.438,18.438,0,0,0,26.112,1.67a18.5,18.5,0,0,0-7.326-1.5,18.305,18.305,0,0,0-7.3,1.5,18.5,18.5,0,0,0-10,9.98,18.8,18.8,0,0,0,0,14.63,18.536,18.536,0,0,0,10,10,18.306,18.306,0,0,0,7.3,1.5,18.5,18.5,0,0,0,7.325-1.5,18.478,18.478,0,0,0,10.021-10,18.563,18.563,0,0,0,0-14.63Zm-3,15.618a16.51,16.51,0,0,1-6.05,6.029,16.207,16.207,0,0,1-8.292,2.222,15.935,15.935,0,0,1-6.42-1.317A16.825,16.825,0,0,1,7.1,30.684,16.724,16.724,0,0,1,3.581,25.4a16.2,16.2,0,0,1-1.3-6.441,16.177,16.177,0,0,1,2.2-8.272,16.517,16.517,0,0,1,6.029-6.029,16.082,16.082,0,0,1,8.271-2.223,16.207,16.207,0,0,1,8.292,2.223,16.559,16.559,0,0,1,6.05,6.029,16.083,16.083,0,0,1,2.222,8.272A16.238,16.238,0,0,1,33.129,27.268Z" transform="translate(0 -0.168)"/>
    <path id="Path_16080" data-name="Path 16080" class="cls-1" d="M289.418,122.732V112.073a1.186,1.186,0,0,0-1.194-1.152,1.16,1.16,0,0,0-1.132,1.152V122.9a.94.94,0,0,1,.041.165,1.076,1.076,0,0,0,.309.926l6.153,6.152a1.171,1.171,0,0,0,1.584,0,1.11,1.11,0,0,0,0-1.6Z" transform="translate(-269.438 -104.11)"/>
  </g>
</svg>
