<svg xmlns="http://www.w3.org/2000/svg" viewBox="0 0 40.84 48.525">
  <defs>
    <style>
      .cls-1 {
        fill: #fff;
      }
    </style>
  </defs>
  <path id="Path_17360" data-name="Path 17360" class="cls-1" d="M74.7,12.49c-.058-1.277-.058-2.5-.058-3.714A1.71,1.71,0,0,0,72.9,7.036c-7.253,0-12.766-2.089-17.35-6.557a1.79,1.79,0,0,0-2.437,0c-4.584,4.468-10.1,6.557-17.35,6.557a1.71,1.71,0,0,0-1.741,1.741c0,1.219,0,2.437-.058,3.714-.232,12.186-.58,28.9,19.787,35.919l.58.116.58-.116C75.218,41.388,74.928,24.734,74.7,12.49Z" transform="translate(-33.907)"/>
</svg>
