<svg xmlns="http://www.w3.org/2000/svg" viewBox="0 0 48.922 43.809">
  <defs>
    <style>
      .cls-1 {
        fill: #fff;
      }
    </style>
  </defs>
  <g id="funds" transform="translate(0 -23.098)">
    <path id="Path_16072" data-name="Path 16072" class="cls-1" d="M37.4,41.513c0-.009,0-.018,0-.027a1.091,1.091,0,0,0-.027-.133h0a1.1,1.1,0,0,0-.042-.122l-.015-.034q-.019-.043-.043-.086l-.021-.037-.011-.02c-.016-.026-.034-.05-.052-.075l-.01-.014a1.075,1.075,0,0,0-.089-.1l-.018-.017a1.116,1.116,0,0,0-.085-.074l-.023-.017a1.122,1.122,0,0,0-.122-.08L20.535,31.406l9.389-5.912,15.74,8.947-6.629,4.174a1.107,1.107,0,1,0,1.179,1.873l8.193-5.159a1.107,1.107,0,0,0-.043-1.9L30.441,23.242a1.107,1.107,0,0,0-1.137.026L17.8,30.513l-.007,0-5.75,3.621-.008,0L.519,41.394a1.107,1.107,0,0,0,.043,1.9L18.486,53.48a1.106,1.106,0,0,0,1.137-.026L27.816,48.3a1.107,1.107,0,1,0-1.179-1.873L19,51.229,3.264,42.282l9.389-5.912L29.44,45.912V58.55a1.107,1.107,0,0,0,1.7.937l5.757-3.625a1.107,1.107,0,0,0,.517-.937V41.642c0-.007,0-.013,0-.019Q37.408,41.568,37.4,41.513ZM31.653,56.545V45.268a1.107,1.107,0,0,0-.56-.962L14.777,35.031l3.632-2.287,15.74,8.947-1.378.868a1.107,1.107,0,1,0,1.179,1.873l1.246-.785V54.314Z" transform="translate(-0.002)"/>
    <path id="Path_16073" data-name="Path 16073" class="cls-1" d="M356.685,155.312l-8.193,5.159a1.107,1.107,0,1,0,1.179,1.873l8.193-5.159a1.107,1.107,0,1,0-1.179-1.873Z" transform="translate(-309.46 -117.429)"/>
    <path id="Path_16074" data-name="Path 16074" class="cls-1" d="M26.634,232.058,19,236.864,1.654,227A1.107,1.107,0,0,0,.56,228.928l17.923,10.188a1.106,1.106,0,0,0,1.137-.026l8.193-5.159a1.107,1.107,0,0,0-1.179-1.873Z" transform="translate(0 -181.208)"/>
    <path id="Path_16075" data-name="Path 16075" class="cls-1" d="M356.685,195.311l-8.193,5.159a1.107,1.107,0,1,0,1.179,1.873l8.193-5.159a1.107,1.107,0,1,0-1.179-1.873Z" transform="translate(-309.46 -153.001)"/>
    <path id="Path_16076" data-name="Path 16076" class="cls-1" d="M26.634,272.058,19,276.864,1.654,267A1.107,1.107,0,0,0,.56,268.928l17.923,10.188a1.106,1.106,0,0,0,1.137-.026l8.193-5.159a1.107,1.107,0,0,0-1.179-1.873Z" transform="translate(0 -216.781)"/>
    <path id="Path_16077" data-name="Path 16077" class="cls-1" d="M356.685,235.312l-8.193,5.159a1.107,1.107,0,1,0,1.179,1.873l8.193-5.159a1.107,1.107,0,1,0-1.179-1.873Z" transform="translate(-309.46 -188.574)"/>
    <path id="Path_16078" data-name="Path 16078" class="cls-1" d="M26.634,312.058,19,316.864,1.654,307A1.107,1.107,0,1,0,.56,308.928l17.923,10.188a1.106,1.106,0,0,0,1.137-.026l8.193-5.159a1.107,1.107,0,0,0-1.179-1.873Z" transform="translate(0 -252.354)"/>
  </g>
</svg>
