<svg xmlns="http://www.w3.org/2000/svg" viewBox="0 0 41.494 53.076">
  <defs>
    <style>
      .cls-1 {
        fill: #fff;
      }
    </style>
  </defs>
  <g id="Group_16930" data-name="Group 16930" transform="translate(13468 -2654)">
    <path id="Path_16143" data-name="Path 16143" class="cls-1" d="M28.177,5.746h2.045L32.559,0H12.4V5.746H28.177Z" transform="translate(-13468.22 2654)"/>
    <path id="Path_16144" data-name="Path 16144" class="cls-1" d="M29.053,7.8H12.4v3.116h0v.292A8.7,8.7,0,0,0,21.749,19.1a8.511,8.511,0,0,0,7.694-8.18h2.629L30.222,7.8H29.053Z" transform="translate(-13468.22 2653.796)"/>
    <path id="Path_16145" data-name="Path 16145" class="cls-1" d="M0,42.912V53.625h7.6V37.264c0-.195-.1-.487,0-.682.195-.292.487-.584.779-.584a1.127,1.127,0,0,1,.682.487,1.9,1.9,0,0,1,.1.779V53.625H32.33V36.777c0-.584.195-.876.779-.876s.779.39.779.876v16.75h7.5V32.1A7.908,7.908,0,0,0,40.12,27.72a9.374,9.374,0,0,0-7.986-4.09h-3.7S26,23.046,25.707,21.682a.717.717,0,0,0-1.169-.487,30.255,30.255,0,0,0-3.019,3.116c-.292.487-.1.779.292,1.071a13.3,13.3,0,0,1,2.045,1.461c.39.487.487.779,0,1.169s-1.071.876-1.363,1.169c-.292.39-.487.682.1,1.169.487.584,1.169.682.876,1.948S22.1,49.535,22.007,50.7c-.1,1.071-.682,1.461-.974,1.461h-.39a1.487,1.487,0,0,1-.974-1.461c-.1-1.266-1.169-17.237-1.461-18.406-.292-1.266.39-1.363.876-1.948s.39-.876.1-1.169a5.641,5.641,0,0,0-1.363-1.169c-.487-.39-.39-.682,0-1.169a13.3,13.3,0,0,1,2.045-1.461c.39-.292.584-.584.292-1.071A30.575,30.575,0,0,0,17.137,21.2a.706.706,0,0,0-1.169.487c-.292,1.363-2.727,1.948-2.727,1.948h-3.7a12.981,12.981,0,0,0-2.727.292C3.406,24.7-.295,27.428-.1,32.492.192,36,0,39.5,0,42.912ZM26.292,32.589l2.045-1.363,2.045,1.363a3.229,3.229,0,0,1-.584,2.24,5.394,5.394,0,0,1-1.461,1.461,5.394,5.394,0,0,1-1.461-1.461A3.229,3.229,0,0,1,26.292,32.589Zm-14.705.39h4.382V34.44H11.586Z" transform="translate(-13467.893 2653.451)"/>
  </g>
</svg>
