<svg id="Group_14128" data-name="Group 14128" xmlns="http://www.w3.org/2000/svg" viewBox="0 0 52.592 80.2">
  <defs>
    <style>
      .cls-1 {
        fill: #fff;
      }
    </style>
  </defs>
  <path id="Path_16717" data-name="Path 16717" class="cls-1" d="M50.219,0H2.374L0,3.248s0,2.623,4,6,7.37,6,7.37,8.37H41.224c0-2.5,3.373-5,7.37-8.37s4-6,4-6ZM26.234,2.5H2.249l1-1.5h46.1l1,1.5Z"/>
  <rect id="Rectangle_3414" data-name="Rectangle 3414" class="cls-1" width="16.615" height="10.493" transform="translate(17.989 28.107)"/>
  <path id="Path_16718" data-name="Path 16718" class="cls-1" d="M9.1,15.6V76.312H39.081V15.6ZM34.459,46.831a57.151,57.151,0,0,0-10.493-1.249,57.151,57.151,0,0,0-10.493,1.249,42.924,42.924,0,0,1-2.249-13.617A40.564,40.564,0,0,1,13.1,20.472s7.245-.75,10.868-.75,10.868.75,10.868.75a40.564,40.564,0,0,1,1.874,12.742A42.924,42.924,0,0,1,34.459,46.831Z" transform="translate(2.268 3.888)"/>
</svg>
