<svg id="Group_12977" data-name="Group 12977" xmlns="http://www.w3.org/2000/svg" viewBox="0 0 50.412 55.656">
  <defs>
    <style>
      .cls-1 {
        fill: #fff;
      }
    </style>
  </defs>
  <g id="Group_11780" data-name="Group 11780">
    <path id="Path_15001" data-name="Path 15001" class="cls-1" d="M46.112,1.89a2.369,2.369,0,0,1,2.362,2.362v41.86a2.369,2.369,0,0,1-2.362,2.362H34.726l-.425.236-9.166,4.866-9.118-4.914-.425-.236H4.252A2.369,2.369,0,0,1,1.89,46.065V4.252A2.369,2.369,0,0,1,4.252,1.89h41.86m0-1.89H4.252A4.234,4.234,0,0,0,0,4.252v41.86a4.265,4.265,0,0,0,4.252,4.252H15.119l10.063,5.292,10.063-5.292H46.159a4.265,4.265,0,0,0,4.252-4.252V4.252A4.336,4.336,0,0,0,46.112,0Z"/>
  </g>
  <g id="Group_11781" data-name="Group 11781" transform="translate(15.497 9.119)">
    <path id="Path_15002" data-name="Path 15002" class="cls-1" d="M32.8,50.246V19.3H44a16.413,16.413,0,0,1,3.449.378A9.152,9.152,0,0,1,53.3,24.45a9.337,9.337,0,0,1,.992,4.441,9.713,9.713,0,0,1-2.457,6.284A8.9,8.9,0,0,1,44.612,38.2H37.477v12.1H32.8Zm4.677-26.505V33.757H44.47A4.692,4.692,0,0,0,48.344,32.2a5.259,5.259,0,0,0,1.276-3.4,4.456,4.456,0,0,0-2.032-4.11,5.988,5.988,0,0,0-3.354-.9H37.477Z" transform="translate(-32.8 -19.3)"/>
  </g>
</svg>
