<?xml version="1.0" encoding="utf-8"?>
<!-- Generator: Adobe Illustrator 22.1.0, SVG Export Plug-In . SVG Version: 6.00 Build 0)  -->
<svg version="1.1" id="Layer_1" xmlns="http://www.w3.org/2000/svg" xmlns:xlink="http://www.w3.org/1999/xlink" x="0px" y="0px"
	 viewBox="0 0 35 35" style="enable-background:new 0 0 35 35;" xml:space="preserve">
<style type="text/css">
	.st0{fill:#FFF;}
</style>
<g>
	<path class="st0" d="M29.2,7.3h-5.9V2.7c0-0.4-0.3-0.8-0.8-0.8H12.5c-0.4,0-0.8,0.3-0.8,0.8v4.6H5.8C4.3,7.3,3,8.5,3,10v9.4
		c0,0.2,0.1,0.3,0.2,0.5l1.4,1.8v8.8c0,1.5,1.2,2.8,2.8,2.8h20.4c1.5,0,2.8-1.2,2.8-2.8v-8.8l1.4-1.8c0.1-0.1,0.2-0.3,0.2-0.5V10
		C32,8.5,30.7,7.3,29.2,7.3z M21.8,3.4v7.3h-8.6V3.4H21.8z M30.5,19.1l-1.4,1.8c-0.1,0.1-0.2,0.3-0.2,0.5v9c0,0.7-0.6,1.3-1.3,1.3
		H7.3c-0.7,0-1.3-0.6-1.3-1.3v-9c0-0.2-0.1-0.3-0.2-0.5l-1.4-1.8V10c0-0.7,0.6-1.3,1.3-1.3h5.9v2H11c-0.6,0-1,0.4-1,1s0.4,1,1,1h13
		c0.6,0,1-0.4,1-1s-0.4-1-1-1h-0.7v-2h5.9c0.7,0,1.3,0.6,1.3,1.3V19.1z"/>
	<rect x="13.5" y="21.4" class="st0" width="3.3" height="3.3"/>
	<rect x="18.2" y="21.4" class="st0" width="3.3" height="3.3"/>
	<rect x="13.5" y="26.1" class="st0" width="3.3" height="3.3"/>
	<rect x="8.7" y="21.4" class="st0" width="3.3" height="3.3"/>
	<rect x="8.7" y="26.1" class="st0" width="3.3" height="3.3"/>
	<rect x="18.2" y="26.1" class="st0" width="3.3" height="3.3"/>
	<rect x="23" y="21.4" class="st0" width="3.3" height="8.1"/>
	<rect x="8.7" y="14.6" class="st0" width="17.6" height="4.8"/>
</g>
</svg>
