<svg xmlns="http://www.w3.org/2000/svg" xmlns:xlink="http://www.w3.org/1999/xlink" viewBox="0 0 37 37">
  <defs>
    <style>
      .cls-1 {
        clip-path: url(#clip-Operations_5_1);
      }

      .cls-2 {
        fill: #fff;
      }

      .cls-3 {
        fill: transparent;
      }
    </style>
    <clipPath id="clip-Operations_5_1">
      <rect width="37" height="37"/>
    </clipPath>
  </defs>
  <g id="Operations_5_1" data-name="Operations 5 – 1" class="cls-1">
    <rect class="cls-3" width="37" height="37"/>
    <g id="XMLID_2_" transform="translate(2.181 2.373)">
      <path id="Path_17551" data-name="Path 17551" class="cls-2" d="M56.779,13.79v.966l-2.264,1.1-.566,1.765,1.2,2.231-.566.766-2.5-.466-1.5,1.1-.333,2.5-.9.3-1.731-1.831H45.757l-1.731,1.831-.9-.3-.333-2.5-1.5-1.1-2.5.466-.566-.766,1.2-2.231-.566-1.765-2.264-1.1V13.79l2.264-1.1.566-1.765L38.232,8.7,38.8,7.93l2.5.466,1.5-1.1.333-2.5.9-.3,1.731,1.831h1.865L49.353,4.5l.9.3.333,2.5,1.5,1.1,2.5-.466.566.766-1.2,2.231.566,1.765Zm-4.628.5a5.777,5.777,0,1,0-5.794,5.794A5.8,5.8,0,0,0,52.15,14.29Z" transform="translate(-24.409 -3.002)"/>
      <path id="Path_17552" data-name="Path 17552" class="cls-2" d="M79.831,77.3A1.731,1.731,0,1,1,78.1,79.031,1.72,1.72,0,0,1,79.831,77.3Z" transform="translate(-52.091 -51.561)"/>
      <path id="Path_17553" data-name="Path 17553" class="cls-2" d="M76.064,58.363l.366-2.73.7-.533,1.9.366.133,3.629-.166-.366-1.831-.366-1.5,1.432-.366.133-1.6-.2.067-.633Z" transform="translate(-49.156 -36.753)"/>
      <path id="Path_17554" data-name="Path 17554" class="cls-2" d="M56.728,20A4.628,4.628,0,1,1,52.1,24.628,4.619,4.619,0,0,1,56.728,20Zm0,8.091a3.463,3.463,0,1,0-3.463-3.463A3.46,3.46,0,0,0,56.728,28.091Z" transform="translate(-34.748 -13.34)"/>
      <path id="Path_17555" data-name="Path 17555" class="cls-2" d="M74.3,70.4a2.9,2.9,0,1,0,2.9,2.9A2.9,2.9,0,0,0,74.3,70.4Zm-.6-.5,1.232-1.2.633.133.666,1.6.7.6,1.665.466.2.633-1.066,1.4-.2.9.433,1.665-.433.5-1.731-.233-.9.3-1.232,1.2-.633-.133-.666-1.6-.7-.6L70,75.06l-.2-.633,1.066-1.365.2-.9L70.632,70.5l.433-.5,1.731.233Z" transform="translate(-46.555 -45.824)"/>
      <path id="Path_17556" data-name="Path 17556" class="cls-2" d="M36.48,67.753l-18.147.932a3.493,3.493,0,0,0-.932-5.161l5.694-1.8a3.469,3.469,0,0,0,1.565-5.594l.8-.6.033.067,2.7-.5.7.5.366,2.73,2.3.733,1.9-2h.866l1.9,2-.067.666-.466-.067-1.232,1.4.5,2.031-.067.4-1.265,1.632.6,1.765,2,.566.266.3Z" transform="translate(-11.603 -36.753)"/>
      <circle id="Ellipse_477" data-name="Ellipse 477" class="cls-2" cx="2.298" cy="2.298" r="2.298" transform="translate(19.683 8.99)"/>
      <path id="Path_17557" data-name="Path 17557" class="cls-2" d="M11.588,7.8l6.193.366-.067.733-.7.5-2.7-.5-1.432,1.965,1.332,2.431-.266.8-2.5,1.2v2.431l2.5,1.2.266.832-1.332,2.431,1.365,1.9-.8.6a2.467,2.467,0,0,0-.433-.4,3.528,3.528,0,0,0-2.2-.766,3.654,3.654,0,0,0-1.332.266l-3.5,1.465a3.493,3.493,0,0,0-1.232-3.962A3.626,3.626,0,0,0,2.7,20.62a3.456,3.456,0,0,0-2.1.7l.6-7.459.3.033.566.566.166,1.2,2.164.9.966-.766h.766l.966.766,2.164-.9.166-1.2.566-.566,1.2-.166.9-2.164-.766-.966V9.8l.733-.932Z" transform="translate(-0.397 -5.203)"/>
      <path id="Path_17558" data-name="Path 17558" class="cls-2" d="M26.631,58.2A2.314,2.314,0,1,1,24.3,60.5,2.331,2.331,0,0,1,26.631,58.2Zm1.132,2.3A1.165,1.165,0,1,0,26.6,61.663,1.158,1.158,0,0,0,27.763,60.5Z" transform="translate(-16.205 -38.821)"/>
      <path id="Path_17559" data-name="Path 17559" class="cls-2" d="M10.556,2.564l.366.932-.6.733v1.6l.6.733-.366.932-.966.1-1.1,1.132-.133.932-.932.4-.733-.6H5.1l-.766.6-.9-.4-.1-.932-1.1-1.132-.966-.1L.9,6.56l.566-.733V4.262L.9,3.5l.366-.932.932-.1L3.331,1.332,3.464.4l.9-.4L5.1.6h1.6L7.46,0l.932.366.1.966,1.1,1.1ZM8.892,5.028a2.98,2.98,0,0,0-5.96,0,3.021,3.021,0,0,0,2.964,3A3.027,3.027,0,0,0,8.892,5.028Z" transform="translate(-0.597)"/>
      <path id="Path_17560" data-name="Path 17560" class="cls-2" d="M12.231,9.6a1.831,1.831,0,0,1,0,3.663,1.831,1.831,0,1,1,0-3.663Z" transform="translate(-6.934 -6.403)"/>
      <path id="Path_17561" data-name="Path 17561" class="cls-2" d="M9.429,83.366a2.315,2.315,0,0,1,.233,2.4,2.352,2.352,0,0,1-2.031,1.3H7.6a2.309,2.309,0,0,1-2.3-2.331,2.361,2.361,0,0,1,1.332-2.1l.566-.2a1.621,1.621,0,0,1,.4-.033A2.4,2.4,0,0,1,9.429,83.366Zm-.7,1.365A1.165,1.165,0,1,0,7.564,85.9,1.18,1.18,0,0,0,8.73,84.731Z" transform="translate(-3.532 -54.962)"/>
      <path id="Path_17562" data-name="Path 17562" class="cls-2" d="M-.007,52.265A2.17,2.17,0,0,1,2.157,50.3h.2a2.209,2.209,0,0,1,2,2.331,2.175,2.175,0,0,1-2.164,2H2.058A2.159,2.159,0,0,1-.007,52.364Zm2.3-1.066a1.165,1.165,0,0,0,0,2.331,1.18,1.18,0,0,0,1.165-1.165A1.158,1.158,0,0,0,2.291,51.2Z" transform="translate(0.01 -33.551)"/>
    </g>
  </g>
</svg>
