<?xml version="1.0" encoding="utf-8"?>
<!-- Generator: Adobe Illustrator 22.1.0, SVG Export Plug-In . SVG Version: 6.00 Build 0)  -->
<svg version="1.1" id="Layer_1" xmlns="http://www.w3.org/2000/svg" xmlns:xlink="http://www.w3.org/1999/xlink" x="0px" y="0px"
	 viewBox="0 0 50 35" style="enable-background:new 0 0 50 35;" xml:space="preserve">
<g>
	<path style="fill:#FFF;" d="M41.9,24.9L40,25.6l1.7,4.4l-10.5-4.1l-0.9-10.4l0.3-0.8l-1-0.3c-0.2-0.1-0.4-0.1-0.6,0L20.2,17l-6.6-3.4
		c-0.4-0.2-0.9-0.1-1.2,0.2L2.5,24.9c-0.2,0.2-0.3,0.6-0.2,0.9c0.1,0.3,0.3,0.6,0.6,0.7l13.9,6c0.2,0.1,0.5,0.1,0.7,0l12.8-4.7
		l12.8,5c0.1,0,0.2,0.1,0.4,0.1c0.3,0,0.5-0.1,0.7-0.3c0.3-0.3,0.4-0.7,0.2-1.1L41.9,24.9z M21,18.9l7.5-2.3l0.8,9.4l-10.8,4
		L21,18.9z M13.3,15.7l5.6,2.9l-2.6,11.5L4.9,25.1L13.3,15.7z"/>
	<path style="fill:#FFF;" d="M40.7,6h-3.9v9.4h2v-3h1.9c2.2,0,3.3-1.6,3.3-3.1C43.9,7.7,42.9,6,40.7,6z M40.6,10.5h-1.9V8h1.9c1.1,0,1.2,0.9,1.2,1.3
		C41.9,9.6,41.8,10.5,40.6,10.5z"/>
	<path style="fill:#FFF;" d="M44.5,3h-9.3C33.5,3,32,4.4,32,6.2v9.3c0,1.8,1.4,3.2,3.2,3.2h1l3.6,5.7l3.6-5.7h1.1c1.8,0,3.2-1.4,3.2-3.2V6.2
		C47.7,4.4,46.3,3,44.5,3z M45.7,15.5c0,0.7-0.5,1.2-1.2,1.2h-2.2l-2.5,3.9l-2.5-3.9h-2.1c-0.7,0-1.2-0.5-1.2-1.2V6.2
		C34,5.5,34.6,5,35.2,5h9.3c0.6,0,1.2,0.5,1.2,1.2V15.5z"/>
</g>
</svg>
