<?xml version="1.0" encoding="utf-8"?>
<!-- Generator: Adobe Illustrator 22.1.0, SVG Export Plug-In . SVG Version: 6.00 Build 0)  -->
<svg version="1.1" id="Layer_1" xmlns="http://www.w3.org/2000/svg" xmlns:xlink="http://www.w3.org/1999/xlink" x="0px" y="0px"
	 viewBox="0 0 48 48" style="enable-background:new 0 0 48 48;" xml:space="preserve">
<style type="text/css">
	.st0{fill:#2E6D97;}
	.st1{fill:#5CA4D6;}
	.st2{fill:#398DCD;}
</style>
<g>
	<path class="st0" d="M38.7,14.7C38.7,6.6,32.1,0,24,0S9.3,6.6,9.3,14.7c0,1.9,0.4,3.8,1.1,5.5l0,0l0,0.1c0.2,0.6,0.5,1.2,0.9,1.7
		L24,48l12.8-26c0.3-0.6,0.6-1.1,0.9-1.7l0-0.1l0,0C38.3,18.5,38.7,16.6,38.7,14.7z M24,19.8c-2.7,0-4.9-2.2-4.9-4.9
		s2.2-4.9,4.9-4.9s4.9,2.2,4.9,4.9S26.7,19.8,24,19.8z"/>
	<path class="st1" d="M12.2,21.5c-0.3-0.6-0.6-1.1-0.8-1.6l-0.1-0.2c-0.7-1.6-1-3.3-1-5.1C10.3,7.2,16.5,1,24,1s13.7,6.1,13.7,13.7
		c0,1.7-0.3,3.4-1,5.1L36.6,20c-0.2,0.5-0.5,1-0.7,1.5L24,45.7L12.2,21.5z M24,9.1c-3.2,0-5.9,2.6-5.9,5.9s2.6,5.9,5.9,5.9
		s5.9-2.6,5.9-5.9S27.2,9.1,24,9.1z"/>
	<path class="st2" d="M13.1,21.1c-0.3-0.6-0.6-1.1-0.8-1.5l-0.1-0.2c-0.6-1.5-0.9-3.1-0.9-4.7c0-7,5.7-12.6,12.6-12.6
		s12.6,5.7,12.6,12.6c0,1.6-0.3,3.2-0.9,4.7l-0.1,0.2c-0.2,0.4-0.4,0.9-0.7,1.3L24,43.3L13.1,21.1z M24,8c-3.8,0-6.9,3.1-6.9,6.9
		c0,3.8,3.1,6.9,6.9,6.9s6.9-3.1,6.9-6.9C30.9,11.1,27.8,8,24,8z"/>
</g>
</svg>
