<?xml version="1.0" encoding="utf-8"?>
<!-- Generator: Adobe Illustrator 19.0.0, SVG Export Plug-In . SVG Version: 6.00 Build 0)  -->
<svg version="1.1" id="Layer_1" xmlns="http://www.w3.org/2000/svg" xmlns:xlink="http://www.w3.org/1999/xlink" x="0px" y="0px"
	 viewBox="0 0 32 32" style="enable-background:new 0 0 32 32;" xml:space="preserve">
<style type="text/css">
	.st0{fill:#F1F2F2;}
</style>
<path id="XMLID_41_" class="st0" d="M24.6,22.4c-3.9-1.5-5.2-2.7-5.2-5.4c0-1.7,1.2-1.1,1.8-4.1c0.2-1.2,1.3,0,1.4-2.8
	C22.6,9,22,8.7,22,8.7s0.3-1.7,0.4-2.9C22.6,4.1,21.5,0,16,0c-5.5,0-6.6,4.1-6.4,5.7C9.6,7,10,8.7,10,8.7S9.4,9,9.4,10.1
	c0.2,2.8,1.3,1.6,1.4,2.8c0.6,3,1.8,2.5,1.8,4.1c0,2.7-1.3,3.9-5.2,5.4c-4,1.5-7.4,3-7.4,4.6c0,1.1,0,5,0,5h16h16c0,0,0-3.9,0-5
	C32,25.5,28.6,23.9,24.6,22.4z"/>
</svg>
