<svg id="Group_14228" data-name="Group 14228" xmlns="http://www.w3.org/2000/svg" viewBox="0 0 126.738 94.569">
  <defs>
    <style>
      .cls-1 {
        fill: #023b41;
      }
    </style>
  </defs>
  <g id="XMLID_2_" transform="translate(0 0)">
    <path id="Path_16321" data-name="Path 16321" class="cls-1" d="M219.922,44.167l-17.29,8.645L128.9,10.252l4.71-6.705a8.3,8.3,0,0,1,10.945-2.438Z" transform="translate(-93.184 0)"/>
    <path id="Path_16322" data-name="Path 16322" class="cls-1" d="M393.046,198.8c.028.36.111.748.111,1.081A14.742,14.742,0,0,1,380.3,214.455l6.179-12.386Z" transform="translate(-274.925 -143.716)"/>
    <path id="Path_16323" data-name="Path 16323" class="cls-1" d="M167.123,96.8l-9.171,18.371-69.16-39.9a6.971,6.971,0,0,1-2.217-10.058L94,54.6Zm-10.889,4.738a2.965,2.965,0,1,0-2.965,2.965A2.968,2.968,0,0,0,156.234,101.538Z" transform="translate(-61.665 -39.471)"/>
    <path id="Path_16324" data-name="Path 16324" class="cls-1" d="M173.711,204.777l-3.187,5.32a7.794,7.794,0,0,1-10.363,2.6l-7.509-4.489a6.94,6.94,0,0,1-3.353-5.93,6.857,6.857,0,0,1,1.385-4.129l3.491-4.655Z" transform="translate(-107.931 -139.884)"/>
    <path id="Path_16325" data-name="Path 16325" class="cls-1" d="M78.638,270.048,74.4,276.421a11.784,11.784,0,0,1-9.837,5.265H42.7v-5.9H64.562a5.8,5.8,0,0,0,4.9-2.632l4.1-6.151Z" transform="translate(-30.868 -193.018)"/>
    <rect id="Rectangle_3006" data-name="Rectangle 3006" class="cls-1" width="5.902" height="23.635" transform="translate(0 70.934)"/>
  </g>
</svg>
