<svg xmlns="http://www.w3.org/2000/svg" viewBox="0 0 122.438 93.927">
  <defs>
    <style>
      .cls-1 {
        fill: #fff;
        stroke: #fff;
        fill-rule: evenodd;
      }
    </style>
  </defs>
  <path id="Path_16744" data-name="Path 16744" class="cls-1" d="M74.795,0A46.49,46.49,0,0,0,28.331,46.463a48.22,48.22,0,0,0,2.691,15.724L24.507,65.87h0l.85,1.417L2.408,80.461,4.533,84,0,86.694l2.125,3.683,4.533-2.55,1.983,3.541,2.267-1.275c3.541.425,20.115,2.408,21.815,2.55a6.433,6.433,0,0,0,4.108-.567c.708-.425,5.241-2.975,5.95-3.4a1.368,1.368,0,0,0,.283-1.983c-.283-.567-4.533-7.933-5.666-9.916l1.558-.85A46.435,46.435,0,1,0,74.795,0ZM33.148,62.9,77.486,37.539l6.233,10.908L39.381,73.8h0l-6.233,3.541L26.915,66.579,33.148,62.9ZM74.795,30.031a16.432,16.432,0,1,1,0,32.864,15.9,15.9,0,0,1-8.641-2.55L85.986,49.013l-7.933-13.6L58.363,46.605v-.142A16.444,16.444,0,0,1,74.795,30.031Zm-.708-1.558V19.265H75.5v9.208H74.086Zm15.3,28.615a17.538,17.538,0,0,0,3.541-10.766v-.708c3.116-.708,6.941-1.558,7.508-1.7a1.69,1.69,0,0,1,1.558.85l.85,2.833a45.24,45.24,0,0,1-1.7,7.366,22.947,22.947,0,0,1-3.116,6.375L95.477,62.9a1.564,1.564,0,0,1-1.558-.425C93.21,62.046,91.227,59.5,89.385,57.088ZM91.51,67.712l-1.133.85-5.241-7.224c.425-.283.708-.567,1.133-.85Zm.567-26.631-.425-1.275,8.641-2.833.425,1.275Zm4.25-7.649c-.567.283-3.825,1.558-6.8,2.691a18.538,18.538,0,0,0-9.633-6.941c.142-3.116.425-6.941.567-7.649.142-.992,1.275-1.133,1.275-1.133l2.975.142a44.489,44.489,0,0,1,6.516,3.825,20.65,20.65,0,0,1,5.241,4.958l.708,2.833A1.679,1.679,0,0,1,96.326,33.431ZM84.569,71.537l-2.55,1.7a39.19,39.19,0,0,1-7.508.708,23.464,23.464,0,0,1-7.083-.992L65.162,70.97a1.6,1.6,0,0,1,0-1.7c.283-.567,2.125-3.258,3.825-5.808a16.406,16.406,0,0,0,5.95.992,21.921,21.921,0,0,0,6.091-.992c1.7,2.691,3.683,5.95,3.966,6.516C85.277,70.687,84.569,71.537,84.569,71.537ZM60.2,36.122c-2.975-1.133-6.233-2.408-6.8-2.691a1.67,1.67,0,0,1-.85-1.417l.708-2.833A20.651,20.651,0,0,1,58.5,24.223,55,55,0,0,1,65.02,20.4L68,20.257s1.133.283,1.275,1.133c0,.567.283,4.391.567,7.649A18.221,18.221,0,0,0,60.2,36.122Zm-2.125,3.825-.425,1.275-8.641-2.833.425-1.275ZM49.3,44.055c.567.142,4.533.992,7.649,1.7v1.7l-8.924,5.1c-.708-2.833-.992-4.816-.992-4.816l.85-2.833C47.738,44.905,48.3,43.772,49.3,44.055ZM64.737,61.337,59.5,68.42l-1.133-.85L61.9,62.754l2.833-1.417Zm-32.3,18.274,1.133-.708c.992,1.7,3.825,6.8,3.966,7.083.283.425.142.708-.283.85-.425.283-1.983,1.133-2.55,1.417a3.05,3.05,0,0,1-1.558.283c-.283-.142-13.174-1.558-16.291-1.983l14.591-8.358.992,1.417ZM2.833,88.252l-.567-.992,3.116-1.842.567.992Zm6.375.992L4.533,81.028l20.54-11.616,4.675,8.216ZM41.08,86.552A1.006,1.006,0,0,1,40.8,88.11c-.567.283-4.108,2.408-4.675,2.691a8.657,8.657,0,0,1-3.541.425c-.85-.142-19.549-2.408-19.549-2.408l1.558-.85s17.282,2.125,18.274,2.267a4.212,4.212,0,0,0,2.691-.283c.708-.425,3.4-1.983,3.966-2.266s.567-.567.142-1.417c-.425-.708-3.966-6.8-4.533-7.933l.992-.567C36.689,78.761,40.655,85.844,41.08,86.552Zm33.714,4.675A44.454,44.454,0,0,1,40.372,75.078l12.891-7.366a30.351,30.351,0,1,0-8.783-21.39,26.973,26.973,0,0,0,.992,7.649L32.581,61.337a43.184,43.184,0,0,1-2.55-14.874A44.763,44.763,0,1,1,74.795,91.227Z" transform="translate(0.68 0.5)"/>
</svg>
