<svg xmlns="http://www.w3.org/2000/svg" viewBox="0 0 131.914 101.2">
  <defs>
    <style>
      .cls-1 {
        fill: #023b41;
        fill-rule: evenodd;
      }
    </style>
  </defs>
  <path id="Path_17270" data-name="Path 17270" class="cls-1" d="M81.582,0a50.523,50.523,0,0,0-50.6,50.6,51.508,51.508,0,0,0,2.976,17.182l-7.035,4.059.947,1.624L2.571,87.671l2.3,3.924L0,94.435l2.3,4.059,4.871-2.841,2.165,3.788,2.435-1.353c3.788.406,21.918,2.571,23.676,2.841a7.894,7.894,0,0,0,4.465-.541c.812-.406,5.682-3.247,6.494-3.788.812-.406.676-1.353.271-2.165-.406-.541-4.871-8.659-6.224-10.824l1.759-.947a50.57,50.57,0,0,0,89.7-32.065A50.208,50.208,0,0,0,81.582,0ZM2.976,96.194,2.3,95.112l3.382-1.894L6.359,94.3Zm7.171,1.082L5.006,88.347,27.194,75.629l5.141,8.929ZM34.5,85.235l.812,1.488,1.353-.812c1.082,1.894,4.194,7.306,4.329,7.712.271.406.135.676-.271.947s-2.165,1.218-2.706,1.624a2.827,2.827,0,0,1-1.759.271c-.406-.135-14.476-1.759-17.724-2.165ZM44.782,94.3c.406.812.271,1.218-.406,1.624s-4.465,2.571-5.141,2.976a9.767,9.767,0,0,1-3.788.541c-.947-.135-21.241-2.706-21.241-2.706l1.624-.947s18.941,2.3,19.888,2.435a5.375,5.375,0,0,0,2.976-.271c.676-.406,3.653-2.165,4.329-2.435.676-.406.541-.676.135-1.488S38.018,85.1,38.018,85.1l1.082-.676C39.1,84.288,44.376,93.488,44.782,94.3ZM36.124,84.288,29.359,72.518l55.2-31.524,6.765,11.771ZM63.588,50.6c0-.812.135-1.624.135-2.435a.813.813,0,0,1,.135-.541c0-.271.135-.541.135-.812.135-.406.135-.812.271-1.218A17.69,17.69,0,0,1,75.9,33.688h0c.271-.135.541-.135.676-.271.271,0,.406-.135.676-.135a20.914,20.914,0,0,1,4.194-.541h.676a11.915,11.915,0,0,1,2.3.271h.135c.271,0,.676.135.947.135s.406.135.676.135a17.778,17.778,0,0,1,9.606,6.629h0a22.9,22.9,0,0,1,2.3,3.924h0c.135.406.406.947.541,1.488.135.406.271.947.406,1.353,0,.271.135.406.135.676a5.86,5.86,0,0,0,.135.676,10.24,10.24,0,0,1,.135,2.029h0v.406a18.188,18.188,0,0,1-3.247,10.282h0c-.406.541-.947,1.218-1.353,1.759l-.271.271a19.513,19.513,0,0,1-3.653,2.976c-.135.135-.271.135-.406.271l-.812.406c-.135,0-.271.135-.406.135a12.7,12.7,0,0,1-2.029.812h0a19.227,19.227,0,0,1-5.682.947,18.977,18.977,0,0,1-5.547-.812l-1.218-.406c-.271-.135-.406-.135-.676-.271l-.812-.406c-.135-.135-.406-.135-.541-.271-.271-.135-.406-.271-.676-.406L93.624,53.441,85.1,38.559,63.588,50.735ZM81.582,83.477a33.021,33.021,0,0,1-23.406-9.741l9.335-5.276-3.924,5.276,1.218.947,5.682-7.847a18.3,18.3,0,0,0,4.6,2.3c-1.894,2.841-3.788,5.818-4.194,6.359a1.733,1.733,0,0,0,0,1.759l2.435,2.165A25.708,25.708,0,0,0,81.041,80.5a42.3,42.3,0,0,0,8.253-.812L92,77.929s.947-.947.406-1.894c-.271-.541-2.435-4.059-4.329-7.035a18.3,18.3,0,0,0,4.6-2.3l5.682,7.847,1.218-.947-5.682-7.982A20.819,20.819,0,0,0,97.277,62.1c2.029,2.571,4.194,5.412,4.735,5.953a1.84,1.84,0,0,0,1.759.541l2.841-1.624a25.38,25.38,0,0,0,3.518-6.9,58.78,58.78,0,0,0,1.894-7.982l-1.082-3.247a1.721,1.721,0,0,0-1.624-.947c-.676.135-4.871,1.082-8.253,1.894a20.377,20.377,0,0,0-.812-5.006l9.471-3.112-.541-1.488-9.471,3.112a19.329,19.329,0,0,0-2.165-4.059c3.247-1.218,6.629-2.571,7.306-2.976a1.691,1.691,0,0,0,.947-1.488l-.812-3.112a23.54,23.54,0,0,0-5.682-5.276,50.574,50.574,0,0,0-7.171-4.059l-3.247-.135s-1.218.271-1.353,1.353c0,.676-.406,4.871-.541,8.253a28.157,28.157,0,0,0-4.871-.812V20.835H80.635V30.982a20.373,20.373,0,0,0-4.871.812c-.271-3.518-.541-7.576-.541-8.253-.135-1.082-1.353-1.353-1.353-1.353l-3.247.135a50.575,50.575,0,0,0-7.171,4.059,23.54,23.54,0,0,0-5.682,5.276l-.812,3.112a1.691,1.691,0,0,0,.947,1.488c.676.271,4.194,1.624,7.441,2.976a25.285,25.285,0,0,0-2.3,4.194l-9.471-3.112-.541,1.488,9.471,3.112a26.128,26.128,0,0,0-.812,4.871c-3.382-.812-7.576-1.759-8.253-1.894-1.082-.271-1.624.947-1.624.947l-.812,3.112a45.583,45.583,0,0,0,1.082,5.276l-2.706,1.488A33.68,33.68,0,0,1,48.3,50.465a33.012,33.012,0,1,1,66.024,0A32.571,32.571,0,0,1,81.582,83.477Z"/>
</svg>
