<svg xmlns="http://www.w3.org/2000/svg" viewBox="0 0 72.08 152.83">
  <defs>
    <style>
      .cls-1 {
        fill: #0073AE;
      }
    </style>
  </defs>
  <g id="Group_16516" data-name="Group 16516" transform="translate(11589.856 1329)">
    <path id="Subtraction_5" data-name="Subtraction 5" class="cls-1" d="M38.111,152.83h0c-9.434,0-18.042-.7-18.127-.7l-.516.476H13.6l-5.789-4c-.274-1.957-5.851-4.73-5.908-4.757-1.92-.784-1.9-2.088-1.9-2.1v-6.859l.277-.437V18.472L.04,18.155V10.9c.039-.626,1.06-1.537,1.07-1.546L6.423,6.379A2.7,2.7,0,0,0,7.771,4.2L13.52.472h5.828l.476.356A65.14,65.14,0,0,1,32.065,0C41.5,0,51.914.82,52.018.828L52.3.472h7.732L64.269,4.4A3.629,3.629,0,0,0,65.3,6.22l5.075,3.291c1.411.471,1.584,2.792,1.586,2.815v5.629l-.4.437v116.05l.516.635-.119,6.621a3.651,3.651,0,0,1-1.546,1.9l-6.661,3.965-.04,1.189-3.806,3.807h-7.3l-.476-.437A117.528,117.528,0,0,1,38.111,152.83ZM27.476,145.5h0a1.742,1.742,0,0,0-1.057.525.818.818,0,0,0-.132.664l1.983,4.322c.042,0,5.186.247,9.691.247a41.825,41.825,0,0,0,5.533-.247.089.089,0,0,0,.021,0c.071,0,.338-.054.772-.755l1.507-3.29c0-.012.075-1.23-.951-1.467H27.476Zm30.252.794a2.061,2.061,0,1,0,2.062,2.062A2.064,2.064,0,0,0,57.728,146.3Zm-43.573,0a2.061,2.061,0,1,0,2.061,2.062A2.064,2.064,0,0,0,14.155,146.3ZM7.137,16.291a.794.794,0,0,0-.793.793V134.045a.794.794,0,0,0,.793.793H64.984a.794.794,0,0,0,.793-.793V17.084a.794.794,0,0,0-.793-.793ZM35.368,3.518a36.142,36.142,0,0,0-6.5.561L30.49,7.41c.027,0,3.677.158,6.907.158a35.369,35.369,0,0,0,4.036-.158l1.745-3.173A41.139,41.139,0,0,0,35.368,3.518Zm22.518-1.1a2.062,2.062,0,1,0,2.062,2.062A2.064,2.064,0,0,0,57.886,2.414Zm-43.731,0a2.062,2.062,0,1,0,2.061,2.062A2.064,2.064,0,0,0,14.155,2.414Z" transform="translate(-11589.856 -1329)"/>
    <g id="Group_16074" data-name="Group 16074" transform="translate(-11572.134 -1269.057)">
      <g id="Group_16072" data-name="Group 16072" transform="translate(5.828 4.242)">
        <path id="Path_17216" data-name="Path 17216" class="cls-1" d="M76.11,162.931H75V161.9h1.11Z" transform="translate(-68.815 -161.9)"/>
        <rect id="Rectangle_4265" data-name="Rectangle 4265" class="cls-1" width="1.11" height="1.031" transform="translate(10.824)"/>
        <rect id="Rectangle_4266" data-name="Rectangle 4266" class="cls-1" width="1.11" height="1.031" transform="translate(12.529)"/>
        <path id="Path_17217" data-name="Path 17217" class="cls-1" d="M73.2,166.755a2.235,2.235,0,0,0-1.546-.555,1.886,1.886,0,0,0-2.022,2.062,1.95,1.95,0,0,0,.159.833H68.2a2.591,2.591,0,0,0,.159-.833,1.942,1.942,0,0,0-.595-1.507,2.235,2.235,0,0,0-1.546-.555,1.886,1.886,0,0,0-2.022,2.062,1.95,1.95,0,0,0,.159.833H62.413a2.564,2.564,0,0,1-1.269-.238,1.209,1.209,0,0,1-.515-1.11V166.2H59.4v1.546c0,1.7.991,2.537,2.974,2.537h9.4a2.134,2.134,0,0,0,1.507-.555,1.941,1.941,0,0,0,.555-1.467A2.117,2.117,0,0,0,73.2,166.755Zm-7.573,2.22a1.369,1.369,0,0,1-.2-.714,1.134,1.134,0,0,1,.2-.674.658.658,0,0,1,.595-.317H66.3c.515,0,.793.357.793,1.07a1.134,1.134,0,0,1-.2.674.77.77,0,0,1-.634.317A.935.935,0,0,1,65.625,168.975Zm6.7,0a.77.77,0,0,1-.634.317.72.72,0,0,1-.634-.317,1.369,1.369,0,0,1-.2-.714,1.134,1.134,0,0,1,.2-.674.658.658,0,0,1,.595-.317h.079c.515,0,.793.357.793,1.07A1.2,1.2,0,0,1,72.325,168.975Z" transform="translate(-59.4 -164.495)"/>
        <path id="Path_17218" data-name="Path 17218" class="cls-1" d="M107.355,166.755a2.235,2.235,0,0,0-1.546-.555,1.886,1.886,0,0,0-2.022,2.062,1.95,1.95,0,0,0,.159.833h-2.1v-.833a2.022,2.022,0,1,0-4.044-.04,2,2,0,0,0,2.062,2.062,3.473,3.473,0,0,0,.793-.04c-.119.357-.4.515-.872.515H97.84v.991h1.982c1.229,0,1.9-.476,2.062-1.467h4.044a2.134,2.134,0,0,0,1.507-.555,1.941,1.941,0,0,0,.555-1.467A2.117,2.117,0,0,0,107.355,166.755Zm-6.78,2.339h-.714a.828.828,0,0,1-.793-.912c0-.476.238-.833.714-.833a.793.793,0,0,1,.793.872Zm5.908-.119a.793.793,0,0,1-1.269,0,1.37,1.37,0,0,1-.2-.714,1.134,1.134,0,0,1,.2-.674.658.658,0,0,1,.595-.317h.079c.515,0,.793.357.793,1.07A1.2,1.2,0,0,1,106.483,168.975Z" transform="translate(-82.575 -164.495)"/>
      </g>
      <path id="Path_17219" data-name="Path 17219" class="cls-1" d="M63.542,187.6h0a1.89,1.89,0,0,0-1.229.476,1.705,1.705,0,0,0-1.229-.476h0a1.739,1.739,0,0,0-1.784,1.824v1.784h1.07v-1.824a.669.669,0,0,1,.674-.753.69.69,0,0,1,.674.753v1.824h1.11v-1.824a.669.669,0,0,1,.674-.753.69.69,0,0,1,.674.753v1.824h1.11v-1.784A1.73,1.73,0,0,0,63.542,187.6Z" transform="translate(-53.511 -173.168)"/>
      <path id="Path_17220" data-name="Path 17220" class="cls-1" d="M90.916,187.6v1.824a.669.669,0,0,1-.674.753.69.69,0,0,1-.674-.753V187.6h-1.11v1.824a.669.669,0,0,1-.674.753.69.69,0,0,1-.674-.753V187.6H86v1.784a1.739,1.739,0,0,0,1.784,1.824h0a1.89,1.89,0,0,0,1.229-.476,1.706,1.706,0,0,0,1.229.476h0a1.739,1.739,0,0,0,1.784-1.824V187.6Z" transform="translate(-69.625 -173.168)"/>
      <path id="Path_17221" data-name="Path 17221" class="cls-1" d="M119.124,188.172h.555V187.3h-.555c-1.07,0-1.7.436-1.824,1.308v3.727h1.07v-2.419h1.308V189H118.37v-.357C118.45,188.331,118.688,188.172,119.124,188.172Z" transform="translate(-88.515 -172.987)"/>
      <path id="Path_17222" data-name="Path 17222" class="cls-1" d="M113.871,187.4v3.687H112.8V187.4Z" transform="translate(-85.8 -173.047)"/>
      <g id="Group_16073" data-name="Group 16073" transform="translate(22.798 14.392)">
        <path id="Path_17223" data-name="Path 17223" class="cls-1" d="M105.768,191.108c-.119.872-.714,1.308-1.824,1.308H102.2v-.872h1.7c.436,0,.674-.159.753-.476a2.476,2.476,0,0,1-.674.04,1.739,1.739,0,0,1-1.784-1.824,1.765,1.765,0,1,1,3.529.04Zm-1.07-1.07v-.753a.669.669,0,0,0-.674-.753c-.436,0-.634.317-.634.753a.726.726,0,0,0,.674.793h.634Z" transform="translate(-102.2 -187.5)"/>
      </g>
      <path id="Path_17224" data-name="Path 17224" class="cls-1" d="M77.958,191.308v-.04a2.475,2.475,0,0,1-.674.04,1.739,1.739,0,0,1-1.784-1.824,1.765,1.765,0,1,1,3.529.04v1.784Zm0-1.071v-.753a.669.669,0,0,0-.674-.753c-.436,0-.634.317-.634.753a.726.726,0,0,0,.674.793h.634Z" transform="translate(-63.288 -173.228)"/>
      <path id="Path_17225" data-name="Path 17225" class="cls-1" d="M113.791,184.512H112.8V183.6h.991Z" transform="translate(-85.8 -170.754)"/>
      <path id="Path_17226" data-name="Path 17226" class="cls-1" d="M125.3,151.2v2.181h3.33v3.33h2.141V151.2Z" transform="translate(-93.344 -151.2)"/>
      <path id="Path_17227" data-name="Path 17227" class="cls-1" d="M50.211,151.2v2.181h-3.33v3.33H44.7V151.2Z" transform="translate(-44.7 -151.2)"/>
      <path id="Path_17228" data-name="Path 17228" class="cls-1" d="M125.3,203.111V200.97h3.33V197.6h2.141v5.511Z" transform="translate(-93.344 -179.203)"/>
      <path id="Path_17229" data-name="Path 17229" class="cls-1" d="M50.211,203.111V200.97h-3.33V197.6H44.7v5.511Z" transform="translate(-44.7 -179.203)"/>
    </g>
  </g>
</svg>
