<?xml version="1.0" encoding="utf-8"?>
<!-- Generator: Adobe Illustrator 22.1.0, SVG Export Plug-In . SVG Version: 6.00 Build 0)  -->
<svg version="1.1" id="Layer_1" xmlns="http://www.w3.org/2000/svg" xmlns:xlink="http://www.w3.org/1999/xlink" x="0px" y="0px"
	 viewBox="0 0 32 32" style="enable-background:new 0 0 32 32;" xml:space="preserve">
<g>
	<g>
		<path fill="#023b41" d="M25.2,29.3H6.8c-0.6,0-1.1-0.5-1.1-1.1v-5.6h2.1v4.5h16.3v-4.5h2.1v5.6C26.3,28.8,25.8,29.3,25.2,29.3z"/>
	</g>
	<g>
		<path fill="#023b41" d="M26.3,9.8h-2.1V4.9H7.9v4.9H5.7v-6c0-0.6,0.5-1.1,1.1-1.1h18.4c0.6,0,1.1,0.5,1.1,1.1V9.8z"/>
	</g>
	<path fill="#023b41" d="M29.9,11.9H2.1C1.5,11.9,1,12.4,1,13v6.4c0,0.6,0.5,1.1,1.1,1.1h5.8v-4.3h16.3v4.3H30c0.6,0,1.1-0.5,1.1-1.1V13
		C31,12.4,30.5,11.9,29.9,11.9z M27.6,17.9c-0.9,0-1.7-0.8-1.7-1.7c0-0.9,0.8-1.7,1.7-1.7c0.9,0,1.7,0.8,1.7,1.7
		C29.3,17.2,28.5,17.9,27.6,17.9z"/>
	<g>
		<path fill="#023b41" d="M20.5,20.5h-9c-0.6,0-1.1-0.5-1.1-1.1s0.5-1.1,1.1-1.1h9c0.6,0,1.1,0.5,1.1,1.1S21.1,20.5,20.5,20.5z"/>
	</g>
	<g>
		<path fill="#023b41" d="M20.5,24.8h-9c-0.6,0-1.1-0.5-1.1-1.1s0.5-1.1,1.1-1.1h9c0.6,0,1.1,0.5,1.1,1.1S21.1,24.8,20.5,24.8z"/>
	</g>
</g>
</svg>
