<svg id="Group_14229" data-name="Group 14229" xmlns="http://www.w3.org/2000/svg" viewBox="0 0 79.066 78.588">
  <defs>
    <style>
      .cls-1 {
        fill: #023b41;
      }
    </style>
  </defs>
  <g id="Group_13668" data-name="Group 13668">
    <path id="Path_16347" data-name="Path 16347" class="cls-1" d="M21.207.5.646,18.912A1.921,1.921,0,0,0,0,20.346V76.651a1.929,1.929,0,0,0,1.937,1.937H77.13a1.929,1.929,0,0,0,1.937-1.937V1.937A1.929,1.929,0,0,0,77.13,0H22.5A1.867,1.867,0,0,0,21.207.5Zm50.9,73.065H6.957a1.929,1.929,0,0,1-1.937-1.937V22.594a1.921,1.921,0,0,1,.646-1.435L23.12,5.5A1.983,1.983,0,0,1,24.411,5h47.7a1.929,1.929,0,0,1,1.937,1.937v64.7A1.929,1.929,0,0,1,72.109,73.567Z"/>
  </g>
  <g id="Group_13669" data-name="Group 13669" transform="translate(9.635 9.659)">
    <path id="Path_16348" data-name="Path 16348" class="cls-1" d="M42.237,100.387H99.163A1.929,1.929,0,0,0,101.1,98.45V97.3a1.929,1.929,0,0,0-1.937-1.937H47.257a1.929,1.929,0,0,1-1.937-1.937V60.2a1.978,1.978,0,0,1,.55-1.363l12.6-12.863a1.877,1.877,0,0,1,1.387-.574H93.569a1.929,1.929,0,0,1,1.937,1.937V84.846a1.929,1.929,0,0,1-1.937,1.937H56.462a1.929,1.929,0,0,1-1.937-1.937V63.831a1.978,1.978,0,0,1,.55-1.363l7.149-7.292a1.877,1.877,0,0,1,1.387-.574H83.838a1.929,1.929,0,0,1,1.937,1.937v11.5a1.929,1.929,0,0,1-1.937,1.937h0A1.929,1.929,0,0,1,81.9,68.039h0A6.836,6.836,0,0,0,75.063,61.2H65.452a6.433,6.433,0,0,0-6.431,6.431V77.65a6.433,6.433,0,0,0,6.431,6.431H75.47A6.433,6.433,0,0,0,81.9,77.65v-.741a1.929,1.929,0,0,1,1.937-1.937h5.021A1.929,1.929,0,0,0,90.8,73.035V51.518a1.929,1.929,0,0,0-1.937-1.937H61.507a1.973,1.973,0,0,0-1.387.574L50.079,60.412a1.9,1.9,0,0,0-.55,1.363V89.843a1.929,1.929,0,0,0,1.937,1.937h47.1a1.929,1.929,0,0,0,1.937-1.937V42.337A1.929,1.929,0,0,0,98.566,40.4H57.729a1.973,1.973,0,0,0-1.387.574L40.85,56.8a1.9,1.9,0,0,0-.55,1.363V98.45A1.929,1.929,0,0,0,42.237,100.387ZM70.473,79.06h0a6.433,6.433,0,0,1-6.431-6.431h0A6.433,6.433,0,0,1,70.473,66.2h0A6.433,6.433,0,0,1,76.9,72.629h0A6.464,6.464,0,0,1,70.473,79.06Z" transform="translate(-40.3 -40.4)"/>
  </g>
</svg>
