<svg id="Group_14010" data-name="Group 14010" xmlns="http://www.w3.org/2000/svg" viewBox="0 0 62.333 78.596">
  <defs>
    <style>
      .cls-1 {
        fill: #0073AE;
      }
    </style>
  </defs>
  <g id="Group_14009" data-name="Group 14009">
    <path id="Path_16425" data-name="Path 16425" class="cls-1" d="M62.027,12.731a43.718,43.718,0,0,0-61.679,0,1.124,1.124,0,0,0,0,1.628,1.124,1.124,0,0,0,1.628,0,41.331,41.331,0,0,1,58.423,0,1.124,1.124,0,0,0,1.628,0A1.238,1.238,0,0,0,62.027,12.731Z"/>
    <path id="Path_16426" data-name="Path 16426" class="cls-1" d="M11.849,26.209a1.124,1.124,0,0,0,0,1.628,1.124,1.124,0,0,0,1.628,0,31.928,31.928,0,0,1,45.111,0,1.151,1.151,0,0,0,1.628-1.628A34.279,34.279,0,0,0,11.849,26.209Z" transform="translate(-4.815 -6.793)"/>
    <path id="Path_16427" data-name="Path 16427" class="cls-1" d="M40.747,32.5a24.573,24.573,0,0,0-17.5,7.208,1.151,1.151,0,0,0,1.628,1.628,22.455,22.455,0,0,1,31.74,0,1.124,1.124,0,0,0,1.628,0,1.124,1.124,0,0,0,0-1.628A24.573,24.573,0,0,0,40.747,32.5Z" transform="translate(-9.588 -13.607)"/>
  </g>
  <circle id="Ellipse_147" data-name="Ellipse 147" class="cls-1" cx="23.66" cy="23.66" r="23.66" transform="translate(7.499 31.275)"/>
</svg>
