<svg xmlns="http://www.w3.org/2000/svg" viewBox="0 0 93.875 134.042">
  <defs>
    <style>
      .cls-1, .cls-4 {
        fill: #023b41;
      }

      .cls-2 {
        fill: none;
      }

      .cls-3, .cls-4 {
        stroke: none;
      }
    </style>
  </defs>
  <g id="Group_16519" data-name="Group 16519" transform="translate(11694.267 1366.028)">
    <path id="Subtraction_7" data-name="Subtraction 7" class="cls-1" d="M53.061,134.042H41.336V93.27H53.061Zm0-122.485H41.336V1.25A13.758,13.758,0,0,1,47.106,0a14.638,14.638,0,0,1,5.94,1.243l.015.007V11.557Z" transform="translate(-11694.267 -1366.028)"/>
    <g id="Path_17271" data-name="Path 17271" class="cls-2" transform="translate(-11694.267 -1356.47)">
      <path class="cls-3" d="M15.893,0H77.982A15.893,15.893,0,0,1,93.875,15.893V69.819A15.893,15.893,0,0,1,77.982,85.712H15.893A15.893,15.893,0,0,1,0,69.819V15.893A15.893,15.893,0,0,1,15.893,0Z"/>
      <path class="cls-4" d="M 15.89293670654297 3.999992370605469 C 12.71620941162109 3.999992370605469 9.729644775390625 5.237068176269531 7.483352661132813 7.483345031738281 C 5.237075805664063 9.729637145996094 4 12.71620941162109 4 15.89292907714844 L 4 69.81890106201172 C 4 72.99560546875 5.237075805664063 75.98219299316406 7.483352661132813 78.22846984863281 C 9.729644775390625 80.47474670410156 12.71620941162109 81.71182250976563 15.89293670654297 81.71182250976563 L 77.98204040527344 81.71182250976563 C 81.15876770019531 81.71182250976563 84.14533233642578 80.47474670410156 86.39162445068359 78.22846984863281 C 88.63790130615234 75.98219299316406 89.87498474121094 72.99560546875 89.87498474121094 69.81890106201172 L 89.87498474121094 15.89292907714844 C 89.87498474121094 12.71620941162109 88.63790130615234 9.729637145996094 86.39162445068359 7.483345031738281 C 84.14533233642578 5.237068176269531 81.15876770019531 3.999992370605469 77.98204040527344 3.999992370605469 L 15.89293670654297 3.999992370605469 M 15.89293670654297 -7.62939453125e-06 L 77.98204040527344 -7.62939453125e-06 C 86.75947570800781 -7.62939453125e-06 93.87497711181641 7.115501403808594 93.87497711181641 15.89292907714844 L 93.87497711181641 69.81890106201172 C 93.87497711181641 78.5963134765625 86.75947570800781 85.71182250976563 77.98204040527344 85.71182250976563 L 15.89293670654297 85.71182250976563 C 7.115501403808594 85.71182250976563 0 78.5963134765625 0 69.81890106201172 L 0 15.89292907714844 C 0 7.115501403808594 7.115501403808594 -7.62939453125e-06 15.89293670654297 -7.62939453125e-06 Z"/>
    </g>
    <g id="Group_16518" data-name="Group 16518" transform="translate(-193)">
      <path id="Path_16854" data-name="Path 16854" class="cls-1" d="M36.879,30a14.344,14.344,0,0,0,2.839.177c4.082,0,7.453-1.065,9.76-3.372,1.775-1.6,2.662-4.082,2.662-7.1a9.332,9.332,0,0,0-3.017-6.921c-1.952-1.6-4.969-2.484-9.228-2.484a51.6,51.6,0,0,0-8.7.71v30.7h5.679Zm0-14.906a12.662,12.662,0,0,1,3.372-.355c3.9,0,6.389,1.775,6.389,5.324s-2.662,5.679-6.921,5.679a6.919,6.919,0,0,1-2.839-.355Z" transform="translate(-11475.208 -1341.272)"/>
      <path id="Path_16864" data-name="Path 16864" class="cls-1" d="M23.191,44.624a17.3,17.3,0,0,0,14.729-8.34A17.707,17.707,0,0,0,40.582,26.7a18.876,18.876,0,0,0-2.662-9.583,15.9,15.9,0,0,0-2.662-3.372A17.069,17.069,0,0,0,23.191,8.6C13.608,8.6,5.8,16.586,5.8,26.7a18.2,18.2,0,0,0,4.614,12.067A16.2,16.2,0,0,0,23.191,44.624Zm4.259-9.938h-.532v.355h-.355v-.355h-.355v-.532h.177v-.71s.355-1.775,1.065,0v.71h.177v.532Zm.887-9.583a10.888,10.888,0,0,1-.887,1.952h-2.13a6.3,6.3,0,0,1-.177-1.242c-.177,0-.177,0-.532.177a.6.6,0,0,1-.532-.887c.177-.532.887-.532,1.242-.355a3.682,3.682,0,0,1,1.065-1.775c.71-.532,1.242,0,1.6.177S28.515,24.216,28.337,25.1Zm6.566-11-1.065,1.952L29.58,17.118s-1.42.177-3.017.355c-1.775.177-3.727.532-4.082.532-.532,0-.71-.71-.71-.71s7.1-1.6,8.518-1.952A8.431,8.431,0,0,1,34.9,14.1ZM23.546,16.053a14.782,14.782,0,0,1,2.13-.177l-3.9.887A11.342,11.342,0,0,1,23.546,16.053Zm-8.7,2.307a3.369,3.369,0,0,1,3.372,3.372A3.49,3.49,0,0,1,14.85,25.1a3.372,3.372,0,1,1,0-6.743ZM11.124,28.653a3.67,3.67,0,0,1,5.324-2.662c2.13,1.952,4.969,4.614,4.969,4.614l1.065-1.065v-11l4.082-.532,3.017-.355,4.082-1.065v20.94L29.4,38.768h-.887V21.909l-5.324.71V28.83a1.892,1.892,0,0,1,2.484,2.484,34.068,34.068,0,0,0-2.484,2.662v4.791h-.71V34.686a3.939,3.939,0,0,0-.71.887l-3.9-3.194v6.566H11.124Z" transform="translate(-11492.527 -1342.59)"/>
    </g>
  </g>
</svg>
