<svg xmlns="http://www.w3.org/2000/svg" viewBox="0 0 46.744 81.286">
  <defs>
    <style>
      .cls-1 {
        fill: #fff;
      }
    </style>
  </defs>
  <g id="Group_14021" data-name="Group 14021" transform="translate(0 -0.022)">
    <path id="Path_16428" data-name="Path 16428" class="cls-1" d="M46.312,5.014H26.094V.867a4.869,4.869,0,0,0-5.443,0V5.014H.432A.408.408,0,0,0,0,5.446V68.262a.408.408,0,0,0,.432.432H20.65V81.309h5.443V68.694H46.312a.408.408,0,0,0,.432-.432V5.446A.408.408,0,0,0,46.312,5.014ZM.864,61V48.043H45.88V61H.864Zm0-55.125H45.88V39.144h0v.086H.864v-.086h0ZM5.357,63.6a.276.276,0,0,1-.259-.259v-1.3a.229.229,0,0,1,.259-.259h5.011a.229.229,0,0,1,.259.259v1.3a.229.229,0,0,1-.259.259Zm4.147.778v3.2h-3.2v-3.2Zm3.715-.432h.346a.317.317,0,0,1-.086-.259.519.519,0,0,1,.086-.346.432.432,0,0,1,.691,0c.086.086.086.173.086.346,0,.086-.086.173-.086.259h.95a.085.085,0,0,0,.086-.086h-.259a.317.317,0,0,1-.259-.086c0-.086-.086-.086-.086-.259a.372.372,0,0,1,.346-.346.519.519,0,0,1,.346.086c.086.086.086.086.086.259v.259a.317.317,0,0,1-.086.259c-.086,0-.173.086-.259.086H13.565a.316.316,0,0,1-.346-.346V63.6l.173-.173v.346C12.961,63.855,13.047,63.942,13.22,63.942Zm.518-1.037a.085.085,0,0,1,.086-.086c.086,0,.086,0,.086.086a.085.085,0,0,1-.086.086C13.825,63.078,13.738,62.991,13.738,62.9Zm.864,0a.086.086,0,1,1,.173,0s0,.173-.086.173A.3.3,0,0,1,14.6,62.9Zm.259,0a.086.086,0,1,1,.173,0v.173A.186.186,0,0,1,14.861,62.9Zm1.469,1.037h0c.173,0,.259-.086.259-.173v-.086c0-.086,0-.259.086-.259.086-.086.173-.173.259-.173.173,0,.259,0,.259.173a.317.317,0,0,1,.086.259c0,.086,0,.259-.086.259-.086.086-.173.173-.259.173a.317.317,0,0,1-.259-.086.317.317,0,0,1-.259.086h-.259c0,.086-.086.173-.086.259a.432.432,0,0,1-.518,0l-.086-.173c.086.086.173.086.346.086a.276.276,0,0,0,.259-.259H15.9c-.173,0-.259-.086-.346-.086a.317.317,0,0,1-.086-.259c0-.173,0-.259.086-.346a.449.449,0,0,1,.346-.173c.259,0,.346.173.346.432v.259h.086Zm1.555,2.592h-.259v-.086h0c0,.086-.086.086-.259.086a.229.229,0,0,1-.259-.259c0-.259.173-.346.518-.346h0c0-.086,0-.086-.173-.086a.317.317,0,0,0-.259.086l-.086-.173c.086,0,.173-.086.346-.086a.316.316,0,0,1,.346.346v.259A.669.669,0,0,1,17.886,66.534Zm.778-2.419a.408.408,0,0,1-.432-.432.519.519,0,0,1,.086-.346.449.449,0,0,1,.346-.173c.173,0,.259.086.259.173.086.086.086.173.086.346v.259h.259a.186.186,0,0,0,.173-.173v-.432l.173-.086v.518c0,.173.086.173.173.173h.259c.173,0,.173-.086.173-.173v-.432l.173-.086v.518c0,.173.086.173.173.173h.346V62.9l.173-.086v.691c.173-.173.346-.346.518-.346a.475.475,0,0,1,.432.259c.086.086.086.259.086.518h.259c.173,0,.173-.086.173-.173v-.432l.173-.086v.518a.305.305,0,0,1-.346.346H20.564a.317.317,0,0,1-.259-.086.317.317,0,0,1-.259.086h-.259a.317.317,0,0,1-.259-.086.317.317,0,0,1-.259.086h-.259c0,.259-.173.346-.518.346a.66.66,0,0,1-.432-.173c-.086-.086-.086-.259-.173-.432l.173-.086a.647.647,0,0,0,.086.432c.086.086.173.086.346.086.259,0,.346-.086.346-.173h-.173ZM18.4,62.9a.086.086,0,1,1,.173,0l-.086.173C18.4,63.078,18.4,62.991,18.4,62.9Zm.259,0a.086.086,0,1,1,.173,0s0,.173-.086.173S18.663,62.991,18.663,62.9Zm3.715,0c0-.086,0-.086.086-.086a.085.085,0,0,1,.086.086l-.086.173C22.379,63.078,22.379,62.991,22.379,62.9Zm.346.173a.085.085,0,0,1-.086-.086l.086-.086a.085.085,0,0,1,.086.086Zm.086,3.456h-.259v-.95c-.086.173-.086.346-.173.432l-.086.518h-.173l-.086-.432a3.742,3.742,0,0,0-.086-.432v.95H21.6l.086-1.123h.346l.086.346c0,.173.086.259.086.432h0c0-.173.086-.259.086-.432l.086-.346h.346Zm-2.246-.086-.346-.778h.259l.086.346v.259h0V66.1l.086-.432h.259l-.173.518a.905.905,0,0,1-.259.518.317.317,0,0,1-.259.086l-.086-.259h.086c.259.086.346.086.346-.086Zm-.346-2.074a.086.086,0,0,1,.173,0l-.086.086C20.218,64.46,20.218,64.46,20.218,64.374Zm-.864,1.9v-.95h.259v.432a.317.317,0,0,1,.259-.086.4.4,0,0,1,.346.432c0,.346-.173.432-.346.432-.086,0-.173,0-.259-.173v.086h-.259Zm-.086-1.9a.086.086,0,0,1,.173,0c0,.086,0,.086-.086.086A.085.085,0,0,1,19.268,64.374Zm.259,0a.086.086,0,0,1,.173,0c0,.086,0,.086-.086.086A.085.085,0,0,1,19.527,64.374Zm-1.21,2.074-.346-.778h.259l.086.432v.173h0V66.1l.086-.432h.259l-.173.518a.905.905,0,0,1-.259.518.317.317,0,0,1-.259.086l-.086-.259h.086c.259.086.259.086.346-.086Zm-1.21-.691a.317.317,0,0,1-.086.259.655.655,0,0,1-.346.173h-.086v.346H16.33V65.411h.346c.173,0,.259,0,.346.086A.87.87,0,0,1,17.108,65.756Zm6.221.086a.317.317,0,0,0-.259.086l-.086-.173c.086,0,.173-.086.346-.086a.316.316,0,0,1,.346.346v.432h-.259v-.086h0c0,.173,0,.173-.173.173a.229.229,0,0,1-.259-.259c0-.259.173-.346.518-.346h0S23.5,65.843,23.329,65.843Zm.691-1.728a.408.408,0,0,1-.432-.432.519.519,0,0,1,.086-.346.449.449,0,0,1,.346-.173c.173,0,.259.086.259.173.086.086.086.173.086.346v.259h.346a.186.186,0,0,0,.173-.173v-.432l.173-.086v.518a.305.305,0,0,1-.346.346h-.346c0,.259-.173.346-.518.346a.66.66,0,0,1-.432-.173.647.647,0,0,1-.086-.432l.173-.086a.647.647,0,0,0,.086.432c.086.086.173.086.346.086.259,0,.346-.086.346-.173H24.02Zm-.259-1.21a.086.086,0,1,1,.173,0s0,.173-.086.173A.3.3,0,0,1,23.761,62.9Zm.259,0c0-.086,0-.086.086-.086a.085.085,0,0,1,.086.086s0,.173-.086.173A.3.3,0,0,1,24.02,62.9Zm1.987,1.037h.259V62.9l.173-.086v.691a.71.71,0,0,1,.518-.346.475.475,0,0,1,.432.259.519.519,0,0,1,.086.346v.346H25.748c0,.259-.173.346-.432.346a.317.317,0,0,1-.259-.086v-.086a.317.317,0,0,0,.259.086.229.229,0,0,0,.259-.259v-.778l.173-.086v.691Zm2.592.346c.259,0,.346-.086.346-.259v-.6l.173-.086v.6h.432V63.6a.368.368,0,0,1,.6-.259l-.173.086c-.086-.086-.086-.086-.173-.086a.186.186,0,0,0-.173.173v.432h.6l.173.173h-1.3c0,.259-.173.346-.518.346a.522.522,0,0,1-.518-.259c-.086-.086-.086-.259-.086-.518l.173-.086v.173C28.168,64.2,28.254,64.287,28.6,64.287Zm-.173-.691a.085.085,0,0,1,.086-.086c.086,0,.086,0,.086.086a.085.085,0,0,1-.086.086Zm1.382,2.16h.259v.086c.086-.086.173-.173.259-.173a.4.4,0,0,1,.346.432c0,.346-.173.432-.346.432a.317.317,0,0,1-.259-.086h0v.432h-.259V65.756Zm-1.037,0h.259v.086c.086-.086.173-.173.259-.173a.4.4,0,0,1,.346.432c0,.346-.173.432-.346.432a.317.317,0,0,1-.259-.086h0v.432h-.259V65.756Zm-.518-.346.346,1.123H28.34l-.086-.259h-.346l-.086.259h-.259l.346-1.123Zm3.456-1.9.086.173h-.173v.086a.186.186,0,0,0,.173.173h.864a.085.085,0,0,0,.086-.086h-.259c-.086,0-.259,0-.259-.086s-.086-.086-.086-.259a.372.372,0,0,1,.346-.346c.173,0,.259,0,.346.086s.086.086.086.259v.259a.317.317,0,0,1-.086.259c-.086,0-.173.086-.259.086H31.8c-.173,0-.173-.086-.173-.259v-.173h-.086a.372.372,0,0,0-.346.346c0,.173.086.259.346.259h.173c.086,0,.086-.086.173-.086v.173c-.086.086-.173.086-.346.086s-.259,0-.346-.086a.449.449,0,0,1-.173-.346.475.475,0,0,1,.259-.432V63.51a.368.368,0,0,1,.6-.259l-.173.173a.085.085,0,0,0-.086-.086c-.086,0-.086,0-.086.173h.173Zm.6-.6c0-.086,0-.086.086-.086a.085.085,0,0,1,.086.086l-.086.173C32.315,63.078,32.315,62.991,32.315,62.9Zm1.037.518c-.086,0-.173.086-.259.173v-.173a.347.347,0,0,1,.6.259V64.2H32.92l.086-.173h.518v-.346C33.525,63.423,33.438,63.423,33.352,63.423Zm.518.691V62.9l.173-.086v1.3Zm7.69-.432a.229.229,0,0,1-.259.259H36.549a.276.276,0,0,1-.259-.259v-1.21a.276.276,0,0,1,.259-.259H41.3a.276.276,0,0,1,.259.259Zm-4.32,1.037h3.2v3.2h-3.2v-3.2Zm-10.887.864a.186.186,0,0,1-.173-.173c0-.086.086-.086.173-.086a.085.085,0,0,1,.086.086C26.526,65.583,26.439,65.583,26.353,65.583Zm.173.173v.864h-.259v-.864Zm.6,0v.173h-.173v.6H26.7v-.691h-.086V65.67H26.7c0-.086,0-.259.086-.259a.317.317,0,0,1,.259-.086h.173V65.5h-.086c-.086,0-.086.086-.086.173h.086Zm-1.555.778c-.259,0-.346-.173-.346-.432a.408.408,0,0,1,.432-.432c.086,0,.173.086.259.086h0V65.67h.259v.691c0,.173,0,.259-.086.346a.519.519,0,0,1-.346.086c-.086,0-.259,0-.259-.086l.086-.173c.086,0,.173.086.259.086a.276.276,0,0,0,.259-.259v-.086C25.748,66.534,25.662,66.534,25.575,66.534Zm-.432-.778-.259.864h-.259l-.086-.259a.317.317,0,0,0-.086-.259.317.317,0,0,1-.086.259v.173h-.259l-.259-.864h.259l.086.346a.317.317,0,0,0,.086.259h0a.317.317,0,0,1,.086-.259l.086-.346h.173l.086.346a.317.317,0,0,0,.086.259.317.317,0,0,1,.086-.259l.086-.346h.173Zm-.6-1.382a.085.085,0,0,1,.086-.086l.086.086a.086.086,0,0,1-.173,0Zm.259,0a.086.086,0,1,1,.086.086C24.8,64.46,24.8,64.46,24.8,64.374ZM2.679,42.254c-.259-.086-.432-.259-.432-.432a.484.484,0,0,1,.518-.432c.173,0,.259,0,.346.086l-.086.173c-.086,0-.173-.086-.346-.086-.259,0-.346.173-.346.259,0,.173.086.259.346.346a.548.548,0,0,1,.432.518c0,.259-.173.432-.6.432a.648.648,0,0,1-.432-.086l.086-.173a.52.52,0,0,0,.346.086c.259,0,.346-.086.346-.259C3.024,42.427,2.938,42.341,2.679,42.254Zm1.21-.346A.519.519,0,0,0,3.543,42l-.086-.173a.648.648,0,0,1,.432-.086c.346,0,.432.259.432.518v.691H4.147v-.173h0a.449.449,0,0,1-.346.173.316.316,0,0,1-.346-.346c0-.259.259-.432.691-.432h0A.254.254,0,0,0,3.888,41.909Zm1.382-.086V42H5.011v.691c0,.173.086.259.173.259h.086v.173H5.1a.317.317,0,0,1-.259-.086c-.086-.086-.086-.173-.086-.346V42H4.579v-.173h.173v-.259l.259-.086v.346Zm.691,1.037c.173,0,.259-.086.259-.173v-.864H6.48v1.21H6.307v-.173h0a.539.539,0,0,1-.432.259c-.173,0-.432-.086-.432-.518v-.691H5.7V42.6A.276.276,0,0,0,5.962,42.859Zm.95-1.037h.173v.259h0c.086-.173.173-.259.346-.259h.086V42H7.431a.229.229,0,0,0-.259.259v.691H6.912V41.822Zm0,2.333c.432,0,.6.259.6.432s-.086.259-.259.346h0c.173.086.346.173.346.432,0,.346-.259.518-.691.518s-.691-.259-.691-.518a.441.441,0,0,1,.346-.432.475.475,0,0,1-.259-.432C6.307,44.328,6.567,44.155,6.912,44.155Zm-.864.864c0,.518-.259.95-.691.95a.785.785,0,0,1-.691-.864c0-.518.259-.864.691-.864C5.875,44.155,6.048,44.587,6.048,45.019Zm2.679-1.987H8.554v-.173a.475.475,0,0,1-.432.259.578.578,0,0,1-.518-.6c0-.432.259-.6.518-.6.173,0,.346.086.346.173h0V41.39h.259v1.469C8.727,42.773,8.727,42.946,8.727,43.032Zm.691-1.123A.519.519,0,0,0,9.072,42l-.086-.173a.52.52,0,0,1,.346-.086c.346,0,.432.259.432.518v.691H9.591v-.173h0a.449.449,0,0,1-.346.173A.316.316,0,0,1,8.9,42.6c0-.259.259-.432.691-.432h0C9.677,42.168,9.677,41.909,9.418,41.909Zm1.123,1.037-.432-1.123h.259l.259.691c0,.086.086.173.086.259h0a.317.317,0,0,1,.086-.259l.259-.691h.173l-.346.864a2.044,2.044,0,0,1-.432.778c-.086.086-.173.086-.259.173l-.086-.173c.086,0,.086-.086.173-.086s.086-.086.173-.259c.086-.086.086-.086.086-.173Zm.086,1.21a.785.785,0,0,1,.691.864c0,.518-.259.95-.691.95a.785.785,0,0,1-.691-.864C9.936,44.587,10.109,44.155,10.628,44.155Zm-1.555,0a.785.785,0,0,1,.691.864c0,.518-.259.95-.691.95a.785.785,0,0,1-.691-.864C8.381,44.587,8.64,44.155,9.072,44.155Zm-1.037.95a.259.259,0,1,1,.259-.259Q8.165,45.106,8.036,45.106Zm.173.6a.259.259,0,1,1-.259-.259A.229.229,0,0,1,8.208,45.71Zm4.234-3.283h-.6v-.173h.6Zm.173,2.679v.259h-.691v-.259ZM14.6,42c0-.086.086-.086.173-.173.086,0,.173-.086.259-.086.173,0,.432.086.432.518v.691h-.259v-.6c0-.173-.086-.346-.259-.346a.229.229,0,0,0-.259.259v.778h-.259V41.3h.259L14.6,42Zm1.555.864c.173,0,.259-.086.259-.173v-.864h.259v1.21H16.5v-.173h0a.539.539,0,0,1-.432.259c-.173,0-.432-.086-.432-.518v-.691H15.9V42.6A.276.276,0,0,0,16.157,42.859Zm.518,2.246a.259.259,0,1,1,.259-.259A.229.229,0,0,1,16.676,45.106Zm.259.6a.259.259,0,1,1-.259-.259A.276.276,0,0,1,16.935,45.71Zm-.864-1.123a.441.441,0,0,1-.346.432.4.4,0,0,1,.346.432c0,.346-.259.518-.691.518a3.055,3.055,0,0,1-.518-.086l.086-.346a.648.648,0,0,0,.432.086c.259,0,.346-.086.346-.259s-.173-.259-.346-.259h-.173v-.259h.173c.173,0,.346-.086.346-.173s-.086-.173-.259-.173-.259.086-.346.086l-.086-.259a.926.926,0,0,1,.518-.173C15.9,44.155,16.071,44.328,16.071,44.587Zm-1.469.086a1.194,1.194,0,0,1-.432.778L14,45.624h.691v.346h-1.21v-.259l.259-.173c.346-.346.6-.518.6-.778a.229.229,0,0,0-.259-.259.449.449,0,0,0-.346.173l-.086-.259a1.007,1.007,0,0,1,.6-.173C14.429,44.155,14.6,44.414,14.6,44.674Zm-.432-3.111h-.518v1.469h-.259V41.563h-.432V41.39h1.21Zm3.975.95c-.259-.086-.346-.173-.346-.346a.4.4,0,0,1,.432-.346c.086,0,.259,0,.259.086l-.086.173c-.086,0-.173-.086-.259-.086a.186.186,0,0,0-.173.173c0,.086.086.173.259.173.173.086.346.173.346.346a.4.4,0,0,1-.432.346c-.173,0-.259,0-.346-.086l.086-.173c.086,0,.173.086.259.086.173,0,.259-.086.259-.173S18.318,42.514,18.145,42.514Zm1.728.518H19.7v-.173a.735.735,0,0,1-.432.259.578.578,0,0,1-.518-.6c0-.432.259-.6.518-.6.173,0,.346.086.346.173h0V41.39h.259v1.642Zm-.6,1.123a.785.785,0,0,1,.691.864c0,.518-.259.95-.691.95a.785.785,0,0,1-.691-.864C18.577,44.587,18.836,44.155,19.268,44.155Zm-.864.864c0,.518-.259.95-.691.95a.785.785,0,0,1-.691-.864c0-.518.259-.864.691-.864C18.231,44.155,18.4,44.587,18.4,45.019ZM17.626,42h0c-.259,0-.346.086-.346.259v.691h-.259v-1.21h.259V42h0c.086-.173.173-.259.346-.259h.086V42Zm3.024-.086h0c-.173,0-.259,0-.346.086l-.086-.173a.52.52,0,0,1,.346-.086c.346,0,.432.259.432.518v.691h-.173v-.173h0c-.086.086-.173.173-.259.173h-.086a.316.316,0,0,1-.346-.346c0-.259.173-.346.518-.432h.259A.645.645,0,0,0,20.65,41.909Zm1.037,1.037-.432-1.123h.259l.259.691c0,.086.086.173.086.259h0c0-.086.086-.173.086-.259l.259-.691h.259l-.346.864a2.044,2.044,0,0,1-.432.778c-.086.086-.173.086-.259.173l-.086-.173a.3.3,0,0,0,.173-.086c.086,0,.173-.086.173-.259v-.173Zm4.234.259h.173c.173,0,.259-.173.259-.346V42l.259-.086v.778h.6v-.864l.259-.086v.95h.6v-.95l.259-.086v1.037h.432a.229.229,0,0,0,.259-.259v-.691l.259-.086v.691a.229.229,0,0,0,.259.259h.173c.173,0,.346-.086.346-.259,0-.346.259-.518.6-.518.173,0,.346,0,.432.173a.449.449,0,0,1,.173.346c0,.173.173.259.346.259h1.21v-.086c0-.259,0-.346-.086-.432-.086-.173-.173-.259-.346-.259a.475.475,0,0,0-.432.259l-.173-.173a.933.933,0,0,1,.6-.259.579.579,0,0,1,.6.346,1.281,1.281,0,0,1,.086.6v.086h.432a.229.229,0,0,0,.259-.259v-1.21l.259-.086v1.3a.449.449,0,0,1-.173.346.66.66,0,0,1-.432.173H31.364a.449.449,0,0,1-.346-.173.474.474,0,0,1-.518.346c-.259,0-.518-.086-.518-.346a.449.449,0,0,1-.346.173h-.173a.66.66,0,0,1-.432-.173.66.66,0,0,1-.432.173h-2.16a.458.458,0,0,1-.518.518h-.173c-.346,0-.6-.086-.691-.346,0-.173,0-.346,0-.691l.259-.086V42.6C25.316,43.032,25.489,43.2,25.921,43.2Zm6.394-1.987a.173.173,0,1,1,.173.173C32.315,41.39,32.315,41.3,32.315,41.218Zm1.728,4.061a.669.669,0,0,1-.086.259l-.173.173c-.086-.086-.259-.173-.432-.346a1.889,1.889,0,0,0,.259-.432,1.069,1.069,0,0,0,.259.173C33.957,45.106,33.957,45.192,34.043,45.278Zm-1.037,0a.669.669,0,0,1-.086.259l-.173.173c-.086-.086-.259-.173-.432-.346.086-.086.173-.259.346-.432a1.069,1.069,0,0,0,.259.173A.3.3,0,0,1,33.006,45.278Zm-1.382-.346-.346-.259.173-.259.346.259Zm.086.778-.173.259-.346-.173.173-.259Zm-1.987,0v.432H29.55V45.71c-.086-.259-.086-.518-.173-.691a.463.463,0,0,0-.259-.346v-.086a.317.317,0,0,1,.086-.259c.086-.173.086-.173.173-.173l.086.086a.268.268,0,0,1,.086.173h.173c.086,0,.173,0,.173-.086a.3.3,0,0,0,.086-.173.085.085,0,0,1,.086-.086h0v.086c0,.086.086.173.259.173l.086-.086.086-.086h0a.779.779,0,0,1-.086.432c0,.259-.086.346-.173.346s-.086,0-.173-.086l-.086.086h-.259Zm-.691-2.246a.173.173,0,1,1,.173-.173Zm.173-.173a.173.173,0,1,1,.173.173A.186.186,0,0,1,29.2,43.291ZM28.081,45.71v.432h-.173V45.97a.669.669,0,0,0-.086-.259c-.086-.259-.086-.518-.173-.691-.086-.086-.086-.259-.259-.346v-.086a.317.317,0,0,1,.086-.259c.086-.173.086-.173.173-.173l.086.086a.268.268,0,0,1,.086.173h.173c.173,0,.346-.086.346-.173h.086v.432c-.086.173-.086.259-.259.259-.086,0-.173.086-.259.086A.931.931,0,0,1,28.081,45.71Zm8.295-3.37H35.339v-.259h1.037Zm.259,2.506.173.173.173.173a.669.669,0,0,1-.086.259c-.086.086-.086.173-.173.173-.086-.086-.259-.173-.432-.346A2.364,2.364,0,0,0,36.635,44.846Zm-.778.086v.259H34.389v-.259Zm-1.21-2.074h-.259V41.131l.259-.086Zm3.024-.173h.95a.229.229,0,0,0,.259-.259v-.691l.259-.086v.691c0,.259.086.346.346.346h.259A.229.229,0,0,0,40,42.427v-.691l.259-.086v.691a.229.229,0,0,0,.259.259h.432v-.691l.259-.086V42.6h.518v-.864l.259-.086v.95h.6v-.95l.259-.086V42.6h.432a.229.229,0,0,0,.259-.259v-1.21l.259-.086v1.3a.449.449,0,0,1-.173.346.655.655,0,0,1-.346.173H40.61c-.173,0-.259-.086-.432-.173a.66.66,0,0,1-.432.173H39.4a.66.66,0,0,1-.432-.173c-.086.173-.259.173-.432.173H37.5a.458.458,0,0,1-.518-.518v-.259l.259-.259v.518C37.413,42.6,37.5,42.686,37.672,42.686Zm.173-1.037a.173.173,0,1,1,.173.173A.186.186,0,0,1,37.845,41.65Zm.346,0a.173.173,0,1,1,.173.173A.186.186,0,0,1,38.19,41.65Zm4.061,3.629a.378.378,0,0,0-.086.259c-.086.086-.086.173-.173.173-.086-.086-.259-.173-.432-.346.086-.086.173-.259.346-.432a1.069,1.069,0,0,0,.259.173C42.251,45.106,42.251,45.192,42.251,45.278Zm-.95,0a.378.378,0,0,0-.086.259c-.086.086-.086.173-.173.173-.086-.086-.259-.173-.432-.346.086-.086.173-.259.346-.432l.173.173A.186.186,0,0,1,41.3,45.278Zm-.95-1.987a.173.173,0,1,1-.173-.173A.186.186,0,0,1,40.35,43.291Zm-.432,1.642-.346-.259.173-.259.346.259ZM40,45.71l-.173.259-.346-.173.173-.259Zm-.95,0h0a.317.317,0,0,1-.086.259.317.317,0,0,0-.086.259h0s-.086,0-.173-.173a4.122,4.122,0,0,1-.691-1.382,5.369,5.369,0,0,1-.259.864,1.671,1.671,0,0,1-.432.778.378.378,0,0,1-.086-.259c0-.086-.086-.173-.086-.259l.173-.173a5.131,5.131,0,0,0,.346-.691,1.894,1.894,0,0,0,.259-.691H38.1c.086.173.086.259.173.346C38.45,44.846,38.709,45.192,39.054,45.71Zm5.184-2.851V41.131l.259-.086v1.814Z" transform="translate(0 0)"/>
    <path id="Path_16429" data-name="Path 16429" class="cls-1" d="M49,62.469h.259V61H49Z" transform="translate(-6.662 -8.291)"/>
    <path id="Path_16430" data-name="Path 16430" class="cls-1" d="M48.791,30.3l-.691.173v3.888h.691Z" transform="translate(-6.54 -4.117)"/>
    <path id="Path_16431" data-name="Path 16431" class="cls-1" d="M47.757,62.037a.229.229,0,0,1-.259.259h-.346v-.864l-.259.086V62.3h-.432v-.778L46.2,61.6V62.3H45.77V61.6l-.259.086v.6h-.432a.229.229,0,0,1-.259-.259v-.6l-.259.086v.518a.229.229,0,0,1-.259.259h-.173a.229.229,0,0,1-.259-.259v-.518L43.7,61.6v.6a.229.229,0,0,1-.259.259h-.518a.229.229,0,0,1-.259-.259v-.432l-.259.086v.259a.408.408,0,0,0,.432.432h.778a.449.449,0,0,0,.346-.173.449.449,0,0,0,.346.173h.259c.173,0,.259,0,.346-.086.086.086.173.086.346.086h2.333a.52.52,0,0,0,.346-.086.317.317,0,0,0,.086-.259V61h-.259Z" transform="translate(-5.765 -8.291)"/>
    <path id="Path_16432" data-name="Path 16432" class="cls-1" d="M47.559,73.332l-.173-.346H47.3l.259.346-.086.086a.085.085,0,0,1-.086.086h.086c.086,0,.086,0,.086-.086l.173-.518h-.086Z" transform="translate(-6.431 -9.909)"/>
    <path id="Path_16433" data-name="Path 16433" class="cls-1" d="M47.246,73.359v-.173a.085.085,0,0,0-.086-.086h-.173v.086h0V73.1h.173v.173h-.173l-.086.086v.086h.173a.268.268,0,0,1,.173-.086Zm0-.086c0,.086-.086.086,0,0-.086.086-.086.086-.173.086h-.086v-.086l.086-.086h.086l.086.086Z" transform="translate(-6.377 -9.936)"/>
    <rect id="Rectangle_3224" data-name="Rectangle 3224" class="cls-1" width="0.086" height="0.086" transform="translate(40.264 66.534)"/>
    <rect id="Rectangle_3225" data-name="Rectangle 3225" class="cls-1" width="0.086" height="0.086" transform="translate(40.264 66.966)"/>
    <rect id="Rectangle_3226" data-name="Rectangle 3226" class="cls-1" width="0.086" height="0.086" transform="translate(40.264 67.398)"/>
    <rect id="Rectangle_3227" data-name="Rectangle 3227" class="cls-1" width="0.086" height="0.086" transform="translate(40.264 67.657)"/>
    <rect id="Rectangle_3228" data-name="Rectangle 3228" class="cls-1" width="0.086" height="0.086" transform="translate(40.178 66.447)"/>
    <path id="Path_16434" data-name="Path 16434" class="cls-1" d="M46.4,77.286v.086h.086v.086h.086v-.086h.086V77.2h-.173v.086Z" transform="translate(-6.309 -10.493)"/>
    <path id="Path_16435" data-name="Path 16435" class="cls-1" d="M46.459,75.459V75.2H46.2v.259h.259Z" transform="translate(-6.282 -10.222)"/>
    <rect id="Rectangle_3229" data-name="Rectangle 3229" class="cls-1" width="0.086" height="0.086" transform="translate(40.091 66.62)"/>
    <rect id="Rectangle_3230" data-name="Rectangle 3230" class="cls-1" width="0.086" height="0.086" transform="translate(40.091 67.743)"/>
    <path id="Path_16436" data-name="Path 16436" class="cls-1" d="M46.546,75.886h-.086V75.8H46.2v.086h.173v.259h.086v.086h.086v-.086h.086V75.8h-.086Z" transform="translate(-6.282 -10.303)"/>
    <rect id="Rectangle_3231" data-name="Rectangle 3231" class="cls-1" width="0.086" height="0.086" transform="translate(40.005 66.707)"/>
    <path id="Path_16437" data-name="Path 16437" class="cls-1" d="M46.346,59h1.987a.458.458,0,0,0,.518-.518V57.7l-.259.086v.691a.229.229,0,0,1-.259.259h-.259v-.95l-.346.086v.864H47.21v-.778l-.259.086v.691h-.518c-.086,0-.173,0-.173-.173V57.1L46,57.273v1.382A.316.316,0,0,0,46.346,59Z" transform="translate(-6.254 -7.761)"/>
    <rect id="Rectangle_3232" data-name="Rectangle 3232" class="cls-1" width="0.086" height="0.086" transform="translate(39.918 67.743)"/>
    <path id="Path_16438" data-name="Path 16438" class="cls-1" d="M46.159,67.5a1.193,1.193,0,0,1-.259.346,1.192,1.192,0,0,1,.346.259l.173-.173a.268.268,0,0,0,.086-.173l-.173-.173A.3.3,0,0,1,46.159,67.5Z" transform="translate(-6.241 -9.175)"/>
    <rect id="Rectangle_3233" data-name="Rectangle 3233" class="cls-1" width="0.086" height="0.086" transform="translate(39.832 67.657)"/>
    <path id="Path_16439" data-name="Path 16439" class="cls-1" d="M46.6,75.518v-.259h0V75H46v.259h0V75.6h.6Zm-.086-.346v.086h0v.259h-.432v-.259h0v-.173l.432.086Z" transform="translate(-6.254 -10.194)"/>
    <rect id="Rectangle_3234" data-name="Rectangle 3234" class="cls-1" width="0.086" height="0.086" transform="translate(39.746 65.583)"/>
    <rect id="Rectangle_3235" data-name="Rectangle 3235" class="cls-1" width="0.086" height="0.086" transform="translate(39.746 67.139)"/>
    <rect id="Rectangle_3236" data-name="Rectangle 3236" class="cls-1" width="0.086" height="0.086" transform="translate(39.746 67.571)"/>
    <path id="Path_16440" data-name="Path 16440" class="cls-1" d="M46.118,65.218a.268.268,0,0,0,.086-.173l-.173-.173c-.086-.086-.173-.086-.173-.173a1.193,1.193,0,0,1-.259.346,1.192,1.192,0,0,1,.346.259C46.032,65.3,46.032,65.3,46.118,65.218Z" transform="translate(-6.2 -8.794)"/>
    <rect id="Rectangle_3237" data-name="Rectangle 3237" class="cls-1" width="0.086" height="0.086" transform="translate(39.659 65.929)"/>
    <path id="Path_16441" data-name="Path 16441" class="cls-1" d="M45.986,76.173v.086h.086v.086h0v.173h.086v-.173h.086v.086h.086V76.6h-.173v.086h-.086v-.173H45.9v.346h.086v.086h.346v-.173h.086v-.086H46.5v.086h.086V76.6h-.173v-.173H46.5v-.086h-.173v-.086h-.173v-.086h.086V76h-.173v.173Z" transform="translate(-6.241 -10.33)"/>
    <path id="Path_16442" data-name="Path 16442" class="cls-1" d="M45.886,76.486V76.4H45.8v.173h.086Z" transform="translate(-6.227 -10.385)"/>
    <rect id="Rectangle_3238" data-name="Rectangle 3238" class="cls-1" width="0.086" height="0.086" transform="translate(39.486 66.361)"/>
    <rect id="Rectangle_3239" data-name="Rectangle 3239" class="cls-1" width="0.086" height="0.086" transform="translate(39.4 65.929)"/>
    <rect id="Rectangle_3240" data-name="Rectangle 3240" class="cls-1" width="0.086" height="0.086" transform="translate(39.227 67.743)"/>
    <path id="Path_16443" data-name="Path 16443" class="cls-1" d="M45.573,73.3v-.6h-.086l.086.6h0c-.086,0-.086,0-.086.086l.086-.086Z" transform="translate(-6.173 -9.882)"/>
    <path id="Path_16444" data-name="Path 16444" class="cls-1" d="M45.473,62.986a.086.086,0,1,0-.086.086C45.386,63.159,45.473,63.073,45.473,62.986Z" transform="translate(-6.159 -8.549)"/>
    <path id="Path_16445" data-name="Path 16445" class="cls-1" d="M45.273,76.846v.173h.086v-.086h.173v-.086h-.173v-.086h.259v-.086H45.7v-.086h-.086V76.5h-.086v.086h-.173v.086H45.1v.086h.173Z" transform="translate(-6.132 -10.398)"/>
    <path id="Path_16446" data-name="Path 16446" class="cls-1" d="M45.3,72.2l.173.259h0V72.2h0v.173L45.3,72.2h0v.259h0Z" transform="translate(-6.159 -9.814)"/>
    <path id="Path_16447" data-name="Path 16447" class="cls-1" d="M45.259,67.5a1.193,1.193,0,0,1-.259.346,1.192,1.192,0,0,1,.346.259l.173-.173a.268.268,0,0,0,.086-.173l-.173-.173A.3.3,0,0,1,45.259,67.5Z" transform="translate(-6.118 -9.175)"/>
    <rect id="Rectangle_3241" data-name="Rectangle 3241" class="cls-1" width="0.086" height="0.086" transform="translate(38.968 64.978)"/>
    <path id="Path_16448" data-name="Path 16448" class="cls-1" d="M44.9,78.386v.086h.346v-.086h-.086V78.3h-.173v.086Z" transform="translate(-6.105 -10.643)"/>
    <path id="Path_16449" data-name="Path 16449" class="cls-1" d="M47.106,32.837a.842.842,0,0,0-.346-.778A1.46,1.46,0,0,0,45.9,31.8a1.238,1.238,0,0,0-.864.346v.691a.95.95,0,0,1,.864-.518.616.616,0,0,1,.691.6v1.21H44.946l-.346.432h2.506Z" transform="translate(-6.064 -4.321)"/>
    <rect id="Rectangle_3242" data-name="Rectangle 3242" class="cls-1" width="0.086" height="0.086" transform="translate(38.882 67.398)"/>
    <path id="Path_16450" data-name="Path 16450" class="cls-1" d="M44.8,65.032a1.193,1.193,0,0,1,.346.259l.173-.173a.268.268,0,0,0,.086-.173l-.173-.173c-.086-.086-.173-.086-.173-.173A4.488,4.488,0,0,0,44.8,65.032Z" transform="translate(-6.091 -8.78)"/>
    <path id="Path_16451" data-name="Path 16451" class="cls-1" d="M45.418,73h-.173c-.086,0-.086,0-.173.086l-.086.086c0,.086.086.086.173.086h0v.086h-.173a.085.085,0,0,0-.086.086c0,.086.086.086.173.086.173,0,.259-.086.259-.173s0-.086-.086-.086h0l.086-.086a.085.085,0,0,0-.086-.086L45.418,73Zm-.086.518c0,.086,0,.086-.086.086s-.173,0-.173-.086a.085.085,0,0,1,.086-.086h.086A.085.085,0,0,1,45.332,73.518Zm-.086-.259h0a.186.186,0,0,1-.173-.173V73h.086a.166.166,0,0,1,.086.259C45.332,73.173,45.332,73.259,45.246,73.259Z" transform="translate(-6.105 -9.922)"/>
    <path id="Path_16452" data-name="Path 16452" class="cls-1" d="M45.073,75.3H44.9v.086h.086v.086h.086v-.086Z" transform="translate(-6.105 -10.235)"/>
    <rect id="Rectangle_3243" data-name="Rectangle 3243" class="cls-1" width="0.086" height="0.086" transform="translate(38.795 65.324)"/>
    <path id="Path_16453" data-name="Path 16453" class="cls-1" d="M44.986,76.386v.086H44.9v.173h.086v-.086h.086v-.086h0V76.3h-.086Z" transform="translate(-6.105 -10.371)"/>
    <path id="Path_16454" data-name="Path 16454" class="cls-1" d="M44.9,77.886v.086h.086V77.8H44.9Z" transform="translate(-6.105 -10.575)"/>
    <path id="Path_16455" data-name="Path 16455" class="cls-1" d="M45.073,72.446a.173.173,0,1,0-.173-.173A.186.186,0,0,0,45.073,72.446Zm0-.259c.086,0,.086,0,.086.086s0,.086-.086.086-.086,0-.086-.086C44.9,72.186,44.986,72.186,45.073,72.186Z" transform="translate(-6.105 -9.8)"/>
    <path id="Path_16456" data-name="Path 16456" class="cls-1" d="M44.886,77.232h0l.173.086V77.4h-.086v.086h.173V77.4h.086v.086h.086v-.259h.173v.086H45.4v.173h0v.086h-.173v-.086h-.086v.086h-.173v.086h.086v.173h.086v-.173h.086v.259H45.4v.086h0V78.1h.086v.086h.086V78.1h.086v.086h.173V78.1h0V78.01H45.75v-.086h.086v-.086h.086v.086h.086v-.086H46.1v.086h.086v.086h.086v-.346H46.1v-.086h.086v-.086h0v-.173H46.1V77.4H45.75v-.086h.259v-.173h-.173v.086h-.173v-.173h.086v-.086h-.173v.086h0v.086h-.086v-.086H45.4v.086h-.086v-.086h-.086v-.086h-.086V76.8h-.173v.086h-.086V76.8H44.8v.173h.173v.086H44.8v.086h.086v.086Zm.864.432h0v-.173h.259v.259H45.75Zm-.259.173h0l.086-.086v.086Zm.173.173V78.1h-.086V78.01Zm-.518-.778h.086v.086l-.086-.086Z" transform="translate(-6.091 -10.439)"/>
    <rect id="Rectangle_3244" data-name="Rectangle 3244" class="cls-1" width="0.086" height="0.086" transform="translate(38.622 66.102)"/>
    <path id="Path_16457" data-name="Path 16457" class="cls-1" d="M44.959,77.573h-.086V77.4h-.086v.086H44.7v.173h.259Z" transform="translate(-6.078 -10.521)"/>
    <rect id="Rectangle_3245" data-name="Rectangle 3245" class="cls-1" width="0.086" height="0.086" transform="translate(38.536 65.151)"/>
    <path id="Path_16458" data-name="Path 16458" class="cls-1" d="M44.773,75.673V75.5h-.086v.173H44.6v.173h.173v-.173Z" transform="translate(-6.064 -10.262)"/>
    <rect id="Rectangle_3246" data-name="Rectangle 3246" class="cls-1" width="0.086" height="0.086" transform="translate(38.536 66.015)"/>
    <rect id="Rectangle_3247" data-name="Rectangle 3247" class="cls-1" width="0.086" height="0.086" transform="translate(38.536 67.139)"/>
    <path id="Path_16459" data-name="Path 16459" class="cls-1" d="M44.859,77.973h-.086V77.8h-.086v.346H44.6V78.4h.173v-.173h.173v-.086h-.086Z" transform="translate(-6.064 -10.575)"/>
    <path id="Path_16460" data-name="Path 16460" class="cls-1" d="M44.586,75.5H44.5v.173h.086v-.086Z" transform="translate(-6.05 -10.262)"/>
    <path id="Path_16461" data-name="Path 16461" class="cls-1" d="M44.673,76.586h-.086V76.5H44.5v.173h.173Z" transform="translate(-6.05 -10.398)"/>
    <rect id="Rectangle_3248" data-name="Rectangle 3248" class="cls-1" width="0.086" height="0.086" transform="translate(38.45 67.311)"/>
    <path id="Path_16462" data-name="Path 16462" class="cls-1" d="M44.586,72.459h0V72.2h0Z" transform="translate(-6.05 -9.814)"/>
    <path id="Path_16463" data-name="Path 16463" class="cls-1" d="M44.759,73c-.086,0-.259.086-.259.173a.186.186,0,0,0,.173.173c.173,0,.259-.086.259-.173A.186.186,0,0,0,44.759,73Zm.086.346h0c-.173.086-.259-.086-.259-.173v-.086h.086c.086,0,.173.173.173.259Z" transform="translate(-6.05 -9.922)"/>
    <path id="Path_16464" data-name="Path 16464" class="cls-1" d="M44.1,67.359l.259.173.086-.259-.259-.173Z" transform="translate(-5.996 -9.12)"/>
    <rect id="Rectangle_3249" data-name="Rectangle 3249" class="cls-1" width="0.086" height="0.086" transform="translate(38.363 65.411)"/>
    <rect id="Rectangle_3250" data-name="Rectangle 3250" class="cls-1" width="0.173" height="0.086" transform="translate(38.277 66.275)"/>
    <rect id="Rectangle_3251" data-name="Rectangle 3251" class="cls-1" width="0.086" height="0.086" transform="translate(38.363 67.657)"/>
    <rect id="Rectangle_3252" data-name="Rectangle 3252" class="cls-1" width="0.086" height="0.259" transform="translate(38.363 62.386)"/>
    <rect id="Rectangle_3253" data-name="Rectangle 3253" class="cls-1" width="0.086" height="0.086" transform="translate(38.277 65.324)"/>
    <rect id="Rectangle_3254" data-name="Rectangle 3254" class="cls-1" width="0.086" height="0.086" transform="translate(38.277 66.879)"/>
    <rect id="Rectangle_3255" data-name="Rectangle 3255" class="cls-1" width="0.086" height="0.086" transform="translate(38.277 67.743)"/>
    <path id="Path_16465" data-name="Path 16465" class="cls-1" d="M44.232,64.573l-.259-.173-.173.173.346.173Z" transform="translate(-5.955 -8.753)"/>
    <rect id="Rectangle_3256" data-name="Rectangle 3256" class="cls-1" width="0.173" height="0.086" transform="translate(38.104 64.806)"/>
    <rect id="Rectangle_3257" data-name="Rectangle 3257" class="cls-1" width="0.086" height="0.086" transform="translate(38.19 65.411)"/>
    <rect id="Rectangle_3258" data-name="Rectangle 3258" class="cls-1" width="0.086" height="0.086" transform="translate(38.19 67.225)"/>
    <path id="Path_16466" data-name="Path 16466" class="cls-1" d="M44.1,68.273l.259.173.086-.173-.259-.173Z" transform="translate(-5.996 -9.256)"/>
    <path id="Path_16467" data-name="Path 16467" class="cls-1" d="M44.273,75.432h.173v-.173h.346v-.173h.086v.086h.086v-.086h.259v.086H45.4v-.086h.086v.086H45.4v.086h0v.086h.173v.086h.086v-.173h0v-.173h-.086V75H44.7v.086h-.086v.086h-.259v.086h0v.086h-.086v-.086h-.086v-.086H44.1v.173h0v.086h.086v.086h.086Z" transform="translate(-5.996 -10.194)"/>
    <rect id="Rectangle_3259" data-name="Rectangle 3259" class="cls-1" width="0.086" height="0.086" transform="translate(38.104 65.324)"/>
    <rect id="Rectangle_3260" data-name="Rectangle 3260" class="cls-1" width="0.086" height="0.086" transform="translate(38.104 66.275)"/>
    <path id="Path_16468" data-name="Path 16468" class="cls-1" d="M44.532,77.5h-.086v.086h-.173V77.5h-.086v.086H44.1v.086h.259v.173h.086v-.173h.086v-.086Z" transform="translate(-5.996 -10.534)"/>
    <path id="Path_16469" data-name="Path 16469" class="cls-1" d="M44.273,77.986v.173h-.086v-.173H44.1v.173h0v.259h.086v-.086h.086v-.086h.086V77.9h-.086Z" transform="translate(-5.996 -10.589)"/>
    <path id="Path_16470" data-name="Path 16470" class="cls-1" d="M44.259,73c-.173,0-.259.086-.259.173a.186.186,0,0,0,.173.173c.173,0,.259-.086.259-.173A.186.186,0,0,0,44.259,73Zm.086.346h0c-.173.086-.259-.086-.259-.173v-.086h.086c.086,0,.173.173.173.259Z" transform="translate(-5.982 -9.922)"/>
    <path id="Path_16471" data-name="Path 16471" class="cls-1" d="M45.1,76.323V76.15h.086v-.086h.259v.086h.086v-.086H45.7v-.173h-.173V75.8h-.086v.086h-.259V75.8h.259v-.086h.086V75.8H45.7v-.086h-.086v-.173h-.086v.086h-.086v-.086h-.086v.173h-.173v-.432h0V75.2H45.1v.086H45.01v.173h-.086v.173h.086v-.086H45.1v.086H45.01V75.8h0v.086H45.1v.173H45.01v-.173h-.086v-.259h-.086v.086H44.75V75.8h-.086v.086h-.086v.173h-.259v.173h-.086V76.15h-.086v.086h-.086v.086H43.8v.086h.518v-.086H44.4V76.15h.346v-.259h.086v.173h.086v.086h.086v.173h0v.086h.173v-.086Z" transform="translate(-5.955 -10.222)"/>
    <path id="Path_16472" data-name="Path 16472" class="cls-1" d="M43.986,72.459h.086V72.2h-.086Z" transform="translate(-5.969 -9.814)"/>
    <rect id="Rectangle_3261" data-name="Rectangle 3261" class="cls-1" width="0.086" height="0.086" transform="translate(37.931 65.497)"/>
    <rect id="Rectangle_3262" data-name="Rectangle 3262" class="cls-1" width="0.086" height="0.086" transform="translate(37.931 65.67)"/>
    <path id="Path_16473" data-name="Path 16473" class="cls-1" d="M44.159,76.232v-.259h.086v-.086h-.086V75.8h-.086v.086h-.086v.086h.086v.173h-.086v.086H43.9v.086h.173v-.086Z" transform="translate(-5.969 -10.303)"/>
    <rect id="Rectangle_3263" data-name="Rectangle 3263" class="cls-1" width="0.086" height="0.086" transform="translate(37.931 66.275)"/>
    <rect id="Rectangle_3264" data-name="Rectangle 3264" class="cls-1" width="0.086" height="0.086" transform="translate(37.931 66.62)"/>
    <path id="Path_16474" data-name="Path 16474" class="cls-1" d="M44.146,65.646l.086-.173-.259-.173-.173.259Z" transform="translate(-5.955 -8.875)"/>
    <rect id="Rectangle_3265" data-name="Rectangle 3265" class="cls-1" width="0.086" height="0.086" transform="translate(37.845 65.843)"/>
    <path id="Path_16475" data-name="Path 16475" class="cls-1" d="M43.886,76.973h.086v.086h.086v-.086h.086v.086h-.086v.086h.173v.086h.086v-.086H44.4v.086h-.086v.086h.259v-.086h.086v-.086h-.086v-.086h-.086v-.173h.086V76.8H44.4v.086h-.086v.086H44.4v.086h-.173v-.173H43.8v.173h.086Z" transform="translate(-5.955 -10.439)"/>
    <path id="Path_16476" data-name="Path 16476" class="cls-1" d="M43.746,75.373h0V75.2H43.4v.173h0v.086h.346Z" transform="translate(-5.901 -10.222)"/>
    <rect id="Rectangle_3266" data-name="Rectangle 3266" class="cls-1" width="0.086" height="0.086" transform="translate(37.758 65.583)"/>
    <path id="Path_16477" data-name="Path 16477" class="cls-1" d="M44.132,77.459v-.086h-.086V77.2h-.086v.086h-.086V77.2h-.086v.086H43.7v.173h.086v-.086h.173v.086h-.173v.086h.259v-.086Z" transform="translate(-5.942 -10.493)"/>
    <path id="Path_16478" data-name="Path 16478" class="cls-1" d="M43.746,78.159V77.9H43.4v.346h.346Z" transform="translate(-5.901 -10.589)"/>
    <path id="Path_16479" data-name="Path 16479" class="cls-1" d="M43.873,72.373H43.7v-.086h0V72.2h0v.259h.173Z" transform="translate(-5.942 -9.814)"/>
    <path id="Path_16480" data-name="Path 16480" class="cls-1" d="M43.686,76.686H43.6v.086h.173V76.6h-.086Z" transform="translate(-5.928 -10.412)"/>
    <path id="Path_16481" data-name="Path 16481" class="cls-1" d="M43.673,61.486a.086.086,0,1,0-.086.086C43.673,61.573,43.673,61.573,43.673,61.486Z" transform="translate(-5.914 -8.345)"/>
    <path id="Path_16482" data-name="Path 16482" class="cls-1" d="M43.646,59h1.728l-.173-.259H44.51v-.518a.229.229,0,0,1,.259-.259c.086,0,.173,0,.259.173l.173-.173a.6.6,0,0,0-1.037.432v.346h-.432c-.086,0-.173,0-.173-.173V57.1l-.259.086v1.382C43.3,58.828,43.386,59,43.646,59Z" transform="translate(-5.887 -7.761)"/>
    <path id="Path_16483" data-name="Path 16483" class="cls-1" d="M43.5,39.918h0V39.4h-.6v2.592h.691V40.523A.647.647,0,0,1,44.2,40h.173v-.6H44.2A.724.724,0,0,0,43.5,39.918Z" transform="translate(-5.833 -5.354)"/>
    <path id="Path_16484" data-name="Path 16484" class="cls-1" d="M43.646,76.173V76h-.086v.346H43.3v.173h.259v-.086h.086v-.086h.086v-.086h-.086Z" transform="translate(-5.887 -10.33)"/>
    <path id="Path_16485" data-name="Path 16485" class="cls-1" d="M43.659,77.186h.086V77.1H43.4v.086h.173v.086h.086Z" transform="translate(-5.901 -10.48)"/>
    <path id="Path_16486" data-name="Path 16486" class="cls-1" d="M43.386,77.559h.173V77.3h-.173v.086H43.3v.086h.086Z" transform="translate(-5.887 -10.507)"/>
    <path id="Path_16487" data-name="Path 16487" class="cls-1" d="M43.632,75.886V75.8H43.2v.086h.173v.086h.173v-.086Z" transform="translate(-5.874 -10.303)"/>
    <rect id="Rectangle_3267" data-name="Rectangle 3267" class="cls-1" width="0.086" height="0.086" transform="translate(37.413 65.843)"/>
    <rect id="Rectangle_3268" data-name="Rectangle 3268" class="cls-1" width="0.173" height="0.086" transform="translate(37.326 66.707)"/>
    <path id="Path_16488" data-name="Path 16488" class="cls-1" d="M43.659,73.232h.086V73.4h-.086a.276.276,0,0,1-.259-.259.229.229,0,0,1,.259-.259.3.3,0,0,1,.173.086h0l.086-.086a.085.085,0,0,1-.086-.086h-.086a.386.386,0,0,0-.346.259.229.229,0,0,0,.259.259h.259v-.086h-.259Z" transform="translate(-5.901 -9.895)"/>
    <path id="Path_16489" data-name="Path 16489" class="cls-1" d="M43.473,72.446c.086,0,.086,0,.086-.086v-.086h0l-.086.173h0c-.086,0-.086-.086-.086-.173s0-.086.086-.086h.086l-.086-.086a.173.173,0,1,0,0,.346Z" transform="translate(-5.887 -9.8)"/>
    <path id="Path_16490" data-name="Path 16490" class="cls-1" d="M43.086,67.059a.268.268,0,0,0-.086.173h0a1.243,1.243,0,0,1,.173.259c.086.086.086.259.086.518v.346h.086v-.432a1.961,1.961,0,0,0-.259-1.123A.162.162,0,0,1,43.086,67.059Z" transform="translate(-5.846 -9.079)"/>
    <path id="Path_16491" data-name="Path 16491" class="cls-1" d="M43.9,75.518v-.259h0V75h-.6v.259h0V75.6h.6Zm-.086-.346v.086h0v.259h-.432v-.259h0v-.173l.432.086Z" transform="translate(-5.887 -10.194)"/>
    <path id="Path_16492" data-name="Path 16492" class="cls-1" d="M43.632,76.873h-.346V76.7H43.2v.259h.432Z" transform="translate(-5.874 -10.425)"/>
    <rect id="Rectangle_3269" data-name="Rectangle 3269" class="cls-1" width="0.086" height="0.086" transform="translate(37.326 66.966)"/>
    <path id="Path_16493" data-name="Path 16493" class="cls-1" d="M43.9,78.3v-.173h0V77.7h-.6v.346h0V78.3Zm-.086-.432h0v.173h0v.173h-.432v-.173h0v-.259h.432Z" transform="translate(-5.887 -10.561)"/>
    <path id="Path_16494" data-name="Path 16494" class="cls-1" d="M43.373,61.486a.086.086,0,1,0-.086.086A.085.085,0,0,0,43.373,61.486Z" transform="translate(-5.874 -8.345)"/>
    <path id="Path_16495" data-name="Path 16495" class="cls-1" d="M43.218,65.218a.268.268,0,0,0,.086-.173l-.173-.173c-.086-.086-.173-.086-.173-.173a1.193,1.193,0,0,1-.259.346,1.192,1.192,0,0,1,.346.259C43.132,65.3,43.218,65.3,43.218,65.218Z" transform="translate(-5.806 -8.794)"/>
    <path id="Path_16496" data-name="Path 16496" class="cls-1" d="M42.791,30.646a.346.346,0,1,0-.346.346C42.618,30.9,42.791,30.818,42.791,30.646Z" transform="translate(-5.724 -4.117)"/>
    <path id="Path_16497" data-name="Path 16497" class="cls-1" d="M42.246,65.31v.346h.086v-.432a1.961,1.961,0,0,0-.259-1.123.3.3,0,0,0-.086.173.268.268,0,0,0-.086.173h0a1.243,1.243,0,0,1,.173.259A5.5,5.5,0,0,0,42.246,65.31Z" transform="translate(-5.697 -8.712)"/>
    <path id="Path_16498" data-name="Path 16498" class="cls-1" d="M42.718,73.059,42.2,72.8h0v.864h.086L42.8,73.4l.173-.086v-.086Z" transform="translate(-5.738 -9.895)"/>
    <path id="Path_16499" data-name="Path 16499" class="cls-1" d="M41.973,57.946a.173.173,0,1,0-.173-.173C41.886,57.859,41.886,57.946,41.973,57.946Z" transform="translate(-5.683 -7.829)"/>
    <path id="Path_16500" data-name="Path 16500" class="cls-1" d="M42.278,67c-.086.086-.086.173-.259.173h-.173l-.086-.086L41.673,67a.3.3,0,0,0-.086.173.268.268,0,0,0-.086.173h0a1.243,1.243,0,0,1,.173.259c.086.086.086.259.086.518v.346h.086v-.95h.173c.086,0,.086-.086.173-.259.173-.086.173-.173.086-.259Z" transform="translate(-5.643 -9.107)"/>
    <rect id="Rectangle_3270" data-name="Rectangle 3270" class="cls-1" width="0.864" height="0.173" transform="translate(35.253 53.487)"/>
    <path id="Path_16501" data-name="Path 16501" class="cls-1" d="M40.543,32.55a1.725,1.725,0,0,0,.173.778,1.147,1.147,0,0,0,.864.259h.864c0,.173-.086.346-.173.346H39.938a.408.408,0,0,1-.432-.432v-.346h.518l-.432-.432H38.469V32.55c0-.259.086-.432.346-.432a.475.475,0,0,1,.432.259l.432-.432A.842.842,0,0,0,38.9,31.6a1.056,1.056,0,0,0-.778.259.981.981,0,0,0-.259.691v.259A1.445,1.445,0,0,0,37,34.279a1.431,1.431,0,0,0,.432,1.037,1.873,1.873,0,0,0,1.21.432,1.742,1.742,0,0,0,.95-.259V34.8a1.808,1.808,0,0,1-.518.346,3.742,3.742,0,0,1-.432.086.932.932,0,0,1-1.037-.95,1.02,1.02,0,0,1,1.037-1.123h.173v.6c0,.518.259.778.691.778h2.333a2.168,2.168,0,0,0,.864-.173.842.842,0,0,0,.346-.778v-.95a.981.981,0,0,0-.259-.691,1.18,1.18,0,0,0-.95-.346C40.975,31.6,40.543,31.946,40.543,32.55Zm1.9.086v.518h-.778c-.259,0-.432,0-.518-.086s-.086-.173-.086-.432c0-.346.173-.518.6-.518Q42.443,32.118,42.443,32.637Z" transform="translate(-5.031 -4.293)"/>
    <path id="Path_16502" data-name="Path 16502" class="cls-1" d="M41.573,57.946a.173.173,0,1,0-.173-.173A.186.186,0,0,0,41.573,57.946Z" transform="translate(-5.629 -7.829)"/>
    <rect id="Rectangle_3271" data-name="Rectangle 3271" class="cls-1" width="1.123" height="0.173" transform="translate(34.648 55.993)"/>
    <path id="Path_16503" data-name="Path 16503" class="cls-1" d="M41.129,59.1h1.037a.458.458,0,0,0,.518-.518V57.8l-.259.086v.691a.229.229,0,0,1-.259.259h-.95a.229.229,0,0,1-.259-.259v-.518l-.259.259v.259A.433.433,0,0,0,41.129,59.1Z" transform="translate(-5.531 -7.856)"/>
    <path id="Path_16504" data-name="Path 16504" class="cls-1" d="M40.8,39.4a1.291,1.291,0,0,0-1.3,1.382,1.224,1.224,0,0,0,1.3,1.3,2.168,2.168,0,0,0,.864-.173v-.432a1.684,1.684,0,0,1-.691.086c-.432,0-.778-.173-.778-.691h1.728V40.61A1.1,1.1,0,0,0,40.8,39.4Zm-.6,1.037a.587.587,0,0,1,.6-.6c.432,0,.518.432.518.6Z" transform="translate(-5.371 -5.354)"/>
    <path id="Path_16505" data-name="Path 16505" class="cls-1" d="M40.073,61H39.9v1.469h.173Z" transform="translate(-5.425 -8.291)"/>
    <rect id="Rectangle_3272" data-name="Rectangle 3272" class="cls-1" width="1.123" height="0.173" transform="translate(34.302 58.412)"/>
    <path id="Path_16506" data-name="Path 16506" class="cls-1" d="M39.432,64.873c-.086-.086-.173-.086-.173-.173a1.193,1.193,0,0,1-.259.346,1.193,1.193,0,0,1,.346.259l.173-.173a.268.268,0,0,0,.086-.173C39.6,65.046,39.518,64.959,39.432,64.873Z" transform="translate(-5.303 -8.794)"/>
    <path id="Path_16507" data-name="Path 16507" class="cls-1" d="M39.032,59.614a.591.591,0,0,0,.6-.6V57.8l-.259.086V59.01a.316.316,0,0,1-.346.346.779.779,0,0,1-.432-.086l.173.259C38.773,59.614,38.859,59.614,39.032,59.614Z" transform="translate(-5.248 -7.856)"/>
    <path id="Path_16508" data-name="Path 16508" class="cls-1" d="M39.132,67.686a.268.268,0,0,0-.173-.086,1.193,1.193,0,0,1-.259.346,1.193,1.193,0,0,1,.346.259l.173-.173a.268.268,0,0,0,.086-.173C39.3,67.773,39.218,67.773,39.132,67.686Z" transform="translate(-5.262 -9.188)"/>
    <path id="Path_16509" data-name="Path 16509" class="cls-1" d="M38.35,38.7l-.6.173v.518H37.4v.432h.346v1.21a1.116,1.116,0,0,0,.173.691.616.616,0,0,0,.518.259.647.647,0,0,0,.432-.086v-.518H38.61c-.259,0-.346-.173-.346-.432V39.823h.6V39.3h-.6v-.6Z" transform="translate(-5.085 -5.259)"/>
    <path id="Path_16510" data-name="Path 16510" class="cls-1" d="M38.532,64.873c-.086-.086-.173-.086-.173-.173a1.193,1.193,0,0,1-.259.346,1.193,1.193,0,0,1,.346.259.3.3,0,0,0,.086-.173.268.268,0,0,0,.086-.173Z" transform="translate(-5.18 -8.794)"/>
    <path id="Path_16511" data-name="Path 16511" class="cls-1" d="M38.232,67.686a.268.268,0,0,0-.173-.086,1.193,1.193,0,0,1-.259.346,1.193,1.193,0,0,1,.346.259l.173-.173a.268.268,0,0,0,.086-.173C38.4,67.773,38.318,67.773,38.232,67.686Z" transform="translate(-5.139 -9.188)"/>
    <path id="Path_16512" data-name="Path 16512" class="cls-1" d="M38.173,61.086a.086.086,0,1,0-.086.086A.085.085,0,0,0,38.173,61.086Z" transform="translate(-5.167 -8.291)"/>
    <path id="Path_16513" data-name="Path 16513" class="cls-1" d="M37.2,64.573l.346.173.086-.173-.259-.173Z" transform="translate(-5.058 -8.753)"/>
    <path id="Path_16514" data-name="Path 16514" class="cls-1" d="M37.632,73.473c0-.086-.086-.173-.259-.173a.186.186,0,0,0-.173.173v.086h.432Z" transform="translate(-5.058 -9.963)"/>
    <path id="Path_16515" data-name="Path 16515" class="cls-1" d="M37.2,65.559l.346.086.086-.173-.259-.173Z" transform="translate(-5.058 -8.875)"/>
    <path id="Path_16516" data-name="Path 16516" class="cls-1" d="M36.9,67.359l.346.173.086-.259-.259-.173Z" transform="translate(-5.017 -9.12)"/>
    <path id="Path_16517" data-name="Path 16517" class="cls-1" d="M36.9,68.273l.346.173.086-.173-.346-.173Z" transform="translate(-5.017 -9.256)"/>
    <path id="Path_16518" data-name="Path 16518" class="cls-1" d="M35.773,57.446a.173.173,0,1,0-.173-.173A.186.186,0,0,0,35.773,57.446Z" transform="translate(-4.84 -7.761)"/>
    <path id="Path_16519" data-name="Path 16519" class="cls-1" d="M35.446,49.491c.173,0,.259-.086.259-.346s-.086-.346-.259-.346a.372.372,0,0,0-.346.346C35.1,49.4,35.186,49.491,35.446,49.491Z" transform="translate(-4.772 -6.632)"/>
    <path id="Path_16520" data-name="Path 16520" class="cls-1" d="M36.5,64.1a3.757,3.757,0,0,0-.346.6c-.086.086-.086.346-.173.6a10.135,10.135,0,0,0-.432-.95c-.086-.173-.173-.173-.173-.259h0a.3.3,0,0,0-.086.173.3.3,0,0,1-.086.173h0a8.486,8.486,0,0,1,.6.864c.086.086.086.173.173.259h.086v-.086c0-.086.086-.173.086-.259a1.407,1.407,0,0,1,.259-.518c.086-.173.173-.346.259-.346v-.173C36.5,64.186,36.5,64.1,36.5,64.1Z" transform="translate(-4.786 -8.712)"/>
    <path id="Path_16521" data-name="Path 16521" class="cls-1" d="M35.1,62.986a.086.086,0,1,0,.086-.086A.085.085,0,0,0,35.1,62.986Z" transform="translate(-4.772 -8.549)"/>
    <path id="Path_16522" data-name="Path 16522" class="cls-1" d="M36.123,66.986a.085.085,0,0,1-.086.086c-.086,0-.173,0-.173-.086V66.9h0l-.086.086c0,.086,0,.086-.086.086s-.086.086-.173.086h-.173a.085.085,0,0,0-.086-.086l-.086-.086a.3.3,0,0,0-.086.173.268.268,0,0,0-.086.173h0a1.243,1.243,0,0,1,.173.259c.086.086.086.259.173.518v.346h.086V67.5h0a.268.268,0,0,0,.173-.086c.086,0,.086,0,.086-.086.086.086.086.086.173.086s.173-.086.259-.173.086-.173.086-.346h0A.085.085,0,0,0,36.123,66.986Z" transform="translate(-4.759 -9.093)"/>
    <path id="Path_16523" data-name="Path 16523" class="cls-1" d="M34.973,76.718c.086,0,.173-.086.173-.259s-.086-.259-.173-.259a.186.186,0,0,0-.173.173v.259C34.8,76.718,34.886,76.718,34.973,76.718Z" transform="translate(-4.732 -10.357)"/>
    <path id="Path_16524" data-name="Path 16524" class="cls-1" d="M35.6,39.4a1.346,1.346,0,0,0-1.3,1.382,1.224,1.224,0,0,0,1.3,1.3,2.168,2.168,0,0,0,.864-.173l-.086-.432a1.684,1.684,0,0,1-.691.086c-.432,0-.778-.173-.778-.691h1.728V40.61A.992.992,0,0,0,35.6,39.4Zm-.6,1.037a.587.587,0,0,1,.6-.6c.432,0,.518.432.518.6Z" transform="translate(-4.664 -5.354)"/>
    <path id="Path_16525" data-name="Path 16525" class="cls-1" d="M34.886,62.9a.086.086,0,1,0,.086.086Z" transform="translate(-4.732 -8.549)"/>
    <path id="Path_16526" data-name="Path 16526" class="cls-1" d="M34.486,64.259a.268.268,0,0,0-.086.173h0a1.243,1.243,0,0,1,.173.259c.086.086.086.259.173.518v.346h0v-.432A1.961,1.961,0,0,0,34.486,64C34.573,64.173,34.486,64.173,34.486,64.259Z" transform="translate(-4.677 -8.699)"/>
    <path id="Path_16527" data-name="Path 16527" class="cls-1" d="M34.051,62.469h.086c.173,0,.259,0,.346-.086.086.086.173.086.346.086H35c.173,0,.259,0,.259-.086a.475.475,0,0,0,.432.259c.259,0,.346-.086.432-.346a.449.449,0,0,0,.346.173h1.555c.173,0,.259,0,.346-.086a.317.317,0,0,0,.086-.259V61h-.173v.95a.229.229,0,0,1-.259.259H37.68v-.086c0-.259,0-.432-.086-.518a.522.522,0,0,0-.518-.259.747.747,0,0,0-.518.259l.173.173a.655.655,0,0,1,.346-.173c.173,0,.259.086.259.173s.086.173.086.346v.086h-.95a.229.229,0,0,1-.259-.259.378.378,0,0,0-.086-.259c-.086-.086-.173-.086-.346-.086-.259,0-.432.086-.432.432a.229.229,0,0,1-.259.259h-.173a.229.229,0,0,1-.259-.259v-.6l-.259.086v.518a.229.229,0,0,1-.259.259h-.346v-.864l-.173.086V62.3h-.432v-.778l-.259.086V62.3H32.5v-.6l-.259.086v.691a.316.316,0,0,1-.346.346c-.346,0-.432-.173-.432-.518v-.173l-.259.086a1.281,1.281,0,0,0,.086.6.522.522,0,0,0,.518.259c.432,0,.6-.173.6-.432h1.642Zm1.642-.691a.259.259,0,1,1-.259.259A.229.229,0,0,1,35.693,61.778Z" transform="translate(-4.242 -8.291)"/>
    <path id="Path_16528" data-name="Path 16528" class="cls-1" d="M34.259,67.5a1.193,1.193,0,0,1-.259.346,1.192,1.192,0,0,1,.346.259l.173-.173a.268.268,0,0,0,.086-.173l-.173-.173A.3.3,0,0,1,34.259,67.5Z" transform="translate(-4.623 -9.175)"/>
    <path id="Path_16529" data-name="Path 16529" class="cls-1" d="M33.965,19.891a6.984,6.984,0,0,0,1.382.086A6.5,6.5,0,0,0,40.1,18.336a4.5,4.5,0,0,0,1.3-3.456,4.544,4.544,0,0,0-1.469-3.37,6.983,6.983,0,0,0-4.493-1.21,25.125,25.125,0,0,0-4.234.346V25.593h2.765Zm0-7.258a6.165,6.165,0,0,1,1.642-.173c1.9,0,3.111.864,3.111,2.592s-1.3,2.765-3.37,2.765a3.369,3.369,0,0,1-1.382-.173Z" transform="translate(-4.242 -1.397)"/>
    <path id="Path_16530" data-name="Path 16530" class="cls-1" d="M33.773,76.718c.086,0,.173-.086.173-.259s-.086-.259-.173-.259a.186.186,0,0,0-.173.173v.259C33.6,76.718,33.686,76.718,33.773,76.718Z" transform="translate(-4.568 -10.357)"/>
    <path id="Path_16531" data-name="Path 16531" class="cls-1" d="M33.646,59H36.5a.66.66,0,0,0,.432-.173.626.626,0,0,0,.864,0,.647.647,0,0,0,.086-.432,3.742,3.742,0,0,0-.086-.432.626.626,0,0,0-.864,0,.647.647,0,0,0-.086.432v.086a.229.229,0,0,1-.259.259h-.346a1.485,1.485,0,0,0-.086-.691.652.652,0,0,0-.6-.346c-.346,0-.518.173-.778.432a.66.66,0,0,0-.173.432v-.6l-.259.086v.691h-.6c-.086,0-.173,0-.173-.173V57.1l-.259.086v1.382C33.3,58.828,33.386,59,33.646,59Zm3.629-1.037c.173,0,.259.086.259.346s-.086.346-.259.346-.259-.086-.259-.346C37.015,58.137,37.1,57.964,37.275,57.964Zm-2.419.259a.747.747,0,0,1,.518-.259.449.449,0,0,1,.346.173.647.647,0,0,1,.086.432v.173H34.6C34.682,58.569,34.682,58.4,34.855,58.223Z" transform="translate(-4.528 -7.761)"/>
    <rect id="Rectangle_3273" data-name="Rectangle 3273" class="cls-1" width="16.33" height="0.173" transform="translate(26.612 52.104)"/>
    <path id="Path_16532" data-name="Path 16532" class="cls-1" d="M32.559,76.159a.317.317,0,0,0-.086-.259.317.317,0,0,1-.086.259l-.086.259h.259Z" transform="translate(-4.392 -10.317)"/>
    <path id="Path_16533" data-name="Path 16533" class="cls-1" d="M32.073,58.346a.173.173,0,1,0-.173-.173A.186.186,0,0,0,32.073,58.346Z" transform="translate(-4.337 -7.883)"/>
    <path id="Path_16534" data-name="Path 16534" class="cls-1" d="M31.978,59.655c.518,0,.778-.173.778-.6V58.1l-.259.086v.864c0,.259-.173.346-.518.346-.432,0-.518-.173-.518-.6v-.259l-.259.086c0,.346,0,.6.086.691A.786.786,0,0,0,31.978,59.655Z" transform="translate(-4.242 -7.897)"/>
    <path id="Path_16535" data-name="Path 16535" class="cls-1" d="M31.464,73.832a.519.519,0,0,0-.086-.346.317.317,0,0,0-.259-.086.449.449,0,0,0-.346.173.655.655,0,0,0-.173.346h.864Z" transform="translate(-4.161 -9.977)"/>
    <path id="Path_16536" data-name="Path 16536" class="cls-1" d="M32.251,39.4a.926.926,0,0,0-.518.173c-.086.086-.259.173-.346.346h0a.684.684,0,0,0-.691-.432.673.673,0,0,0-.6.259c-.086.086-.086.173-.173.173h0v-.346H29.4v2.592H30V40.35c0-.086.086-.086.086-.173.086-.086.259-.259.346-.259.346,0,.432.259.432.6v1.469h.6V40.178a.574.574,0,0,1,.432-.346c.346,0,.432.259.432.691v1.469h.6V40.437C33.115,39.659,32.683,39.4,32.251,39.4Z" transform="translate(-3.997 -5.354)"/>
    <path id="Path_16537" data-name="Path 16537" class="cls-1" d="M21.344,37.1H5.1v.173H43.031V37.1H21.344Z" transform="translate(-0.693 -5.041)"/>
    <path id="Path_16538" data-name="Path 16538" class="cls-1" d="M29.846,30.891a.305.305,0,0,0,.346-.346c0-.086-.086-.173-.086-.259a.317.317,0,0,0-.259-.086.372.372,0,0,0-.346.346A.316.316,0,0,0,29.846,30.891Z" transform="translate(-4.011 -4.103)"/>
    <path id="Path_16539" data-name="Path 16539" class="cls-1" d="M29.746,76.373h0a.186.186,0,0,0-.173-.173c-.086,0-.173.086-.173.259,0,.086.086.259.173.259s.086,0,.173-.086v-.259Z" transform="translate(-3.997 -10.357)"/>
    <path id="Path_16540" data-name="Path 16540" class="cls-1" d="M27.946,73.646c0-.173-.086-.346-.173-.346-.173,0-.173.086-.173.346,0,.086,0,.173.086.173a.3.3,0,0,0,.173.086h.086Z" transform="translate(-3.753 -9.963)"/>
    <path id="Path_16541" data-name="Path 16541" class="cls-1" d="M26.9,76.673a.085.085,0,0,0,.086.086c.086,0,.086,0,.086-.086V76.5C26.986,76.586,26.9,76.586,26.9,76.673Z" transform="translate(-3.657 -10.398)"/>
    <path id="Path_16542" data-name="Path 16542" class="cls-1" d="M25.032,32.737a.95.95,0,0,1,.864-.518.616.616,0,0,1,.691.6v1.21H25.032l-.432.518h3.629a1.18,1.18,0,0,0,.95-.346c.086.086.173.086.173.173a1.628,1.628,0,0,0,.691.173h3.715l-.432-.518H31.685v-1.21a.591.591,0,0,1,.6-.6.747.747,0,0,1,.518.259l.432-.432a1.109,1.109,0,0,0-.864-.346,1.18,1.18,0,0,0-.95.346,1.109,1.109,0,0,0-.346.864v1.123h-.95c-.432,0-.6-.173-.6-.6V31.7h-.086l-.518.173v1.469c0,.432-.173.691-.6.691H27.192v-1.21a.842.842,0,0,0-.346-.778,1.46,1.46,0,0,0-.864-.259,1.238,1.238,0,0,0-.864.346v.6Z" transform="translate(-3.345 -4.307)"/>
    <path id="Path_16543" data-name="Path 16543" class="cls-1" d="M25.264,73.832a.519.519,0,0,0-.086-.346.317.317,0,0,0-.259-.086.449.449,0,0,0-.346.173.655.655,0,0,0-.173.346h.864Z" transform="translate(-3.318 -9.977)"/>
    <path id="Path_16544" data-name="Path 16544" class="cls-1" d="M25.35,38.7l-.6.173v.518H24.4v.432h.346v1.21a1.116,1.116,0,0,0,.173.691.616.616,0,0,0,.518.259,1.1,1.1,0,0,0,.518-.086v-.518H25.7c-.259,0-.346-.173-.346-.432V39.823h.6V39.3h-.6v-.6Z" transform="translate(-3.318 -5.259)"/>
    <path id="Path_16545" data-name="Path 16545" class="cls-1" d="M23.546,40.423v-.259A.973.973,0,0,0,22.51,39.3a1.39,1.39,0,0,0-.95.259l.086.432a1.628,1.628,0,0,1,.691-.173c.432,0,.518.259.518.432h0c-.95,0-1.555.346-1.555.95a.725.725,0,0,0,.778.778,1.1,1.1,0,0,0,.778-.346h0l.086.259h.691c0-.173-.086-.346-.086-.6Zm-.6.691v.173a.583.583,0,0,1-.518.346.316.316,0,0,1-.346-.346c0-.346.432-.518.95-.518v.346Z" transform="translate(-2.896 -5.34)"/>
    <path id="Path_16546" data-name="Path 16546" class="cls-1" d="M23.6,49.359c0,.173.086.173.173.173h.086c.173,0,.173-.086.259-.173V49.1h-.259A.229.229,0,0,0,23.6,49.359Z" transform="translate(-3.209 -6.673)"/>
    <path id="Path_16547" data-name="Path 16547" class="cls-1" d="M22.873,76.718c.086,0,.173-.086.173-.259s-.086-.259-.173-.259a.186.186,0,0,0-.173.173h0v.173A.186.186,0,0,0,22.873,76.718Z" transform="translate(-3.086 -10.357)"/>
    <path id="Path_16548" data-name="Path 16548" class="cls-1" d="M23.146,59.037c-.086,0-.259,0-.259-.086l-.086.173c.086,0,.173.086.346.086a.4.4,0,0,0,.432-.346c0-.173-.086-.259-.259-.346s-.259-.086-.259-.173a.186.186,0,0,1,.173-.173.317.317,0,0,1,.259.086l.086-.173c-.086,0-.173-.086-.259-.086a.4.4,0,0,0-.432.346c0,.173.086.259.346.346.173.086.259.086.259.173C23.318,58.95,23.232,59.037,23.146,59.037Z" transform="translate(-3.1 -7.883)"/>
    <path id="Path_16549" data-name="Path 16549" class="cls-1" d="M22.1,30.473v3.888h.6V30.3Z" transform="translate(-3.005 -4.117)"/>
    <path id="Path_16550" data-name="Path 16550" class="cls-1" d="M22.818,62.118a.3.3,0,0,1-.086.173c0-.086,0-.086-.086-.173l-.173-.518H22.3l.346.864v.086h0c-.086.086-.086.173-.173.173s-.086.086-.173.086l.086.173c.086,0,.086,0,.173-.086a2.78,2.78,0,0,0,.346-.6l.259-.691h-.173Z" transform="translate(-3.032 -8.372)"/>
    <path id="Path_16551" data-name="Path 16551" class="cls-1" d="M22.259,52.61c.173,0,.259-.173.259-.6s-.086-.6-.259-.6S22,51.573,22,52,22.086,52.61,22.259,52.61Z" transform="translate(-2.991 -6.986)"/>
    <path id="Path_16552" data-name="Path 16552" class="cls-1" d="M22.346,48.6c-.259,0-.346.173-.346.432s.086.432.346.432c.173,0,.259-.086.346-.259v-.346C22.6,48.686,22.518,48.6,22.346,48.6Z" transform="translate(-2.991 -6.605)"/>
    <path id="Path_16553" data-name="Path 16553" class="cls-1" d="M21.9,59.123h.259v-.691a.276.276,0,0,1,.259-.259H22.5V58h-.086c-.173,0-.259.086-.346.259h0V58H21.9v1.123Z" transform="translate(-2.978 -7.883)"/>
    <path id="Path_16554" data-name="Path 16554" class="cls-1" d="M21.746,73.646c0-.173-.086-.346-.173-.346-.173,0-.173.086-.173.346,0,.086,0,.173.086.173a.3.3,0,0,0,.173.086h.173v-.259Z" transform="translate(-2.91 -9.963)"/>
    <path id="Path_16555" data-name="Path 16555" class="cls-1" d="M22.078,61.946a.316.316,0,0,0-.346-.346.519.519,0,0,0-.346.086v.086c.086,0,.173-.086.259-.086a.276.276,0,0,1,.259.259h0c-.346,0-.6.086-.6.346a.229.229,0,0,0,.259.259c.173,0,.259-.086.259-.173h0v.086h.173v-.518ZM21.9,62.2h0c0,.086-.086.173-.259.173a.186.186,0,0,1-.173-.173c0-.173.173-.259.346-.173V62.2Z" transform="translate(-2.896 -8.372)"/>
    <path id="Path_16556" data-name="Path 16556" class="cls-1" d="M20.818,59.1c.173,0,.346-.086.346-.259v.173h.173V57.8h-.259v.778c-.086.086-.173.173-.259.173-.173,0-.259-.173-.259-.346v-.432H20.3v.691A.523.523,0,0,0,20.818,59.1Z" transform="translate(-2.76 -7.856)"/>
    <path id="Path_16557" data-name="Path 16557" class="cls-1" d="M20.818,66.8c-.346,0-.518.346-.518.778s.173.778.518.778.518-.346.518-.778S21.164,66.8,20.818,66.8Zm0,1.21c-.173,0-.173-.173-.173-.518s.086-.518.173-.518c.173,0,.173.173.173.518S20.9,68.01,20.818,68.01Z" transform="translate(-2.76 -9.079)"/>
    <path id="Path_16558" data-name="Path 16558" class="cls-1" d="M20.2,52.1c0,.432.086.6.259.6s.259-.173.259-.6-.086-.6-.259-.6C20.373,51.5,20.2,51.673,20.2,52.1Z" transform="translate(-2.746 -6.999)"/>
    <path id="Path_16559" data-name="Path 16559" class="cls-1" d="M20.818,64c-.346,0-.518.346-.518.778s.173.778.518.778.518-.259.518-.778C21.337,64.346,21.164,64,20.818,64Zm0,1.21c-.173,0-.173-.173-.173-.518s.086-.518.173-.518c.173,0,.173.173.173.518S20.9,65.21,20.818,65.21Z" transform="translate(-2.76 -8.699)"/>
    <path id="Path_16560" data-name="Path 16560" class="cls-1" d="M20.1,76.673a.085.085,0,0,0,.086.086.268.268,0,0,0,.173-.086V76.5C20.186,76.586,20.1,76.586,20.1,76.673Z" transform="translate(-2.733 -10.398)"/>
    <path id="Path_16561" data-name="Path 16561" class="cls-1" d="M20.791,62.31v.173h.173V61.1h-.173v.518c0-.086-.173-.173-.259-.173-.259,0-.432.173-.432.518a.408.408,0,0,0,.432.432C20.618,62.482,20.7,62.4,20.791,62.31Zm-.518-.346c0-.173.086-.346.259-.346s.259.086.259.173v.346c0,.086-.173.173-.259.173C20.359,62.31,20.273,62.223,20.273,61.964Z" transform="translate(-2.733 -8.304)"/>
    <path id="Path_16562" data-name="Path 16562" class="cls-1" d="M19.673,73.918c.086,0,.173-.086.173-.259s-.086-.259-.173-.259c-.173,0-.173.086-.173.259S19.5,73.918,19.673,73.918Z" transform="translate(-2.651 -9.977)"/>
    <path id="Path_16563" data-name="Path 16563" class="cls-1" d="M19.432,62.464a.317.317,0,0,1-.259-.086l-.086.173c.086,0,.173.086.259.086.259,0,.346-.086.346-.259a.229.229,0,0,0-.259-.259.173.173,0,0,1,0-.346c.086,0,.173,0,.173.086v-.173c-.086,0-.173-.086-.259-.086-.173,0-.346.086-.346.259q0,.13.259.259a.186.186,0,0,1,.173.173C19.6,62.378,19.518,62.464,19.432,62.464Z" transform="translate(-2.583 -8.372)"/>
    <path id="Path_16564" data-name="Path 16564" class="cls-1" d="M19.186,75.9H19.1v.346h.086c.173,0,.259-.086.259-.173S19.359,75.9,19.186,75.9Z" transform="translate(-2.597 -10.317)"/>
    <path id="Path_16565" data-name="Path 16565" class="cls-1" d="M19.318,66.8c-.346,0-.518.346-.518.778s.173.778.518.778.518-.346.518-.778C19.923,67.146,19.75,66.8,19.318,66.8Zm0,1.21c-.086,0-.173-.173-.173-.518s.086-.518.173-.518c.173,0,.173.173.173.518C19.578,67.837,19.491,68.01,19.318,68.01Z" transform="translate(-2.556 -9.079)"/>
    <path id="Path_16566" data-name="Path 16566" class="cls-1" d="M19.318,64c-.346,0-.518.346-.518.778s.173.778.518.778.518-.259.518-.778C19.923,64.346,19.75,64,19.318,64Zm0,1.21c-.086,0-.173-.173-.173-.518s.086-.518.173-.518c.173,0,.173.173.173.518C19.578,65.037,19.491,65.21,19.318,65.21Z" transform="translate(-2.556 -8.699)"/>
    <path id="Path_16567" data-name="Path 16567" class="cls-1" d="M19.3,59.11a.6.6,0,1,0-.6-.6C18.786,58.937,19.046,59.11,19.3,59.11Zm0-1.037c.259,0,.346.259.346.432a.354.354,0,1,1-.691,0C18.959,58.332,19.046,58.073,19.3,58.073Z" transform="translate(-2.543 -7.869)"/>
    <path id="Path_16568" data-name="Path 16568" class="cls-1" d="M18.932,61.773h0l.086-.173h-.086c-.086,0-.173.086-.259.173V61.6H18.5v.864h.173v-.6C18.759,61.859,18.846,61.773,18.932,61.773Z" transform="translate(-2.515 -8.372)"/>
    <path id="Path_16569" data-name="Path 16569" class="cls-1" d="M18.373,65.2a.173.173,0,1,0,0,.346c.173,0,.173-.086.173-.173A.186.186,0,0,0,18.373,65.2Z" transform="translate(-2.475 -8.862)"/>
    <path id="Path_16570" data-name="Path 16570" class="cls-1" d="M18.373,67.2a.173.173,0,1,0,0,.346c.173,0,.173-.086.173-.173A.186.186,0,0,0,18.373,67.2Z" transform="translate(-2.475 -9.134)"/>
    <path id="Path_16571" data-name="Path 16571" class="cls-1" d="M18.373,68a.173.173,0,1,0,0,.346c.173,0,.173-.086.173-.173A.186.186,0,0,0,18.373,68Z" transform="translate(-2.475 -9.243)"/>
    <path id="Path_16572" data-name="Path 16572" class="cls-1" d="M18.373,64.4a.173.173,0,1,0,0,.346c.173,0,.173-.086.173-.173A.186.186,0,0,0,18.373,64.4Z" transform="translate(-2.475 -8.753)"/>
    <path id="Path_16573" data-name="Path 16573" class="cls-1" d="M17.273,58.264h.778v.778h.259V57.4H18.05v.691h-.778V57.4H17.1v1.642h.173Z" transform="translate(-2.325 -7.801)"/>
    <path id="Path_16574" data-name="Path 16574" class="cls-1" d="M18.273,73.4c-.173,0-.173.086-.173.259a.229.229,0,0,0,.259.259h.173v-.432A.317.317,0,0,0,18.273,73.4Z" transform="translate(-2.461 -9.977)"/>
    <path id="Path_16575" data-name="Path 16575" class="cls-1" d="M18.078,62.291V61.6H17.9v.691c0,.086-.086.173-.259.173s-.173-.086-.173-.259v-.518H17.3V62.2c0,.346.173.432.346.432a.449.449,0,0,0,.346-.173v.173h.173A.653.653,0,0,1,18.078,62.291Z" transform="translate(-2.352 -8.372)"/>
    <path id="Path_16576" data-name="Path 16576" class="cls-1" d="M16.7,35.946a.346.346,0,1,0,.346-.346C16.873,35.686,16.7,35.773,16.7,35.946Z" transform="translate(-2.271 -4.837)"/>
    <path id="Path_16577" data-name="Path 16577" class="cls-1" d="M17.346,73.473a.173.173,0,0,0-.346,0v.086h.432v-.086Z" transform="translate(-2.311 -9.963)"/>
    <path id="Path_16578" data-name="Path 16578" class="cls-1" d="M16.7,64.259h.691l-.6,1.21h.346l.6-1.21V64H16.7Z" transform="translate(-2.271 -8.699)"/>
    <path id="Path_16579" data-name="Path 16579" class="cls-1" d="M17.391,67.491c.173-.086.259-.173.259-.346s-.173-.346-.518-.346a3.742,3.742,0,0,0-.432.086l.086.259c.086,0,.173-.086.346-.086s.173.086.173.173-.173.173-.259.173h-.086v.259h.173c.173,0,.259.086.259.173s-.086.173-.259.173-.259-.086-.346-.086l-.086.259a.647.647,0,0,0,.432.086c.346,0,.6-.173.6-.432A.372.372,0,0,0,17.391,67.491Z" transform="translate(-2.271 -9.079)"/>
    <path id="Path_16580" data-name="Path 16580" class="cls-1" d="M17.169,40.769c-.086.173-.086.346-.173.518h0a1.228,1.228,0,0,0-.173-.518l-.432-1.382H15.7l.95,2.333v.173a1.885,1.885,0,0,1-.346.432c-.173.086-.259.173-.346.173l.173.518a1.033,1.033,0,0,0,.691-.346c.346-.259.518-.691.864-1.642l.6-1.728H17.6Z" transform="translate(-2.135 -5.34)"/>
    <path id="Path_16581" data-name="Path 16581" class="cls-1" d="M16.7,61.95v.518h.173v-.6c0-.346-.173-.432-.346-.432-.086,0-.086,0-.173.086a.085.085,0,0,0-.086.086V61H16.1v1.382h.173v-.6c0-.086.086-.173.259-.173C16.618,61.6,16.7,61.778,16.7,61.95Z" transform="translate(-2.189 -8.291)"/>
    <path id="Path_16582" data-name="Path 16582" class="cls-1" d="M15.986,73.918c.086,0,.086-.086.173-.086,0-.086.086-.086.086-.173,0-.173-.086-.259-.173-.259-.173,0-.173.086-.173.259,0,.086,0,.086.086.173C15.9,73.832,15.9,73.918,15.986,73.918Z" transform="translate(-2.162 -9.977)"/>
    <path id="Path_16583" data-name="Path 16583" class="cls-1" d="M16.091,65.469V64h-.346l-.346.173.086.259.259-.086h0v1.123Z" transform="translate(-2.094 -8.699)"/>
    <path id="Path_16584" data-name="Path 16584" class="cls-1" d="M15.818,66.8c-.346,0-.518.346-.518.778s.173.778.518.778.518-.346.518-.778S16.25,66.8,15.818,66.8Zm0,1.21c-.086,0-.173-.173-.173-.518s.086-.518.173-.518c.173,0,.173.173.173.518S15.991,68.01,15.818,68.01Z" transform="translate(-2.08 -9.079)"/>
    <path id="Path_16585" data-name="Path 16585" class="cls-1" d="M14.8,61.286h.432V62.5H15.4v-1.21h.346V61.2H14.8Z" transform="translate(-2.012 -8.318)"/>
    <path id="Path_16586" data-name="Path 16586" class="cls-1" d="M14.268,26.14a8.421,8.421,0,0,0,7.171-4.061,8.621,8.621,0,0,0,1.3-4.666,9.191,9.191,0,0,0-1.3-4.666,7.743,7.743,0,0,0-1.3-1.642A8.311,8.311,0,0,0,14.268,8.6,8.616,8.616,0,0,0,5.8,17.413a8.86,8.86,0,0,0,2.246,5.875A7.887,7.887,0,0,0,14.268,26.14ZM16.341,21.3h-.259v.173h-.173V21.3h-.173v-.259h.086V20.7s.173-.864.518,0v.346h.086V21.3Zm.432-4.666a5.3,5.3,0,0,1-.432.95H15.3a3.066,3.066,0,0,1-.086-.6c-.086,0-.086,0-.259.086a.292.292,0,0,1-.259-.432c.086-.259.432-.259.6-.173a1.793,1.793,0,0,1,.518-.864c.346-.259.6,0,.778.086S16.86,16.2,16.773,16.636Zm3.2-5.357-.518.95-2.074.518s-.691.086-1.469.173c-.864.086-1.814.259-1.987.259-.259,0-.346-.346-.346-.346s3.456-.778,4.147-.95A4.1,4.1,0,0,1,19.97,11.279Zm-5.53.95a7.2,7.2,0,0,1,1.037-.086l-1.9.432A5.522,5.522,0,0,1,14.44,12.229Zm-4.234,1.123a1.641,1.641,0,0,1,1.642,1.642,1.7,1.7,0,0,1-1.642,1.642,1.642,1.642,0,0,1,0-3.283ZM8.392,18.364a1.787,1.787,0,0,1,2.592-1.3c1.037.95,2.419,2.246,2.419,2.246l.518-.518V13.439l1.987-.259,1.469-.173,1.987-.518v10.2l-2.074.6H16.86V15.08l-2.592.346V18.45a.921.921,0,0,1,1.21,1.21,16.588,16.588,0,0,0-1.21,1.3v2.333h-.346V21.3a1.918,1.918,0,0,0-.346.432l-1.9-1.555v3.2H8.392Z" transform="translate(-0.789 -1.166)"/>
    <rect id="Rectangle_3274" data-name="Rectangle 3274" class="cls-1" width="0.605" height="0.259" transform="translate(12.01 58.498)"/>
    <rect id="Rectangle_3275" data-name="Rectangle 3275" class="cls-1" width="0.605" height="0.259" transform="translate(12.01 56.079)"/>
    <path id="Path_16587" data-name="Path 16587" class="cls-1" d="M14.3,59.11h.259v-.778a.389.389,0,0,1,.259-.259c.173,0,.259.173.259.346v.691h.259v-.691c0-.432-.259-.518-.432-.518s-.346.086-.346.259h0v-.173h-.173V59.11Z" transform="translate(-1.944 -7.869)"/>
    <rect id="Rectangle_3276" data-name="Rectangle 3276" class="cls-1" width="0.432" height="0.086" transform="translate(11.924 53.573)"/>
    <path id="Path_16588" data-name="Path 16588" class="cls-1" d="M14.946,40.423c0-.6-.259-1.123-1.037-1.123a1.39,1.39,0,0,0-.95.259l.086.432a1.628,1.628,0,0,1,.691-.173c.432,0,.518.259.518.432h0c-.95,0-1.555.346-1.555.95a.725.725,0,0,0,.778.778,1.1,1.1,0,0,0,.778-.346h0l.086.259h.6c0-.173-.086-.346-.086-.6v-.864Zm-.6.691v.173a.583.583,0,0,1-.518.346.316.316,0,0,1-.346-.346c0-.346.432-.518.864-.518Z" transform="translate(-1.727 -5.34)"/>
    <path id="Path_16589" data-name="Path 16589" class="cls-1" d="M13.254,59.123a.449.449,0,0,0,.346-.173h0v.173h.173v-.691c0-.259-.086-.432-.432-.432-.173,0-.259,0-.346.086l.086.173c.086-.086.173-.086.346-.086.259,0,.259.173.259.259h0c-.432,0-.691.173-.691.432Q12.865,59.123,13.254,59.123Zm.346-.6v.259c0,.086-.086.173-.259.173a.186.186,0,0,1-.173-.173C13.081,58.6,13.341,58.518,13.6,58.518Z" transform="translate(-1.762 -7.883)"/>
    <path id="Path_16590" data-name="Path 16590" class="cls-1" d="M12.718,62.118c0,.086,0,.173-.086.173h0c0-.086,0-.086-.086-.173l-.173-.518H12.2l.346.864v.086h0a.186.186,0,0,1-.173.173c-.086,0-.086.086-.173.086l.086.173a.268.268,0,0,0,.173-.086,2.78,2.78,0,0,0,.346-.6l.259-.691h-.173Z" transform="translate(-1.659 -8.372)"/>
    <path id="Path_16591" data-name="Path 16591" class="cls-1" d="M12.256,52.61c.173,0,.259-.173.259-.6s-.086-.6-.259-.6S12,51.573,12,52C11.91,52.437,12.083,52.61,12.256,52.61Z" transform="translate(-1.628 -6.986)"/>
    <path id="Path_16592" data-name="Path 16592" class="cls-1" d="M12.518,66.8c-.346,0-.518.346-.518.778s.173.778.518.778.518-.346.518-.778S12.95,66.8,12.518,66.8Zm0,1.21c-.173,0-.173-.173-.173-.518s.086-.518.173-.518.173.173.173.518S12.691,68.01,12.518,68.01Z" transform="translate(-1.632 -9.079)"/>
    <path id="Path_16593" data-name="Path 16593" class="cls-1" d="M12.518,64c-.346,0-.518.346-.518.778s.173.778.518.778.518-.259.518-.778C13.037,64.346,12.95,64,12.518,64Zm0,1.21c-.173,0-.173-.173-.173-.518s.086-.518.173-.518.173.173.173.518S12.691,65.21,12.518,65.21Z" transform="translate(-1.632 -8.699)"/>
    <path id="Path_16594" data-name="Path 16594" class="cls-1" d="M11.773,72.173h0a.085.085,0,0,1-.086-.086h.086A.085.085,0,0,0,11.686,72c-.086,0-.086,0-.086.086C11.686,72.173,11.686,72.173,11.773,72.173Zm0-.173h0C11.686,72.086,11.686,72,11.773,72Z" transform="translate(-1.577 -9.786)"/>
    <path id="Path_16595" data-name="Path 16595" class="cls-1" d="M11.49,72.09h0l.086.086h0V72.09c0-.086,0-.086-.086,0h0v.086h0Z" transform="translate(-1.553 -9.79)"/>
    <path id="Path_16596" data-name="Path 16596" class="cls-1" d="M11.818,59.014a.475.475,0,0,0,.432-.259h0v.173h.173V57.2h-.259v.691h0a.449.449,0,0,0-.346-.173.578.578,0,0,0-.518.6C11.3,58.842,11.473,59.014,11.818,59.014Zm0-1.037c.173,0,.259.086.346.259v.346c-.086.173-.173.259-.346.259-.259,0-.346-.173-.346-.432A.4.4,0,0,1,11.818,57.978Z" transform="translate(-1.536 -7.774)"/>
    <path id="Path_16597" data-name="Path 16597" class="cls-1" d="M11.991,62.291v-.346a.316.316,0,0,0-.346-.346.519.519,0,0,0-.346.086l.086.086c.086,0,.173-.086.259-.086.173,0,.173.173.173.259h0c-.346,0-.518.086-.518.346a.229.229,0,0,0,.259.259c.173,0,.259-.086.259-.173h0v.086h.173S11.991,62.378,11.991,62.291Zm-.173-.086h0c0,.086-.086.173-.259.173a.186.186,0,0,1-.173-.173c0-.173.173-.259.432-.173Z" transform="translate(-1.536 -8.372)"/>
    <path id="Path_16598" data-name="Path 16598" class="cls-1" d="M11.659,72.6a.259.259,0,0,0,0,.518h.173v-.086h-.086c-.086,0-.173,0-.173-.173h.346v-.086C11.832,72.773,11.746,72.6,11.659,72.6Zm-.173.259c0-.086,0-.173.086-.173h.086v.086h-.173Z" transform="translate(-1.55 -9.868)"/>
    <path id="Path_16599" data-name="Path 16599" class="cls-1" d="M11.286,72.173a.085.085,0,0,0,.086-.086c0-.086,0-.086-.086-.086s-.086,0-.086.086S11.2,72.173,11.286,72.173Zm0-.173h0a.12.12,0,0,1,0,.173.12.12,0,0,1,0-.173Z" transform="translate(-1.523 -9.786)"/>
    <path id="Path_16600" data-name="Path 16600" class="cls-1" d="M11.359,72.6h0c-.086,0-.086,0-.173.086V72.6H11.1v.518h.086v-.259h0a.085.085,0,0,1,.086-.086h0V72.6Z" transform="translate(-1.509 -9.868)"/>
    <path id="Path_16601" data-name="Path 16601" class="cls-1" d="M10.6,49.359c0,.173.086.173.173.173.173,0,.259-.086.259-.173V49.1C10.859,49.1,10.6,49.1,10.6,49.359Z" transform="translate(-1.441 -6.673)"/>
    <path id="Path_16602" data-name="Path 16602" class="cls-1" d="M11.086,72.159h0v-.086A.085.085,0,0,0,11,71.986h0V71.9h0v.259h0v-.086h.086a.085.085,0,0,1,.086.086h-.086Z" transform="translate(-1.496 -9.773)"/>
    <path id="Path_16603" data-name="Path 16603" class="cls-1" d="M11.118,66.8c-.346,0-.518.346-.518.778s.173.778.518.778.518-.346.518-.778S11.464,66.8,11.118,66.8Zm0,1.21c-.086,0-.173-.173-.173-.518s.086-.518.173-.518c.173,0,.173.173.173.518S11.2,68.01,11.118,68.01Z" transform="translate(-1.441 -9.079)"/>
    <rect id="Rectangle_3277" data-name="Rectangle 3277" class="cls-1" width="0.086" height="0.086" transform="translate(9.332 65.151)"/>
    <rect id="Rectangle_3278" data-name="Rectangle 3278" class="cls-1" width="0.173" height="0.086" transform="translate(9.245 65.497)"/>
    <path id="Path_16604" data-name="Path 16604" class="cls-1" d="M11.118,64c-.346,0-.518.346-.518.778s.173.778.518.778.518-.259.518-.778C11.637,64.346,11.464,64,11.118,64Zm0,1.21c-.086,0-.173-.173-.173-.518s.086-.518.173-.518c.173,0,.173.173.173.518S11.2,65.21,11.118,65.21Z" transform="translate(-1.441 -8.699)"/>
    <path id="Path_16605" data-name="Path 16605" class="cls-1" d="M10.873,76.886h-.086V76.8H10.7v.173h.173Z" transform="translate(-1.455 -10.439)"/>
    <path id="Path_16606" data-name="Path 16606" class="cls-1" d="M10.7,77.186v.086h.086v-.086h0V77.1H10.7Z" transform="translate(-1.455 -10.48)"/>
    <path id="Path_16607" data-name="Path 16607" class="cls-1" d="M10.786,72.073h.086V71.9H10.7v.259h0v-.086Zm0-.173h0c.086,0,.086,0,.086.086a.085.085,0,0,1-.086.086h0Z" transform="translate(-1.455 -9.773)"/>
    <path id="Path_16608" data-name="Path 16608" class="cls-1" d="M10.659,74.973v-.086h0V74.8H10.4v.086h0v.173h.259Z" transform="translate(-1.414 -10.167)"/>
    <path id="Path_16609" data-name="Path 16609" class="cls-1" d="M10.859,75.586h-.086V75.5H10.6v.086h.086v.086h.173Z" transform="translate(-1.441 -10.262)"/>
    <rect id="Rectangle_3279" data-name="Rectangle 3279" class="cls-1" width="0.173" height="0.086" transform="translate(8.986 65.411)"/>
    <rect id="Rectangle_3280" data-name="Rectangle 3280" class="cls-1" width="0.086" height="0.086" transform="translate(9.159 65.843)"/>
    <path id="Path_16610" data-name="Path 16610" class="cls-1" d="M10.686,76.459h.086v.086H10.6v.086h.259V76.2h-.086v.086h-.086v.086Z" transform="translate(-1.441 -10.357)"/>
    <rect id="Rectangle_3281" data-name="Rectangle 3281" class="cls-1" width="0.086" height="0.086" transform="translate(9.159 66.534)"/>
    <rect id="Rectangle_3282" data-name="Rectangle 3282" class="cls-1" width="16.33" height="0.173" transform="translate(4.147 52.104)"/>
    <rect id="Rectangle_3283" data-name="Rectangle 3283" class="cls-1" height="0.173" transform="translate(9.159 62.214)"/>
    <ellipse id="Ellipse_148" data-name="Ellipse 148" class="cls-1" cx="0.259" cy="0.605" rx="0.259" ry="0.605" transform="translate(8.813 44.501)"/>
    <path id="Path_16611" data-name="Path 16611" class="cls-1" d="M10.759,72.6a.259.259,0,0,0,0,.518.276.276,0,0,0,.259-.259c0-.086,0-.173-.086-.173A.268.268,0,0,0,10.759,72.6Zm0,.432c-.086,0-.086-.086-.086-.173s0-.173.173-.173c.086,0,.086.086.086.173C10.846,72.946,10.846,73.032,10.759,73.032Z" transform="translate(-1.428 -9.868)"/>
    <path id="Path_16612" data-name="Path 16612" class="cls-1" d="M10.837,38.3a3.561,3.561,0,0,0-1.037.086v3.543h.691V40.546h.346A1.593,1.593,0,0,0,11.96,40.2a1.056,1.056,0,0,0,.259-.778,1.1,1.1,0,0,0-.346-.778C11.7,38.386,11.355,38.3,10.837,38.3Zm0,1.728h-.346v-1.21h.346c.432,0,.691.173.691.6C11.614,39.769,11.269,40.028,10.837,40.028Z" transform="translate(-1.332 -5.204)"/>
    <path id="Path_16613" data-name="Path 16613" class="cls-1" d="M10.4,77.859h0v.086h.173v-.086h.259v-.086h0V77.6h-.086v.086h-.086V77.6h-.086v.086H10.4v.086h0Z" transform="translate(-1.414 -10.548)"/>
    <rect id="Rectangle_3284" data-name="Rectangle 3284" class="cls-1" width="0.173" height="0.086" transform="translate(8.727 67.225)"/>
    <path id="Path_16614" data-name="Path 16614" class="cls-1" d="M10.473,72.09h0c-.173-.086-.173,0-.173,0,0,.086,0,.086.086.086h.086V72.09a.086.086,0,0,1-.173,0Zm-.173,0h0c.086-.086.086,0,.086,0Z" transform="translate(-1.4 -9.79)"/>
    <path id="Path_16615" data-name="Path 16615" class="cls-1" d="M10.8,75.1v-.6h-.6v.691h.6Zm-.086-.346h0v.173h0V75.1h-.432v-.518h.432Z" transform="translate(-1.387 -10.126)"/>
    <rect id="Rectangle_3285" data-name="Rectangle 3285" class="cls-1" width="0.086" height="0.086" transform="translate(8.727 65.151)"/>
    <path id="Path_16616" data-name="Path 16616" class="cls-1" d="M10.186,75.759H10.1v.086h.259v-.173h0V75.5h-.173v.086H10.1v.086h.086Z" transform="translate(-1.373 -10.262)"/>
    <rect id="Rectangle_3286" data-name="Rectangle 3286" class="cls-1" width="0.086" height="0.086" transform="translate(8.727 66.793)"/>
    <path id="Path_16617" data-name="Path 16617" class="cls-1" d="M10.073,64.4a.173.173,0,1,0,.173.173C10.332,64.486,10.246,64.4,10.073,64.4Z" transform="translate(-1.346 -8.753)"/>
    <path id="Path_16618" data-name="Path 16618" class="cls-1" d="M10.073,68a.173.173,0,1,0,.173.173C10.332,68.086,10.246,68,10.073,68Z" transform="translate(-1.346 -9.243)"/>
    <path id="Path_16619" data-name="Path 16619" class="cls-1" d="M10.073,67.2a.173.173,0,1,0,.173.173C10.246,67.286,10.246,67.2,10.073,67.2Z" transform="translate(-1.346 -9.134)"/>
    <path id="Path_16620" data-name="Path 16620" class="cls-1" d="M10.273,72.5h-.086v.086H10.1v.086h.086v.259c0,.086,0,.086.086.173h.173v-.086h-.086c-.086,0-.086,0-.086-.086v-.259h.086v-.086h-.086Z" transform="translate(-1.373 -9.854)"/>
    <path id="Path_16621" data-name="Path 16621" class="cls-1" d="M10.691,62.31h0v.173h.173V61.1h-.173v.518h0c-.086-.086-.173-.173-.259-.173-.259,0-.432.173-.432.518a.408.408,0,0,0,.432.432A.166.166,0,0,0,10.691,62.31Zm-.518-.346c0-.173.086-.346.259-.346.086,0,.259.086.259.173v.346c0,.086-.173.173-.259.173C10.259,62.31,10.173,62.223,10.173,61.964Z" transform="translate(-1.36 -8.304)"/>
    <path id="Path_16622" data-name="Path 16622" class="cls-1" d="M10.348,59.123a.449.449,0,0,0,.346-.173h0v.173h.173v-.691c0-.259-.086-.432-.432-.432-.173,0-.259,0-.346.086l.086.173c.086-.086.173-.086.346-.086.259,0,.259.173.259.259h0c-.432,0-.691.173-.691.432C9.916,59.037,10.089,59.123,10.348,59.123Zm.346-.6v.259c0,.086-.173.173-.259.173a.186.186,0,0,1-.173-.173C10.175,58.6,10.435,58.518,10.694,58.518Z" transform="translate(-1.362 -7.883)"/>
    <path id="Path_16623" data-name="Path 16623" class="cls-1" d="M10.073,65.2a.173.173,0,1,0,.173.173C10.332,65.286,10.246,65.2,10.073,65.2Z" transform="translate(-1.346 -8.862)"/>
    <rect id="Rectangle_3287" data-name="Rectangle 3287" class="cls-1" width="0.086" height="0.086" transform="translate(8.64 65.411)"/>
    <rect id="Rectangle_3288" data-name="Rectangle 3288" class="cls-1" width="0.086" height="0.086" transform="translate(8.64 65.67)"/>
    <rect id="Rectangle_3289" data-name="Rectangle 3289" class="cls-1" width="0.086" height="0.086" transform="translate(8.64 66.447)"/>
    <path id="Path_16624" data-name="Path 16624" class="cls-1" d="M10.1,72.073h0c.086-.086.086,0,.086,0v.086h0v-.086c0-.086,0-.086-.086,0h0V71.9h0v.259h0Z" transform="translate(-1.373 -9.773)"/>
    <rect id="Rectangle_3290" data-name="Rectangle 3290" class="cls-1" width="0.086" height="0.086" transform="translate(8.554 64.46)"/>
    <rect id="Rectangle_3291" data-name="Rectangle 3291" class="cls-1" width="0.173" height="0.086" transform="translate(8.468 64.633)"/>
    <rect id="Rectangle_3292" data-name="Rectangle 3292" class="cls-1" width="0.086" height="0.086" transform="translate(8.554 64.978)"/>
    <rect id="Rectangle_3293" data-name="Rectangle 3293" class="cls-1" width="0.086" height="0.086" transform="translate(8.554 67.311)"/>
    <path id="Path_16625" data-name="Path 16625" class="cls-1" d="M9.9,72.073h0l.086.086L9.9,72.073h0c.086.086,0,.086,0,0v-.086h0V71.9h0Z" transform="translate(-1.346 -9.773)"/>
    <path id="Path_16626" data-name="Path 16626" class="cls-1" d="M9.886,75.586V75.5H9.8v.173h.086Z" transform="translate(-1.332 -10.262)"/>
    <path id="Path_16627" data-name="Path 16627" class="cls-1" d="M9.7,75.273v.086h.086v-.173h.086V75.1H9.7v.173Z" transform="translate(-1.319 -10.208)"/>
    <rect id="Rectangle_3294" data-name="Rectangle 3294" class="cls-1" width="0.086" height="0.086" transform="translate(8.381 65.411)"/>
    <rect id="Rectangle_3295" data-name="Rectangle 3295" class="cls-1" width="0.086" height="0.086" transform="translate(8.381 67.225)"/>
    <path id="Path_16628" data-name="Path 16628" class="cls-1" d="M9.846,72.659a.086.086,0,1,1,0-.173h.086V72.4H9.759c-.086,0-.259.086-.259.173.086.086.173.173.346.086,0,.086.086.173.086.259S9.846,73,9.759,73H9.586v.086h.173c.173,0,.259-.086.259-.173S10.018,72.746,9.846,72.659Z" transform="translate(-1.292 -9.841)"/>
    <path id="Path_16629" data-name="Path 16629" class="cls-1" d="M9.686,72.086v.086h0v-.086c.086-.086,0-.086,0,0L9.6,72h0v.173h0v-.086h0c0-.086,0-.086.086,0Z" transform="translate(-1.305 -9.786)"/>
    <path id="Path_16630" data-name="Path 16630" class="cls-1" d="M9.486,61.746h0v-.173H9.4v.864h.173v-.6a.276.276,0,0,1,.259-.259h.086V61.4H9.832Z" transform="translate(-1.278 -8.345)"/>
    <rect id="Rectangle_3296" data-name="Rectangle 3296" class="cls-1" width="0.259" height="0.086" transform="translate(7.949 67.311)"/>
    <path id="Path_16631" data-name="Path 16631" class="cls-1" d="M9.346,48.6c-.259,0-.346.173-.346.432s.086.432.346.432c.173,0,.259-.086.346-.259v-.346C9.691,48.686,9.518,48.6,9.346,48.6Z" transform="translate(-1.224 -6.605)"/>
    <rect id="Rectangle_3297" data-name="Rectangle 3297" class="cls-1" width="0.432" height="0.086" transform="translate(7.69 64.46)"/>
    <rect id="Rectangle_3298" data-name="Rectangle 3298" class="cls-1" width="0.086" height="0.086" transform="translate(8.036 64.978)"/>
    <path id="Path_16632" data-name="Path 16632" class="cls-1" d="M9.386,72c-.086,0-.086,0-.086.086a.085.085,0,0,0,.086.086c.086,0,.086,0,.086-.086S9.473,72,9.386,72Zm0,.173h0C9.3,72.086,9.3,72,9.386,72a.12.12,0,0,1,0,.173Z" transform="translate(-1.264 -9.786)"/>
    <rect id="Rectangle_3299" data-name="Rectangle 3299" class="cls-1" width="0.086" height="0.086" transform="translate(7.949 64.806)"/>
    <rect id="Rectangle_3300" data-name="Rectangle 3300" class="cls-1" width="0.086" height="0.086" transform="translate(7.863 64.978)"/>
    <path id="Path_16633" data-name="Path 16633" class="cls-1" d="M9.173,74.859h.086v.086h.086v.086H9.6v-.173h0v-.086h.086V74.6H9.6v.086H9.346v.086H9v.086h.086v.086h.086Zm.259-.086Z" transform="translate(-1.224 -10.14)"/>
    <path id="Path_16634" data-name="Path 16634" class="cls-1" d="M9,75.386v.086h.086V75.3H9Z" transform="translate(-1.224 -10.235)"/>
    <path id="Path_16635" data-name="Path 16635" class="cls-1" d="M9,77.973h.086V77.8H9v.086Z" transform="translate(-1.224 -10.575)"/>
    <path id="Path_16636" data-name="Path 16636" class="cls-1" d="M9.086,72.173h0A.085.085,0,0,1,9,72.086h.086A.085.085,0,0,0,9,72v.086C9,72.173,9,72.173,9.086,72.173Zm0-.173h0C9,72.086,9,72,9.086,72Z" transform="translate(-1.224 -9.786)"/>
    <path id="Path_16637" data-name="Path 16637" class="cls-1" d="M9.073,75.086V75H8.9v.086h.086v.086h.086Z" transform="translate(-1.21 -10.194)"/>
    <rect id="Rectangle_3301" data-name="Rectangle 3301" class="cls-1" width="0.086" height="0.086" transform="translate(7.69 64.978)"/>
    <rect id="Rectangle_3302" data-name="Rectangle 3302" class="cls-1" height="0.259" transform="translate(7.69 62.127)"/>
    <path id="Path_16638" data-name="Path 16638" class="cls-1" d="M8.2,30.459V33.57c0,.518.259.778.864.778h9.5A1,1,0,0,0,19.432,34a1.055,1.055,0,0,0,.346-.778V30.286l-.6.173v2.765a.616.616,0,0,1-.6.691H17.532v-.259a2.794,2.794,0,0,0-.259-1.382,1.421,1.421,0,0,0-1.3-.691,1.841,1.841,0,0,0-1.382.6l.432.432a1.329,1.329,0,0,1,.95-.518.867.867,0,0,1,.864.518,3.223,3.223,0,0,1,.173,1.037v.259h-3.37v-.259a3.9,3.9,0,0,0-.086-1.123,1.737,1.737,0,0,0-.346-.691,1.643,1.643,0,0,0-1.123-.432,1.284,1.284,0,0,0-1.123.518,2.122,2.122,0,0,0-.432,1.3c0,.259.086.432.086.6H9.15c-.259,0-.346-.086-.346-.346V30.2Zm3.715,1.469a.8.8,0,0,1,.864.518,3.29,3.29,0,0,1,.086,1.123v.259h-.778a.826.826,0,0,0,.173-.6A1.056,1.056,0,0,0,12,32.446a.907.907,0,0,0-.778-.432A1.9,1.9,0,0,1,11.915,31.928Zm-.95.778c.086-.173.173-.259.346-.259s.259.086.346.259a1.228,1.228,0,0,1,.173.518c0,.346-.173.6-.518.6s-.518-.259-.518-.6C10.879,33.051,10.879,32.879,10.965,32.706Z" transform="translate(-1.115 -4.103)"/>
    <path id="Path_16639" data-name="Path 16639" class="cls-1" d="M9.059,72.6c-.086,0-.086,0-.173.086V72.6H8.8v.691h.173v-.259a.3.3,0,0,0,.173.086c.086,0,.086,0,.173-.086.086,0,.086-.086.086-.173s0-.086-.086-.173A.317.317,0,0,0,9.059,72.6Zm0,.432c-.086,0-.086,0-.086-.086h0v-.086h0a.085.085,0,0,1,.086-.086.186.186,0,0,1,.173.173A.3.3,0,0,1,9.059,73.032Z" transform="translate(-1.196 -9.868)"/>
    <path id="Path_16640" data-name="Path 16640" class="cls-1" d="M9.018,64c-.346,0-.518.346-.518.778s.173.778.518.778.518-.259.518-.778C9.537,64.346,9.364,64,9.018,64Zm0,1.21c-.086,0-.173-.173-.173-.518s.086-.518.173-.518c.173,0,.173.173.173.518S9.1,65.21,9.018,65.21Z" transform="translate(-1.156 -8.699)"/>
    <rect id="Rectangle_3303" data-name="Rectangle 3303" class="cls-1" width="0.086" height="0.086" transform="translate(7.517 66.447)"/>
    <rect id="Rectangle_3304" data-name="Rectangle 3304" class="cls-1" width="0.173" height="0.086" transform="translate(7.431 64.46)"/>
    <path id="Path_16641" data-name="Path 16641" class="cls-1" d="M8.786,74.886h0V74.8H8.7v.086h0v.086h.086Z" transform="translate(-1.183 -10.167)"/>
    <path id="Path_16642" data-name="Path 16642" class="cls-1" d="M8.7,75.273h.086V75.1H8.7v.173Z" transform="translate(-1.183 -10.208)"/>
    <rect id="Rectangle_3305" data-name="Rectangle 3305" class="cls-1" width="0.086" height="0.086" transform="translate(7.517 66.707)"/>
    <path id="Path_16643" data-name="Path 16643" class="cls-1" d="M8.786,77.786v.173h.086v-.173h.086V77.7H8.7v.086Z" transform="translate(-1.183 -10.561)"/>
    <path id="Path_16644" data-name="Path 16644" class="cls-1" d="M8.6,66.973v.259l.346-.173v1.21H9.2V66.8H8.946Z" transform="translate(-1.169 -9.079)"/>
    <path id="Path_16645" data-name="Path 16645" class="cls-1" d="M8.773,71.986h0L8.686,71.9h0v.259h.086c.086,0,.086,0,.086-.086A.085.085,0,0,0,8.773,71.986Zm-.086.173h0L8.6,72.073h0a.085.085,0,0,1,.086-.086c.086,0,.086.086,0,.173C8.773,72.073,8.773,72.159,8.686,72.159Z" transform="translate(-1.169 -9.773)"/>
    <rect id="Rectangle_3306" data-name="Rectangle 3306" class="cls-1" width="0.086" height="0.086" transform="translate(7.431 64.806)"/>
    <path id="Path_16646" data-name="Path 16646" class="cls-1" d="M9.723,76.286v.086H9.81v.259h.173v.346H9.81v-.086H9.723v.086H9.637v.086h.086v.086H9.291v.086h.086v.086H9.291v.086H9.2v-.086h.086v-.086H9.2V77.15H9.118v.086H9.032V77.15H8.859v.086H8.686v.086H8.6V77.5h.086V77.41h.086v-.086h.173v.086h.173V77.5h.173v.086h.086V77.5h.086v-.259h.173v.086H9.55v.086h.086V77.5h.086V77.41H9.81v.173H9.9V77.41h.259v-.086H10.5v-.086h-.173V77.15h-.173v-.086h.086v-.086h-.173v-.086h.086V76.8h.086v-.086h-.173v-.173H9.982v-.086h.086v.086h.086v-.173h.086v-.086h-.086V76.2h-.086v.173H9.982V76.2H9.9v.086Zm.432.778v.259H9.81v-.259Z" transform="translate(-1.169 -10.357)"/>
    <path id="Path_16647" data-name="Path 16647" class="cls-1" d="M8.4,74.786v.086h.173V74.7H8.4Z" transform="translate(-1.142 -10.154)"/>
    <rect id="Rectangle_3307" data-name="Rectangle 3307" class="cls-1" width="0.086" height="0.086" transform="translate(7.258 64.806)"/>
    <path id="Path_16648" data-name="Path 16648" class="cls-1" d="M8.573,77.386V77.3H8.4v.086h0v.086h.173Z" transform="translate(-1.142 -10.507)"/>
    <path id="Path_16649" data-name="Path 16649" class="cls-1" d="M8.546,77.7H8.373v.086H8.2v.173h.173v-.086h.173v.086h.086v-.173H8.546Z" transform="translate(-1.115 -10.561)"/>
    <path id="Path_16650" data-name="Path 16650" class="cls-1" d="M8.386,72.173h0c.086.086.086,0,.086,0h0v-.086A.085.085,0,0,0,8.386,72h0c.086,0,.086,0,.086.086h0A.085.085,0,0,0,8.386,72.173Zm.086-.086h0c0,.086-.086.086,0,0Z" transform="translate(-1.129 -9.786)"/>
    <rect id="Rectangle_3308" data-name="Rectangle 3308" class="cls-1" height="0.259" transform="translate(7.171 62.127)"/>
    <rect id="Rectangle_3309" data-name="Rectangle 3309" class="cls-1" width="0.086" height="0.086" transform="translate(7.085 64.46)"/>
    <path id="Path_16651" data-name="Path 16651" class="cls-1" d="M8.373,75.2H8.2v.173h.173V75.2Z" transform="translate(-1.115 -10.222)"/>
    <path id="Path_16652" data-name="Path 16652" class="cls-1" d="M8.359,75.532v-.086h.259v-.173H8.532V75.1H8.359v.259h0v.086H8.1v.086Z" transform="translate(-1.101 -10.208)"/>
    <rect id="Rectangle_3310" data-name="Rectangle 3310" class="cls-1" width="0.086" height="0.086" transform="translate(7.085 65.843)"/>
    <path id="Path_16653" data-name="Path 16653" class="cls-1" d="M8.978,75.891h.086v-.173H9.15v-.086h.086v-.173h.086v.259H9.15v.432h.086v-.086h.086v.086H9.237v.086H9.15V76.15H8.978v-.259H8.891v.259H8.8v.086H8.546v.086H8.373v-.086h.173V76.15H8.373v.173H8.2v.086h0v.173h.173V76.41h.259v-.086h.259v-.086h.173v.086H8.978v.086H8.8V76.5H8.718V76.41H8.632V76.5h0v.086H8.8v.259H8.718v.086h.259v-.086h.086v-.086H8.978v-.173H9.15v.173h.086v-.086h.086v.086H9.237v.173H9.41v-.173h.259v-.173h.086V76.5H9.669v-.173H9.582v.086H9.5V76.5h.086v.086H9.237V76.41h.086v-.086h.259v-.086H9.41v-.173H9.5v.086h.086v-.259h.173v-.173H9.669V75.8H9.5v.086H9.237V75.8H9.41v-.173H9.5v-.086H9.41v-.086h0V75.2H9.323v.086H9.237v.086H9.064v.086H9.15v.086H8.978v.086H8.891V75.8h.086Z" transform="translate(-1.115 -10.222)"/>
    <path id="Path_16654" data-name="Path 16654" class="cls-1" d="M8.373,77.586V77.5H8.2v.173h.173Z" transform="translate(-1.115 -10.534)"/>
    <path id="Path_16655" data-name="Path 16655" class="cls-1" d="M8.791,62.378v.173h.173V61.6H8.7v.691c0,.086-.086.173-.259.173s-.173-.086-.173-.259v-.518H8.1V62.2c0,.346.173.432.346.432A1.193,1.193,0,0,0,8.791,62.378Z" transform="translate(-1.101 -8.372)"/>
    <rect id="Rectangle_3311" data-name="Rectangle 3311" class="cls-1" height="0.173" transform="translate(7.085 62.214)"/>
    <rect id="Rectangle_3312" data-name="Rectangle 3312" class="cls-1" width="0.086" height="0.086" transform="translate(6.999 65.411)"/>
    <path id="Path_16656" data-name="Path 16656" class="cls-1" d="M8.359,75.818h0v-.086h.173v.086H8.7V75.9H8.532v.259h.086v-.086h.173V75.9h.086v-.086H8.791v-.259h0V75.3H8.7v.173H8.618v.086H8.7v.086H8.618v-.086H8.359v.086h0v.086H8.186v.086H8.1V75.9h.259Z" transform="translate(-1.101 -10.235)"/>
    <rect id="Rectangle_3313" data-name="Rectangle 3313" class="cls-1" width="0.086" height="0.086" transform="translate(6.999 66.361)"/>
    <path id="Path_16657" data-name="Path 16657" class="cls-1" d="M8.346,77.132v-.259h.173V76.7H8.346v.086h0v.259H8v.086h.173v.086h.173Z" transform="translate(-1.088 -10.425)"/>
    <path id="Path_16658" data-name="Path 16658" class="cls-1" d="M8.459,72.6c-.086,0-.086,0-.173.086V72.6H8.2v.691h.086v-.259a.3.3,0,0,0,.173.086c.086,0,.086,0,.173-.086.086,0,.086-.086.086-.173s0-.086-.086-.173S8.546,72.6,8.459,72.6Zm0,.432c-.086,0-.086,0-.086-.086h0v-.086h0a.085.085,0,0,1,.086-.086.186.186,0,0,1,.173.173C8.546,72.946,8.546,73.032,8.459,73.032Z" transform="translate(-1.115 -9.868)"/>
    <rect id="Rectangle_3314" data-name="Rectangle 3314" class="cls-1" width="0.086" height="0.086" transform="translate(6.912 65.151)"/>
    <path id="Path_16659" data-name="Path 16659" class="cls-1" d="M7.8,76.673h.086v-.086h.173V76.5H7.8v.086Z" transform="translate(-1.061 -10.398)"/>
    <rect id="Rectangle_3315" data-name="Rectangle 3315" class="cls-1" width="0.086" height="0.086" transform="translate(6.912 66.275)"/>
    <rect id="Rectangle_3316" data-name="Rectangle 3316" class="cls-1" width="0.086" height="0.086" transform="translate(6.912 66.447)"/>
    <path id="Path_16660" data-name="Path 16660" class="cls-1" d="M7.959,51.818c.086,0,.173-.086.173-.259,0-.086-.086-.259-.173-.259s-.259.086-.259.173S7.786,51.818,7.959,51.818Z" transform="translate(-1.047 -6.972)"/>
    <rect id="Rectangle_3317" data-name="Rectangle 3317" class="cls-1" width="0.086" height="0.086" transform="translate(6.826 66.361)"/>
    <rect id="Rectangle_3318" data-name="Rectangle 3318" class="cls-1" width="0.086" height="0.086" transform="translate(6.826 66.534)"/>
    <path id="Path_16661" data-name="Path 16661" class="cls-1" d="M7.959,52.818a.259.259,0,1,0,0-.518.259.259,0,1,0,0,.518Z" transform="translate(-1.047 -7.108)"/>
    <path id="Path_16662" data-name="Path 16662" class="cls-1" d="M7.986,72.173h0c.086.086.086,0,.086,0h0v-.086A.085.085,0,0,0,7.986,72h0a.085.085,0,0,1,.086.086h0C7.986,72.086,7.986,72.086,7.986,72.173Zm.086-.086Z" transform="translate(-1.074 -9.786)"/>
    <path id="Path_16663" data-name="Path 16663" class="cls-1" d="M7.859,74.973v-.086h0V74.8H7.6v.086h0v.173h.259Z" transform="translate(-1.033 -10.167)"/>
    <rect id="Rectangle_3319" data-name="Rectangle 3319" class="cls-1" width="0.086" height="0.086" transform="translate(6.739 66.447)"/>
    <path id="Path_16664" data-name="Path 16664" class="cls-1" d="M7.859,77.673V77.5H7.6v.259h.259Z" transform="translate(-1.033 -10.534)"/>
    <path id="Path_16665" data-name="Path 16665" class="cls-1" d="M7.7,59.137h.173v-.778c0-.086.086-.173.259-.173s.259.173.259.346v.691h.173v-.778c0-.086.086-.173.259-.173s.259.173.259.346v.691h.173v-.691c0-.432-.259-.518-.346-.518a.317.317,0,0,0-.259.086c-.086,0-.086.086-.086.173-.086-.173-.173-.259-.346-.259s-.346.086-.346.173h0V58.1H7.7v1.037Z" transform="translate(-1.047 -7.897)"/>
    <path id="Path_16666" data-name="Path 16666" class="cls-1" d="M7.186,64.432l.259-.086v1.123h.346V64H7.532l-.432.173Z" transform="translate(-0.965 -8.699)"/>
    <path id="Path_16667" data-name="Path 16667" class="cls-1" d="M7.786,76.346h.346v-.086H7.786v-.086h.259V76H7.7v.432h.086Z" transform="translate(-1.047 -10.33)"/>
    <rect id="Rectangle_3320" data-name="Rectangle 3320" class="cls-1" width="0.086" height="0.086" transform="translate(6.653 66.361)"/>
    <path id="Path_16668" data-name="Path 16668" class="cls-1" d="M7.886,72.173,7.973,72H7.886v.173h0L7.8,72h0l.086.173Z" transform="translate(-1.061 -9.786)"/>
    <rect id="Rectangle_3321" data-name="Rectangle 3321" class="cls-1" width="0.086" height="0.086" transform="translate(6.567 65.497)"/>
    <path id="Path_16669" data-name="Path 16669" class="cls-1" d="M7.686,76.9H7.6v.173h.173v-.086H7.686Z" transform="translate(-1.033 -10.453)"/>
    <path id="Path_16670" data-name="Path 16670" class="cls-1" d="M7.759,72.4l-.259.691h.086l.086-.173h.259l.086.173H8.1L7.846,72.4Zm-.086.432.086-.173v0l.086.173Z" transform="translate(-1.02 -9.841)"/>
    <path id="Path_16671" data-name="Path 16671" class="cls-1" d="M7.6,72.073h.086v.086h0L7.6,71.9h0v.173Zm0-.086Z" transform="translate(-1.033 -9.773)"/>
    <path id="Path_16672" data-name="Path 16672" class="cls-1" d="M6.8,30.632c0,.173.173.259.346.259a.346.346,0,1,0,0-.691C6.973,30.286,6.8,30.373,6.8,30.632Z" transform="translate(-0.925 -4.103)"/>
    <path id="Path_16673" data-name="Path 16673" class="cls-1" d="M8,75.118v-.259H8V74.6H7.4v.259h0V75.2H8Zm-.086-.346h0v.346H7.486v-.259h0v-.173h.432Z" transform="translate(-1.006 -10.14)"/>
    <path id="Path_16674" data-name="Path 16674" class="cls-1" d="M7.918,75.746v-.086H8v-.086H7.918v-.086H7.832V75.4H7.659v.086h.086v.086H7.659v-.086H7.573V75.4H7.4v.086h.086v.173H7.4v.086h.173v-.086h.173v.086h.086v.086H8v-.086Z" transform="translate(-1.006 -10.249)"/>
    <path id="Path_16675" data-name="Path 16675" class="cls-1" d="M7.4,75.986h.086v.259H7.4v.086h.173v-.346h0V75.9H7.4Z" transform="translate(-1.006 -10.317)"/>
    <rect id="Rectangle_3322" data-name="Rectangle 3322" class="cls-1" width="0.086" height="0.086" transform="translate(6.394 66.102)"/>
    <path id="Path_16676" data-name="Path 16676" class="cls-1" d="M7.573,77.018H7.486v-.173h.086v-.086h.086V76.5H7.573v.173H7.486v.086H7.4V77.1h.173Z" transform="translate(-1.006 -10.398)"/>
    <path id="Path_16677" data-name="Path 16677" class="cls-1" d="M8,77.818v-.086H8V77.3H7.4v.432h0V77.9H8Zm-.086-.346v.259h0v.086H7.486v-.086h0v-.346l.432.086Z" transform="translate(-1.006 -10.507)"/>
    <path id="Path_16678" data-name="Path 16678" class="cls-1" d="M7.386,61.3v.259H7.3v.173h.173v.518a.317.317,0,0,0,.086.259.3.3,0,0,0,.173.086H7.9v-.173H7.818a.186.186,0,0,1-.173-.173v-.518H7.9v-.173H7.559V61.3Z" transform="translate(-0.993 -8.332)"/>
    <path id="Path_16679" data-name="Path 16679" class="cls-1" d="M7.6,67.837a.652.652,0,0,0,.346-.6c0-.259-.173-.432-.518-.432A.66.66,0,0,0,7,66.973l.086.259c.086-.086.173-.086.346-.086a.229.229,0,0,1,.259.259c0,.173-.173.346-.518.6H7v.173H8.037v-.259H7.518Z" transform="translate(-0.952 -9.079)"/>
    <path id="Path_16680" data-name="Path 16680" class="cls-1" d="M6.646,59.123a.449.449,0,0,0,.346-.173h0v.173h.173v-.691c0-.259-.086-.432-.432-.432-.173,0-.259,0-.346.086v.173c.086-.086.173-.086.346-.086.259,0,.259.173.259.259h0c-.432,0-.691.173-.691.432C6.3,59.037,6.386,59.123,6.646,59.123Zm.346-.6v.259c0,.086-.173.173-.259.173a.186.186,0,0,1-.173-.173C6.473,58.6,6.732,58.518,6.991,58.518Z" transform="translate(-0.857 -7.883)"/>
    <path id="Path_16681" data-name="Path 16681" class="cls-1" d="M6.991,62.291v-.346a.316.316,0,0,0-.346-.346.519.519,0,0,0-.346.086l.086.086c.086,0,.173-.086.259-.086.173,0,.173.173.173.259h0c-.346,0-.518.086-.518.346a.229.229,0,0,0,.259.259c.086,0,.259-.086.259-.173v.086h.173ZM6.818,62.2h0c0,.086-.086.173-.259.173a.186.186,0,0,1-.173-.173c0-.173.173-.259.432-.173Z" transform="translate(-0.857 -8.372)"/>
    <path id="Path_16682" data-name="Path 16682" class="cls-1" d="M7,71.9H6.486c-.086,0-.086,0-.086.086v1.037a.085.085,0,0,0,.086.086h.432c.086,0,.086,0,.086-.086V71.986C7.091,71.986,7,71.9,7,71.9Zm-.259,1.123h0c-.086-.086,0-.086,0-.086s.086,0,0,.086ZM7,72.85H6.486v-.691H7Z" transform="translate(-0.87 -9.773)"/>
    <ellipse id="Ellipse_149" data-name="Ellipse 149" class="cls-1" cx="0.259" cy="0.605" rx="0.259" ry="0.605" transform="translate(5.098 44.501)"/>
    <path id="Path_16683" data-name="Path 16683" class="cls-1" d="M5.632,61.7c-.173-.086-.259-.086-.259-.259,0-.086.086-.173.259-.173a.317.317,0,0,1,.259.086v-.173c-.086,0-.173-.086-.259-.086a.4.4,0,0,0-.432.346c0,.173.086.259.346.346.173.086.259.086.259.259a.229.229,0,0,1-.259.259.519.519,0,0,1-.346-.086V62.4c.086,0,.173.086.346.086a.4.4,0,0,0,.432-.346C5.978,61.878,5.8,61.791,5.632,61.7Z" transform="translate(-0.707 -8.304)"/>
    <path id="Path_16684" data-name="Path 16684" class="cls-1" d="M5.737,35.747a1.431,1.431,0,0,0,1.037-.432,1.377,1.377,0,0,0,.346-1.037V31.6l-.6.173v2.506a.816.816,0,0,1-.864.864,1.742,1.742,0,0,1-.95-.259l.259.6A1.044,1.044,0,0,0,5.737,35.747Z" transform="translate(-0.639 -4.293)"/>
    <path id="Path_16685" data-name="Path 16685" class="cls-1" d="M5.059,58.337h.173c.173,0,.259.086.346.346a.939.939,0,0,1,.086.432h.259a1.46,1.46,0,0,0-.173-.432c0-.173-.086-.259-.259-.346h0c.173-.173.346-.259.346-.518a.6.6,0,0,0-.6-.518H4.8v1.642h.173v-.6Zm0-.778h.173c.259,0,.346.086.346.259a.372.372,0,0,1-.346.346H5.059Z" transform="translate(-0.653 -7.788)"/>
    <path id="Path_16686" data-name="Path 16686" class="cls-1" d="M4.2,49.359c0,.173.086.173.173.173.173,0,.259-.086.259-.173V49.1C4.459,49.1,4.2,49.1,4.2,49.359Z" transform="translate(-0.571 -6.673)"/>
  </g>
</svg>
