<?xml version="1.0" encoding="utf-8"?>
<!-- Generator: Adobe Illustrator 22.1.0, SVG Export Plug-In . SVG Version: 6.00 Build 0)  -->
<svg version="1.1" id="Layer_1" xmlns="http://www.w3.org/2000/svg" xmlns:xlink="http://www.w3.org/1999/xlink" x="0px" y="0px"
	 viewBox="0 0 32 32" style="enable-background:new 0 0 32 32;" xml:space="preserve">
<path fill="#023b41" d="M25.4,1H6.6C5.4,1,4.4,2,4.4,3.2v25.6c0,1.2,1,2.2,2.2,2.2h18.9c1.2,0,2.2-1,2.2-2.2V3.2C27.6,2,26.6,1,25.4,1z M14.4,1.8
	h3.2c0.2,0,0.3,0.1,0.3,0.3s-0.1,0.3-0.3,0.3h-3.2c-0.2,0-0.3-0.1-0.3-0.3S14.3,1.8,14.4,1.8z M16,29.9c-0.5,0-0.9-0.4-0.9-0.9
	s0.4-0.9,0.9-0.9s0.9,0.4,0.9,0.9S16.5,29.9,16,29.9z M25.5,26.5c0,0.4-0.3,0.7-0.7,0.7H7.3c-0.4,0-0.7-0.3-0.7-0.7V3.9
	c0-0.4,0.3-0.7,0.7-0.7h17.5c0.4,0,0.7,0.3,0.7,0.7V26.5z"/>
</svg>
