<svg xmlns="http://www.w3.org/2000/svg" viewBox="0 0 34.872 114.048">
  <defs>
    <style>
      .cls-1, .cls-2 {
        fill: #fff;
      }

      .cls-2 {
        fill-rule: evenodd;
      }
    </style>
  </defs>
  <g id="Group_14239" data-name="Group 14239" transform="translate(-265 -32.7)">
    <rect id="Rectangle_3002" data-name="Rectangle 3002" class="cls-1" width="30.87" height="71.459" transform="translate(266.858 75.289)"/>
    <path id="Path_16319" data-name="Path 16319" class="cls-2" d="M265,32.7V71.716h34.872V32.7Zm24.582,17.436a3.144,3.144,0,1,1-3.144,3.144A3.172,3.172,0,0,1,289.582,50.136Zm-8.575,13.72H269.859V61.569h11.148ZM271.86,53.28A3.144,3.144,0,1,1,275,56.424,3.172,3.172,0,0,1,271.86,53.28Zm12.72-6.86h-14.72V37.7h14.72Zm10.147,22.009H285.58V59.283h9.147Z" transform="translate(0 0)"/>
  </g>
</svg>
