<?xml version="1.0" encoding="utf-8"?>
<!-- Generator: Adobe Illustrator 22.1.0, SVG Export Plug-In . SVG Version: 6.00 Build 0)  -->
<svg version="1.1" id="Layer_1" xmlns="http://www.w3.org/2000/svg" xmlns:xlink="http://www.w3.org/1999/xlink" x="0px" y="0px"
	 viewBox="0 0 48 48" style="enable-background:new 0 0 48 48;" xml:space="preserve">
<style type="text/css">
	.st0{fill:#33404A;}
	.st1{fill:#FAAE40;}
</style>
<g>
	<polygon class="st0" points="27.3,47 20.7,47 18.7,29.7 29.3,29.7 	"/>
	<path id="XMLID_1957_" class="st0" d="M28.7,48h-9.4c-0.4,0-0.6-0.3-0.6-0.6v-0.2c0-0.4,0.3-0.6,0.6-0.6h9.4c0.4,0,0.6,0.3,0.6,0.6
		v0.2C29.4,47.7,29.1,48,28.7,48z"/>
	<path class="st1" d="M24.1,46L24.1,46c-0.2,0-0.2-0.1-0.2-0.2V34c0-0.1,0.1-0.2,0.2-0.2h0.1c0.1,0,0.2,0.1,0.2,0.2v11.9
		C24.2,45.9,24.2,46,24.1,46z"/>
	<path id="XMLID_497_" class="st0" d="M36.8,22.3c-0.6-1.7-1.5-3.8-3-5.1c-0.5-0.6-1.8-1.3-3.8-2.1c-2.8-1-3.7-1.8-3.7-3.7
		c0-1.1,0.9-0.7,1.2-2.7c0.2-0.8,0.9,0,1.1-1.9c0-0.8-0.5-0.9-0.5-0.9s0.2-1.1,0.3-2C28.6,2.8,27.9,0,24,0s-4.6,2.8-4.5,3.9
		c0.1,0.9,0.3,2,0.3,2S19.4,6,19.4,6.8c0.2,1.9,0.9,1.1,1.1,1.9c0.4,2,1.2,1.7,1.2,2.7c0,1.8-0.9,2.7-3.7,3.7
		c-2,0.7-3.2,1.5-3.8,2.1c-1.5,1.3-2.4,3.4-3,5.1c-0.4,1.3,0.5,3.1,1.7,3.6v0l5.6,1.8l0.6,4.9h5h5l0.6-4.9l5.5-1.8v0
		C36.3,25.3,37.2,23.5,36.8,22.3z M15.1,22.8c0,0,1-2.1,2.5-3l0.5,4.4C16.6,23.4,15.1,22.8,15.1,22.8z M29.9,24.2l0.5-4.4
		c1.5,0.9,2.5,3,2.5,3S31.4,23.4,29.9,24.2z"/>
	<polygon id="XMLID_501_" class="st1" points="17.5,29.2 24,17.8 30.6,29.2 	"/>
	<g id="XMLID_502_">
		<path class="st0" d="M19.6,27.6L19.6,27.6c-0.1,0.2-0.3,0.3-0.4,0.2l-1.6-0.6c-0.2-0.1-0.3-0.3-0.2-0.4l0,0
			c0.1-0.2,0.3-0.3,0.4-0.2l1.6,0.6C19.5,27.2,19.6,27.4,19.6,27.6z"/>
		<path class="st0" d="M20.1,27.1L20.1,27.1c-0.1,0.2-0.3,0.3-0.4,0.2L18,26.6c-0.2-0.1-0.6-0.4-0.5-0.6v0c0.1-0.2,0.6-0.2,0.7-0.1
			l1.6,0.6C20.1,26.7,20.2,26.9,20.1,27.1z"/>
		<path class="st0" d="M20,25.5L20,25.5c-0.1,0.2-0.3,0.3-0.4,0.2L18,25.1c-0.2-0.1-0.3-0.3-0.2-0.4l0,0c0.1-0.2,0.3-0.3,0.4-0.2
			l1.6,0.6C20,25.2,20.1,25.4,20,25.5z"/>
		<path class="st0" d="M20.4,26.4L20.4,26.4c-0.1,0.2-0.3,0.3-0.4,0.2L18.3,26c-0.2-0.1-0.3-0.3-0.2-0.4h0c0.1-0.2,0.3-0.3,0.4-0.2
			l1.6,0.6C20.4,26,20.5,26.2,20.4,26.4z"/>
	</g>
	<g id="XMLID_503_">
		<path class="st0" d="M28.7,27.6L28.7,27.6c0.1,0.2,0.3,0.3,0.4,0.2l1.6-0.6c0.2-0.1,0.3-0.3,0.2-0.4l0,0c-0.1-0.2-0.3-0.3-0.4-0.2
			l-1.6,0.6C28.7,27.2,28.6,27.4,28.7,27.6z"/>
		<path class="st0" d="M28.1,27.1L28.1,27.1c0.1,0.2,0.3,0.3,0.4,0.2l1.6-0.6c0.2-0.1,0.6-0.4,0.5-0.6h0c-0.1-0.2-0.6-0.2-0.7-0.1
			l-1.6,0.6C28.2,26.7,28.1,26.9,28.1,27.1z"/>
		<path class="st0" d="M28.2,25.5L28.2,25.5c0.1,0.2,0.3,0.3,0.4,0.2l1.6-0.6c0.2-0.1,0.3-0.3,0.2-0.4l0,0c-0.1-0.2-0.3-0.3-0.4-0.2
			l-1.6,0.6C28.2,25.2,28.1,25.4,28.2,25.5z"/>
		<path class="st0" d="M27.9,26.4L27.9,26.4c0.1,0.2,0.3,0.3,0.4,0.2l1.6-0.6c0.2-0.1,0.3-0.3,0.2-0.4l0,0c-0.1-0.2-0.3-0.3-0.4-0.2
			L28.1,26C27.9,26,27.8,26.2,27.9,26.4z"/>
	</g>
</g>
</svg>
