<?xml version="1.0" encoding="utf-8"?>
<!-- Generator: Adobe Illustrator 22.1.0, SVG Export Plug-In . SVG Version: 6.00 Build 0)  -->
<svg version="1.1" id="Layer_1" xmlns="http://www.w3.org/2000/svg" xmlns:xlink="http://www.w3.org/1999/xlink" x="0px" y="0px"
	 viewBox="0 0 48 48" style="enable-background:new 0 0 48 48;" xml:space="preserve">
<style type="text/css">
	.st0{fill:#33404A;}
	.st1{fill:#FAAE40;}
</style>
<g>
	<path id="XMLID_397_" class="st0" d="M29.9,15.6c-2.7-1-3.6-1.8-3.6-3.6c0-1.1,0.8-0.7,1.2-2.7c0.2-0.8,0.9,0,1.1-1.9
		c0-0.8-0.4-0.9-0.4-0.9s0.2-1.1,0.3-2c0.1-1.1-0.6-3.8-4.4-3.8s-4.5,2.7-4.4,3.8c0.1,0.8,0.3,2,0.3,2s-0.4,0.2-0.4,0.9
		c0.2,1.9,0.9,1.1,1.1,1.9c0.4,2,1.2,1.6,1.2,2.7c0,1.8-0.9,2.7-3.6,3.6c-2.7,1-4,2-4,2.7c0,0.7,1.9,14.4,1.9,14.4H24h8.1
		c0,0,1.9-13.7,1.9-14.4C34,17.7,32.7,16.6,29.9,15.6z"/>
	<polygon class="st0" points="27.3,47.1 20.7,47.1 18.8,30 29.2,30 	"/>
	<g id="XMLID_398_">
		<path id="XMLID_399_" class="st1" d="M24,0.3c-3.7,0-4.9,3.3-4.9,3.3c3-0.7,4.9,0.7,4.9,0.7s1.9-1.4,4.9-0.7
			C28.9,3.6,27.7,0.3,24,0.3z"/>
		<path id="XMLID_1993_" class="st1" d="M26.8,2.1h-5.7c-0.4,0-0.7-0.3-0.7-0.7V0.7c0-0.4,0.3-0.7,0.7-0.7l5.7,0
			c0.4,0,0.7,0.3,0.7,0.7v0.7C27.5,1.8,27.2,2.1,26.8,2.1z"/>
		<path id="XMLID_1992_" class="st0" d="M28.8,48h-9.5c-0.3,0-0.5-0.2-0.5-0.5V47c0-0.3,0.2-0.5,0.5-0.5h9.5c0.3,0,0.5,0.2,0.5,0.5
			v0.5C29.3,47.8,29.1,48,28.8,48z"/>
		<path class="st1" d="M24.1,46H24c-0.1,0-0.1-0.1-0.1-0.1V34.2c0-0.1,0.1-0.1,0.1-0.1h0.1c0.1,0,0.1,0.1,0.1,0.1v11.8
			C24.2,46,24.2,46,24.1,46z"/>
		<path class="st1" d="M19.1,32.5l-0.1,0c-0.1,0-0.1,0-0.2-0.1l-1.3-11.7c0-0.1,0-0.1,0.1-0.2l0.1,0c0.1,0,0.1,0,0.2,0.1l1.3,11.7
			C19.2,32.5,19.1,32.5,19.1,32.5z"/>
		<path id="XMLID_1991_" class="st1" d="M28.7,32.5l0.1,0c0.1,0,0.1,0,0.2-0.1l1.5-13.5c0-0.1,0-0.1-0.1-0.2l-0.1,0
			c-0.1,0-0.1,0-0.2,0.1l-1.5,13.5C28.5,32.5,28.6,32.5,28.7,32.5z"/>
		<path id="XMLID_400_" class="st1" d="M30,19.6c-3.3,1.6-8.1,3.8-11.7,5.4l0.4,3.3l10.9-5C29.6,22.7,29.9,20.3,30,19.6z"/>
	</g>
</g>
</svg>
