<svg xmlns="http://www.w3.org/2000/svg" viewBox="0 0 22.206 22.204">
  <defs>
    <style>
      .cls-1 {
        fill: #fff;
        stroke: #fff;
        stroke-width: 0.5px;
      }
    </style>
  </defs>
  <g id="pen_1_" data-name="pen (1)" transform="translate(0.25 0.153)">
    <path id="Path_16834" data-name="Path 16834" class="cls-1" d="M251.178.242A.5.5,0,0,0,250.823.1a.516.516,0,0,0-.355.145L243.3,7.407l-.02.02-.01.01c-.01.015-.025.03-.035.045s-.005.005-.005.01-.015.025-.025.04-.005.01-.01.015-.01.025-.015.04-.005.005-.005.01L241.9,11.445a.493.493,0,0,0,.12.51.5.5,0,0,0,.355.145.6.6,0,0,0,.16-.025l3.838-1.281s0,0,.01-.005a.178.178,0,0,0,.045-.02.018.018,0,0,0,.01-.005c.015-.01.035-.02.05-.03s.03-.025.045-.035.01,0,.01-.01.015-.01.02-.02l7.17-7.17a.5.5,0,0,0,0-.706Zm-7.3,8.446,1.416,1.416-2.122.705Zm2.342.926-1.851-1.851L250.823,1.3l1.851,1.851Zm0,0" transform="translate(-232.176 0)"/>
    <path id="Path_16835" data-name="Path 16835" class="cls-1" d="M17.822,90.4a.5.5,0,0,0-.5.5v9.351a1.505,1.505,0,0,1-1.5,1.5H2.5a1.506,1.506,0,0,1-1.5-1.5V86.935a1.506,1.506,0,0,1,1.5-1.5h9.351a.5.5,0,0,0,0-1H2.5a2.5,2.5,0,0,0-2.5,2.5v13.319a2.5,2.5,0,0,0,2.5,2.5H15.82a2.5,2.5,0,0,0,2.5-2.5V90.9a.5.5,0,0,0-.5-.5Zm0,0" transform="translate(0 -80.955)"/>
  </g>
</svg>
