<svg xmlns="http://www.w3.org/2000/svg" viewBox="0 0 81.326 94.499">
  <defs>
    <style>
      .cls-1 {
        fill: #023b41;
      }

      .cls-2, .cls-4 {
        fill: #023b41;
      }

      .cls-3, .cls-4, .cls-5 {
        stroke: none;
      }

      .cls-5 {
        fill: #eee;
      }
    </style>
  </defs>
  <g id="Group_15856" data-name="Group 15856" transform="translate(12486.999 -6245)">
    <g id="Path_17004" data-name="Path 17004" class="cls-1" transform="translate(-12514.908 6251)">
      <path class="cls-3" d="M 68.57489776611328 85.43891143798828 L 67.986572265625 85.32124328613281 L 67.00147247314453 85.12422943115234 L 66.80319976806641 85.08457946777344 L 66.61206817626953 85.01868438720703 C 62.24056243896484 83.51169586181641 58.22773742675781 81.68064880371094 54.68504333496094 79.57636260986328 C 51.31108093261719 77.57231140136719 48.2650032043457 75.26203155517578 45.63141632080078 72.70970153808594 C 43.15768051147461 70.31230163574219 40.97652053833008 67.63201904296875 39.14852142333984 64.74333953857422 C 37.46604156494141 62.0846061706543 36.03138732910156 59.16724395751953 34.88444137573242 56.07229995727539 C 32.94488143920898 50.83860397338867 31.7501220703125 44.95464324951172 31.2319221496582 38.08419036865234 C 30.78774833679199 32.19527053833008 30.89865493774414 26.37363243103027 30.99650955200195 21.23731231689453 L 30.99822998046875 21.14728546142578 L 30.99897575378418 21.10772514343262 L 31.00077629089355 21.06820487976074 C 31.09618949890137 18.96903228759766 31.09618949890137 16.99240493774414 31.09618949890137 14.89972496032715 C 31.09618949890137 11.56029796600342 33.71208190917969 8.944417953491211 37.05150985717773 8.944417953491211 C 48.52251052856445 8.944417953491211 57.21657562255859 5.677858352661133 64.4122314453125 -1.33562159538269 L 64.44512176513672 -1.367701649665833 L 64.47900390625 -1.398741602897644 C 65.60544586181641 -2.431328296661377 67.06006622314453 -2.999994993209839 68.57489776611328 -2.999994993209839 C 70.08970642089844 -2.999994993209839 71.54431915283203 -2.431341648101807 72.6707763671875 -1.398768305778503 L 72.70466613769531 -1.367714881896973 L 72.73758697509766 -1.33562159538269 C 79.93321228027344 5.677858352661133 88.62728118896484 8.944417953491211 100.0982971191406 8.944417953491211 C 103.4377212524414 8.944417953491211 106.0536041259766 11.56029796600342 106.0536041259766 14.89972496032715 C 106.0536041259766 16.99240493774414 106.0536041259766 18.96903228759766 106.1490325927734 21.06817817687988 L 106.1508255004883 21.10785865783691 L 106.1515884399414 21.14755249023438 C 106.2490921020508 26.29155158996582 106.3596267700195 32.12187194824219 105.9095458984375 38.05203247070313 C 105.3874588012695 44.9312858581543 104.1891326904297 50.82217788696289 102.2461395263672 56.06133651733398 C 101.0979766845703 59.15725708007813 99.66248321533203 62.07556533813477 97.97952270507813 64.73522186279297 C 96.15160369873047 67.62395477294922 93.97105407714844 70.30455017089844 91.49848175048828 72.70253753662109 C 88.86675262451172 75.25487518310547 85.8232421875 77.56571197509766 82.45248413085938 79.57088470458984 C 78.91389465332031 81.67588806152344 74.90602874755859 83.50849914550781 70.54022979736328 85.01782989501953 L 70.34788513183594 85.08432769775391 L 70.14832305908203 85.12422943115234 L 69.16321563720703 85.32124328613281 L 68.57489776611328 85.43891143798828 Z"/>
      <path class="cls-4" d="M 68.57489776611328 0 C 67.8360595703125 0 67.09723663330078 0.270904541015625 66.50617218017578 0.812713623046875 C 58.72383880615234 8.398033142089844 49.36532592773438 11.94441223144531 37.05150604248047 11.94441223144531 C 35.37682342529297 11.94441223144531 34.09617614746094 13.22505187988281 34.09617614746094 14.89973449707031 C 34.09617614746094 16.96844482421875 34.09617614746094 19.03718185424805 33.99767303466797 21.20441436767578 C 33.60362243652344 41.89163208007813 33.0125732421875 70.2626953125 67.58977508544922 82.18247985839844 L 68.57489013671875 82.37950134277344 L 69.55998992919922 82.18247985839844 C 104.0387115478516 70.26268005371094 103.5461578369141 41.99014663696289 103.1521301269531 21.20441436767578 C 103.0536041259766 19.03718185424805 103.0536041259766 16.96844482421875 103.0536041259766 14.89973449707031 C 103.0536041259766 13.22505187988281 101.7729644775391 11.94441223144531 100.0982971191406 11.94441223144531 C 87.78447723388672 11.94441223144531 78.42594146728516 8.398033142089844 70.64362335205078 0.812713623046875 C 70.05255889892578 0.270904541015625 69.31372833251953 0 68.57489776611328 0 M 68.57489013671875 -6 C 70.84226226806641 -6 73.01682281494141 -5.151283264160156 74.697998046875 -3.610183715820313 C 81.52143859863281 3.036598205566406 89.31399536132813 5.944412231445313 100.0982971191406 5.944412231445313 C 105.1199569702148 5.944412231445313 109.0536117553711 9.878067016601563 109.0536117553711 14.89973449707031 C 109.0536117553711 16.8790283203125 109.0516738891602 18.85838317871094 109.1459426879883 20.93194961547852 C 109.5541763305664 42.35654830932617 110.1634063720703 74.49371337890625 71.52042388916016 87.85316467285156 L 69.75157928466797 88.26298522949219 L 68.57490539550781 88.49831390380859 L 67.39822387695313 88.26300048828125 L 66.41310882568359 88.06597900390625 C 26.98065948486328 74.52983093261719 27.59230804443359 42.42476654052734 27.99703979492188 21.1801643371582 C 28.09810638427734 18.85841369628906 28.09617614746094 16.87905120849609 28.09617614746094 14.89973449707031 C 28.09617614746094 9.878067016601563 32.02982330322266 5.944412231445313 37.05150604248047 5.944412231445313 C 47.83579254150391 5.944412231445313 55.62834167480469 3.036598205566406 62.31827545166016 -3.483970642089844 C 64.13291168212891 -5.151268005371094 66.3074951171875 -6 68.57489013671875 -6 Z"/>
    </g>
    <g id="Path_17003" data-name="Path 17003" class="cls-2" transform="translate(-12514.908 6251)">
      <path class="cls-3" d="M 68.57489013671875 83.90920257568359 L 68.28072357177734 83.85037231445313 L 67.29561614990234 83.65335845947266 L 67.19648742675781 83.63353729248047 L 67.10092163085938 83.60059356689453 C 62.82573699951172 82.12680053710938 58.90615844726563 80.33895874023438 55.45107650756836 78.28672027587891 C 52.17758178710938 76.34234619140625 49.22499465942383 74.10355377197266 46.67532348632813 71.63256072998047 C 44.28665542602539 69.31758117675781 42.18072509765625 66.72984313964844 40.41605377197266 63.94123840332031 C 38.78947830200195 61.3708381652832 37.40159606933594 58.54798126220703 36.29095840454102 55.55107498168945 C 34.40076065063477 50.45056915283203 33.23519515991211 44.70020294189453 32.72766494750977 37.97139358520508 C 32.288818359375 32.153076171875 32.39900588989258 26.36903953552246 32.49623107910156 21.26589775085449 L 32.49794769287109 21.17585182189941 L 32.49832534790039 21.15607452392578 L 32.49921798706055 21.13631057739258 C 32.59618377685547 19.00311088562012 32.59618377685547 16.91707420349121 32.59618377685547 14.899733543396 C 32.59618377685547 12.40142822265625 34.55319595336914 10.44441604614258 37.051513671875 10.44441604614258 C 48.93873596191406 10.44441604614258 57.96547698974609 7.042545318603516 65.45919799804688 -0.2614545524120331 L 65.47563934326172 -0.2774898409843445 L 65.49258422851563 -0.2930192351341248 C 66.34166717529297 -1.071348667144775 67.43632507324219 -1.499995708465576 68.57489013671875 -1.499995708465576 C 69.71345520019531 -1.499995708465576 70.80811309814453 -1.071348667144775 71.65720367431641 -0.2930192351341248 L 71.67413330078125 -0.2775016129016876 L 71.69059753417969 -0.2614545524120331 C 79.18430328369141 7.042545318603516 88.21104431152344 10.44441604614258 100.0982894897461 10.44441604614258 C 102.5965957641602 10.44441604614258 104.5536041259766 12.40142822265625 104.5536041259766 14.899733543396 C 104.5536041259766 16.91707420349121 104.5536041259766 19.00311088562012 104.6505737304688 21.13629913330078 L 104.6514739990234 21.1561336517334 L 104.65185546875 21.17598152160645 C 104.7487335205078 26.28666305541992 104.8585586547852 32.07922744750977 104.4138641357422 37.93851089477539 C 103.9025039672852 44.67625045776367 102.7333984375 50.43366241455078 100.8397445678711 55.53975677490234 C 99.72789001464844 58.53778076171875 98.339111328125 61.36172103881836 96.71198272705078 63.93313217163086 C 94.94728851318359 66.72194671630859 92.84186553955078 69.31011199951172 90.45418548583984 71.62577056884766 C 87.90624237060547 74.09684753417969 84.95606231689453 76.33624267578125 81.68560791015625 78.28173065185547 C 78.23447418212891 80.33470916748047 74.31974029541016 82.12408447265625 70.05010223388672 83.60015869140625 L 69.95393371582031 83.63340759277344 L 69.85415649414063 83.65335845947266 L 68.86905670166016 83.85037231445313 L 68.57489013671875 83.90920257568359 Z"/>
      <path class="cls-5" d="M 68.57489013671875 0 C 67.8360595703125 0 67.09723663330078 0.270904541015625 66.50617218017578 0.812713623046875 C 58.72383880615234 8.398033142089844 49.36533355712891 11.94440460205078 37.05150604248047 11.94440460205078 C 35.3768310546875 11.94440460205078 34.09617614746094 13.22504425048828 34.09617614746094 14.89974212646484 C 34.09617614746094 16.96844482421875 34.09617614746094 19.03717803955078 33.9976806640625 21.20441818237305 C 33.60363006591797 41.89164352416992 33.0125732421875 70.2626953125 67.58979034423828 82.18247222900391 L 68.57489776611328 82.37950134277344 L 69.56000518798828 82.18247222900391 C 104.0387115478516 70.26268768310547 103.5461578369141 41.99015045166016 103.1521224975586 21.20441818237305 C 103.0536041259766 19.03717803955078 103.0536041259766 16.96844482421875 103.0536041259766 14.89974212646484 C 103.0536041259766 13.22504425048828 101.7729644775391 11.94440460205078 100.0982818603516 11.94440460205078 C 87.78446960449219 11.94440460205078 78.42594909667969 8.398033142089844 70.64363098144531 0.812713623046875 C 70.05255889892578 0.270904541015625 69.313720703125 0 68.57489013671875 0 M 68.57489776611328 -2.999992370605469 C 70.08970642089844 -2.999992370605469 71.54431915283203 -2.431343078613281 72.67079162597656 -1.398765563964844 L 72.70466613769531 -1.367713928222656 L 72.73758697509766 -1.335624694824219 C 79.93321228027344 5.6778564453125 88.62727355957031 8.944404602050781 100.0982818603516 8.944404602050781 C 103.4377136230469 8.944404602050781 106.0536041259766 11.56029510498047 106.0536041259766 14.89974212646484 C 106.0536041259766 16.99240875244141 106.0536041259766 18.96903228759766 106.1490325927734 21.06818008422852 L 106.1508331298828 21.10785675048828 L 106.1515884399414 21.14755249023438 C 106.2490997314453 26.29155349731445 106.3596267700195 32.12187194824219 105.9095458984375 38.05203247070313 C 105.387451171875 44.9312858581543 104.1891326904297 50.82217788696289 102.2461395263672 56.06134033203125 C 101.0979766845703 59.15725708007813 99.66248321533203 62.07556533813477 97.97952270507813 64.73520660400391 C 96.15160369873047 67.62395477294922 93.97105407714844 70.30455017089844 91.49848175048828 72.70253753662109 C 88.86674499511719 75.25487518310547 85.8232421875 77.56571197509766 82.45248413085938 79.57086944580078 C 78.91389465332031 81.67587280273438 74.90602874755859 83.50849914550781 70.54021453857422 85.017822265625 L 70.34789276123047 85.08429718017578 L 70.14836120605469 85.12420654296875 L 69.16325378417969 85.32122802734375 L 68.57489776611328 85.43891143798828 L 67.98653411865234 85.32122802734375 L 67.00142669677734 85.12420654296875 L 66.80319213867188 85.08456420898438 L 66.61206817626953 85.01866912841797 C 62.24056243896484 83.51169586181641 58.22773742675781 81.68063354492188 54.68504333496094 79.57636260986328 C 51.31108093261719 77.57229614257813 48.26499938964844 75.26201629638672 45.63141632080078 72.70970153808594 C 43.15768432617188 70.31228637695313 40.97652435302734 67.63201904296875 39.14852142333984 64.74333953857422 C 37.46604156494141 62.08460235595703 36.03138732910156 59.16724395751953 34.88444519042969 56.07229614257813 C 32.94488525390625 50.83860778808594 31.7501220703125 44.95464324951172 31.23192596435547 38.08419036865234 C 30.78775024414063 32.19527053833008 30.89865875244141 26.37363052368164 30.99650573730469 21.23731231689453 L 30.99822998046875 21.14728546142578 L 30.99897766113281 21.10773849487305 L 31.00077819824219 21.06821823120117 C 31.09617614746094 18.96904373168945 31.09617614746094 16.99241638183594 31.09617614746094 14.89974212646484 C 31.09617614746094 11.56029510498047 33.71206665039063 8.944404602050781 37.05150604248047 8.944404602050781 C 48.52252197265625 8.944404602050781 57.21657562255859 5.6778564453125 64.4122314453125 -1.335624694824219 L 64.44510650634766 -1.367691040039063 L 64.47897338867188 -1.398727416992188 C 65.60541534423828 -2.431312561035156 67.06004333496094 -2.999992370605469 68.57489776611328 -2.999992370605469 Z"/>
    </g>
  </g>
</svg>
