<svg xmlns="http://www.w3.org/2000/svg" viewBox="0 0 97.727 81.343">
  <defs>
    <style>
      .cls-1 {
        fill: #023b41;
      }
    </style>
  </defs>
  <g id="Group_15854" data-name="Group 15854" transform="translate(-0.158)">
    <path id="Path_994" data-name="Path 994" class="cls-1" d="M96.983,78.526h-8.45V78.3l-.225-.338H85.6l-.225.338v.225H80.647a2.76,2.76,0,0,0,.451-1.352V73.118a4.172,4.172,0,0,0,1.8-3.493v-6.2a4.231,4.231,0,0,0-2.929-3.943c-.338-2.253-.9-5.858-1.127-7.323a4.864,4.864,0,0,0-4.619-3.831H57.664c-3.042,0-4.507,3.042-4.732,4.281-.113.9-.676,4.732-1.014,7.1a4.231,4.231,0,0,0-2.479,3.831v6.2a3.948,3.948,0,0,0,1.69,3.267v4.169a1.967,1.967,0,0,0,.451,1.352H46.51V75.484l-1.8-1.352H42.9v4.507h-.113V74.132H28.033V72.555l-.789-.789H23.3a.844.844,0,0,0-.113-.563c0-.225-.113-.563-.113-.789,0-.338-.113-.789-.113-1.127a3.119,3.119,0,0,0-.113-1.014c-.113-.789-.113-1.465-.225-2.253,0-.789-.113-1.577-.113-2.366,0-1.127-.113-2.253-.113-3.38a19.944,19.944,0,0,0-.113-2.591v-16a4,4,0,0,1,.225,1.127,2.945,2.945,0,0,0,.338.9.235.235,0,0,0,.451,0l.338-.676c.225-.676.338-1.239.563-1.915a.113.113,0,1,1,.225,0,6.776,6.776,0,0,0,1.014,1.465l.676.676a.252.252,0,1,0,.451-.225v-.113c0-.563-.113-1.127-.113-1.69-.113-.563-.113-1.127-.225-1.69v-.225a.11.11,0,0,1,.113.113l1.014.676c.113.113.338,0,.338-.225v-.451c-.113-.563-.338-1.127-.451-1.69-.225-.676-.451-1.465-.676-2.141,0-.113-.113-.225-.113-.451h.113c.225.113.563.338.789.451a1.429,1.429,0,0,0,.676.113.242.242,0,0,0,.225-.225c0-.225-.113-.338-.113-.563a14.021,14.021,0,0,1-1.127-2.253V32.56h.113c.113,0,.338.113.451,0s.225-.225.225-.338c-.113-.113-.113-.225-.225-.451-.451-.563-.9-1.239-1.352-1.8a.211.211,0,0,1,0-.338c0-.113.113-.225.225-.113A11.973,11.973,0,0,1,27.7,30.532a1.125,1.125,0,0,1,.563.451c.113.338.338.676.451,1.014a2.824,2.824,0,0,0,.451.789l.113.113.113-.113a.852.852,0,0,1,.113-.451V32c0-.113,0-.113.113-.113s.225,0,.225.113a.11.11,0,0,1,.113.113.414.414,0,0,1,.113.338c.113.451.338.789.451,1.239s.338.9.451,1.352c.113.338.225.789.338,1.127,0,.113.113.113.113.225h0V34.024a.11.11,0,0,1,.113-.113l.113.113a1.6,1.6,0,0,1,.225.676l1.014,2.7c.225.451.338.9.563,1.352a4,4,0,0,0,.451,1.014c0,.113.113.113.113.225h0V39.77a3.119,3.119,0,0,0-.113-1.014c0-.338-.113-.789-.113-1.127s-.113-.676-.113-1.014c-.113-.563-.113-1.127-.225-1.69,0-.225-.113-.563-.113-.789v-.113a.11.11,0,0,1,.113.113.414.414,0,0,1,.113.338c.225.451.563.789.789,1.239a7.578,7.578,0,0,0,.789,1.239l.113.113h0V36.39c-.113-.451-.225-.789-.338-1.239l-.338-1.69c-.113-.676-.338-1.239-.451-1.915,0-.113-.113-.225-.113-.338a.585.585,0,0,1,.451.225c.113.113.225.225.338.225.113.113.225,0,.225-.113a.11.11,0,0,1,.113-.113c.451.113.9.225,1.239.338.225,0,.338.113.563.113s.225-.113.225-.225,0-.225-.113-.225c-.225-.225-.451-.563-.676-.789-.338-.451-.789-.9-1.127-1.352a.11.11,0,0,0-.113-.113h2.7a1.917,1.917,0,0,0,.789-.113c.225,0,.225-.225.113-.338l-.338-.338c-.338-.225-.563-.451-.9-.676-.789-.563-1.465-1.014-2.253-1.577a.11.11,0,0,0-.113-.113l.113-.113c.338,0,.676-.113,1.014-.113.113,0,.338-.113.451-.113.225-.113.225-.225,0-.451a.854.854,0,0,0-.451-.225A21.008,21.008,0,0,1,34,23.885a12.518,12.518,0,0,1-1.8-.789l-.113-.113a.11.11,0,0,1,.113-.113,4.708,4.708,0,0,0,1.127-.451,2.463,2.463,0,0,0,.563-.338c.225-.113.113-.225,0-.338s-.338-.113-.451-.225c-.451-.113-.789-.225-1.239-.338l-1.352-.338a.113.113,0,0,1,0-.225c.113-.113.338-.225.451-.338s.113-.225-.113-.338c-.113,0-.338-.113-.451-.113h-.789c-.113,0-.113,0-.113-.113.113-.225.113-.338-.113-.338-.338-.113-.676-.113-.9-.225a.11.11,0,0,1-.113-.113l.113-.113c.113-.113.225-.113.338-.225.225-.225.113-.338-.113-.451.451-.225.225-.225.113-.225h-.9a.11.11,0,0,1,.113-.113A.393.393,0,0,1,28.6,17.8c.563-.338,1.239-.676,1.8-1.014a2.463,2.463,0,0,0,.563-.338c.225-.113.113-.225,0-.338-.113,0-.225-.113-.451-.113-.789,0-1.465-.113-2.253-.113h-.113a.11.11,0,0,1,.113-.113c.789-.563,1.577-1.239,2.479-1.8a11.8,11.8,0,0,0,1.239-.9,2.824,2.824,0,0,1,.789-.451l.338-.338c.113-.113.113-.225-.113-.225h-.563c-.451,0-.9.113-1.352.113h-.113a.11.11,0,0,1,.113-.113l1.352-1.014c.676-.563,1.465-1.127,2.253-1.69-.225-.338,0-.451.225-.676a.393.393,0,0,0,.113-.225.393.393,0,0,0-.225-.113,3.119,3.119,0,0,0-1.014.113,5.813,5.813,0,0,1-1.239.225h-.113a.11.11,0,0,1,.113-.113,7.289,7.289,0,0,1,1.014-.9c.676-.676,1.465-1.352,2.141-2.028.225-.225.563-.451.789-.676.113,0,.113-.113.113-.225-.113,0-.113-.113-.225-.113a5.655,5.655,0,0,0-1.352.225c-.789.225-1.577.563-2.366.789a1.6,1.6,0,0,1-.676.225h-.113V5.746a.854.854,0,0,0,.225-.451,25.5,25.5,0,0,1,1.465-2.253.854.854,0,0,0,.225-.451c.113-.225,0-.338-.225-.225a1.6,1.6,0,0,0-.676.225,14.14,14.14,0,0,0-1.915,1.239,16.1,16.1,0,0,0-2.253,1.577.393.393,0,0,1-.225.113V5.408a2.089,2.089,0,0,0,.225-.789c.113-.225.113-.451.225-.676,0-.113,0-.225-.225-.113H28.6V3.718c.113-.225.225-.563.338-.789a7.179,7.179,0,0,0,.225-.789c0-.113,0-.113-.113-.113-.113.113-.225.113-.225.225a22.558,22.558,0,0,1-1.8,1.577.11.11,0,0,0-.113.113h0V3.718c.113-.338.225-.789.338-1.127.113-.563.225-1.014.338-1.577,0-.225.113-.451.113-.676C27.47,0,27.47,0,27.244,0c-.113.113-.225.113-.225.225-.451.563-1.014,1.239-1.465,1.915a10.21,10.21,0,0,0-1.239,1.8l-.113.113V3.267a1.429,1.429,0,0,0-.113-.676c-.113-.113-.225-.225-.338-.113s-.225.225-.225.338a4,4,0,0,0-.451,1.014,5.907,5.907,0,0,0-1.239,2.141,6.892,6.892,0,0,0-.563,1.352l-.113.113-.113-.113c-.113-.338-.225-.789-.338-1.127,0-.113-.113-.225-.225-.338s-.225-.113-.225,0-.113.225-.113.338c-.113.338-.113.676-.225,1.014-.113.563-.113,1.014-.225,1.577,0,.113-.113.338-.113.451h0c0-.113-.113-.113-.113-.225-.113-.225-.113-.338-.225-.563a.235.235,0,0,0-.451,0c-.113.113-.113.225-.225.338l-.113.113a.11.11,0,0,1-.113-.113.393.393,0,0,1-.113-.225c-.451-.676-.789-1.352-1.239-1.915a.88.88,0,0,0-.451-.451.279.279,0,0,0-.451.113.844.844,0,0,0-.113.563c0,.338-.113.789-.113,1.127a.11.11,0,0,1-.113.113H15.64a8.348,8.348,0,0,0-1.352-1.465L12.6,5.3a2.357,2.357,0,0,0-.676-.451.343.343,0,0,0-.451,0,.414.414,0,0,0-.113.338c.113.338.113.676.225,1.014v.113h-.225a2.117,2.117,0,0,0-1.239-.9,11.37,11.37,0,0,0-1.69-.789c-.338-.113-.676-.338-1.014-.225-.225,0-.338.113-.225.338a.11.11,0,0,0,.113.113c.113.225.338.451.451.676.338.451.676,1.014,1.014,1.465V7.1H8.655a2.691,2.691,0,0,1-1.014-.225,9.541,9.541,0,0,1-1.915-.451H5.05c-.113,0-.113,0-.113.113V6.76c0,.113.113.113.225.225a4.411,4.411,0,0,0,1.127.9c.451.451,1.127,1.014,1.69,1.465a.11.11,0,0,0,.113.113H7.979c-.451,0-.9-.113-1.352-.113H6.064c-.225,0-.225.113-.113.225s.225.225.338.225c.789.563,1.465,1.014,2.141,1.465.113.113.225.113.338.225H8.542c-.225,0-.451-.113-.676-.113a13.8,13.8,0,0,0-2.141-.225c-.338,0-.676-.113-1.014-.113-.113,0-.225.113-.338.113l.225.225c.451.225.9.563,1.465.789.338.225.676.338,1.014.563a.11.11,0,0,0,.113.113.11.11,0,0,0-.113.113H2.008c.113,0,.113.113.225.113s.338.113.451.113c.9.225,1.8.451,2.591.676.338.113.676.225,1.127.338.338.113.676.225,1.127.338l.113.113-.113.113c-.563.113-1.014.113-1.577.225-.113,0-.225.113-.338.113h0a.11.11,0,0,1,.113.113c.563.113,1.239.225,1.8.338a5.813,5.813,0,0,0,1.239.225.989.989,0,0,1,.789.113.242.242,0,0,1,.225.225c0,.113-.113.113-.225.113-.225,0-.451.113-.676.113a.113.113,0,0,0,0,.225c.113,0,.113.113.225.113.225.113.563.113.789.225h.338a.677.677,0,0,0-.451.113c-.225.113-.225.225-.113.338s.113.113.225.113a5.263,5.263,0,0,0,1.127.563.11.11,0,0,1,.113.113h-.225a24.5,24.5,0,0,0-2.817.113c-.225,0-.563.113-.789.113-.113,0-.113.113,0,.225s.225.113.338.225l.113.113-.113.113c-.338.113-.563.113-.9.225-.563.113-1.239.338-1.8.451-.113,0-.225.113-.451.225q-.169.338,0,.338c.113,0,.225.113.338.113.338.113.789.113,1.239.225a.11.11,0,0,1,.113.113l-.113.113c-.451.225-.9.338-1.352.563a8.4,8.4,0,0,0-1.352.789,8.6,8.6,0,0,0-1.239.9,1.555,1.555,0,0,0-.338.451c-.113.113,0,.225.113.225h.225c.338-.113.676-.113,1.014-.225h.113a.11.11,0,0,1-.113.113h0a6.8,6.8,0,0,0-.9.9c-.676.789-1.239,1.577-1.8,2.366a.854.854,0,0,0-.225.451c-.113.113,0,.225.113.225s.338-.113.451-.113a11.655,11.655,0,0,1,2.366-1.239h.113v.113a12.314,12.314,0,0,1-.9,1.69c-.225.451-.451,1.014-.676,1.465v.338c.113.113.225,0,.338,0l1.014-.676c.451-.338.9-.563,1.352-.9s.789-.563,1.239-.9h.113v.113a.414.414,0,0,1-.113.338c0,.338-.113.789-.113,1.239v.563c0,.113.113.225.338.225s.225-.113.338-.225c.451-.451.9-1.014,1.352-1.465s.789-.9,1.239-1.352A.11.11,0,0,0,8.88,26.7v1.014a.951.951,0,0,1-.225.789.414.414,0,0,0-.113.338c0,.113.225.113.338.113s.225,0,.225.113a.11.11,0,0,0,.113.113c-.113.113,0,.113.113.113l.225-.225a.585.585,0,0,1,.451-.225.414.414,0,0,0,.338-.113h.113a.11.11,0,0,1-.113.113,6.462,6.462,0,0,1-.451.789,14.021,14.021,0,0,0-1.127,2.253,1.628,1.628,0,0,0-.225.789c0,.113,0,.338.113.338h.338a5.492,5.492,0,0,1,.789-.338h.225V32.9a4,4,0,0,0-.225,1.127,9.861,9.861,0,0,0-.225,1.8c-.113.563-.113,1.127-.225,1.69v.676c0,.113.113.225.225.113s.225-.338.338-.451c.338-.451.563-.9.9-1.352.225-.338.451-.563.563-.789a.11.11,0,0,1,.113-.113v.225c0,.9-.113,1.8-.113,2.7,0,.451-.113.789-.113,1.239v1.465c.113-.113.113-.113.113-.225L11.7,40c.338-1.014.789-2.028,1.127-3.042.225-.451.338-.9.563-1.352l.113-.113.113.113v1.577a.677.677,0,0,0,.113.451.349.349,0,0,0,.113-.225c.113-.338.225-.789.338-1.127.225-.563.338-1.127.563-1.69s.451-1.127.676-1.577l.113-.113.113.113c0,.338.113.676.113,1.014a.393.393,0,0,0,.113.225l.225-.225a.11.11,0,0,1,.113-.113h.225c.113-.113.338-.113.451-.225l.676-.676a.11.11,0,0,0,.113-.113v.113c0,.225.113.338.113.563.113.451.113.789.225,1.239,0,.225.113.563.113.789,0,.338.113.676.113,1.127a4.226,4.226,0,0,0,.113,1.127c0,.676.113,1.352.113,2.141,0,1.577.113,3.267,0,4.845v1.127c0,.563-.113,1.014-.113,1.577a5.485,5.485,0,0,1-.113,1.352,15.269,15.269,0,0,1-.225,2.253,4.621,4.621,0,0,1-.113,1.239c0,.451-.113.789-.113,1.239a3.833,3.833,0,0,1-.113,1.127v.113c0,.338-.113.676-.113,1.014a3.833,3.833,0,0,1-.113,1.127,2.481,2.481,0,0,1-.113.9c0,.563-.113,1.239-.113,1.8a3.833,3.833,0,0,1-.113,1.127c-.113.789-.113,1.465-.225,2.253,0,.676-.113,1.465-.113,2.141v6.985h-5.3v9.126H96.758a1.064,1.064,0,0,0,1.127-1.127C97.884,79.54,97.659,78.526,96.983,78.526ZM12.148,21.181c-.113,0-.225.113-.338.113a.11.11,0,0,1-.113-.113l.113-.113a.414.414,0,0,1,.338.113Zm42.249,32a2.55,2.55,0,0,1,2.591-2.591s5.3.338,9.126.338,9.126-.338,9.126-.338a2.55,2.55,0,0,1,2.591,2.591V60.5s-1.014-.113-2.479-.338a3.245,3.245,0,0,0-6.084-.451c-1.014,0-2.028-.113-3.042-.113a95.406,95.406,0,0,0-11.717.9V53.177Zm20.279,6.985c-1.352-.113-2.929-.225-4.619-.338A2.667,2.667,0,0,1,72.2,58.585,2.59,2.59,0,0,1,74.676,60.162ZM52.368,66.809a2.366,2.366,0,1,1,4.732,0,2.481,2.481,0,0,1-2.366,2.479A2.406,2.406,0,0,1,52.368,66.809Zm3.38,11.717a2.76,2.76,0,0,0,.451-1.352v-3.38H76.14v3.38a1.967,1.967,0,0,0,.451,1.352ZM77.6,69.288a2.5,2.5,0,0,1-2.479-2.479A2.406,2.406,0,0,1,77.6,64.443a2.38,2.38,0,0,1,2.366,2.366A2.337,2.337,0,0,1,77.6,69.288Z"/>
    <g id="Group_2014" data-name="Group 2014" transform="translate(31.864 42.023)">
      <path id="Path_995" data-name="Path 995" class="cls-1" d="M30.013,39.441c0-.113.113-.338.225-.338l4.169-1.69a.844.844,0,0,1,.563-.113h.563a.36.36,0,0,1,.338.338v2.253a.36.36,0,0,1-.338.338h-5.3a.36.36,0,0,1-.338-.338v-.451Z" transform="translate(-28.097 -37.3)"/>
      <path id="Path_996" data-name="Path 996" class="cls-1" d="M28.525,47.909h1.014V41.6H28.525a.242.242,0,0,0-.225.225v3.042C28.3,45.881,28.525,47.909,28.525,47.909Z" transform="translate(-28.3 -36.755)"/>
      <path id="Path_997" data-name="Path 997" class="cls-1" d="M28.838,52.583h.676V47.4H28.5Z" transform="translate(-28.275 -36.021)"/>
      <path id="Path_998" data-name="Path 998" class="cls-1" d="M30,40.863V68.916a.532.532,0,0,0,.563.563h3.718a.532.532,0,0,0,.563-.563l.9-28.053a.532.532,0,0,0-.563-.563H30.451A.515.515,0,0,0,30,40.863ZM31.014,42.1a.889.889,0,0,1,.9-.9h1.69a.889.889,0,0,1,.9.9v3.605c0,.451-.225.9-.563.9a2.021,2.021,0,0,1-1.127-.676l-1.239-1.69a3.257,3.257,0,0,1-.451-1.577V42.1Z" transform="translate(-28.085 -36.92)"/>
    </g>
  </g>
</svg>
