<svg id="Group_16517" data-name="Group 16517" xmlns="http://www.w3.org/2000/svg" viewBox="0 0 109.052 117.551">
  <defs>
    <style>
      .cls-1 {
        fill: #023b41;
      }
    </style>
  </defs>
  <path id="Path_17271" data-name="Path 17271" class="cls-1" d="M248.5,99.106a1.225,1.225,0,0,0-.6-.106v1.555a1.408,1.408,0,0,0,.6-.085c.128-.064.17-.234.17-.554v-.383A.473.473,0,0,0,248.5,99.106Z" transform="translate(-195.099 -77.914)"/>
  <path id="Path_17272" data-name="Path 17272" class="cls-1" d="M192.074,208.228c-.852-5.666-2.215-14.654-2.918-18.573a12.246,12.246,0,0,0-11.544-9.755H135.652c-7.54,0-11.374,7.54-11.949,10.692-.4,2.173-1.725,11.97-2.535,17.934a10.4,10.4,0,0,0-6.368,9.585v15.7a10.345,10.345,0,0,0,4.3,8.392v10.628a6.3,6.3,0,0,0,12.609,0v-8.6h50.373v8.6a6.3,6.3,0,0,0,12.609,0V242.5a10.424,10.424,0,0,0,4.686-8.69v-15.7A10.315,10.315,0,0,0,192.074,208.228ZM128.2,232.743a6.113,6.113,0,1,1,6.113-6.113A6.127,6.127,0,0,1,128.2,232.743Zm36.7-24.153c-2.577-.128-5.218-.213-7.774-.213a241.3,241.3,0,0,0-29.67,2.3v-18.53a6.5,6.5,0,0,1,6.5-6.5s13.482.767,23.174.767,23.174-.767,23.174-.767a6.5,6.5,0,0,1,6.5,6.5v18.53s-2.471-.362-6.262-.788a8.4,8.4,0,0,0-15.634-1.3Zm2.023.107a6.6,6.6,0,0,1,11.587.958C175.2,209.314,171.179,208.952,166.919,208.7Zm19.105,24.047a6.113,6.113,0,1,1,6.113-6.113A6.131,6.131,0,0,1,186.025,232.743Z" transform="translate(-90.348 -141.583)"/>
  <path id="Path_17273" data-name="Path 17273" class="cls-1" d="M16.89,10.1V0H10.5V10.1H0v6.39H10.5V117.55h6.39V16.486h23.3V30.309H84.877V16.486h24.175V10.1ZM55.506,23.6a1.015,1.015,0,0,1,.319.4,4.7,4.7,0,0,1,.064,1.044V26.9h-2.3V24.579a1.212,1.212,0,0,0-.128-.7,1.011,1.011,0,0,0-.639-.128V26.9H50.33V19.893H52.1A18.535,18.535,0,0,1,54.483,20a1.741,1.741,0,0,1,1.022.511,1.857,1.857,0,0,1,.383,1.3,1.579,1.579,0,0,1-.277,1.108,1.757,1.757,0,0,1-1.086.341A1.978,1.978,0,0,1,55.506,23.6Zm6.219,3.28h-4.3V19.893h4.153V21.3H59.915V22.62H61.47V23.94H59.915v1.534h1.832V26.88Zm6.858,0H66.411l-1.3-3.174V26.88H63.024V19.893h2.087L66.5,23.046V19.893h2.087V26.88Zm6.581-5.58H73.7v5.6H71.2V21.3h-1.47V19.893h5.431Z"/>
</svg>
