<svg xmlns="http://www.w3.org/2000/svg" viewBox="0 0 98.954 101.49">
  <defs>
    <style>
      .cls-1 {
        fill: #023b41;
      }
    </style>
  </defs>
  <g id="Group_16516" data-name="Group 16516" transform="translate(0 0.103)">
    <g id="Group_16516-2" data-name="Group 16516" transform="translate(0 -0.103)">
      <path id="Path_17270" data-name="Path 17270" class="cls-1" d="M46.914,3.165c-.225,1.126-.338,1.971-.394,2.478h.732A13.873,13.873,0,0,1,46.914,3.165ZM90.449,41.744C89.435,35.1,87.859,24.567,87.07,20,85.831,13.078,79.129,8.572,73.553,8.572H65.331L62.909,1.307S62.515-.1,61.67-.1H37.34C36.5-.158,36.1,1.307,36.1,1.307L33.679,8.572H24.386c-8.842,0-13.291,8.842-13.967,12.5C9.969,23.609,8.392,35.1,7.434,42.082A12.337,12.337,0,0,0,0,53.346v18.36a12.179,12.179,0,0,0,5.012,9.8v12.5a7.378,7.378,0,1,0,14.756,0V83.928H78.735V94.009a7.378,7.378,0,1,0,14.756,0V81.9a12.125,12.125,0,0,0,5.463-10.194V53.346A12.067,12.067,0,0,0,90.449,41.744ZM57.559,1.814h2.084V7.671H57.559Zm-6.589,0H53c.056.169.113.451.225.788a5.779,5.779,0,0,1,.225.788L53.9,1.814h1.746L54.912,4.4l1.126,3.267H54.067a12.43,12.43,0,0,1-.62-2.14,8.743,8.743,0,0,1-.225,1.183L53,7.671H50.969L51.7,4.4Zm-5.688,0h3.041L49.5,7.671h-2.14L47.252,6.6H46.52l-.113,1.07h-2.14Zm-6.477,0h4.562V3H42.127V7.671H40.043V3H38.8V1.814ZM15.657,70.467a7.153,7.153,0,1,1,7.153-7.153A7.163,7.163,0,0,1,15.657,70.467Zm45.337-28.16a7.668,7.668,0,0,1,6.477-3.548,7.777,7.777,0,0,1,7.1,4.618C70.681,43.04,65.95,42.645,60.994,42.307Zm6.477-5.688a9.767,9.767,0,0,0-8.842,5.576c-3.041-.169-6.083-.225-9.124-.225a281.956,281.956,0,0,0-34.749,2.7V22.933a7.572,7.572,0,0,1,7.6-7.6s15.769.9,27.146.9,27.146-.9,27.146-.9a7.572,7.572,0,0,1,7.6,7.6V44.617s-2.872-.451-7.322-.9A9.867,9.867,0,0,0,67.471,36.619ZM83.353,70.467a7.153,7.153,0,1,1,7.153-7.153A7.163,7.163,0,0,1,83.353,70.467Z" transform="translate(0 0.103)"/>
    </g>
  </g>
</svg>
