<svg xmlns="http://www.w3.org/2000/svg" viewBox="0 0 92.896 75.321">
  <defs>
    <style>
      .cls-1 {
        fill: #023b41;
      }
    </style>
  </defs>
  <g id="Group_16517" data-name="Group 16517" transform="translate(0 -0.049)">
    <g id="Group_16516" data-name="Group 16516" transform="translate(0 0.049)">
      <path id="Path_12972_1_" class="cls-1" d="M92.995,54.28a4.449,4.449,0,0,0-6.145-1.248c-.192,0-11.425,7.585-17.282,8.833-4.7,1.056-16.8-.192-20.738-.768A4.961,4.961,0,0,1,51.9,60.04a23.238,23.238,0,0,1,3.648.192,39.406,39.406,0,0,0,9.5-.288A4.589,4.589,0,0,0,68.7,56.776a5.18,5.18,0,0,0,.288-2.4v-.192a6.578,6.578,0,0,0-6.433-4.993h-.192l-12.385.48a21.132,21.132,0,0,1-8.065-1.536,21.872,21.872,0,0,0-11.905-1.248l-8.737,1.344A.615.615,0,0,0,20.7,49V67.337a.979.979,0,0,0,.48.768L44.7,76.938h0a7.309,7.309,0,0,0,2.016.288,1.9,1.9,0,0,0,1.056-.192l23.618-3.36h0a10.977,10.977,0,0,0,5.377-2.4L92.035,59.56h0a3.471,3.471,0,0,0,1.152-4.8A.564.564,0,0,0,92.995,54.28Z" transform="translate(-0.825 -1.905)"/>
      <path id="Path_12973_1_" class="cls-1" d="M89.668,9.891,81.6,1.73a5.91,5.91,0,0,0-8.353.1c-.192.192-.288.384-.48.48L63.458,14.4a5.711,5.711,0,0,0,.288,7.585l-2.88,2.592a1.183,1.183,0,0,0-.192,1.344l-2.784,2.784C57.7,28.9,57.7,28.9,57.7,29l-1.536,2.784-2.592,1.344a1.12,1.12,0,0,0-.576.576l-.768,2.3-3.072,1.536a.836.836,0,0,0-.576.768L48,42.15a1.935,1.935,0,0,0,.288,1.056,1.09,1.09,0,0,0,.768.288h.192l3.84-.576a1,1,0,0,0,.768-.576l1.536-3.072,2.4-.96a1.121,1.121,0,0,0,.576-.576l1.344-2.592L62.5,33.8c.192,0,.192-.192.288-.192l2.784-2.784a1.032,1.032,0,0,0,1.344-.192l2.592-2.592a6.713,6.713,0,0,0,3.936,1.536,6.2,6.2,0,0,0,3.648-1.248l12.1-9.313a5.9,5.9,0,0,0,2.3-4.32A5.882,5.882,0,0,0,89.668,9.891ZM85.444,15.46a1.883,1.883,0,0,1-2.4,0L76.035,8.451a1.7,1.7,0,0,1,2.4-2.4l7.009,7.009a1.543,1.543,0,0,1,.192,2.208.207.207,0,0,0-.192.192Z" transform="translate(-1.915 -0.049)"/>
      <path id="Path_12974_1_" class="cls-1" d="M13.441,43.9H2.4A2.257,2.257,0,0,0,0,46.012V73.279a2.257,2.257,0,0,0,2.4,2.112H13.441a2.257,2.257,0,0,0,2.4-2.112V45.916A2.182,2.182,0,0,0,13.441,43.9ZM7.969,70.11a3.36,3.36,0,1,1,0-6.721,3.4,3.4,0,0,1,3.36,3.36,3.216,3.216,0,0,1-3.072,3.36Z" transform="translate(0 -1.799)"/>
    </g>
  </g>
</svg>
